G75*
%MOIN*%
%OFA0B0*%
%FSLAX25Y25*%
%IPPOS*%
%LPD*%
%AMOC8*
5,1,8,0,0,1.08239X$1,22.5*
%
%ADD10C,0.00000*%
%ADD11C,0.00800*%
%ADD12C,0.02000*%
%ADD13R,0.15000X0.03200*%
D10*
X0001669Y0001591D02*
X0106591Y0001591D01*
X0106591Y0031591D01*
X0146591Y0031591D01*
X0146591Y0001591D01*
X0171591Y0001591D01*
X0171591Y0154091D01*
X0001669Y0154091D01*
X0001669Y0001591D01*
X0037792Y0011591D02*
X0037794Y0011749D01*
X0037800Y0011907D01*
X0037810Y0012065D01*
X0037824Y0012223D01*
X0037842Y0012380D01*
X0037863Y0012537D01*
X0037889Y0012693D01*
X0037919Y0012849D01*
X0037952Y0013004D01*
X0037990Y0013157D01*
X0038031Y0013310D01*
X0038076Y0013462D01*
X0038125Y0013613D01*
X0038178Y0013762D01*
X0038234Y0013910D01*
X0038294Y0014056D01*
X0038358Y0014201D01*
X0038426Y0014344D01*
X0038497Y0014486D01*
X0038571Y0014626D01*
X0038649Y0014763D01*
X0038731Y0014899D01*
X0038815Y0015033D01*
X0038904Y0015164D01*
X0038995Y0015293D01*
X0039090Y0015420D01*
X0039187Y0015545D01*
X0039288Y0015667D01*
X0039392Y0015786D01*
X0039499Y0015903D01*
X0039609Y0016017D01*
X0039722Y0016128D01*
X0039837Y0016237D01*
X0039955Y0016342D01*
X0040076Y0016444D01*
X0040199Y0016544D01*
X0040325Y0016640D01*
X0040453Y0016733D01*
X0040583Y0016823D01*
X0040716Y0016909D01*
X0040851Y0016993D01*
X0040987Y0017072D01*
X0041126Y0017149D01*
X0041267Y0017221D01*
X0041409Y0017291D01*
X0041553Y0017356D01*
X0041699Y0017418D01*
X0041846Y0017476D01*
X0041995Y0017531D01*
X0042145Y0017582D01*
X0042296Y0017629D01*
X0042448Y0017672D01*
X0042601Y0017711D01*
X0042756Y0017747D01*
X0042911Y0017778D01*
X0043067Y0017806D01*
X0043223Y0017830D01*
X0043380Y0017850D01*
X0043538Y0017866D01*
X0043695Y0017878D01*
X0043854Y0017886D01*
X0044012Y0017890D01*
X0044170Y0017890D01*
X0044328Y0017886D01*
X0044487Y0017878D01*
X0044644Y0017866D01*
X0044802Y0017850D01*
X0044959Y0017830D01*
X0045115Y0017806D01*
X0045271Y0017778D01*
X0045426Y0017747D01*
X0045581Y0017711D01*
X0045734Y0017672D01*
X0045886Y0017629D01*
X0046037Y0017582D01*
X0046187Y0017531D01*
X0046336Y0017476D01*
X0046483Y0017418D01*
X0046629Y0017356D01*
X0046773Y0017291D01*
X0046915Y0017221D01*
X0047056Y0017149D01*
X0047195Y0017072D01*
X0047331Y0016993D01*
X0047466Y0016909D01*
X0047599Y0016823D01*
X0047729Y0016733D01*
X0047857Y0016640D01*
X0047983Y0016544D01*
X0048106Y0016444D01*
X0048227Y0016342D01*
X0048345Y0016237D01*
X0048460Y0016128D01*
X0048573Y0016017D01*
X0048683Y0015903D01*
X0048790Y0015786D01*
X0048894Y0015667D01*
X0048995Y0015545D01*
X0049092Y0015420D01*
X0049187Y0015293D01*
X0049278Y0015164D01*
X0049367Y0015033D01*
X0049451Y0014899D01*
X0049533Y0014763D01*
X0049611Y0014626D01*
X0049685Y0014486D01*
X0049756Y0014344D01*
X0049824Y0014201D01*
X0049888Y0014056D01*
X0049948Y0013910D01*
X0050004Y0013762D01*
X0050057Y0013613D01*
X0050106Y0013462D01*
X0050151Y0013310D01*
X0050192Y0013157D01*
X0050230Y0013004D01*
X0050263Y0012849D01*
X0050293Y0012693D01*
X0050319Y0012537D01*
X0050340Y0012380D01*
X0050358Y0012223D01*
X0050372Y0012065D01*
X0050382Y0011907D01*
X0050388Y0011749D01*
X0050390Y0011591D01*
X0050388Y0011433D01*
X0050382Y0011275D01*
X0050372Y0011117D01*
X0050358Y0010959D01*
X0050340Y0010802D01*
X0050319Y0010645D01*
X0050293Y0010489D01*
X0050263Y0010333D01*
X0050230Y0010178D01*
X0050192Y0010025D01*
X0050151Y0009872D01*
X0050106Y0009720D01*
X0050057Y0009569D01*
X0050004Y0009420D01*
X0049948Y0009272D01*
X0049888Y0009126D01*
X0049824Y0008981D01*
X0049756Y0008838D01*
X0049685Y0008696D01*
X0049611Y0008556D01*
X0049533Y0008419D01*
X0049451Y0008283D01*
X0049367Y0008149D01*
X0049278Y0008018D01*
X0049187Y0007889D01*
X0049092Y0007762D01*
X0048995Y0007637D01*
X0048894Y0007515D01*
X0048790Y0007396D01*
X0048683Y0007279D01*
X0048573Y0007165D01*
X0048460Y0007054D01*
X0048345Y0006945D01*
X0048227Y0006840D01*
X0048106Y0006738D01*
X0047983Y0006638D01*
X0047857Y0006542D01*
X0047729Y0006449D01*
X0047599Y0006359D01*
X0047466Y0006273D01*
X0047331Y0006189D01*
X0047195Y0006110D01*
X0047056Y0006033D01*
X0046915Y0005961D01*
X0046773Y0005891D01*
X0046629Y0005826D01*
X0046483Y0005764D01*
X0046336Y0005706D01*
X0046187Y0005651D01*
X0046037Y0005600D01*
X0045886Y0005553D01*
X0045734Y0005510D01*
X0045581Y0005471D01*
X0045426Y0005435D01*
X0045271Y0005404D01*
X0045115Y0005376D01*
X0044959Y0005352D01*
X0044802Y0005332D01*
X0044644Y0005316D01*
X0044487Y0005304D01*
X0044328Y0005296D01*
X0044170Y0005292D01*
X0044012Y0005292D01*
X0043854Y0005296D01*
X0043695Y0005304D01*
X0043538Y0005316D01*
X0043380Y0005332D01*
X0043223Y0005352D01*
X0043067Y0005376D01*
X0042911Y0005404D01*
X0042756Y0005435D01*
X0042601Y0005471D01*
X0042448Y0005510D01*
X0042296Y0005553D01*
X0042145Y0005600D01*
X0041995Y0005651D01*
X0041846Y0005706D01*
X0041699Y0005764D01*
X0041553Y0005826D01*
X0041409Y0005891D01*
X0041267Y0005961D01*
X0041126Y0006033D01*
X0040987Y0006110D01*
X0040851Y0006189D01*
X0040716Y0006273D01*
X0040583Y0006359D01*
X0040453Y0006449D01*
X0040325Y0006542D01*
X0040199Y0006638D01*
X0040076Y0006738D01*
X0039955Y0006840D01*
X0039837Y0006945D01*
X0039722Y0007054D01*
X0039609Y0007165D01*
X0039499Y0007279D01*
X0039392Y0007396D01*
X0039288Y0007515D01*
X0039187Y0007637D01*
X0039090Y0007762D01*
X0038995Y0007889D01*
X0038904Y0008018D01*
X0038815Y0008149D01*
X0038731Y0008283D01*
X0038649Y0008419D01*
X0038571Y0008556D01*
X0038497Y0008696D01*
X0038426Y0008838D01*
X0038358Y0008981D01*
X0038294Y0009126D01*
X0038234Y0009272D01*
X0038178Y0009420D01*
X0038125Y0009569D01*
X0038076Y0009720D01*
X0038031Y0009872D01*
X0037990Y0010025D01*
X0037952Y0010178D01*
X0037919Y0010333D01*
X0037889Y0010489D01*
X0037863Y0010645D01*
X0037842Y0010802D01*
X0037824Y0010959D01*
X0037810Y0011117D01*
X0037800Y0011275D01*
X0037794Y0011433D01*
X0037792Y0011591D01*
X0150292Y0011591D02*
X0150294Y0011749D01*
X0150300Y0011907D01*
X0150310Y0012065D01*
X0150324Y0012223D01*
X0150342Y0012380D01*
X0150363Y0012537D01*
X0150389Y0012693D01*
X0150419Y0012849D01*
X0150452Y0013004D01*
X0150490Y0013157D01*
X0150531Y0013310D01*
X0150576Y0013462D01*
X0150625Y0013613D01*
X0150678Y0013762D01*
X0150734Y0013910D01*
X0150794Y0014056D01*
X0150858Y0014201D01*
X0150926Y0014344D01*
X0150997Y0014486D01*
X0151071Y0014626D01*
X0151149Y0014763D01*
X0151231Y0014899D01*
X0151315Y0015033D01*
X0151404Y0015164D01*
X0151495Y0015293D01*
X0151590Y0015420D01*
X0151687Y0015545D01*
X0151788Y0015667D01*
X0151892Y0015786D01*
X0151999Y0015903D01*
X0152109Y0016017D01*
X0152222Y0016128D01*
X0152337Y0016237D01*
X0152455Y0016342D01*
X0152576Y0016444D01*
X0152699Y0016544D01*
X0152825Y0016640D01*
X0152953Y0016733D01*
X0153083Y0016823D01*
X0153216Y0016909D01*
X0153351Y0016993D01*
X0153487Y0017072D01*
X0153626Y0017149D01*
X0153767Y0017221D01*
X0153909Y0017291D01*
X0154053Y0017356D01*
X0154199Y0017418D01*
X0154346Y0017476D01*
X0154495Y0017531D01*
X0154645Y0017582D01*
X0154796Y0017629D01*
X0154948Y0017672D01*
X0155101Y0017711D01*
X0155256Y0017747D01*
X0155411Y0017778D01*
X0155567Y0017806D01*
X0155723Y0017830D01*
X0155880Y0017850D01*
X0156038Y0017866D01*
X0156195Y0017878D01*
X0156354Y0017886D01*
X0156512Y0017890D01*
X0156670Y0017890D01*
X0156828Y0017886D01*
X0156987Y0017878D01*
X0157144Y0017866D01*
X0157302Y0017850D01*
X0157459Y0017830D01*
X0157615Y0017806D01*
X0157771Y0017778D01*
X0157926Y0017747D01*
X0158081Y0017711D01*
X0158234Y0017672D01*
X0158386Y0017629D01*
X0158537Y0017582D01*
X0158687Y0017531D01*
X0158836Y0017476D01*
X0158983Y0017418D01*
X0159129Y0017356D01*
X0159273Y0017291D01*
X0159415Y0017221D01*
X0159556Y0017149D01*
X0159695Y0017072D01*
X0159831Y0016993D01*
X0159966Y0016909D01*
X0160099Y0016823D01*
X0160229Y0016733D01*
X0160357Y0016640D01*
X0160483Y0016544D01*
X0160606Y0016444D01*
X0160727Y0016342D01*
X0160845Y0016237D01*
X0160960Y0016128D01*
X0161073Y0016017D01*
X0161183Y0015903D01*
X0161290Y0015786D01*
X0161394Y0015667D01*
X0161495Y0015545D01*
X0161592Y0015420D01*
X0161687Y0015293D01*
X0161778Y0015164D01*
X0161867Y0015033D01*
X0161951Y0014899D01*
X0162033Y0014763D01*
X0162111Y0014626D01*
X0162185Y0014486D01*
X0162256Y0014344D01*
X0162324Y0014201D01*
X0162388Y0014056D01*
X0162448Y0013910D01*
X0162504Y0013762D01*
X0162557Y0013613D01*
X0162606Y0013462D01*
X0162651Y0013310D01*
X0162692Y0013157D01*
X0162730Y0013004D01*
X0162763Y0012849D01*
X0162793Y0012693D01*
X0162819Y0012537D01*
X0162840Y0012380D01*
X0162858Y0012223D01*
X0162872Y0012065D01*
X0162882Y0011907D01*
X0162888Y0011749D01*
X0162890Y0011591D01*
X0162888Y0011433D01*
X0162882Y0011275D01*
X0162872Y0011117D01*
X0162858Y0010959D01*
X0162840Y0010802D01*
X0162819Y0010645D01*
X0162793Y0010489D01*
X0162763Y0010333D01*
X0162730Y0010178D01*
X0162692Y0010025D01*
X0162651Y0009872D01*
X0162606Y0009720D01*
X0162557Y0009569D01*
X0162504Y0009420D01*
X0162448Y0009272D01*
X0162388Y0009126D01*
X0162324Y0008981D01*
X0162256Y0008838D01*
X0162185Y0008696D01*
X0162111Y0008556D01*
X0162033Y0008419D01*
X0161951Y0008283D01*
X0161867Y0008149D01*
X0161778Y0008018D01*
X0161687Y0007889D01*
X0161592Y0007762D01*
X0161495Y0007637D01*
X0161394Y0007515D01*
X0161290Y0007396D01*
X0161183Y0007279D01*
X0161073Y0007165D01*
X0160960Y0007054D01*
X0160845Y0006945D01*
X0160727Y0006840D01*
X0160606Y0006738D01*
X0160483Y0006638D01*
X0160357Y0006542D01*
X0160229Y0006449D01*
X0160099Y0006359D01*
X0159966Y0006273D01*
X0159831Y0006189D01*
X0159695Y0006110D01*
X0159556Y0006033D01*
X0159415Y0005961D01*
X0159273Y0005891D01*
X0159129Y0005826D01*
X0158983Y0005764D01*
X0158836Y0005706D01*
X0158687Y0005651D01*
X0158537Y0005600D01*
X0158386Y0005553D01*
X0158234Y0005510D01*
X0158081Y0005471D01*
X0157926Y0005435D01*
X0157771Y0005404D01*
X0157615Y0005376D01*
X0157459Y0005352D01*
X0157302Y0005332D01*
X0157144Y0005316D01*
X0156987Y0005304D01*
X0156828Y0005296D01*
X0156670Y0005292D01*
X0156512Y0005292D01*
X0156354Y0005296D01*
X0156195Y0005304D01*
X0156038Y0005316D01*
X0155880Y0005332D01*
X0155723Y0005352D01*
X0155567Y0005376D01*
X0155411Y0005404D01*
X0155256Y0005435D01*
X0155101Y0005471D01*
X0154948Y0005510D01*
X0154796Y0005553D01*
X0154645Y0005600D01*
X0154495Y0005651D01*
X0154346Y0005706D01*
X0154199Y0005764D01*
X0154053Y0005826D01*
X0153909Y0005891D01*
X0153767Y0005961D01*
X0153626Y0006033D01*
X0153487Y0006110D01*
X0153351Y0006189D01*
X0153216Y0006273D01*
X0153083Y0006359D01*
X0152953Y0006449D01*
X0152825Y0006542D01*
X0152699Y0006638D01*
X0152576Y0006738D01*
X0152455Y0006840D01*
X0152337Y0006945D01*
X0152222Y0007054D01*
X0152109Y0007165D01*
X0151999Y0007279D01*
X0151892Y0007396D01*
X0151788Y0007515D01*
X0151687Y0007637D01*
X0151590Y0007762D01*
X0151495Y0007889D01*
X0151404Y0008018D01*
X0151315Y0008149D01*
X0151231Y0008283D01*
X0151149Y0008419D01*
X0151071Y0008556D01*
X0150997Y0008696D01*
X0150926Y0008838D01*
X0150858Y0008981D01*
X0150794Y0009126D01*
X0150734Y0009272D01*
X0150678Y0009420D01*
X0150625Y0009569D01*
X0150576Y0009720D01*
X0150531Y0009872D01*
X0150490Y0010025D01*
X0150452Y0010178D01*
X0150419Y0010333D01*
X0150389Y0010489D01*
X0150363Y0010645D01*
X0150342Y0010802D01*
X0150324Y0010959D01*
X0150310Y0011117D01*
X0150300Y0011275D01*
X0150294Y0011433D01*
X0150292Y0011591D01*
X0155292Y0101591D02*
X0155294Y0101749D01*
X0155300Y0101907D01*
X0155310Y0102065D01*
X0155324Y0102223D01*
X0155342Y0102380D01*
X0155363Y0102537D01*
X0155389Y0102693D01*
X0155419Y0102849D01*
X0155452Y0103004D01*
X0155490Y0103157D01*
X0155531Y0103310D01*
X0155576Y0103462D01*
X0155625Y0103613D01*
X0155678Y0103762D01*
X0155734Y0103910D01*
X0155794Y0104056D01*
X0155858Y0104201D01*
X0155926Y0104344D01*
X0155997Y0104486D01*
X0156071Y0104626D01*
X0156149Y0104763D01*
X0156231Y0104899D01*
X0156315Y0105033D01*
X0156404Y0105164D01*
X0156495Y0105293D01*
X0156590Y0105420D01*
X0156687Y0105545D01*
X0156788Y0105667D01*
X0156892Y0105786D01*
X0156999Y0105903D01*
X0157109Y0106017D01*
X0157222Y0106128D01*
X0157337Y0106237D01*
X0157455Y0106342D01*
X0157576Y0106444D01*
X0157699Y0106544D01*
X0157825Y0106640D01*
X0157953Y0106733D01*
X0158083Y0106823D01*
X0158216Y0106909D01*
X0158351Y0106993D01*
X0158487Y0107072D01*
X0158626Y0107149D01*
X0158767Y0107221D01*
X0158909Y0107291D01*
X0159053Y0107356D01*
X0159199Y0107418D01*
X0159346Y0107476D01*
X0159495Y0107531D01*
X0159645Y0107582D01*
X0159796Y0107629D01*
X0159948Y0107672D01*
X0160101Y0107711D01*
X0160256Y0107747D01*
X0160411Y0107778D01*
X0160567Y0107806D01*
X0160723Y0107830D01*
X0160880Y0107850D01*
X0161038Y0107866D01*
X0161195Y0107878D01*
X0161354Y0107886D01*
X0161512Y0107890D01*
X0161670Y0107890D01*
X0161828Y0107886D01*
X0161987Y0107878D01*
X0162144Y0107866D01*
X0162302Y0107850D01*
X0162459Y0107830D01*
X0162615Y0107806D01*
X0162771Y0107778D01*
X0162926Y0107747D01*
X0163081Y0107711D01*
X0163234Y0107672D01*
X0163386Y0107629D01*
X0163537Y0107582D01*
X0163687Y0107531D01*
X0163836Y0107476D01*
X0163983Y0107418D01*
X0164129Y0107356D01*
X0164273Y0107291D01*
X0164415Y0107221D01*
X0164556Y0107149D01*
X0164695Y0107072D01*
X0164831Y0106993D01*
X0164966Y0106909D01*
X0165099Y0106823D01*
X0165229Y0106733D01*
X0165357Y0106640D01*
X0165483Y0106544D01*
X0165606Y0106444D01*
X0165727Y0106342D01*
X0165845Y0106237D01*
X0165960Y0106128D01*
X0166073Y0106017D01*
X0166183Y0105903D01*
X0166290Y0105786D01*
X0166394Y0105667D01*
X0166495Y0105545D01*
X0166592Y0105420D01*
X0166687Y0105293D01*
X0166778Y0105164D01*
X0166867Y0105033D01*
X0166951Y0104899D01*
X0167033Y0104763D01*
X0167111Y0104626D01*
X0167185Y0104486D01*
X0167256Y0104344D01*
X0167324Y0104201D01*
X0167388Y0104056D01*
X0167448Y0103910D01*
X0167504Y0103762D01*
X0167557Y0103613D01*
X0167606Y0103462D01*
X0167651Y0103310D01*
X0167692Y0103157D01*
X0167730Y0103004D01*
X0167763Y0102849D01*
X0167793Y0102693D01*
X0167819Y0102537D01*
X0167840Y0102380D01*
X0167858Y0102223D01*
X0167872Y0102065D01*
X0167882Y0101907D01*
X0167888Y0101749D01*
X0167890Y0101591D01*
X0167888Y0101433D01*
X0167882Y0101275D01*
X0167872Y0101117D01*
X0167858Y0100959D01*
X0167840Y0100802D01*
X0167819Y0100645D01*
X0167793Y0100489D01*
X0167763Y0100333D01*
X0167730Y0100178D01*
X0167692Y0100025D01*
X0167651Y0099872D01*
X0167606Y0099720D01*
X0167557Y0099569D01*
X0167504Y0099420D01*
X0167448Y0099272D01*
X0167388Y0099126D01*
X0167324Y0098981D01*
X0167256Y0098838D01*
X0167185Y0098696D01*
X0167111Y0098556D01*
X0167033Y0098419D01*
X0166951Y0098283D01*
X0166867Y0098149D01*
X0166778Y0098018D01*
X0166687Y0097889D01*
X0166592Y0097762D01*
X0166495Y0097637D01*
X0166394Y0097515D01*
X0166290Y0097396D01*
X0166183Y0097279D01*
X0166073Y0097165D01*
X0165960Y0097054D01*
X0165845Y0096945D01*
X0165727Y0096840D01*
X0165606Y0096738D01*
X0165483Y0096638D01*
X0165357Y0096542D01*
X0165229Y0096449D01*
X0165099Y0096359D01*
X0164966Y0096273D01*
X0164831Y0096189D01*
X0164695Y0096110D01*
X0164556Y0096033D01*
X0164415Y0095961D01*
X0164273Y0095891D01*
X0164129Y0095826D01*
X0163983Y0095764D01*
X0163836Y0095706D01*
X0163687Y0095651D01*
X0163537Y0095600D01*
X0163386Y0095553D01*
X0163234Y0095510D01*
X0163081Y0095471D01*
X0162926Y0095435D01*
X0162771Y0095404D01*
X0162615Y0095376D01*
X0162459Y0095352D01*
X0162302Y0095332D01*
X0162144Y0095316D01*
X0161987Y0095304D01*
X0161828Y0095296D01*
X0161670Y0095292D01*
X0161512Y0095292D01*
X0161354Y0095296D01*
X0161195Y0095304D01*
X0161038Y0095316D01*
X0160880Y0095332D01*
X0160723Y0095352D01*
X0160567Y0095376D01*
X0160411Y0095404D01*
X0160256Y0095435D01*
X0160101Y0095471D01*
X0159948Y0095510D01*
X0159796Y0095553D01*
X0159645Y0095600D01*
X0159495Y0095651D01*
X0159346Y0095706D01*
X0159199Y0095764D01*
X0159053Y0095826D01*
X0158909Y0095891D01*
X0158767Y0095961D01*
X0158626Y0096033D01*
X0158487Y0096110D01*
X0158351Y0096189D01*
X0158216Y0096273D01*
X0158083Y0096359D01*
X0157953Y0096449D01*
X0157825Y0096542D01*
X0157699Y0096638D01*
X0157576Y0096738D01*
X0157455Y0096840D01*
X0157337Y0096945D01*
X0157222Y0097054D01*
X0157109Y0097165D01*
X0156999Y0097279D01*
X0156892Y0097396D01*
X0156788Y0097515D01*
X0156687Y0097637D01*
X0156590Y0097762D01*
X0156495Y0097889D01*
X0156404Y0098018D01*
X0156315Y0098149D01*
X0156231Y0098283D01*
X0156149Y0098419D01*
X0156071Y0098556D01*
X0155997Y0098696D01*
X0155926Y0098838D01*
X0155858Y0098981D01*
X0155794Y0099126D01*
X0155734Y0099272D01*
X0155678Y0099420D01*
X0155625Y0099569D01*
X0155576Y0099720D01*
X0155531Y0099872D01*
X0155490Y0100025D01*
X0155452Y0100178D01*
X0155419Y0100333D01*
X0155389Y0100489D01*
X0155363Y0100645D01*
X0155342Y0100802D01*
X0155324Y0100959D01*
X0155310Y0101117D01*
X0155300Y0101275D01*
X0155294Y0101433D01*
X0155292Y0101591D01*
D11*
X0154091Y0106591D02*
X0149091Y0106591D01*
X0146591Y0109091D01*
X0144091Y0106591D01*
X0139091Y0106591D01*
X0136591Y0109091D01*
X0134091Y0106591D01*
X0129091Y0106591D01*
X0126591Y0109091D01*
X0126591Y0114091D01*
X0129091Y0116591D01*
X0134091Y0116591D01*
X0136591Y0114091D01*
X0139091Y0116591D01*
X0144091Y0116591D01*
X0146591Y0114091D01*
X0149091Y0116591D01*
X0154091Y0116591D01*
X0156591Y0114091D01*
X0156591Y0109091D01*
X0154091Y0106591D01*
X0154091Y0096591D02*
X0149091Y0096591D01*
X0146591Y0094091D01*
X0144091Y0096591D01*
X0139091Y0096591D01*
X0136591Y0094091D01*
X0134091Y0096591D01*
X0129091Y0096591D01*
X0126591Y0094091D01*
X0126591Y0089091D01*
X0129091Y0086591D01*
X0134091Y0086591D01*
X0136591Y0089091D01*
X0139091Y0086591D01*
X0144091Y0086591D01*
X0146591Y0089091D01*
X0149091Y0086591D01*
X0154091Y0086591D01*
X0156591Y0089091D01*
X0156591Y0094091D01*
X0154091Y0096591D01*
X0154091Y0076591D02*
X0149091Y0076591D01*
X0146591Y0074091D01*
X0144091Y0076591D01*
X0139091Y0076591D01*
X0136591Y0074091D01*
X0134091Y0076591D01*
X0129091Y0076591D01*
X0126591Y0074091D01*
X0126591Y0069091D01*
X0129091Y0066591D01*
X0134091Y0066591D01*
X0136591Y0069091D01*
X0139091Y0066591D01*
X0144091Y0066591D01*
X0146591Y0069091D01*
X0149091Y0066591D01*
X0154091Y0066591D01*
X0156591Y0069091D01*
X0156591Y0074091D01*
X0154091Y0076591D01*
X0154091Y0061591D02*
X0149091Y0061591D01*
X0146591Y0059091D01*
X0144091Y0061591D01*
X0139091Y0061591D01*
X0136591Y0059091D01*
X0134091Y0061591D01*
X0129091Y0061591D01*
X0126591Y0059091D01*
X0126591Y0054091D01*
X0129091Y0051591D01*
X0134091Y0051591D01*
X0136591Y0054091D01*
X0139091Y0051591D01*
X0144091Y0051591D01*
X0146591Y0054091D01*
X0149091Y0051591D01*
X0154091Y0051591D01*
X0156591Y0054091D01*
X0156591Y0059091D01*
X0154091Y0061591D01*
X0154091Y0046591D02*
X0149091Y0046591D01*
X0146591Y0044091D01*
X0144091Y0046591D01*
X0139091Y0046591D01*
X0136591Y0044091D01*
X0134091Y0046591D01*
X0129091Y0046591D01*
X0126591Y0044091D01*
X0126591Y0039091D01*
X0129091Y0036591D01*
X0134091Y0036591D01*
X0136591Y0039091D01*
X0139091Y0036591D01*
X0144091Y0036591D01*
X0146591Y0039091D01*
X0149091Y0036591D01*
X0154091Y0036591D01*
X0156591Y0039091D01*
X0156591Y0044091D01*
X0154091Y0046591D01*
X0129091Y0131591D02*
X0124091Y0131591D01*
X0121591Y0134091D01*
X0119091Y0131591D01*
X0114091Y0131591D01*
X0111591Y0134091D01*
X0111591Y0139091D01*
X0114091Y0141591D01*
X0119091Y0141591D01*
X0121591Y0139091D01*
X0124091Y0141591D01*
X0129091Y0141591D01*
X0131591Y0139091D01*
X0131591Y0134091D01*
X0129091Y0131591D01*
X0031591Y0124091D02*
X0031591Y0119091D01*
X0029091Y0116591D01*
X0031591Y0114091D01*
X0031591Y0109091D01*
X0029091Y0106591D01*
X0031591Y0104091D01*
X0031591Y0099091D01*
X0029091Y0096591D01*
X0031591Y0094091D01*
X0031591Y0089091D01*
X0029091Y0086591D01*
X0031591Y0084091D01*
X0031591Y0079091D01*
X0029091Y0076591D01*
X0031591Y0074091D01*
X0031591Y0069091D01*
X0029091Y0066591D01*
X0031591Y0064091D01*
X0031591Y0059091D01*
X0029091Y0056591D01*
X0031591Y0054091D01*
X0031591Y0049091D01*
X0029091Y0046591D01*
X0031591Y0044091D01*
X0031591Y0039091D01*
X0029091Y0036591D01*
X0031591Y0034091D01*
X0031591Y0029091D01*
X0029091Y0026591D01*
X0031591Y0024091D01*
X0031591Y0019091D01*
X0029091Y0016591D01*
X0024091Y0016591D01*
X0021591Y0019091D01*
X0021591Y0024091D01*
X0024091Y0026591D01*
X0021591Y0029091D01*
X0021591Y0034091D01*
X0024091Y0036591D01*
X0021591Y0039091D01*
X0021591Y0044091D01*
X0024091Y0046591D01*
X0021591Y0049091D01*
X0021591Y0054091D01*
X0024091Y0056591D01*
X0021591Y0059091D01*
X0021591Y0064091D01*
X0024091Y0066591D01*
X0021591Y0069091D01*
X0021591Y0074091D01*
X0024091Y0076591D01*
X0021591Y0079091D01*
X0021591Y0084091D01*
X0024091Y0086591D01*
X0021591Y0089091D01*
X0021591Y0094091D01*
X0024091Y0096591D01*
X0021591Y0099091D01*
X0021591Y0104091D01*
X0024091Y0106591D01*
X0021591Y0109091D01*
X0021591Y0114091D01*
X0024091Y0116591D01*
X0021591Y0119091D01*
X0021591Y0124091D01*
X0024091Y0126591D01*
X0029091Y0126591D01*
X0031591Y0124091D01*
D12*
X0012091Y0071591D02*
X0011091Y0071591D01*
X0011091Y0061591D02*
X0012091Y0061591D01*
X0012091Y0051591D02*
X0011091Y0051591D01*
X0011091Y0041591D02*
X0012091Y0041591D01*
X0012091Y0031591D02*
X0011091Y0031591D01*
X0011091Y0021591D02*
X0012091Y0021591D01*
D13*
X0114091Y0146591D03*
M02*
