G75*
%MOIN*%
%OFA0B0*%
%FSLAX25Y25*%
%IPPOS*%
%LPD*%
%AMOC8*
5,1,8,0,0,1.08239X$1,22.5*
%
%ADD10C,0.00300*%
%ADD11C,0.07000*%
%ADD12C,0.00500*%
%ADD13OC8,0.05200*%
%ADD14OC8,0.06000*%
%ADD15C,0.01181*%
D10*
X0031874Y0019741D02*
X0031874Y0022209D01*
X0033109Y0023444D01*
X0034343Y0022209D01*
X0034343Y0019741D01*
X0035557Y0020358D02*
X0036175Y0019741D01*
X0037409Y0019741D01*
X0038026Y0020358D01*
X0038026Y0021592D01*
X0037409Y0022209D01*
X0036792Y0022209D01*
X0035557Y0021592D01*
X0035557Y0023444D01*
X0038026Y0023444D01*
X0034343Y0021592D02*
X0031874Y0021592D01*
X0031874Y0029741D02*
X0031874Y0032209D01*
X0033109Y0033444D01*
X0034343Y0032209D01*
X0034343Y0029741D01*
X0034343Y0031592D02*
X0031874Y0031592D01*
X0035557Y0031592D02*
X0038026Y0031592D01*
X0037409Y0029741D02*
X0037409Y0033444D01*
X0035557Y0031592D01*
X0036175Y0039741D02*
X0035557Y0040358D01*
X0036175Y0039741D02*
X0037409Y0039741D01*
X0038026Y0040358D01*
X0038026Y0040975D01*
X0037409Y0041592D01*
X0036792Y0041592D01*
X0037409Y0041592D02*
X0038026Y0042209D01*
X0038026Y0042827D01*
X0037409Y0043444D01*
X0036175Y0043444D01*
X0035557Y0042827D01*
X0034343Y0042209D02*
X0034343Y0039741D01*
X0034343Y0041592D02*
X0031874Y0041592D01*
X0031874Y0042209D02*
X0031874Y0039741D01*
X0031874Y0042209D02*
X0033109Y0043444D01*
X0034343Y0042209D01*
X0034343Y0049741D02*
X0034343Y0052209D01*
X0033109Y0053444D01*
X0031874Y0052209D01*
X0031874Y0049741D01*
X0031874Y0051592D02*
X0034343Y0051592D01*
X0035557Y0052827D02*
X0036175Y0053444D01*
X0037409Y0053444D01*
X0038026Y0052827D01*
X0038026Y0052209D01*
X0035557Y0049741D01*
X0038026Y0049741D01*
X0038026Y0059741D02*
X0035557Y0059741D01*
X0034343Y0059741D02*
X0034343Y0062209D01*
X0033109Y0063444D01*
X0031874Y0062209D01*
X0031874Y0059741D01*
X0031874Y0061592D02*
X0034343Y0061592D01*
X0035557Y0062209D02*
X0036792Y0063444D01*
X0036792Y0059741D01*
X0037409Y0069741D02*
X0036175Y0069741D01*
X0035557Y0070358D01*
X0038026Y0072827D01*
X0038026Y0070358D01*
X0037409Y0069741D01*
X0035557Y0070358D02*
X0035557Y0072827D01*
X0036175Y0073444D01*
X0037409Y0073444D01*
X0038026Y0072827D01*
X0034343Y0072209D02*
X0034343Y0069741D01*
X0034343Y0071592D02*
X0031874Y0071592D01*
X0031874Y0072209D02*
X0031874Y0069741D01*
X0031874Y0072209D02*
X0033109Y0073444D01*
X0034343Y0072209D01*
X0035424Y0089741D02*
X0036658Y0089741D01*
X0036041Y0089741D02*
X0036041Y0093444D01*
X0035424Y0093444D02*
X0036658Y0093444D01*
X0037879Y0093444D02*
X0040348Y0089741D01*
X0040348Y0093444D01*
X0037879Y0093444D02*
X0037879Y0089741D01*
X0034209Y0090975D02*
X0032975Y0089741D01*
X0031741Y0090975D01*
X0031741Y0093444D01*
X0034209Y0093444D02*
X0034209Y0090975D01*
X0033592Y0099741D02*
X0032358Y0099741D01*
X0031741Y0100358D01*
X0031741Y0102827D01*
X0032358Y0103444D01*
X0033592Y0103444D01*
X0034209Y0102827D01*
X0034209Y0101592D02*
X0032975Y0101592D01*
X0034209Y0101592D02*
X0034209Y0100358D01*
X0033592Y0099741D01*
X0035424Y0099741D02*
X0035424Y0103444D01*
X0037892Y0099741D01*
X0037892Y0103444D01*
X0039107Y0103444D02*
X0040958Y0103444D01*
X0041576Y0102827D01*
X0041576Y0100358D01*
X0040958Y0099741D01*
X0039107Y0099741D01*
X0039107Y0103444D01*
X0039107Y0109741D02*
X0040958Y0109741D01*
X0041576Y0110358D01*
X0041576Y0112827D01*
X0040958Y0113444D01*
X0039107Y0113444D01*
X0039107Y0109741D01*
X0037892Y0109741D02*
X0037892Y0113444D01*
X0035424Y0113444D02*
X0037892Y0109741D01*
X0035424Y0109741D02*
X0035424Y0113444D01*
X0034209Y0112827D02*
X0033592Y0113444D01*
X0032358Y0113444D01*
X0031741Y0112827D01*
X0031741Y0110358D01*
X0032358Y0109741D01*
X0033592Y0109741D01*
X0034209Y0110358D01*
X0034209Y0111592D01*
X0032975Y0111592D01*
X0032975Y0124741D02*
X0031741Y0125975D01*
X0031741Y0128444D01*
X0034209Y0128444D02*
X0034209Y0125975D01*
X0032975Y0124741D01*
X0035424Y0125358D02*
X0036041Y0124741D01*
X0037275Y0124741D01*
X0037892Y0125358D01*
X0039107Y0125358D02*
X0039724Y0124741D01*
X0040958Y0124741D01*
X0041576Y0125358D01*
X0041576Y0127827D02*
X0040958Y0128444D01*
X0039724Y0128444D01*
X0039107Y0127827D01*
X0039107Y0125358D01*
X0037892Y0127827D02*
X0037275Y0128444D01*
X0036041Y0128444D01*
X0035424Y0127827D01*
X0035424Y0125358D01*
X0109241Y0127358D02*
X0109858Y0126741D01*
X0111092Y0126741D01*
X0111709Y0127358D01*
X0111709Y0128592D01*
X0110475Y0128592D01*
X0109241Y0129827D02*
X0109241Y0127358D01*
X0109241Y0129827D02*
X0109858Y0130444D01*
X0111092Y0130444D01*
X0111709Y0129827D01*
X0112924Y0130444D02*
X0115392Y0126741D01*
X0115392Y0130444D01*
X0116607Y0130444D02*
X0118458Y0130444D01*
X0119076Y0129827D01*
X0119076Y0127358D01*
X0118458Y0126741D01*
X0116607Y0126741D01*
X0116607Y0130444D01*
X0112924Y0130444D02*
X0112924Y0126741D01*
X0124241Y0126741D02*
X0125475Y0126741D01*
X0124858Y0126741D02*
X0124858Y0130444D01*
X0124241Y0130444D02*
X0125475Y0130444D01*
X0126696Y0130444D02*
X0129165Y0126741D01*
X0129165Y0130444D01*
X0126696Y0130444D02*
X0126696Y0126741D01*
X0124288Y0103444D02*
X0124288Y0099741D01*
X0123671Y0099741D02*
X0124906Y0099741D01*
X0126127Y0100358D02*
X0126744Y0099741D01*
X0128595Y0099741D01*
X0128595Y0102209D01*
X0129810Y0101592D02*
X0130427Y0102209D01*
X0131661Y0102209D01*
X0132279Y0101592D01*
X0132279Y0100975D01*
X0129810Y0100975D01*
X0129810Y0100358D02*
X0129810Y0101592D01*
X0129810Y0100358D02*
X0130427Y0099741D01*
X0131661Y0099741D01*
X0136216Y0099741D02*
X0136216Y0103444D01*
X0138067Y0103444D01*
X0138685Y0102827D01*
X0138685Y0101592D01*
X0138067Y0100975D01*
X0136216Y0100975D01*
X0137450Y0100975D02*
X0138685Y0099741D01*
X0139899Y0100358D02*
X0139899Y0101592D01*
X0140516Y0102209D01*
X0141751Y0102209D01*
X0142368Y0101592D01*
X0142368Y0100975D01*
X0139899Y0100975D01*
X0139899Y0100358D02*
X0140516Y0099741D01*
X0141751Y0099741D01*
X0143582Y0100358D02*
X0143582Y0101592D01*
X0144199Y0102209D01*
X0146051Y0102209D01*
X0146051Y0103444D02*
X0146051Y0099741D01*
X0144199Y0099741D01*
X0143582Y0100358D01*
X0149241Y0099741D02*
X0151092Y0099741D01*
X0151709Y0100358D01*
X0151709Y0100975D01*
X0151092Y0101592D01*
X0149241Y0101592D01*
X0151092Y0101592D02*
X0151709Y0102209D01*
X0151709Y0102827D01*
X0151092Y0103444D01*
X0149241Y0103444D01*
X0149241Y0099741D01*
X0152924Y0099741D02*
X0154158Y0099741D01*
X0153541Y0099741D02*
X0153541Y0103444D01*
X0152924Y0103444D01*
X0152924Y0083444D02*
X0153541Y0083444D01*
X0153541Y0079741D01*
X0152924Y0079741D02*
X0154158Y0079741D01*
X0155379Y0080358D02*
X0155996Y0080975D01*
X0157848Y0080975D01*
X0157848Y0081592D02*
X0157848Y0079741D01*
X0155996Y0079741D01*
X0155379Y0080358D01*
X0155996Y0082209D02*
X0157231Y0082209D01*
X0157848Y0081592D01*
X0159062Y0081592D02*
X0159062Y0080358D01*
X0159679Y0079741D01*
X0161531Y0079741D01*
X0162745Y0079741D02*
X0162745Y0083444D01*
X0161531Y0082209D02*
X0159679Y0082209D01*
X0159062Y0081592D01*
X0162745Y0080975D02*
X0164597Y0082209D01*
X0162745Y0080975D02*
X0164597Y0079741D01*
X0151709Y0080358D02*
X0151092Y0079741D01*
X0149241Y0079741D01*
X0149241Y0083444D01*
X0151092Y0083444D01*
X0151709Y0082827D01*
X0151709Y0082209D01*
X0151092Y0081592D01*
X0149241Y0081592D01*
X0151092Y0081592D02*
X0151709Y0080975D01*
X0151709Y0080358D01*
X0146051Y0079741D02*
X0144199Y0079741D01*
X0143582Y0080358D01*
X0143582Y0081592D01*
X0144199Y0082209D01*
X0146051Y0082209D01*
X0146051Y0083444D02*
X0146051Y0079741D01*
X0142368Y0080975D02*
X0139899Y0080975D01*
X0139899Y0081592D02*
X0140516Y0082209D01*
X0141751Y0082209D01*
X0142368Y0081592D01*
X0142368Y0080975D01*
X0141751Y0079741D02*
X0140516Y0079741D01*
X0139899Y0080358D01*
X0139899Y0081592D01*
X0138685Y0081592D02*
X0138067Y0080975D01*
X0136216Y0080975D01*
X0137450Y0080975D02*
X0138685Y0079741D01*
X0138685Y0081592D02*
X0138685Y0082827D01*
X0138067Y0083444D01*
X0136216Y0083444D01*
X0136216Y0079741D01*
X0132279Y0080975D02*
X0129810Y0080975D01*
X0129810Y0081592D02*
X0130427Y0082209D01*
X0131661Y0082209D01*
X0132279Y0081592D01*
X0132279Y0080975D01*
X0131661Y0079741D02*
X0130427Y0079741D01*
X0129810Y0080358D01*
X0129810Y0081592D01*
X0128595Y0082209D02*
X0128595Y0079741D01*
X0126744Y0079741D01*
X0126127Y0080358D01*
X0126127Y0082209D01*
X0124288Y0083444D02*
X0124288Y0079741D01*
X0123671Y0079741D02*
X0124906Y0079741D01*
X0122457Y0080358D02*
X0121840Y0079741D01*
X0119988Y0079741D01*
X0119988Y0083444D01*
X0121840Y0083444D01*
X0122457Y0082827D01*
X0122457Y0082209D01*
X0121840Y0081592D01*
X0119988Y0081592D01*
X0121840Y0081592D02*
X0122457Y0080975D01*
X0122457Y0080358D01*
X0123671Y0083444D02*
X0124288Y0083444D01*
X0121840Y0099741D02*
X0119988Y0099741D01*
X0119988Y0103444D01*
X0121840Y0103444D01*
X0122457Y0102827D01*
X0122457Y0102209D01*
X0121840Y0101592D01*
X0119988Y0101592D01*
X0121840Y0101592D02*
X0122457Y0100975D01*
X0122457Y0100358D01*
X0121840Y0099741D01*
X0123671Y0103444D02*
X0124288Y0103444D01*
X0126127Y0102209D02*
X0126127Y0100358D01*
X0128026Y0050944D02*
X0128026Y0047241D01*
X0126175Y0047241D01*
X0125557Y0047858D01*
X0125557Y0049092D01*
X0126175Y0049709D01*
X0128026Y0049709D01*
X0124343Y0049092D02*
X0124343Y0048475D01*
X0121874Y0048475D01*
X0121874Y0049092D02*
X0122491Y0049709D01*
X0123726Y0049709D01*
X0124343Y0049092D01*
X0123726Y0047241D02*
X0122491Y0047241D01*
X0121874Y0047858D01*
X0121874Y0049092D01*
X0120660Y0049092D02*
X0120660Y0050327D01*
X0120043Y0050944D01*
X0118191Y0050944D01*
X0118191Y0047241D01*
X0118191Y0048475D02*
X0120043Y0048475D01*
X0120660Y0049092D01*
X0119426Y0048475D02*
X0120660Y0047241D01*
X0135736Y0047241D02*
X0137587Y0047241D01*
X0138204Y0047858D01*
X0138204Y0048475D01*
X0137587Y0049092D01*
X0135736Y0049092D01*
X0137587Y0049092D02*
X0138204Y0049709D01*
X0138204Y0050327D01*
X0137587Y0050944D01*
X0135736Y0050944D01*
X0135736Y0047241D01*
X0139419Y0047241D02*
X0140653Y0047241D01*
X0140036Y0047241D02*
X0140036Y0050944D01*
X0139419Y0050944D01*
X0141874Y0049709D02*
X0141874Y0047858D01*
X0142491Y0047241D01*
X0144343Y0047241D01*
X0144343Y0049709D01*
X0145557Y0049092D02*
X0145557Y0047858D01*
X0146175Y0047241D01*
X0147409Y0047241D01*
X0148026Y0048475D02*
X0145557Y0048475D01*
X0145557Y0049092D02*
X0146175Y0049709D01*
X0147409Y0049709D01*
X0148026Y0049092D01*
X0148026Y0048475D01*
X0150166Y0049092D02*
X0152018Y0049092D01*
X0152635Y0048475D01*
X0152635Y0047858D01*
X0152018Y0047241D01*
X0150166Y0047241D01*
X0150166Y0050944D01*
X0152018Y0050944D01*
X0152635Y0050327D01*
X0152635Y0049709D01*
X0152018Y0049092D01*
X0153850Y0047241D02*
X0155084Y0047241D01*
X0154467Y0047241D02*
X0154467Y0050944D01*
X0153850Y0050944D01*
X0156922Y0049709D02*
X0158157Y0049709D01*
X0158774Y0049092D01*
X0158774Y0047241D01*
X0156922Y0047241D01*
X0156305Y0047858D01*
X0156922Y0048475D01*
X0158774Y0048475D01*
X0159988Y0049092D02*
X0159988Y0047858D01*
X0160605Y0047241D01*
X0162457Y0047241D01*
X0163671Y0047241D02*
X0163671Y0050944D01*
X0162457Y0049709D02*
X0160605Y0049709D01*
X0159988Y0049092D01*
X0163671Y0048475D02*
X0165523Y0049709D01*
X0163671Y0048475D02*
X0165523Y0047241D01*
D11*
X0151591Y0041591D03*
X0141591Y0041591D03*
X0131591Y0041591D03*
X0131591Y0056591D03*
X0141591Y0056591D03*
X0151591Y0056591D03*
X0151591Y0071591D03*
X0141591Y0071591D03*
X0131591Y0071591D03*
X0131591Y0091591D03*
X0141591Y0091591D03*
X0151591Y0091591D03*
X0151591Y0111591D03*
X0141591Y0111591D03*
X0131591Y0111591D03*
X0126591Y0136591D03*
X0116591Y0136591D03*
X0026591Y0121591D03*
X0026591Y0111591D03*
X0026591Y0101591D03*
X0026591Y0091591D03*
X0026591Y0081591D03*
X0026591Y0071591D03*
X0026591Y0061591D03*
X0026591Y0051591D03*
X0026591Y0041591D03*
X0026591Y0031591D03*
X0026591Y0021591D03*
D12*
X0017400Y0013243D02*
X0015148Y0011742D01*
X0017400Y0010241D01*
X0015148Y0010241D02*
X0015148Y0014744D01*
X0013547Y0013994D02*
X0010544Y0010991D01*
X0011295Y0010241D01*
X0012796Y0010241D01*
X0013547Y0010991D01*
X0013547Y0013994D01*
X0012796Y0014744D01*
X0011295Y0014744D01*
X0010544Y0013994D01*
X0010544Y0010991D01*
X0008943Y0010241D02*
X0005941Y0010241D01*
X0007442Y0010241D02*
X0007442Y0014744D01*
X0005941Y0013243D01*
X0005941Y0077741D02*
X0008943Y0077741D01*
X0007442Y0077741D02*
X0007442Y0082244D01*
X0005941Y0080743D01*
X0010544Y0081494D02*
X0010544Y0078491D01*
X0013547Y0081494D01*
X0013547Y0078491D01*
X0012796Y0077741D01*
X0011295Y0077741D01*
X0010544Y0078491D01*
X0010544Y0081494D02*
X0011295Y0082244D01*
X0012796Y0082244D01*
X0013547Y0081494D01*
X0015148Y0082244D02*
X0015148Y0077741D01*
X0015148Y0079242D02*
X0017400Y0080743D01*
X0015148Y0079242D02*
X0017400Y0077741D01*
X0063601Y0134641D02*
X0065853Y0134641D01*
X0066604Y0135391D01*
X0066604Y0138394D01*
X0065853Y0139144D01*
X0063601Y0139144D01*
X0063601Y0134641D01*
X0068205Y0135391D02*
X0068956Y0134641D01*
X0070457Y0134641D01*
X0071208Y0135391D01*
X0072809Y0133890D02*
X0075812Y0133890D01*
X0077413Y0135391D02*
X0078164Y0134641D01*
X0079665Y0134641D01*
X0080416Y0135391D01*
X0082017Y0135391D02*
X0082768Y0134641D01*
X0084269Y0134641D01*
X0085019Y0135391D01*
X0085019Y0139144D01*
X0086621Y0139144D02*
X0088873Y0139144D01*
X0089623Y0138394D01*
X0089623Y0136892D01*
X0088873Y0136142D01*
X0086621Y0136142D01*
X0088122Y0136142D02*
X0089623Y0134641D01*
X0091225Y0134641D02*
X0091225Y0139144D01*
X0093477Y0139144D01*
X0094227Y0138394D01*
X0094227Y0136892D01*
X0093477Y0136142D01*
X0091225Y0136142D01*
X0092726Y0136142D02*
X0094227Y0134641D01*
X0095829Y0134641D02*
X0098831Y0134641D01*
X0100433Y0134641D02*
X0100433Y0139144D01*
X0103435Y0134641D01*
X0103435Y0139144D01*
X0105037Y0139144D02*
X0108039Y0139144D01*
X0106538Y0139144D02*
X0106538Y0134641D01*
X0098831Y0139144D02*
X0095829Y0139144D01*
X0095829Y0134641D01*
X0095829Y0136892D02*
X0097330Y0136892D01*
X0094239Y0144341D02*
X0092738Y0145842D01*
X0093488Y0145842D02*
X0091237Y0145842D01*
X0091237Y0144341D02*
X0091237Y0148844D01*
X0093488Y0148844D01*
X0094239Y0148094D01*
X0094239Y0146592D01*
X0093488Y0145842D01*
X0089635Y0145091D02*
X0089635Y0148094D01*
X0088885Y0148844D01*
X0087383Y0148844D01*
X0086633Y0148094D01*
X0086633Y0145091D01*
X0087383Y0144341D01*
X0088885Y0144341D01*
X0089635Y0145091D01*
X0085031Y0148844D02*
X0082029Y0148844D01*
X0083530Y0148844D02*
X0083530Y0144341D01*
X0080427Y0145091D02*
X0079677Y0144341D01*
X0078175Y0144341D01*
X0077425Y0145091D01*
X0078175Y0146592D02*
X0077425Y0147343D01*
X0077425Y0148094D01*
X0078175Y0148844D01*
X0079677Y0148844D01*
X0080427Y0148094D01*
X0079677Y0146592D02*
X0078175Y0146592D01*
X0079677Y0146592D02*
X0080427Y0145842D01*
X0080427Y0145091D01*
X0075857Y0144341D02*
X0074355Y0144341D01*
X0075106Y0144341D02*
X0075106Y0148844D01*
X0074355Y0148844D02*
X0075857Y0148844D01*
X0072754Y0148094D02*
X0072754Y0146592D01*
X0072003Y0145842D01*
X0069752Y0145842D01*
X0071253Y0145842D02*
X0072754Y0144341D01*
X0069752Y0144341D02*
X0069752Y0148844D01*
X0072003Y0148844D01*
X0072754Y0148094D01*
X0068150Y0147343D02*
X0068150Y0144341D01*
X0068150Y0146592D02*
X0065148Y0146592D01*
X0065148Y0147343D02*
X0066649Y0148844D01*
X0068150Y0147343D01*
X0065148Y0147343D02*
X0065148Y0144341D01*
X0063546Y0145842D02*
X0063546Y0148844D01*
X0063546Y0145842D02*
X0062045Y0144341D01*
X0060544Y0145842D01*
X0060544Y0148844D01*
X0068956Y0139144D02*
X0068205Y0138394D01*
X0068205Y0135391D01*
X0071208Y0138394D02*
X0070457Y0139144D01*
X0068956Y0139144D01*
X0077413Y0138394D02*
X0077413Y0135391D01*
X0077413Y0138394D02*
X0078164Y0139144D01*
X0079665Y0139144D01*
X0080416Y0138394D01*
X0082017Y0139144D02*
X0082017Y0135391D01*
X0086621Y0134641D02*
X0086621Y0139144D01*
X0088560Y0114144D02*
X0087809Y0113394D01*
X0087809Y0110391D01*
X0088560Y0109641D01*
X0090061Y0109641D01*
X0090812Y0110391D01*
X0092413Y0110391D02*
X0093164Y0109641D01*
X0094665Y0109641D01*
X0095416Y0110391D01*
X0095416Y0114144D01*
X0097017Y0114144D02*
X0099269Y0114144D01*
X0100019Y0113394D01*
X0100019Y0111892D01*
X0099269Y0111142D01*
X0097017Y0111142D01*
X0098518Y0111142D02*
X0100019Y0109641D01*
X0101621Y0109641D02*
X0101621Y0114144D01*
X0103873Y0114144D01*
X0104623Y0113394D01*
X0104623Y0111892D01*
X0103873Y0111142D01*
X0101621Y0111142D01*
X0103122Y0111142D02*
X0104623Y0109641D01*
X0106225Y0109641D02*
X0109227Y0109641D01*
X0110829Y0109641D02*
X0110829Y0114144D01*
X0113831Y0109641D01*
X0113831Y0114144D01*
X0115433Y0114144D02*
X0118435Y0114144D01*
X0116934Y0114144D02*
X0116934Y0109641D01*
X0120037Y0110391D02*
X0120787Y0109641D01*
X0122288Y0109641D01*
X0123039Y0110391D01*
X0123039Y0111142D01*
X0122288Y0111892D01*
X0121538Y0111892D01*
X0122288Y0111892D02*
X0123039Y0112643D01*
X0123039Y0113394D01*
X0122288Y0114144D01*
X0120787Y0114144D01*
X0120037Y0113394D01*
X0109227Y0114144D02*
X0106225Y0114144D01*
X0106225Y0109641D01*
X0106225Y0111892D02*
X0107726Y0111892D01*
X0097017Y0109641D02*
X0097017Y0114144D01*
X0092413Y0114144D02*
X0092413Y0110391D01*
X0090812Y0113394D02*
X0090061Y0114144D01*
X0088560Y0114144D01*
X0088560Y0094144D02*
X0087809Y0093394D01*
X0087809Y0090391D01*
X0088560Y0089641D01*
X0090061Y0089641D01*
X0090812Y0090391D01*
X0092413Y0090391D02*
X0093164Y0089641D01*
X0094665Y0089641D01*
X0095416Y0090391D01*
X0095416Y0094144D01*
X0097017Y0094144D02*
X0099269Y0094144D01*
X0100019Y0093394D01*
X0100019Y0091892D01*
X0099269Y0091142D01*
X0097017Y0091142D01*
X0098518Y0091142D02*
X0100019Y0089641D01*
X0101621Y0089641D02*
X0101621Y0094144D01*
X0103873Y0094144D01*
X0104623Y0093394D01*
X0104623Y0091892D01*
X0103873Y0091142D01*
X0101621Y0091142D01*
X0103122Y0091142D02*
X0104623Y0089641D01*
X0106225Y0089641D02*
X0109227Y0089641D01*
X0110829Y0089641D02*
X0110829Y0094144D01*
X0113831Y0089641D01*
X0113831Y0094144D01*
X0115433Y0094144D02*
X0118435Y0094144D01*
X0116934Y0094144D02*
X0116934Y0089641D01*
X0120037Y0089641D02*
X0123039Y0092643D01*
X0123039Y0093394D01*
X0122288Y0094144D01*
X0120787Y0094144D01*
X0120037Y0093394D01*
X0120037Y0089641D02*
X0123039Y0089641D01*
X0109227Y0094144D02*
X0106225Y0094144D01*
X0106225Y0089641D01*
X0106225Y0091892D02*
X0107726Y0091892D01*
X0097017Y0089641D02*
X0097017Y0094144D01*
X0092413Y0094144D02*
X0092413Y0090391D01*
X0090812Y0093394D02*
X0090061Y0094144D01*
X0088560Y0094144D01*
X0088560Y0074144D02*
X0087809Y0073394D01*
X0087809Y0070391D01*
X0088560Y0069641D01*
X0090061Y0069641D01*
X0090812Y0070391D01*
X0092413Y0070391D02*
X0093164Y0069641D01*
X0094665Y0069641D01*
X0095416Y0070391D01*
X0095416Y0074144D01*
X0097017Y0074144D02*
X0099269Y0074144D01*
X0100019Y0073394D01*
X0100019Y0071892D01*
X0099269Y0071142D01*
X0097017Y0071142D01*
X0098518Y0071142D02*
X0100019Y0069641D01*
X0101621Y0069641D02*
X0101621Y0074144D01*
X0103873Y0074144D01*
X0104623Y0073394D01*
X0104623Y0071892D01*
X0103873Y0071142D01*
X0101621Y0071142D01*
X0103122Y0071142D02*
X0104623Y0069641D01*
X0106225Y0069641D02*
X0109227Y0069641D01*
X0110829Y0069641D02*
X0110829Y0074144D01*
X0113831Y0069641D01*
X0113831Y0074144D01*
X0115433Y0074144D02*
X0118435Y0074144D01*
X0116934Y0074144D02*
X0116934Y0069641D01*
X0120037Y0069641D02*
X0123039Y0069641D01*
X0121538Y0069641D02*
X0121538Y0074144D01*
X0120037Y0072643D01*
X0109227Y0074144D02*
X0106225Y0074144D01*
X0106225Y0069641D01*
X0106225Y0071892D02*
X0107726Y0071892D01*
X0097017Y0069641D02*
X0097017Y0074144D01*
X0092413Y0074144D02*
X0092413Y0070391D01*
X0090812Y0073394D02*
X0090061Y0074144D01*
X0088560Y0074144D01*
X0088826Y0059144D02*
X0088826Y0054641D01*
X0091929Y0054641D02*
X0091929Y0059144D01*
X0094931Y0059144D01*
X0096533Y0059144D02*
X0098034Y0057643D01*
X0099535Y0059144D01*
X0099535Y0054641D01*
X0101137Y0054641D02*
X0101137Y0059144D01*
X0103389Y0059144D01*
X0104139Y0058394D01*
X0104139Y0056892D01*
X0103389Y0056142D01*
X0101137Y0056142D01*
X0105741Y0057643D02*
X0107242Y0059144D01*
X0107242Y0054641D01*
X0105741Y0054641D02*
X0108743Y0054641D01*
X0107992Y0044144D02*
X0106491Y0044144D01*
X0105741Y0043394D01*
X0104139Y0043394D02*
X0104139Y0041892D01*
X0103389Y0041142D01*
X0101137Y0041142D01*
X0101137Y0039641D02*
X0101137Y0044144D01*
X0103389Y0044144D01*
X0104139Y0043394D01*
X0107992Y0044144D02*
X0108743Y0043394D01*
X0108743Y0042643D01*
X0105741Y0039641D01*
X0108743Y0039641D01*
X0099535Y0039641D02*
X0099535Y0044144D01*
X0098034Y0042643D01*
X0096533Y0044144D01*
X0096533Y0039641D01*
X0094931Y0039641D02*
X0091929Y0039641D01*
X0091929Y0044144D01*
X0094931Y0044144D01*
X0093430Y0041892D02*
X0091929Y0041892D01*
X0090327Y0044144D02*
X0087325Y0044144D01*
X0088826Y0044144D02*
X0088826Y0039641D01*
X0091929Y0054641D02*
X0094931Y0054641D01*
X0096533Y0054641D02*
X0096533Y0059144D01*
X0093430Y0056892D02*
X0091929Y0056892D01*
X0090327Y0059144D02*
X0087325Y0059144D01*
D13*
X0016591Y0061591D03*
X0016591Y0071591D03*
X0006591Y0071591D03*
X0006591Y0061591D03*
X0006591Y0051591D03*
X0016591Y0051591D03*
X0016591Y0041591D03*
X0016591Y0031591D03*
X0006591Y0031591D03*
X0006591Y0041591D03*
X0006591Y0021591D03*
X0016591Y0021591D03*
D14*
X0101591Y0146591D03*
X0126591Y0146591D03*
D15*
X0006260Y0008600D02*
X0006260Y0006181D01*
X0034639Y0006181D01*
X0033943Y0007387D01*
X0033201Y0010157D01*
X0033201Y0013024D01*
X0033943Y0015794D01*
X0035377Y0018277D01*
X0035418Y0018318D01*
X0035259Y0018478D01*
X0034981Y0018200D01*
X0033705Y0018200D01*
X0033109Y0018796D01*
X0032512Y0018200D01*
X0031236Y0018200D01*
X0030676Y0018760D01*
X0029361Y0017445D01*
X0027563Y0016700D01*
X0025618Y0016700D01*
X0023820Y0017445D01*
X0022445Y0018820D01*
X0021700Y0020618D01*
X0021700Y0022563D01*
X0022445Y0024361D01*
X0023820Y0025737D01*
X0025618Y0026481D01*
X0027563Y0026481D01*
X0029361Y0025737D01*
X0030737Y0024361D01*
X0031062Y0023576D01*
X0031568Y0024082D01*
X0031568Y0024082D01*
X0032471Y0024984D01*
X0033747Y0024984D01*
X0034333Y0024398D01*
X0034919Y0024984D01*
X0038664Y0024984D01*
X0039567Y0024082D01*
X0039567Y0022806D01*
X0039279Y0022518D01*
X0039567Y0022230D01*
X0039567Y0021553D01*
X0039887Y0021738D01*
X0042657Y0022480D01*
X0045524Y0022480D01*
X0048294Y0021738D01*
X0050777Y0020305D01*
X0052805Y0018277D01*
X0054238Y0015794D01*
X0054980Y0013024D01*
X0054980Y0010157D01*
X0054238Y0007387D01*
X0053542Y0006181D01*
X0102000Y0006181D01*
X0102000Y0032504D01*
X0102699Y0034191D01*
X0103990Y0035482D01*
X0105677Y0036181D01*
X0147504Y0036181D01*
X0149191Y0035482D01*
X0150482Y0034191D01*
X0151181Y0032504D01*
X0151181Y0021042D01*
X0152387Y0021738D01*
X0155157Y0022480D01*
X0158024Y0022480D01*
X0160794Y0021738D01*
X0163277Y0020305D01*
X0165305Y0018277D01*
X0166738Y0015794D01*
X0167000Y0014817D01*
X0167000Y0046679D01*
X0166451Y0045855D01*
X0165199Y0045605D01*
X0164608Y0045999D01*
X0164309Y0045700D01*
X0159967Y0045700D01*
X0159690Y0045978D01*
X0159412Y0045700D01*
X0156284Y0045700D01*
X0156003Y0045981D01*
X0155722Y0045700D01*
X0154595Y0045700D01*
X0154907Y0045473D01*
X0155473Y0044907D01*
X0155944Y0044259D01*
X0156308Y0043545D01*
X0156556Y0042783D01*
X0156680Y0042000D01*
X0152000Y0042000D01*
X0152000Y0041181D01*
X0152000Y0036501D01*
X0152783Y0036625D01*
X0153545Y0036873D01*
X0154259Y0037237D01*
X0154907Y0037708D01*
X0155473Y0038274D01*
X0155944Y0038923D01*
X0156308Y0039636D01*
X0156556Y0040398D01*
X0156680Y0041181D01*
X0152000Y0041181D01*
X0151181Y0041181D01*
X0151181Y0036501D01*
X0150398Y0036625D01*
X0149636Y0036873D01*
X0148923Y0037237D01*
X0148274Y0037708D01*
X0147708Y0038274D01*
X0147237Y0038923D01*
X0146873Y0039636D01*
X0146625Y0040398D01*
X0146501Y0041181D01*
X0151181Y0041181D01*
X0151181Y0042000D01*
X0146501Y0042000D01*
X0146625Y0042783D01*
X0146873Y0043545D01*
X0147237Y0044259D01*
X0147708Y0044907D01*
X0148274Y0045473D01*
X0148923Y0045944D01*
X0149162Y0046066D01*
X0148788Y0046441D01*
X0148047Y0045700D01*
X0145536Y0045700D01*
X0145259Y0045978D01*
X0144981Y0045700D01*
X0144397Y0045700D01*
X0145737Y0044361D01*
X0146481Y0042563D01*
X0146481Y0040618D01*
X0145737Y0038820D01*
X0144361Y0037445D01*
X0142563Y0036700D01*
X0140618Y0036700D01*
X0138820Y0037445D01*
X0137445Y0038820D01*
X0136700Y0040618D01*
X0136700Y0042563D01*
X0137445Y0044361D01*
X0138784Y0045700D01*
X0138781Y0045700D01*
X0138503Y0045978D01*
X0138247Y0045722D01*
X0138225Y0045700D01*
X0138225Y0045700D01*
X0137594Y0045700D01*
X0135098Y0045700D01*
X0134195Y0046602D01*
X0134195Y0051582D01*
X0135098Y0052484D01*
X0138225Y0052484D01*
X0138503Y0052207D01*
X0138781Y0052484D01*
X0137445Y0053820D01*
X0136700Y0055618D01*
X0136700Y0057563D01*
X0137445Y0059361D01*
X0138820Y0060737D01*
X0140618Y0061481D01*
X0142563Y0061481D01*
X0144361Y0060737D01*
X0145737Y0059361D01*
X0146481Y0057563D01*
X0146481Y0055618D01*
X0145737Y0053820D01*
X0144361Y0052445D01*
X0142563Y0051700D01*
X0141458Y0051700D01*
X0141577Y0051582D01*
X0141577Y0051250D01*
X0142512Y0051250D01*
X0143109Y0050654D01*
X0143705Y0051250D01*
X0144981Y0051250D01*
X0145259Y0050972D01*
X0145536Y0051250D01*
X0146181Y0051250D01*
X0146813Y0051250D01*
X0146813Y0051250D01*
X0148047Y0051250D01*
X0148626Y0050671D01*
X0148626Y0051582D01*
X0149160Y0052116D01*
X0148923Y0052237D01*
X0148274Y0052708D01*
X0147708Y0053274D01*
X0147237Y0053923D01*
X0146873Y0054636D01*
X0146625Y0055398D01*
X0146501Y0056181D01*
X0151181Y0056181D01*
X0151181Y0057000D01*
X0146501Y0057000D01*
X0146625Y0057783D01*
X0146873Y0058545D01*
X0147237Y0059259D01*
X0147708Y0059907D01*
X0148274Y0060473D01*
X0148923Y0060944D01*
X0149636Y0061308D01*
X0150398Y0061556D01*
X0151181Y0061680D01*
X0151181Y0057000D01*
X0152000Y0057000D01*
X0152000Y0061680D01*
X0152783Y0061556D01*
X0153545Y0061308D01*
X0154259Y0060944D01*
X0154907Y0060473D01*
X0155473Y0059907D01*
X0155944Y0059259D01*
X0156308Y0058545D01*
X0156556Y0057783D01*
X0156680Y0057000D01*
X0152000Y0057000D01*
X0152000Y0056181D01*
X0156680Y0056181D01*
X0156556Y0055398D01*
X0156308Y0054636D01*
X0155944Y0053923D01*
X0155473Y0053274D01*
X0154907Y0052708D01*
X0154599Y0052484D01*
X0155105Y0052484D01*
X0156007Y0051582D01*
X0156007Y0050973D01*
X0156284Y0051250D01*
X0158795Y0051250D01*
X0159381Y0050664D01*
X0159945Y0051228D01*
X0159967Y0051250D01*
X0159967Y0051250D01*
X0160599Y0051250D01*
X0161243Y0051250D01*
X0161243Y0051250D01*
X0162131Y0051250D01*
X0162131Y0051582D01*
X0163033Y0052484D01*
X0164309Y0052484D01*
X0165212Y0051582D01*
X0165212Y0051343D01*
X0166451Y0051095D01*
X0167000Y0050271D01*
X0167000Y0092139D01*
X0165794Y0091443D01*
X0163024Y0090701D01*
X0160157Y0090701D01*
X0157387Y0091443D01*
X0156422Y0092000D01*
X0152000Y0092000D01*
X0152000Y0091181D01*
X0152000Y0086501D01*
X0152783Y0086625D01*
X0153545Y0086873D01*
X0154259Y0087237D01*
X0154907Y0087708D01*
X0155473Y0088274D01*
X0155944Y0088923D01*
X0156308Y0089636D01*
X0156556Y0090398D01*
X0156680Y0091181D01*
X0152000Y0091181D01*
X0151181Y0091181D01*
X0151181Y0086501D01*
X0150398Y0086625D01*
X0149636Y0086873D01*
X0148923Y0087237D01*
X0148274Y0087708D01*
X0147708Y0088274D01*
X0147237Y0088923D01*
X0146873Y0089636D01*
X0146625Y0090398D01*
X0146501Y0091181D01*
X0151181Y0091181D01*
X0151181Y0092000D01*
X0146501Y0092000D01*
X0146625Y0092783D01*
X0146873Y0093545D01*
X0147237Y0094259D01*
X0147708Y0094907D01*
X0148274Y0095473D01*
X0148923Y0095944D01*
X0149636Y0096308D01*
X0150398Y0096556D01*
X0151181Y0096680D01*
X0151181Y0092000D01*
X0152000Y0092000D01*
X0152000Y0096422D01*
X0151443Y0097387D01*
X0151225Y0098200D01*
X0148602Y0098200D01*
X0147700Y0099102D01*
X0147700Y0104082D01*
X0148602Y0104984D01*
X0151226Y0104984D01*
X0151443Y0105794D01*
X0152000Y0106759D01*
X0152000Y0111181D01*
X0151181Y0111181D01*
X0151181Y0106501D01*
X0150398Y0106625D01*
X0149636Y0106873D01*
X0148923Y0107237D01*
X0148274Y0107708D01*
X0147708Y0108274D01*
X0147237Y0108923D01*
X0146873Y0109636D01*
X0146625Y0110398D01*
X0146501Y0111181D01*
X0151181Y0111181D01*
X0151181Y0112000D01*
X0146501Y0112000D01*
X0146625Y0112783D01*
X0146873Y0113545D01*
X0147237Y0114259D01*
X0147708Y0114907D01*
X0148274Y0115473D01*
X0148923Y0115944D01*
X0149636Y0116308D01*
X0150398Y0116556D01*
X0151181Y0116680D01*
X0151181Y0112000D01*
X0152000Y0112000D01*
X0152000Y0116680D01*
X0152783Y0116556D01*
X0153545Y0116308D01*
X0154259Y0115944D01*
X0154907Y0115473D01*
X0155473Y0114907D01*
X0155944Y0114259D01*
X0156308Y0113545D01*
X0156556Y0112783D01*
X0156680Y0112000D01*
X0152000Y0112000D01*
X0152000Y0111181D01*
X0156422Y0111181D01*
X0157387Y0111738D01*
X0160157Y0112480D01*
X0163024Y0112480D01*
X0165794Y0111738D01*
X0167000Y0111042D01*
X0167000Y0149500D01*
X0129890Y0149500D01*
X0130981Y0148409D01*
X0130981Y0144772D01*
X0128409Y0142200D01*
X0124772Y0142200D01*
X0122200Y0144772D01*
X0122200Y0148409D01*
X0123291Y0149500D01*
X0105173Y0149500D01*
X0106181Y0148492D01*
X0106181Y0147000D01*
X0102000Y0147000D01*
X0101181Y0147000D01*
X0101181Y0146181D01*
X0097000Y0146181D01*
X0097000Y0144689D01*
X0099689Y0142000D01*
X0101181Y0142000D01*
X0101181Y0146181D01*
X0102000Y0146181D01*
X0102000Y0142000D01*
X0103492Y0142000D01*
X0106181Y0144689D01*
X0106181Y0146181D01*
X0102000Y0146181D01*
X0102000Y0147000D01*
X0102000Y0149500D01*
X0101181Y0149500D01*
X0101181Y0147000D01*
X0097000Y0147000D01*
X0097000Y0148492D01*
X0098008Y0149500D01*
X0095153Y0149500D01*
X0095880Y0148773D01*
X0095880Y0145913D01*
X0095433Y0145467D01*
X0095880Y0145020D01*
X0095880Y0143661D01*
X0094919Y0142700D01*
X0093560Y0142700D01*
X0092738Y0143522D01*
X0091916Y0142700D01*
X0090557Y0142700D01*
X0090061Y0143196D01*
X0089564Y0142700D01*
X0086704Y0142700D01*
X0085743Y0143661D01*
X0085171Y0144233D01*
X0085171Y0143661D01*
X0084210Y0142700D01*
X0082850Y0142700D01*
X0081889Y0143661D01*
X0081889Y0144233D01*
X0081317Y0143661D01*
X0080356Y0142700D01*
X0077496Y0142700D01*
X0077016Y0143180D01*
X0076536Y0142700D01*
X0073676Y0142700D01*
X0073555Y0142821D01*
X0073434Y0142700D01*
X0072075Y0142700D01*
X0071253Y0143522D01*
X0070431Y0142700D01*
X0069072Y0142700D01*
X0068951Y0142821D01*
X0068830Y0142700D01*
X0067471Y0142700D01*
X0066649Y0143522D01*
X0065827Y0142700D01*
X0064468Y0142700D01*
X0063596Y0143572D01*
X0062725Y0142700D01*
X0061365Y0142700D01*
X0060404Y0143661D01*
X0058903Y0145162D01*
X0058903Y0149500D01*
X0006260Y0149500D01*
X0006260Y0083382D01*
X0006762Y0083885D01*
X0008121Y0083885D01*
X0009082Y0082924D01*
X0009082Y0082352D01*
X0009655Y0082924D01*
X0010616Y0083885D01*
X0013476Y0083885D01*
X0013972Y0083388D01*
X0014469Y0083885D01*
X0015828Y0083885D01*
X0016789Y0082924D01*
X0016789Y0082307D01*
X0017056Y0082485D01*
X0018388Y0082219D01*
X0019142Y0081088D01*
X0018876Y0079755D01*
X0018106Y0079242D01*
X0018876Y0078729D01*
X0019142Y0077396D01*
X0018388Y0076265D01*
X0017056Y0075999D01*
X0016258Y0076530D01*
X0015828Y0076100D01*
X0014469Y0076100D01*
X0013972Y0076596D01*
X0013476Y0076100D01*
X0010616Y0076100D01*
X0010119Y0076596D01*
X0009623Y0076100D01*
X0006260Y0076100D01*
X0006260Y0075781D01*
X0006381Y0075781D01*
X0006381Y0071800D01*
X0006800Y0071800D01*
X0006800Y0075781D01*
X0008326Y0075781D01*
X0010781Y0073326D01*
X0010781Y0071800D01*
X0006800Y0071800D01*
X0006800Y0071381D01*
X0006800Y0067400D01*
X0008326Y0067400D01*
X0010781Y0069855D01*
X0010781Y0071381D01*
X0006800Y0071381D01*
X0006381Y0071381D01*
X0006381Y0067400D01*
X0006260Y0067400D01*
X0006260Y0065781D01*
X0006381Y0065781D01*
X0006381Y0061800D01*
X0006800Y0061800D01*
X0006800Y0065781D01*
X0008326Y0065781D01*
X0010781Y0063326D01*
X0010781Y0061800D01*
X0006800Y0061800D01*
X0006800Y0061381D01*
X0006800Y0057400D01*
X0008326Y0057400D01*
X0010781Y0059855D01*
X0010781Y0061381D01*
X0006800Y0061381D01*
X0006381Y0061381D01*
X0006381Y0057400D01*
X0006260Y0057400D01*
X0006260Y0055781D01*
X0006381Y0055781D01*
X0006381Y0051800D01*
X0006800Y0051800D01*
X0006800Y0055781D01*
X0008326Y0055781D01*
X0010781Y0053326D01*
X0010781Y0051800D01*
X0006800Y0051800D01*
X0006800Y0051381D01*
X0006800Y0047400D01*
X0008326Y0047400D01*
X0010781Y0049855D01*
X0010781Y0051381D01*
X0006800Y0051381D01*
X0006381Y0051381D01*
X0006381Y0047400D01*
X0006260Y0047400D01*
X0006260Y0045781D01*
X0006381Y0045781D01*
X0006381Y0041800D01*
X0006800Y0041800D01*
X0006800Y0045781D01*
X0008326Y0045781D01*
X0010781Y0043326D01*
X0010781Y0041800D01*
X0006800Y0041800D01*
X0006800Y0041381D01*
X0006800Y0037400D01*
X0008326Y0037400D01*
X0010781Y0039855D01*
X0010781Y0041381D01*
X0006800Y0041381D01*
X0006381Y0041381D01*
X0006381Y0037400D01*
X0006260Y0037400D01*
X0006260Y0035781D01*
X0006381Y0035781D01*
X0006381Y0031800D01*
X0006800Y0031800D01*
X0006800Y0035781D01*
X0008326Y0035781D01*
X0010781Y0033326D01*
X0010781Y0031800D01*
X0006800Y0031800D01*
X0006800Y0031381D01*
X0006800Y0027400D01*
X0008326Y0027400D01*
X0010781Y0029855D01*
X0010781Y0031381D01*
X0006800Y0031381D01*
X0006381Y0031381D01*
X0006381Y0027400D01*
X0006260Y0027400D01*
X0006260Y0025781D01*
X0006381Y0025781D01*
X0006381Y0021800D01*
X0006800Y0021800D01*
X0006800Y0025781D01*
X0008326Y0025781D01*
X0010781Y0023326D01*
X0010781Y0021800D01*
X0006800Y0021800D01*
X0006800Y0021381D01*
X0006800Y0017400D01*
X0008326Y0017400D01*
X0010781Y0019855D01*
X0010781Y0021381D01*
X0006800Y0021381D01*
X0006381Y0021381D01*
X0006381Y0017400D01*
X0006260Y0017400D01*
X0006260Y0015882D01*
X0006762Y0016385D01*
X0008121Y0016385D01*
X0009082Y0015424D01*
X0009082Y0014852D01*
X0009655Y0015424D01*
X0010616Y0016385D01*
X0013476Y0016385D01*
X0013972Y0015888D01*
X0014469Y0016385D01*
X0015828Y0016385D01*
X0016789Y0015424D01*
X0016789Y0014807D01*
X0017056Y0014985D01*
X0018388Y0014719D01*
X0019142Y0013588D01*
X0018876Y0012255D01*
X0018106Y0011742D01*
X0018876Y0011229D01*
X0019142Y0009896D01*
X0018388Y0008765D01*
X0017056Y0008499D01*
X0016258Y0009030D01*
X0015828Y0008600D01*
X0014469Y0008600D01*
X0013972Y0009096D01*
X0013476Y0008600D01*
X0010616Y0008600D01*
X0010119Y0009096D01*
X0009623Y0008600D01*
X0006260Y0008600D01*
X0006260Y0007489D02*
X0033916Y0007489D01*
X0033600Y0008668D02*
X0017904Y0008668D01*
X0016801Y0008668D02*
X0015896Y0008668D01*
X0014401Y0008668D02*
X0013544Y0008668D01*
X0010547Y0008668D02*
X0009691Y0008668D01*
X0006260Y0006309D02*
X0034565Y0006309D01*
X0033284Y0009848D02*
X0019110Y0009848D01*
X0018916Y0011027D02*
X0033201Y0011027D01*
X0033201Y0012207D02*
X0018804Y0012207D01*
X0019102Y0013387D02*
X0033298Y0013387D01*
X0033614Y0014566D02*
X0018490Y0014566D01*
X0016467Y0015746D02*
X0033930Y0015746D01*
X0034596Y0016926D02*
X0028108Y0016926D01*
X0030021Y0018105D02*
X0035277Y0018105D01*
X0039567Y0021644D02*
X0039724Y0021644D01*
X0039567Y0022824D02*
X0102000Y0022824D01*
X0102000Y0024003D02*
X0039567Y0024003D01*
X0038047Y0028200D02*
X0038950Y0029102D01*
X0038950Y0030337D01*
X0039567Y0030954D01*
X0039567Y0032230D01*
X0038950Y0032847D01*
X0038950Y0034082D01*
X0038936Y0034095D01*
X0038047Y0034984D01*
X0036771Y0034984D01*
X0036751Y0034964D01*
X0035868Y0034082D01*
X0035868Y0034082D01*
X0035259Y0033472D01*
X0034981Y0033750D01*
X0033747Y0034984D01*
X0032471Y0034984D01*
X0031568Y0034082D01*
X0031062Y0033576D01*
X0030737Y0034361D01*
X0029361Y0035737D01*
X0027563Y0036481D01*
X0025618Y0036481D01*
X0023820Y0035737D01*
X0022445Y0034361D01*
X0021700Y0032563D01*
X0021700Y0030618D01*
X0022445Y0028820D01*
X0023820Y0027445D01*
X0025618Y0026700D01*
X0027563Y0026700D01*
X0029361Y0027445D01*
X0030676Y0028760D01*
X0031236Y0028200D01*
X0032512Y0028200D01*
X0033109Y0028796D01*
X0033705Y0028200D01*
X0034981Y0028200D01*
X0035876Y0029095D01*
X0036771Y0028200D01*
X0038047Y0028200D01*
X0038569Y0028722D02*
X0102000Y0028722D01*
X0102000Y0029901D02*
X0038950Y0029901D01*
X0039567Y0031081D02*
X0102000Y0031081D01*
X0102000Y0032261D02*
X0039536Y0032261D01*
X0038950Y0033440D02*
X0102388Y0033440D01*
X0103128Y0034620D02*
X0038412Y0034620D01*
X0036406Y0034620D02*
X0034111Y0034620D01*
X0032106Y0034620D02*
X0030478Y0034620D01*
X0029209Y0035799D02*
X0104756Y0035799D01*
X0105061Y0038000D02*
X0109423Y0038000D01*
X0110384Y0038961D01*
X0110384Y0040320D01*
X0109562Y0041142D01*
X0110384Y0041964D01*
X0110384Y0044073D01*
X0109633Y0044824D01*
X0108672Y0045785D01*
X0105812Y0045785D01*
X0104940Y0044913D01*
X0104819Y0045034D01*
X0104068Y0045785D01*
X0100457Y0045785D01*
X0100336Y0045664D01*
X0100215Y0045785D01*
X0098856Y0045785D01*
X0098034Y0044963D01*
X0097212Y0045785D01*
X0095853Y0045785D01*
X0095732Y0045664D01*
X0095611Y0045785D01*
X0091249Y0045785D01*
X0091128Y0045664D01*
X0091007Y0045785D01*
X0086645Y0045785D01*
X0085684Y0044824D01*
X0085684Y0043465D01*
X0086645Y0042504D01*
X0087186Y0042504D01*
X0087186Y0038961D01*
X0088147Y0038000D01*
X0089506Y0038000D01*
X0090377Y0038872D01*
X0091249Y0038000D01*
X0095611Y0038000D01*
X0095732Y0038121D01*
X0095853Y0038000D01*
X0097212Y0038000D01*
X0098034Y0038822D01*
X0098856Y0038000D01*
X0100215Y0038000D01*
X0100336Y0038121D01*
X0100457Y0038000D01*
X0101816Y0038000D01*
X0102777Y0038961D01*
X0102777Y0039501D01*
X0104068Y0039501D01*
X0104100Y0039533D01*
X0104100Y0038961D01*
X0105061Y0038000D01*
X0104902Y0038159D02*
X0101975Y0038159D01*
X0102777Y0039338D02*
X0104100Y0039338D01*
X0109581Y0038159D02*
X0128106Y0038159D01*
X0127445Y0038820D02*
X0128820Y0037445D01*
X0130618Y0036700D01*
X0132563Y0036700D01*
X0134361Y0037445D01*
X0135737Y0038820D01*
X0136481Y0040618D01*
X0136481Y0042563D01*
X0135737Y0044361D01*
X0134361Y0045737D01*
X0133572Y0046063D01*
X0133572Y0052118D01*
X0134361Y0052445D01*
X0135737Y0053820D01*
X0136481Y0055618D01*
X0136481Y0057563D01*
X0135737Y0059361D01*
X0134361Y0060737D01*
X0133779Y0060977D01*
X0134911Y0062109D01*
X0139911Y0062109D01*
X0141072Y0063270D01*
X0143572Y0065770D01*
X0143572Y0067118D01*
X0144361Y0067445D01*
X0145737Y0068820D01*
X0146481Y0070618D01*
X0146481Y0072563D01*
X0145737Y0074361D01*
X0144361Y0075737D01*
X0142563Y0076481D01*
X0140618Y0076481D01*
X0138820Y0075737D01*
X0137445Y0074361D01*
X0136700Y0072563D01*
X0136700Y0070618D01*
X0137445Y0068820D01*
X0138820Y0067445D01*
X0139402Y0067204D01*
X0138270Y0066072D01*
X0133270Y0066072D01*
X0130770Y0063572D01*
X0129609Y0062411D01*
X0129609Y0061063D01*
X0128820Y0060737D01*
X0127445Y0059361D01*
X0126700Y0057563D01*
X0126700Y0055618D01*
X0127445Y0053820D01*
X0128820Y0052445D01*
X0129609Y0052118D01*
X0129609Y0046063D01*
X0128820Y0045737D01*
X0127445Y0044361D01*
X0126700Y0042563D01*
X0126700Y0040618D01*
X0127445Y0038820D01*
X0127230Y0039338D02*
X0110384Y0039338D01*
X0110186Y0040518D02*
X0126741Y0040518D01*
X0126700Y0041697D02*
X0110117Y0041697D01*
X0110384Y0042877D02*
X0126830Y0042877D01*
X0127319Y0044057D02*
X0110384Y0044057D01*
X0109221Y0045236D02*
X0128320Y0045236D01*
X0128664Y0045700D02*
X0129567Y0046602D01*
X0129567Y0050347D01*
X0129567Y0051582D01*
X0128664Y0052484D01*
X0127388Y0052484D01*
X0126486Y0051582D01*
X0126486Y0051250D01*
X0125536Y0051250D01*
X0124950Y0050664D01*
X0124364Y0051250D01*
X0123130Y0051250D01*
X0123130Y0051250D01*
X0122498Y0051250D01*
X0121915Y0051250D01*
X0121298Y0051867D01*
X0120681Y0052484D01*
X0117553Y0052484D01*
X0116651Y0051582D01*
X0116651Y0046602D01*
X0117553Y0045700D01*
X0118829Y0045700D01*
X0119425Y0046296D01*
X0120022Y0045700D01*
X0121298Y0045700D01*
X0121576Y0045978D01*
X0121853Y0045700D01*
X0124364Y0045700D01*
X0124950Y0046286D01*
X0125536Y0045700D01*
X0128664Y0045700D01*
X0129380Y0046416D02*
X0129609Y0046416D01*
X0129567Y0047595D02*
X0129609Y0047595D01*
X0129567Y0048775D02*
X0129609Y0048775D01*
X0129567Y0049955D02*
X0129609Y0049955D01*
X0129567Y0051134D02*
X0129609Y0051134D01*
X0129136Y0052314D02*
X0128835Y0052314D01*
X0127771Y0053494D02*
X0109916Y0053494D01*
X0110384Y0053961D02*
X0110384Y0055320D01*
X0109423Y0056281D01*
X0108882Y0056281D01*
X0108882Y0059824D01*
X0107921Y0060785D01*
X0106562Y0060785D01*
X0105601Y0059824D01*
X0105315Y0059538D01*
X0104819Y0060034D01*
X0104068Y0060785D01*
X0100457Y0060785D01*
X0100336Y0060664D01*
X0100215Y0060785D01*
X0098856Y0060785D01*
X0098034Y0059963D01*
X0097212Y0060785D01*
X0095853Y0060785D01*
X0095732Y0060664D01*
X0095611Y0060785D01*
X0091249Y0060785D01*
X0091128Y0060664D01*
X0091007Y0060785D01*
X0086645Y0060785D01*
X0085684Y0059824D01*
X0085684Y0058465D01*
X0086645Y0057504D01*
X0087186Y0057504D01*
X0087186Y0053961D01*
X0088147Y0053000D01*
X0089506Y0053000D01*
X0090377Y0053872D01*
X0091249Y0053000D01*
X0095611Y0053000D01*
X0095732Y0053121D01*
X0095853Y0053000D01*
X0097212Y0053000D01*
X0098034Y0053822D01*
X0098856Y0053000D01*
X0100215Y0053000D01*
X0100336Y0053121D01*
X0100457Y0053000D01*
X0101816Y0053000D01*
X0102777Y0053961D01*
X0102777Y0054501D01*
X0104068Y0054501D01*
X0104100Y0054533D01*
X0104100Y0053961D01*
X0105061Y0053000D01*
X0109423Y0053000D01*
X0110384Y0053961D01*
X0110384Y0054673D02*
X0127091Y0054673D01*
X0126700Y0055853D02*
X0109851Y0055853D01*
X0108882Y0057032D02*
X0126700Y0057032D01*
X0126969Y0058212D02*
X0108882Y0058212D01*
X0108882Y0059392D02*
X0127475Y0059392D01*
X0128655Y0060571D02*
X0108135Y0060571D01*
X0106349Y0060571D02*
X0104282Y0060571D01*
X0098642Y0060571D02*
X0097426Y0060571D01*
X0097706Y0053494D02*
X0098362Y0053494D01*
X0102310Y0053494D02*
X0104567Y0053494D01*
X0104617Y0045236D02*
X0105263Y0045236D01*
X0098307Y0045236D02*
X0097761Y0045236D01*
X0097371Y0038159D02*
X0098697Y0038159D01*
X0091091Y0038159D02*
X0089664Y0038159D01*
X0087988Y0038159D02*
X0030075Y0038159D01*
X0030676Y0038760D02*
X0031236Y0038200D01*
X0032512Y0038200D01*
X0033109Y0038796D01*
X0033705Y0038200D01*
X0034981Y0038200D01*
X0035259Y0038478D01*
X0035536Y0038200D01*
X0037180Y0038200D01*
X0038047Y0038200D01*
X0038664Y0038817D01*
X0038664Y0038817D01*
X0039545Y0039698D01*
X0039567Y0039720D01*
X0039567Y0040337D01*
X0039567Y0040660D01*
X0039567Y0040996D01*
X0039567Y0043465D01*
X0038664Y0044367D01*
X0038047Y0044984D01*
X0036813Y0044984D01*
X0036813Y0044984D01*
X0036181Y0044984D01*
X0035536Y0044984D01*
X0034642Y0044089D01*
X0033747Y0044984D01*
X0032471Y0044984D01*
X0031568Y0044082D01*
X0031062Y0043576D01*
X0030737Y0044361D01*
X0029361Y0045737D01*
X0027563Y0046481D01*
X0025618Y0046481D01*
X0023820Y0045737D01*
X0022445Y0044361D01*
X0021700Y0042563D01*
X0021700Y0040618D01*
X0022445Y0038820D01*
X0023820Y0037445D01*
X0025618Y0036700D01*
X0027563Y0036700D01*
X0029361Y0037445D01*
X0030676Y0038760D01*
X0028237Y0036979D02*
X0129944Y0036979D01*
X0133237Y0036979D02*
X0139944Y0036979D01*
X0138106Y0038159D02*
X0135075Y0038159D01*
X0135951Y0039338D02*
X0137230Y0039338D01*
X0136741Y0040518D02*
X0136440Y0040518D01*
X0136481Y0041697D02*
X0136700Y0041697D01*
X0136830Y0042877D02*
X0136351Y0042877D01*
X0135863Y0044057D02*
X0137319Y0044057D01*
X0138320Y0045236D02*
X0134861Y0045236D01*
X0134382Y0046416D02*
X0133572Y0046416D01*
X0133572Y0047595D02*
X0134195Y0047595D01*
X0134195Y0048775D02*
X0133572Y0048775D01*
X0133572Y0049955D02*
X0134195Y0049955D01*
X0134195Y0051134D02*
X0133572Y0051134D01*
X0134046Y0052314D02*
X0134927Y0052314D01*
X0135410Y0053494D02*
X0137771Y0053494D01*
X0138396Y0052314D02*
X0138610Y0052314D01*
X0137091Y0054673D02*
X0136090Y0054673D01*
X0136481Y0055853D02*
X0136700Y0055853D01*
X0136700Y0057032D02*
X0136481Y0057032D01*
X0136212Y0058212D02*
X0136969Y0058212D01*
X0137475Y0059392D02*
X0135706Y0059392D01*
X0134526Y0060571D02*
X0138655Y0060571D01*
X0140732Y0062930D02*
X0167000Y0062930D01*
X0167000Y0061751D02*
X0134553Y0061751D01*
X0134091Y0064091D02*
X0131591Y0061591D01*
X0131591Y0056591D01*
X0131591Y0041591D01*
X0125421Y0051134D02*
X0124479Y0051134D01*
X0127218Y0052314D02*
X0120851Y0052314D01*
X0117383Y0052314D02*
X0039567Y0052314D01*
X0039567Y0051571D02*
X0039567Y0053465D01*
X0038950Y0054082D01*
X0038047Y0054984D01*
X0036813Y0054984D01*
X0036813Y0054984D01*
X0036168Y0054984D01*
X0035536Y0054984D01*
X0035514Y0054962D01*
X0034642Y0054089D01*
X0033747Y0054984D01*
X0032471Y0054984D01*
X0031568Y0054082D01*
X0031062Y0053576D01*
X0030737Y0054361D01*
X0029361Y0055737D01*
X0027563Y0056481D01*
X0025618Y0056481D01*
X0023820Y0055737D01*
X0022445Y0054361D01*
X0021700Y0052563D01*
X0021700Y0050618D01*
X0022445Y0048820D01*
X0023820Y0047445D01*
X0025618Y0046700D01*
X0027563Y0046700D01*
X0029361Y0047445D01*
X0030676Y0048760D01*
X0031236Y0048200D01*
X0032512Y0048200D01*
X0033109Y0048796D01*
X0033705Y0048200D01*
X0038664Y0048200D01*
X0039567Y0049102D01*
X0039567Y0050379D01*
X0038970Y0050975D01*
X0039567Y0051571D01*
X0039130Y0051134D02*
X0116651Y0051134D01*
X0116651Y0049955D02*
X0039567Y0049955D01*
X0039239Y0048775D02*
X0116651Y0048775D01*
X0116651Y0047595D02*
X0029512Y0047595D01*
X0027721Y0046416D02*
X0116837Y0046416D01*
X0129609Y0061751D02*
X0038332Y0061751D01*
X0038332Y0061281D02*
X0038332Y0064082D01*
X0037430Y0064984D01*
X0036154Y0064984D01*
X0035251Y0064082D01*
X0034950Y0063781D01*
X0033747Y0064984D01*
X0032471Y0064984D01*
X0031568Y0064082D01*
X0031062Y0063576D01*
X0030737Y0064361D01*
X0029361Y0065737D01*
X0027563Y0066481D01*
X0025618Y0066481D01*
X0023820Y0065737D01*
X0022445Y0064361D01*
X0021700Y0062563D01*
X0021700Y0060618D01*
X0022445Y0058820D01*
X0023820Y0057445D01*
X0025618Y0056700D01*
X0027563Y0056700D01*
X0029361Y0057445D01*
X0030676Y0058760D01*
X0031236Y0058200D01*
X0032512Y0058200D01*
X0033109Y0058796D01*
X0033705Y0058200D01*
X0038664Y0058200D01*
X0039567Y0059102D01*
X0039567Y0060379D01*
X0038664Y0061281D01*
X0038332Y0061281D01*
X0039374Y0060571D02*
X0086432Y0060571D01*
X0085684Y0059392D02*
X0039567Y0059392D01*
X0038676Y0058212D02*
X0085937Y0058212D01*
X0087186Y0057032D02*
X0028366Y0057032D01*
X0029080Y0055853D02*
X0087186Y0055853D01*
X0087186Y0054673D02*
X0038358Y0054673D01*
X0039538Y0053494D02*
X0087653Y0053494D01*
X0089999Y0053494D02*
X0090756Y0053494D01*
X0086097Y0045236D02*
X0029861Y0045236D01*
X0030863Y0044057D02*
X0031543Y0044057D01*
X0033087Y0048775D02*
X0033130Y0048775D01*
X0038975Y0044057D02*
X0085684Y0044057D01*
X0086272Y0042877D02*
X0039567Y0042877D01*
X0039567Y0041697D02*
X0087186Y0041697D01*
X0087186Y0040518D02*
X0039567Y0040518D01*
X0039567Y0040337D02*
X0039567Y0040337D01*
X0039567Y0039720D02*
X0039567Y0039720D01*
X0039185Y0039338D02*
X0087186Y0039338D01*
X0102000Y0027542D02*
X0029458Y0027542D01*
X0030638Y0028722D02*
X0030714Y0028722D01*
X0033034Y0028722D02*
X0033183Y0028722D01*
X0035503Y0028722D02*
X0036249Y0028722D01*
X0031489Y0024003D02*
X0030885Y0024003D01*
X0029915Y0025183D02*
X0102000Y0025183D01*
X0102000Y0026362D02*
X0027850Y0026362D01*
X0025331Y0026362D02*
X0006260Y0026362D01*
X0006381Y0025183D02*
X0006800Y0025183D01*
X0006800Y0024003D02*
X0006381Y0024003D01*
X0006381Y0022824D02*
X0006800Y0022824D01*
X0006800Y0021644D02*
X0012600Y0021644D01*
X0012600Y0022824D02*
X0010781Y0022824D01*
X0010104Y0024003D02*
X0013360Y0024003D01*
X0012600Y0023243D02*
X0012600Y0019938D01*
X0014938Y0017600D01*
X0018243Y0017600D01*
X0020581Y0019938D01*
X0020581Y0023243D01*
X0018243Y0025581D01*
X0014938Y0025581D01*
X0012600Y0023243D01*
X0012600Y0020464D02*
X0010781Y0020464D01*
X0010211Y0019285D02*
X0013253Y0019285D01*
X0014432Y0018105D02*
X0009031Y0018105D01*
X0008760Y0015746D02*
X0009977Y0015746D01*
X0006260Y0016926D02*
X0025073Y0016926D01*
X0023160Y0018105D02*
X0018749Y0018105D01*
X0019928Y0019285D02*
X0022252Y0019285D01*
X0021764Y0020464D02*
X0020581Y0020464D01*
X0020581Y0021644D02*
X0021700Y0021644D01*
X0021808Y0022824D02*
X0020581Y0022824D01*
X0019821Y0024003D02*
X0022296Y0024003D01*
X0023267Y0025183D02*
X0018642Y0025183D01*
X0018243Y0027600D02*
X0020581Y0029938D01*
X0020581Y0033243D01*
X0018243Y0035581D01*
X0014938Y0035581D01*
X0012600Y0033243D01*
X0012600Y0029938D01*
X0014938Y0027600D01*
X0018243Y0027600D01*
X0019365Y0028722D02*
X0022543Y0028722D01*
X0021997Y0029901D02*
X0020545Y0029901D01*
X0020581Y0031081D02*
X0021700Y0031081D01*
X0021700Y0032261D02*
X0020581Y0032261D01*
X0020384Y0033440D02*
X0022063Y0033440D01*
X0022703Y0034620D02*
X0019205Y0034620D01*
X0018243Y0037600D02*
X0020581Y0039938D01*
X0020581Y0043243D01*
X0018243Y0045581D01*
X0014938Y0045581D01*
X0012600Y0043243D01*
X0012600Y0039938D01*
X0014938Y0037600D01*
X0018243Y0037600D01*
X0018802Y0038159D02*
X0023106Y0038159D01*
X0022230Y0039338D02*
X0019982Y0039338D01*
X0020581Y0040518D02*
X0021741Y0040518D01*
X0021700Y0041697D02*
X0020581Y0041697D01*
X0020581Y0042877D02*
X0021830Y0042877D01*
X0022319Y0044057D02*
X0019768Y0044057D01*
X0018588Y0045236D02*
X0023320Y0045236D01*
X0023669Y0047595D02*
X0008522Y0047595D01*
X0009701Y0048775D02*
X0013763Y0048775D01*
X0012600Y0049938D02*
X0014938Y0047600D01*
X0018243Y0047600D01*
X0020581Y0049938D01*
X0020581Y0053243D01*
X0018243Y0055581D01*
X0014938Y0055581D01*
X0012600Y0053243D01*
X0012600Y0049938D01*
X0012600Y0049955D02*
X0010781Y0049955D01*
X0010781Y0051134D02*
X0012600Y0051134D01*
X0012600Y0052314D02*
X0010781Y0052314D01*
X0010614Y0053494D02*
X0012850Y0053494D01*
X0014030Y0054673D02*
X0009434Y0054673D01*
X0006800Y0054673D02*
X0006381Y0054673D01*
X0006381Y0053494D02*
X0006800Y0053494D01*
X0006800Y0052314D02*
X0006381Y0052314D01*
X0006381Y0051134D02*
X0006800Y0051134D01*
X0006800Y0049955D02*
X0006381Y0049955D01*
X0006381Y0048775D02*
X0006800Y0048775D01*
X0006800Y0047595D02*
X0006381Y0047595D01*
X0006260Y0046416D02*
X0025460Y0046416D01*
X0022490Y0048775D02*
X0019419Y0048775D01*
X0020581Y0049955D02*
X0021975Y0049955D01*
X0021700Y0051134D02*
X0020581Y0051134D01*
X0020581Y0052314D02*
X0021700Y0052314D01*
X0022085Y0053494D02*
X0020331Y0053494D01*
X0019151Y0054673D02*
X0022757Y0054673D01*
X0024101Y0055853D02*
X0006260Y0055853D01*
X0006260Y0057032D02*
X0024815Y0057032D01*
X0023053Y0058212D02*
X0018855Y0058212D01*
X0018243Y0057600D02*
X0020581Y0059938D01*
X0020581Y0063243D01*
X0018243Y0065581D01*
X0014938Y0065581D01*
X0012600Y0063243D01*
X0012600Y0059938D01*
X0014938Y0057600D01*
X0018243Y0057600D01*
X0020035Y0059392D02*
X0022208Y0059392D01*
X0021719Y0060571D02*
X0020581Y0060571D01*
X0020581Y0061751D02*
X0021700Y0061751D01*
X0021852Y0062930D02*
X0020581Y0062930D01*
X0019714Y0064110D02*
X0022341Y0064110D01*
X0023373Y0065290D02*
X0018535Y0065290D01*
X0018243Y0067600D02*
X0014938Y0067600D01*
X0012600Y0069938D01*
X0012600Y0073243D01*
X0014938Y0075581D01*
X0018243Y0075581D01*
X0020581Y0073243D01*
X0020581Y0069938D01*
X0018243Y0067600D01*
X0018292Y0067649D02*
X0023616Y0067649D01*
X0023820Y0067445D02*
X0025618Y0066700D01*
X0027563Y0066700D01*
X0029361Y0067445D01*
X0030676Y0068760D01*
X0031236Y0068200D01*
X0032512Y0068200D01*
X0033109Y0068796D01*
X0033705Y0068200D01*
X0034981Y0068200D01*
X0035259Y0068478D01*
X0035536Y0068200D01*
X0037416Y0068200D01*
X0038047Y0068200D01*
X0038047Y0068200D01*
X0038069Y0068222D01*
X0038664Y0068817D01*
X0038664Y0068817D01*
X0039545Y0069698D01*
X0039567Y0069720D01*
X0039567Y0070351D01*
X0039567Y0070996D01*
X0039567Y0073465D01*
X0038664Y0074367D01*
X0038047Y0074984D01*
X0036813Y0074984D01*
X0036813Y0074984D01*
X0036181Y0074984D01*
X0035536Y0074984D01*
X0034642Y0074089D01*
X0033747Y0074984D01*
X0032471Y0074984D01*
X0031568Y0074082D01*
X0031062Y0073576D01*
X0030737Y0074361D01*
X0029361Y0075737D01*
X0027563Y0076481D01*
X0025618Y0076481D01*
X0023820Y0075737D01*
X0022445Y0074361D01*
X0021700Y0072563D01*
X0021700Y0070618D01*
X0022445Y0068820D01*
X0023820Y0067445D01*
X0022441Y0068829D02*
X0019472Y0068829D01*
X0020581Y0070008D02*
X0021952Y0070008D01*
X0021700Y0071188D02*
X0020581Y0071188D01*
X0020581Y0072367D02*
X0021700Y0072367D01*
X0022107Y0073547D02*
X0020278Y0073547D01*
X0019098Y0074727D02*
X0022810Y0074727D01*
X0024230Y0075906D02*
X0006260Y0075906D01*
X0006381Y0074727D02*
X0006800Y0074727D01*
X0006800Y0073547D02*
X0006381Y0073547D01*
X0006381Y0072367D02*
X0006800Y0072367D01*
X0006800Y0071188D02*
X0006381Y0071188D01*
X0006381Y0070008D02*
X0006800Y0070008D01*
X0006800Y0068829D02*
X0006381Y0068829D01*
X0006381Y0067649D02*
X0006800Y0067649D01*
X0006260Y0066469D02*
X0025589Y0066469D01*
X0027592Y0066469D02*
X0138668Y0066469D01*
X0138616Y0067649D02*
X0134565Y0067649D01*
X0134361Y0067445D02*
X0135737Y0068820D01*
X0136481Y0070618D01*
X0136481Y0072563D01*
X0135737Y0074361D01*
X0134361Y0075737D01*
X0132563Y0076481D01*
X0130618Y0076481D01*
X0128820Y0075737D01*
X0127445Y0074361D01*
X0126700Y0072563D01*
X0126700Y0070618D01*
X0127445Y0068820D01*
X0128820Y0067445D01*
X0130618Y0066700D01*
X0132563Y0066700D01*
X0134361Y0067445D01*
X0135740Y0068829D02*
X0137441Y0068829D01*
X0136952Y0070008D02*
X0136229Y0070008D01*
X0136481Y0071188D02*
X0136700Y0071188D01*
X0136700Y0072367D02*
X0136481Y0072367D01*
X0136074Y0073547D02*
X0137107Y0073547D01*
X0137810Y0074727D02*
X0135371Y0074727D01*
X0133951Y0075906D02*
X0139230Y0075906D01*
X0139323Y0078200D02*
X0138046Y0078200D01*
X0137450Y0078796D01*
X0136854Y0078200D01*
X0135578Y0078200D01*
X0134675Y0079102D01*
X0134675Y0084082D01*
X0135578Y0084984D01*
X0138706Y0084984D01*
X0139323Y0084367D01*
X0139940Y0083750D01*
X0140523Y0083750D01*
X0141154Y0083750D01*
X0141154Y0083750D01*
X0142389Y0083750D01*
X0142975Y0083164D01*
X0143561Y0083750D01*
X0144510Y0083750D01*
X0144510Y0084082D01*
X0145413Y0084984D01*
X0146689Y0084984D01*
X0147591Y0084082D01*
X0147591Y0082847D01*
X0147591Y0079102D01*
X0146689Y0078200D01*
X0143561Y0078200D01*
X0142975Y0078786D01*
X0142389Y0078200D01*
X0139878Y0078200D01*
X0139600Y0078478D01*
X0139323Y0078200D01*
X0139388Y0078265D02*
X0139813Y0078265D01*
X0137981Y0078265D02*
X0136919Y0078265D01*
X0135512Y0078265D02*
X0132365Y0078265D01*
X0132300Y0078200D02*
X0133202Y0079102D01*
X0133202Y0079720D01*
X0133819Y0080337D01*
X0133819Y0082230D01*
X0132917Y0083133D01*
X0132300Y0083750D01*
X0131065Y0083750D01*
X0130434Y0083750D01*
X0129789Y0083750D01*
X0129511Y0083472D01*
X0129234Y0083750D01*
X0127957Y0083750D01*
X0127361Y0083154D01*
X0126765Y0083750D01*
X0125829Y0083750D01*
X0125829Y0084082D01*
X0124927Y0084984D01*
X0123033Y0084984D01*
X0122755Y0084707D01*
X0122478Y0084984D01*
X0119350Y0084984D01*
X0118448Y0084082D01*
X0118448Y0079102D01*
X0119350Y0078200D01*
X0121846Y0078200D01*
X0122478Y0078200D01*
X0122500Y0078222D01*
X0122755Y0078478D01*
X0123033Y0078200D01*
X0125544Y0078200D01*
X0125825Y0078481D01*
X0126106Y0078200D01*
X0129234Y0078200D01*
X0129511Y0078478D01*
X0129789Y0078200D01*
X0132300Y0078200D01*
X0133202Y0079445D02*
X0134675Y0079445D01*
X0134675Y0080625D02*
X0133819Y0080625D01*
X0133819Y0081804D02*
X0134675Y0081804D01*
X0134675Y0082984D02*
X0133065Y0082984D01*
X0134757Y0084164D02*
X0125747Y0084164D01*
X0123719Y0088000D02*
X0124680Y0088961D01*
X0124680Y0090320D01*
X0123858Y0091142D01*
X0124680Y0091964D01*
X0124680Y0094073D01*
X0123929Y0094824D01*
X0122968Y0095785D01*
X0120108Y0095785D01*
X0119611Y0095288D01*
X0119115Y0095785D01*
X0114753Y0095785D01*
X0114632Y0095664D01*
X0114511Y0095785D01*
X0113152Y0095785D01*
X0112330Y0094963D01*
X0112104Y0095190D01*
X0111817Y0095620D01*
X0111637Y0095656D01*
X0111508Y0095785D01*
X0110991Y0095785D01*
X0110484Y0095886D01*
X0110332Y0095785D01*
X0110149Y0095785D01*
X0110028Y0095664D01*
X0109907Y0095785D01*
X0105545Y0095785D01*
X0105049Y0095288D01*
X0104552Y0095785D01*
X0100941Y0095785D01*
X0100445Y0095288D01*
X0099948Y0095785D01*
X0096337Y0095785D01*
X0096216Y0095664D01*
X0096095Y0095785D01*
X0094736Y0095785D01*
X0093914Y0094963D01*
X0093093Y0095785D01*
X0091733Y0095785D01*
X0091237Y0095288D01*
X0090741Y0095785D01*
X0087880Y0095785D01*
X0087130Y0095034D01*
X0086169Y0094073D01*
X0086169Y0089712D01*
X0087130Y0088751D01*
X0087880Y0088000D01*
X0090741Y0088000D01*
X0091612Y0088872D01*
X0092484Y0088000D01*
X0095344Y0088000D01*
X0095841Y0088496D01*
X0096337Y0088000D01*
X0097696Y0088000D01*
X0098518Y0088822D01*
X0099340Y0088000D01*
X0100699Y0088000D01*
X0100820Y0088121D01*
X0100941Y0088000D01*
X0102300Y0088000D01*
X0103122Y0088822D01*
X0103944Y0088000D01*
X0105303Y0088000D01*
X0105424Y0088121D01*
X0105545Y0088000D01*
X0109907Y0088000D01*
X0110028Y0088121D01*
X0110149Y0088000D01*
X0111508Y0088000D01*
X0112330Y0088822D01*
X0112556Y0088595D01*
X0112843Y0088165D01*
X0113022Y0088129D01*
X0113152Y0088000D01*
X0113669Y0088000D01*
X0114176Y0087899D01*
X0114328Y0088000D01*
X0114511Y0088000D01*
X0114876Y0088366D01*
X0115307Y0088652D01*
X0115343Y0088832D01*
X0115383Y0088872D01*
X0116254Y0088000D01*
X0117613Y0088000D01*
X0118485Y0088872D01*
X0119357Y0088000D01*
X0123719Y0088000D01*
X0124601Y0088882D02*
X0127419Y0088882D01*
X0127445Y0088820D02*
X0128820Y0087445D01*
X0130618Y0086700D01*
X0132563Y0086700D01*
X0134361Y0087445D01*
X0135737Y0088820D01*
X0136481Y0090618D01*
X0136481Y0092563D01*
X0135737Y0094361D01*
X0134361Y0095737D01*
X0132563Y0096481D01*
X0130618Y0096481D01*
X0128820Y0095737D01*
X0127445Y0094361D01*
X0126700Y0092563D01*
X0126700Y0090618D01*
X0127445Y0088820D01*
X0126930Y0090062D02*
X0124680Y0090062D01*
X0123957Y0091241D02*
X0126700Y0091241D01*
X0126700Y0092421D02*
X0124680Y0092421D01*
X0124680Y0093600D02*
X0127130Y0093600D01*
X0127864Y0094780D02*
X0123973Y0094780D01*
X0123033Y0098200D02*
X0122755Y0098478D01*
X0122500Y0098222D01*
X0122478Y0098200D01*
X0122478Y0098200D01*
X0121846Y0098200D01*
X0119350Y0098200D01*
X0118448Y0099102D01*
X0118448Y0102806D01*
X0118448Y0104082D01*
X0119350Y0104984D01*
X0122478Y0104984D01*
X0122755Y0104707D01*
X0123033Y0104984D01*
X0124927Y0104984D01*
X0125829Y0104082D01*
X0125829Y0103750D01*
X0126765Y0103750D01*
X0127361Y0103154D01*
X0127957Y0103750D01*
X0129234Y0103750D01*
X0129511Y0103472D01*
X0129789Y0103750D01*
X0130434Y0103750D01*
X0131065Y0103750D01*
X0131065Y0103750D01*
X0132300Y0103750D01*
X0132917Y0103133D01*
X0133819Y0102230D01*
X0133819Y0100337D01*
X0133202Y0099720D01*
X0133202Y0099102D01*
X0132300Y0098200D01*
X0129789Y0098200D01*
X0129511Y0098478D01*
X0129234Y0098200D01*
X0126106Y0098200D01*
X0125825Y0098481D01*
X0125544Y0098200D01*
X0123033Y0098200D01*
X0122914Y0098319D02*
X0122597Y0098319D01*
X0125663Y0098319D02*
X0125987Y0098319D01*
X0129352Y0098319D02*
X0129670Y0098319D01*
X0129359Y0095960D02*
X0028822Y0095960D01*
X0029361Y0095737D02*
X0027563Y0096481D01*
X0025618Y0096481D01*
X0023820Y0095737D01*
X0022445Y0094361D01*
X0021700Y0092563D01*
X0021700Y0090618D01*
X0022445Y0088820D01*
X0023820Y0087445D01*
X0025618Y0086700D01*
X0027563Y0086700D01*
X0029361Y0087445D01*
X0030737Y0088820D01*
X0031024Y0089513D01*
X0031102Y0089434D01*
X0031434Y0089102D01*
X0032337Y0088200D01*
X0033613Y0088200D01*
X0034199Y0088786D01*
X0034786Y0088200D01*
X0038517Y0088200D01*
X0039113Y0088796D01*
X0039151Y0088759D01*
X0039420Y0088355D01*
X0039588Y0088321D01*
X0039710Y0088200D01*
X0040195Y0088200D01*
X0040671Y0088105D01*
X0040814Y0088200D01*
X0040986Y0088200D01*
X0041329Y0088543D01*
X0041733Y0088813D01*
X0041767Y0088981D01*
X0041888Y0089102D01*
X0041888Y0089588D01*
X0041984Y0090064D01*
X0041888Y0090207D01*
X0041888Y0094082D01*
X0040986Y0094984D01*
X0039710Y0094984D01*
X0039113Y0094388D01*
X0039076Y0094425D01*
X0038807Y0094829D01*
X0038639Y0094863D01*
X0038517Y0094984D01*
X0038032Y0094984D01*
X0037556Y0095079D01*
X0037413Y0094984D01*
X0033571Y0094984D01*
X0032975Y0094388D01*
X0032379Y0094984D01*
X0031102Y0094984D01*
X0030608Y0094490D01*
X0029361Y0095737D01*
X0030317Y0094780D02*
X0030898Y0094780D01*
X0032583Y0094780D02*
X0033367Y0094780D01*
X0029907Y0097708D02*
X0030473Y0098274D01*
X0030944Y0098923D01*
X0030962Y0098957D01*
X0031720Y0098200D01*
X0033586Y0098200D01*
X0034230Y0098200D01*
X0034508Y0098478D01*
X0034786Y0098200D01*
X0036062Y0098200D01*
X0036658Y0098796D01*
X0036695Y0098759D01*
X0036965Y0098355D01*
X0037133Y0098321D01*
X0037254Y0098200D01*
X0037740Y0098200D01*
X0038216Y0098105D01*
X0038359Y0098200D01*
X0040952Y0098200D01*
X0041597Y0098200D01*
X0042214Y0098817D01*
X0043116Y0099720D01*
X0043116Y0100364D01*
X0043116Y0100996D01*
X0043116Y0103465D01*
X0042499Y0104082D01*
X0041597Y0104984D01*
X0037254Y0104984D01*
X0036658Y0104388D01*
X0036621Y0104425D01*
X0036352Y0104829D01*
X0036183Y0104863D01*
X0036062Y0104984D01*
X0035576Y0104984D01*
X0035100Y0105079D01*
X0034957Y0104984D01*
X0034786Y0104984D01*
X0034508Y0104707D01*
X0034230Y0104984D01*
X0032996Y0104984D01*
X0032996Y0104984D01*
X0032351Y0104984D01*
X0031720Y0104984D01*
X0031720Y0104984D01*
X0031720Y0104984D01*
X0031698Y0104962D01*
X0030961Y0104226D01*
X0030944Y0104259D01*
X0030473Y0104907D01*
X0029907Y0105473D01*
X0029259Y0105944D01*
X0028545Y0106308D01*
X0027783Y0106556D01*
X0027563Y0106591D01*
X0027783Y0106625D01*
X0028545Y0106873D01*
X0029259Y0107237D01*
X0029907Y0107708D01*
X0030473Y0108274D01*
X0030944Y0108923D01*
X0030962Y0108957D01*
X0031720Y0108200D01*
X0033586Y0108200D01*
X0034230Y0108200D01*
X0034508Y0108478D01*
X0034786Y0108200D01*
X0036062Y0108200D01*
X0036658Y0108796D01*
X0036695Y0108759D01*
X0036965Y0108355D01*
X0037133Y0108321D01*
X0037254Y0108200D01*
X0037740Y0108200D01*
X0038216Y0108105D01*
X0038359Y0108200D01*
X0040952Y0108200D01*
X0041597Y0108200D01*
X0042214Y0108817D01*
X0043116Y0109720D01*
X0043116Y0110364D01*
X0043116Y0110996D01*
X0043116Y0113465D01*
X0042499Y0114082D01*
X0041597Y0114984D01*
X0037254Y0114984D01*
X0036658Y0114388D01*
X0036621Y0114425D01*
X0036352Y0114829D01*
X0036183Y0114863D01*
X0036062Y0114984D01*
X0035576Y0114984D01*
X0035100Y0115079D01*
X0034957Y0114984D01*
X0034786Y0114984D01*
X0034508Y0114707D01*
X0034230Y0114984D01*
X0032996Y0114984D01*
X0032996Y0114984D01*
X0032351Y0114984D01*
X0031720Y0114984D01*
X0031720Y0114984D01*
X0031698Y0114962D01*
X0030961Y0114226D01*
X0030944Y0114259D01*
X0030473Y0114907D01*
X0029907Y0115473D01*
X0029259Y0115944D01*
X0028545Y0116308D01*
X0027783Y0116556D01*
X0027000Y0116680D01*
X0027000Y0112000D01*
X0026181Y0112000D01*
X0026181Y0111181D01*
X0021501Y0111181D01*
X0021625Y0110398D01*
X0021873Y0109636D01*
X0022237Y0108923D01*
X0022708Y0108274D01*
X0023274Y0107708D01*
X0023923Y0107237D01*
X0024636Y0106873D01*
X0025398Y0106625D01*
X0025618Y0106591D01*
X0025398Y0106556D01*
X0024636Y0106308D01*
X0023923Y0105944D01*
X0023274Y0105473D01*
X0022708Y0104907D01*
X0022237Y0104259D01*
X0021873Y0103545D01*
X0021625Y0102783D01*
X0021501Y0102000D01*
X0026181Y0102000D01*
X0026181Y0101181D01*
X0027000Y0101181D01*
X0027000Y0096501D01*
X0027783Y0096625D01*
X0028545Y0096873D01*
X0029259Y0097237D01*
X0029907Y0097708D01*
X0030506Y0098319D02*
X0031601Y0098319D01*
X0034349Y0098319D02*
X0034667Y0098319D01*
X0036181Y0098319D02*
X0037135Y0098319D01*
X0038840Y0094780D02*
X0039506Y0094780D01*
X0041190Y0094780D02*
X0086875Y0094780D01*
X0086169Y0093600D02*
X0041888Y0093600D01*
X0041888Y0092421D02*
X0086169Y0092421D01*
X0086169Y0091241D02*
X0041888Y0091241D01*
X0041983Y0090062D02*
X0086169Y0090062D01*
X0086998Y0088882D02*
X0041747Y0088882D01*
X0041715Y0098319D02*
X0119231Y0098319D01*
X0118448Y0099498D02*
X0042895Y0099498D01*
X0042214Y0098817D02*
X0042214Y0098817D01*
X0043116Y0100678D02*
X0118448Y0100678D01*
X0118448Y0101858D02*
X0043116Y0101858D01*
X0043116Y0100996D02*
X0043116Y0100996D01*
X0043116Y0103037D02*
X0118448Y0103037D01*
X0118583Y0104217D02*
X0042364Y0104217D01*
X0042214Y0108817D02*
X0042214Y0108817D01*
X0042332Y0108935D02*
X0086945Y0108935D01*
X0086919Y0108961D02*
X0087880Y0108000D01*
X0090741Y0108000D01*
X0091612Y0108872D01*
X0092484Y0108000D01*
X0095344Y0108000D01*
X0095841Y0108496D01*
X0096337Y0108000D01*
X0097696Y0108000D01*
X0098518Y0108822D01*
X0099340Y0108000D01*
X0100699Y0108000D01*
X0100820Y0108121D01*
X0100941Y0108000D01*
X0102300Y0108000D01*
X0103122Y0108822D01*
X0103944Y0108000D01*
X0105303Y0108000D01*
X0105424Y0108121D01*
X0105545Y0108000D01*
X0109907Y0108000D01*
X0110028Y0108121D01*
X0110149Y0108000D01*
X0111508Y0108000D01*
X0112330Y0108822D01*
X0112556Y0108595D01*
X0112843Y0108165D01*
X0113022Y0108129D01*
X0113152Y0108000D01*
X0113669Y0108000D01*
X0114176Y0107899D01*
X0114328Y0108000D01*
X0114511Y0108000D01*
X0114876Y0108366D01*
X0115307Y0108652D01*
X0115343Y0108832D01*
X0115383Y0108872D01*
X0116254Y0108000D01*
X0117613Y0108000D01*
X0118574Y0108961D01*
X0118574Y0109533D01*
X0120108Y0108000D01*
X0122968Y0108000D01*
X0123929Y0108961D01*
X0124680Y0109712D01*
X0124680Y0111821D01*
X0124609Y0111892D01*
X0124680Y0111964D01*
X0124680Y0114073D01*
X0123719Y0115034D01*
X0122968Y0115785D01*
X0120108Y0115785D01*
X0119611Y0115288D01*
X0119115Y0115785D01*
X0114753Y0115785D01*
X0114632Y0115664D01*
X0114511Y0115785D01*
X0113152Y0115785D01*
X0112330Y0114963D01*
X0112104Y0115190D01*
X0111817Y0115620D01*
X0111637Y0115656D01*
X0111508Y0115785D01*
X0110991Y0115785D01*
X0110484Y0115886D01*
X0110332Y0115785D01*
X0110149Y0115785D01*
X0110028Y0115664D01*
X0109907Y0115785D01*
X0105545Y0115785D01*
X0105049Y0115288D01*
X0104552Y0115785D01*
X0100941Y0115785D01*
X0100445Y0115288D01*
X0099948Y0115785D01*
X0096337Y0115785D01*
X0096216Y0115664D01*
X0096095Y0115785D01*
X0094736Y0115785D01*
X0093914Y0114963D01*
X0093093Y0115785D01*
X0091733Y0115785D01*
X0091237Y0115288D01*
X0090741Y0115785D01*
X0087880Y0115785D01*
X0087130Y0115034D01*
X0086169Y0114073D01*
X0086169Y0109712D01*
X0086919Y0108961D01*
X0086169Y0110115D02*
X0043116Y0110115D01*
X0043116Y0110996D02*
X0043116Y0110996D01*
X0043116Y0111295D02*
X0086169Y0111295D01*
X0086169Y0112474D02*
X0043116Y0112474D01*
X0042927Y0113654D02*
X0086169Y0113654D01*
X0086929Y0114833D02*
X0041747Y0114833D01*
X0037104Y0114833D02*
X0036330Y0114833D01*
X0034635Y0114833D02*
X0034381Y0114833D01*
X0031569Y0114833D02*
X0030527Y0114833D01*
X0029124Y0116013D02*
X0129488Y0116013D01*
X0128820Y0115737D02*
X0127445Y0114361D01*
X0126700Y0112563D01*
X0126700Y0110618D01*
X0127445Y0108820D01*
X0128820Y0107445D01*
X0130618Y0106700D01*
X0132563Y0106700D01*
X0134361Y0107445D01*
X0135737Y0108820D01*
X0136481Y0110618D01*
X0136481Y0112563D01*
X0135737Y0114361D01*
X0134361Y0115737D01*
X0132563Y0116481D01*
X0130618Y0116481D01*
X0128820Y0115737D01*
X0127917Y0114833D02*
X0123919Y0114833D01*
X0124680Y0113654D02*
X0127152Y0113654D01*
X0126700Y0112474D02*
X0124680Y0112474D01*
X0124680Y0111295D02*
X0126700Y0111295D01*
X0126908Y0110115D02*
X0124680Y0110115D01*
X0123903Y0108935D02*
X0127397Y0108935D01*
X0128509Y0107756D02*
X0029955Y0107756D01*
X0030951Y0108935D02*
X0030984Y0108935D01*
X0029984Y0105397D02*
X0151336Y0105397D01*
X0151181Y0106576D02*
X0151895Y0106576D01*
X0152000Y0107756D02*
X0151181Y0107756D01*
X0151181Y0108935D02*
X0152000Y0108935D01*
X0152000Y0110115D02*
X0151181Y0110115D01*
X0151181Y0111295D02*
X0146481Y0111295D01*
X0146481Y0110618D02*
X0145737Y0108820D01*
X0144361Y0107445D01*
X0142563Y0106700D01*
X0140618Y0106700D01*
X0138820Y0107445D01*
X0137445Y0108820D01*
X0136700Y0110618D01*
X0136700Y0112563D01*
X0137445Y0114361D01*
X0138820Y0115737D01*
X0139402Y0115977D01*
X0135770Y0119609D01*
X0031063Y0119609D01*
X0030737Y0118820D01*
X0029361Y0117445D01*
X0027563Y0116700D01*
X0025618Y0116700D01*
X0023820Y0117445D01*
X0022445Y0118820D01*
X0021700Y0120618D01*
X0021700Y0122563D01*
X0022445Y0124361D01*
X0023820Y0125737D01*
X0025618Y0126481D01*
X0027563Y0126481D01*
X0029361Y0125737D01*
X0030737Y0124361D01*
X0031063Y0123572D01*
X0031965Y0123572D01*
X0031434Y0124102D01*
X0030200Y0125337D01*
X0030200Y0129082D01*
X0031102Y0129984D01*
X0032379Y0129984D01*
X0032975Y0129388D01*
X0033571Y0129984D01*
X0034847Y0129984D01*
X0035125Y0129707D01*
X0035381Y0129962D01*
X0035403Y0129984D01*
X0035403Y0129984D01*
X0036034Y0129984D01*
X0036679Y0129984D01*
X0036679Y0129984D01*
X0037913Y0129984D01*
X0038500Y0129398D01*
X0039064Y0129962D01*
X0039086Y0129984D01*
X0039086Y0129984D01*
X0039717Y0129984D01*
X0040362Y0129984D01*
X0040362Y0129984D01*
X0041597Y0129984D01*
X0042499Y0129082D01*
X0043116Y0128465D01*
X0043116Y0127188D01*
X0042520Y0126592D01*
X0043116Y0125996D01*
X0043116Y0124720D01*
X0041968Y0123572D01*
X0137411Y0123572D01*
X0138572Y0122411D01*
X0143572Y0117411D01*
X0143572Y0116063D01*
X0144361Y0115737D01*
X0145737Y0114361D01*
X0146481Y0112563D01*
X0146481Y0110618D01*
X0146273Y0110115D02*
X0146717Y0110115D01*
X0147230Y0108935D02*
X0145784Y0108935D01*
X0144672Y0107756D02*
X0148226Y0107756D01*
X0150709Y0106576D02*
X0027654Y0106576D01*
X0027000Y0106576D02*
X0026181Y0106576D01*
X0026181Y0106680D02*
X0026181Y0102000D01*
X0027000Y0102000D01*
X0027000Y0111181D01*
X0026181Y0111181D01*
X0026181Y0106680D01*
X0025527Y0106576D02*
X0006260Y0106576D01*
X0006260Y0105397D02*
X0023197Y0105397D01*
X0022216Y0104217D02*
X0006260Y0104217D01*
X0006260Y0103037D02*
X0021708Y0103037D01*
X0021501Y0101181D02*
X0021625Y0100398D01*
X0021873Y0099636D01*
X0022237Y0098923D01*
X0022708Y0098274D01*
X0023274Y0097708D01*
X0023923Y0097237D01*
X0024636Y0096873D01*
X0025398Y0096625D01*
X0026181Y0096501D01*
X0026181Y0101181D01*
X0021501Y0101181D01*
X0021581Y0100678D02*
X0006260Y0100678D01*
X0006260Y0099498D02*
X0021943Y0099498D01*
X0022675Y0098319D02*
X0006260Y0098319D01*
X0006260Y0097139D02*
X0024114Y0097139D01*
X0024359Y0095960D02*
X0006260Y0095960D01*
X0006260Y0094780D02*
X0022864Y0094780D01*
X0022130Y0093600D02*
X0006260Y0093600D01*
X0006260Y0092421D02*
X0021700Y0092421D01*
X0021700Y0091241D02*
X0006260Y0091241D01*
X0006260Y0090062D02*
X0021930Y0090062D01*
X0022419Y0088882D02*
X0006260Y0088882D01*
X0006260Y0087702D02*
X0023562Y0087702D01*
X0023820Y0085737D02*
X0022445Y0084361D01*
X0021700Y0082563D01*
X0021700Y0080618D01*
X0022445Y0078820D01*
X0023820Y0077445D01*
X0025618Y0076700D01*
X0027563Y0076700D01*
X0029361Y0077445D01*
X0030737Y0078820D01*
X0031481Y0080618D01*
X0031481Y0082563D01*
X0030737Y0084361D01*
X0029361Y0085737D01*
X0027563Y0086481D01*
X0025618Y0086481D01*
X0023820Y0085737D01*
X0023427Y0085343D02*
X0006260Y0085343D01*
X0006260Y0084164D02*
X0022363Y0084164D01*
X0021874Y0082984D02*
X0016729Y0082984D01*
X0018665Y0081804D02*
X0021700Y0081804D01*
X0021700Y0080625D02*
X0019050Y0080625D01*
X0018411Y0079445D02*
X0022186Y0079445D01*
X0022999Y0078265D02*
X0018968Y0078265D01*
X0018936Y0077086D02*
X0024686Y0077086D01*
X0028495Y0077086D02*
X0167000Y0077086D01*
X0167000Y0078265D02*
X0165077Y0078265D01*
X0165525Y0078355D02*
X0166233Y0079417D01*
X0165982Y0080668D01*
X0165523Y0080975D01*
X0165982Y0081281D01*
X0166233Y0082533D01*
X0165525Y0083595D01*
X0164286Y0083843D01*
X0164286Y0084082D01*
X0163384Y0084984D01*
X0162107Y0084984D01*
X0161205Y0084082D01*
X0161205Y0083750D01*
X0160318Y0083750D01*
X0160318Y0083750D01*
X0159673Y0083750D01*
X0159041Y0083750D01*
X0159019Y0083728D01*
X0158455Y0083164D01*
X0157869Y0083750D01*
X0155358Y0083750D01*
X0155081Y0083473D01*
X0155081Y0084082D01*
X0154179Y0084984D01*
X0152286Y0084984D01*
X0152008Y0084707D01*
X0151730Y0084984D01*
X0148602Y0084984D01*
X0147700Y0084082D01*
X0147700Y0079102D01*
X0148602Y0078200D01*
X0151099Y0078200D01*
X0151730Y0078200D01*
X0151730Y0078200D01*
X0151752Y0078222D01*
X0152008Y0078478D01*
X0152286Y0078200D01*
X0154796Y0078200D01*
X0155077Y0078481D01*
X0155358Y0078200D01*
X0158486Y0078200D01*
X0158764Y0078478D01*
X0159041Y0078200D01*
X0163384Y0078200D01*
X0163682Y0078499D01*
X0164273Y0078105D01*
X0165525Y0078355D01*
X0166227Y0079445D02*
X0167000Y0079445D01*
X0167000Y0080625D02*
X0165991Y0080625D01*
X0166087Y0081804D02*
X0167000Y0081804D01*
X0167000Y0082984D02*
X0165932Y0082984D01*
X0167000Y0084164D02*
X0164204Y0084164D01*
X0161287Y0084164D02*
X0155000Y0084164D01*
X0154899Y0087702D02*
X0167000Y0087702D01*
X0167000Y0086523D02*
X0152135Y0086523D01*
X0152000Y0086523D02*
X0151181Y0086523D01*
X0151046Y0086523D02*
X0006260Y0086523D01*
X0009022Y0082984D02*
X0009715Y0082984D01*
X0009381Y0074727D02*
X0014083Y0074727D01*
X0012904Y0073547D02*
X0010560Y0073547D01*
X0010781Y0072367D02*
X0012600Y0072367D01*
X0012600Y0071188D02*
X0010781Y0071188D01*
X0010781Y0070008D02*
X0012600Y0070008D01*
X0013709Y0068829D02*
X0009755Y0068829D01*
X0008575Y0067649D02*
X0014889Y0067649D01*
X0014646Y0065290D02*
X0008818Y0065290D01*
X0009997Y0064110D02*
X0013467Y0064110D01*
X0012600Y0062930D02*
X0010781Y0062930D01*
X0012600Y0061751D02*
X0006800Y0061751D01*
X0006800Y0062930D02*
X0006381Y0062930D01*
X0006381Y0064110D02*
X0006800Y0064110D01*
X0006800Y0065290D02*
X0006381Y0065290D01*
X0006381Y0060571D02*
X0006800Y0060571D01*
X0006800Y0059392D02*
X0006381Y0059392D01*
X0006381Y0058212D02*
X0006800Y0058212D01*
X0009138Y0058212D02*
X0014326Y0058212D01*
X0013146Y0059392D02*
X0010318Y0059392D01*
X0010781Y0060571D02*
X0012600Y0060571D01*
X0014593Y0045236D02*
X0008871Y0045236D01*
X0010051Y0044057D02*
X0013413Y0044057D01*
X0012600Y0042877D02*
X0010781Y0042877D01*
X0012600Y0041697D02*
X0006800Y0041697D01*
X0006800Y0040518D02*
X0006381Y0040518D01*
X0006381Y0039338D02*
X0006800Y0039338D01*
X0006800Y0038159D02*
X0006381Y0038159D01*
X0006260Y0036979D02*
X0024944Y0036979D01*
X0023972Y0035799D02*
X0006260Y0035799D01*
X0006381Y0034620D02*
X0006800Y0034620D01*
X0006800Y0033440D02*
X0006381Y0033440D01*
X0006381Y0032261D02*
X0006800Y0032261D01*
X0006800Y0031081D02*
X0006381Y0031081D01*
X0006381Y0029901D02*
X0006800Y0029901D01*
X0006800Y0028722D02*
X0006381Y0028722D01*
X0006381Y0027542D02*
X0006800Y0027542D01*
X0008468Y0027542D02*
X0023723Y0027542D01*
X0014539Y0025183D02*
X0008925Y0025183D01*
X0009648Y0028722D02*
X0013816Y0028722D01*
X0012636Y0029901D02*
X0010781Y0029901D01*
X0010781Y0031081D02*
X0012600Y0031081D01*
X0012600Y0032261D02*
X0010781Y0032261D01*
X0010667Y0033440D02*
X0012797Y0033440D01*
X0013976Y0034620D02*
X0009488Y0034620D01*
X0009085Y0038159D02*
X0014379Y0038159D01*
X0013199Y0039338D02*
X0010265Y0039338D01*
X0010781Y0040518D02*
X0012600Y0040518D01*
X0006800Y0042877D02*
X0006381Y0042877D01*
X0006381Y0044057D02*
X0006800Y0044057D01*
X0006800Y0045236D02*
X0006381Y0045236D01*
X0030424Y0054673D02*
X0032159Y0054673D01*
X0034058Y0054673D02*
X0035225Y0054673D01*
X0035536Y0054984D02*
X0035536Y0054984D01*
X0033693Y0058212D02*
X0032524Y0058212D01*
X0031224Y0058212D02*
X0030128Y0058212D01*
X0030840Y0064110D02*
X0031596Y0064110D01*
X0029808Y0065290D02*
X0132488Y0065290D01*
X0131308Y0064110D02*
X0038304Y0064110D01*
X0038332Y0062930D02*
X0130129Y0062930D01*
X0134091Y0064091D02*
X0139091Y0064091D01*
X0141591Y0066591D01*
X0141591Y0071591D01*
X0144565Y0067649D02*
X0148355Y0067649D01*
X0148274Y0067708D02*
X0148923Y0067237D01*
X0149636Y0066873D01*
X0150398Y0066625D01*
X0151181Y0066501D01*
X0151181Y0071181D01*
X0146501Y0071181D01*
X0146625Y0070398D01*
X0146873Y0069636D01*
X0147237Y0068923D01*
X0147708Y0068274D01*
X0148274Y0067708D01*
X0147305Y0068829D02*
X0145740Y0068829D01*
X0146229Y0070008D02*
X0146752Y0070008D01*
X0146481Y0071188D02*
X0151181Y0071188D01*
X0151181Y0071181D02*
X0151181Y0072000D01*
X0146501Y0072000D01*
X0146625Y0072783D01*
X0146873Y0073545D01*
X0147237Y0074259D01*
X0147708Y0074907D01*
X0148274Y0075473D01*
X0148923Y0075944D01*
X0149636Y0076308D01*
X0150398Y0076556D01*
X0151181Y0076680D01*
X0151181Y0072000D01*
X0152000Y0072000D01*
X0152000Y0076680D01*
X0152783Y0076556D01*
X0153545Y0076308D01*
X0154259Y0075944D01*
X0154907Y0075473D01*
X0155473Y0074907D01*
X0155944Y0074259D01*
X0156308Y0073545D01*
X0156556Y0072783D01*
X0156680Y0072000D01*
X0152000Y0072000D01*
X0152000Y0071181D01*
X0152000Y0066501D01*
X0152783Y0066625D01*
X0153545Y0066873D01*
X0154259Y0067237D01*
X0154907Y0067708D01*
X0155473Y0068274D01*
X0155944Y0068923D01*
X0156308Y0069636D01*
X0156556Y0070398D01*
X0156680Y0071181D01*
X0152000Y0071181D01*
X0151181Y0071181D01*
X0152000Y0071188D02*
X0167000Y0071188D01*
X0167000Y0072367D02*
X0156622Y0072367D01*
X0156307Y0073547D02*
X0167000Y0073547D01*
X0167000Y0074727D02*
X0155604Y0074727D01*
X0154311Y0075906D02*
X0167000Y0075906D01*
X0164032Y0078265D02*
X0163449Y0078265D01*
X0158976Y0078265D02*
X0158551Y0078265D01*
X0155293Y0078265D02*
X0154862Y0078265D01*
X0152220Y0078265D02*
X0151796Y0078265D01*
X0152000Y0075906D02*
X0151181Y0075906D01*
X0151181Y0074727D02*
X0152000Y0074727D01*
X0152000Y0073547D02*
X0151181Y0073547D01*
X0151181Y0072367D02*
X0152000Y0072367D01*
X0152000Y0070008D02*
X0151181Y0070008D01*
X0151181Y0068829D02*
X0152000Y0068829D01*
X0152000Y0067649D02*
X0151181Y0067649D01*
X0154826Y0067649D02*
X0167000Y0067649D01*
X0167000Y0068829D02*
X0155876Y0068829D01*
X0156429Y0070008D02*
X0167000Y0070008D01*
X0167000Y0066469D02*
X0143572Y0066469D01*
X0143091Y0065290D02*
X0167000Y0065290D01*
X0167000Y0064110D02*
X0141912Y0064110D01*
X0144526Y0060571D02*
X0148409Y0060571D01*
X0147333Y0059392D02*
X0145706Y0059392D01*
X0146212Y0058212D02*
X0146765Y0058212D01*
X0146507Y0057032D02*
X0146481Y0057032D01*
X0146481Y0055853D02*
X0146553Y0055853D01*
X0146861Y0054673D02*
X0146090Y0054673D01*
X0145410Y0053494D02*
X0147548Y0053494D01*
X0148816Y0052314D02*
X0144046Y0052314D01*
X0143589Y0051134D02*
X0142628Y0051134D01*
X0145097Y0051134D02*
X0145421Y0051134D01*
X0148163Y0051134D02*
X0148626Y0051134D01*
X0148763Y0046416D02*
X0148812Y0046416D01*
X0148037Y0045236D02*
X0144861Y0045236D01*
X0145863Y0044057D02*
X0147134Y0044057D01*
X0146656Y0042877D02*
X0146351Y0042877D01*
X0146481Y0041697D02*
X0151181Y0041697D01*
X0152000Y0041697D02*
X0167000Y0041697D01*
X0167000Y0040518D02*
X0156575Y0040518D01*
X0156156Y0039338D02*
X0167000Y0039338D01*
X0167000Y0038159D02*
X0155358Y0038159D01*
X0153753Y0036979D02*
X0167000Y0036979D01*
X0167000Y0035799D02*
X0148425Y0035799D01*
X0149428Y0036979D02*
X0143237Y0036979D01*
X0145075Y0038159D02*
X0147823Y0038159D01*
X0147025Y0039338D02*
X0145951Y0039338D01*
X0146440Y0040518D02*
X0146606Y0040518D01*
X0151181Y0040518D02*
X0152000Y0040518D01*
X0152000Y0039338D02*
X0151181Y0039338D01*
X0151181Y0038159D02*
X0152000Y0038159D01*
X0152000Y0036979D02*
X0151181Y0036979D01*
X0150053Y0034620D02*
X0167000Y0034620D01*
X0167000Y0033440D02*
X0150793Y0033440D01*
X0151181Y0032261D02*
X0167000Y0032261D01*
X0167000Y0031081D02*
X0151181Y0031081D01*
X0151181Y0029901D02*
X0167000Y0029901D01*
X0167000Y0028722D02*
X0151181Y0028722D01*
X0151181Y0027542D02*
X0167000Y0027542D01*
X0167000Y0026362D02*
X0151181Y0026362D01*
X0151181Y0025183D02*
X0167000Y0025183D01*
X0167000Y0024003D02*
X0151181Y0024003D01*
X0151181Y0022824D02*
X0167000Y0022824D01*
X0167000Y0021644D02*
X0160957Y0021644D01*
X0163000Y0020464D02*
X0167000Y0020464D01*
X0167000Y0019285D02*
X0164297Y0019285D01*
X0165404Y0018105D02*
X0167000Y0018105D01*
X0167000Y0016926D02*
X0166085Y0016926D01*
X0166751Y0015746D02*
X0167000Y0015746D01*
X0152224Y0021644D02*
X0151181Y0021644D01*
X0156525Y0042877D02*
X0167000Y0042877D01*
X0167000Y0044057D02*
X0156047Y0044057D01*
X0155144Y0045236D02*
X0167000Y0045236D01*
X0167000Y0046416D02*
X0166825Y0046416D01*
X0167000Y0051134D02*
X0166253Y0051134D01*
X0167000Y0052314D02*
X0164480Y0052314D01*
X0162863Y0052314D02*
X0155275Y0052314D01*
X0155633Y0053494D02*
X0167000Y0053494D01*
X0167000Y0054673D02*
X0156320Y0054673D01*
X0156628Y0055853D02*
X0167000Y0055853D01*
X0167000Y0057032D02*
X0156675Y0057032D01*
X0156416Y0058212D02*
X0167000Y0058212D01*
X0167000Y0059392D02*
X0155848Y0059392D01*
X0154772Y0060571D02*
X0167000Y0060571D01*
X0159852Y0051134D02*
X0158910Y0051134D01*
X0156168Y0051134D02*
X0156007Y0051134D01*
X0152000Y0057032D02*
X0151181Y0057032D01*
X0151181Y0058212D02*
X0152000Y0058212D01*
X0152000Y0059392D02*
X0151181Y0059392D01*
X0151181Y0060571D02*
X0152000Y0060571D01*
X0146560Y0072367D02*
X0146481Y0072367D01*
X0146874Y0073547D02*
X0146074Y0073547D01*
X0145371Y0074727D02*
X0147577Y0074727D01*
X0148870Y0075906D02*
X0143951Y0075906D01*
X0143496Y0078265D02*
X0142454Y0078265D01*
X0146754Y0078265D02*
X0148537Y0078265D01*
X0147700Y0079445D02*
X0147591Y0079445D01*
X0147591Y0080625D02*
X0147700Y0080625D01*
X0147700Y0081804D02*
X0147591Y0081804D01*
X0147591Y0082984D02*
X0147700Y0082984D01*
X0147782Y0084164D02*
X0147510Y0084164D01*
X0144592Y0084164D02*
X0139526Y0084164D01*
X0140618Y0086700D02*
X0142563Y0086700D01*
X0144361Y0087445D01*
X0145737Y0088820D01*
X0146481Y0090618D01*
X0146481Y0092563D01*
X0145737Y0094361D01*
X0144361Y0095737D01*
X0142563Y0096481D01*
X0140618Y0096481D01*
X0138820Y0095737D01*
X0137445Y0094361D01*
X0136700Y0092563D01*
X0136700Y0090618D01*
X0137445Y0088820D01*
X0138820Y0087445D01*
X0140618Y0086700D01*
X0138562Y0087702D02*
X0134619Y0087702D01*
X0135762Y0088882D02*
X0137419Y0088882D01*
X0136930Y0090062D02*
X0136251Y0090062D01*
X0136481Y0091241D02*
X0136700Y0091241D01*
X0136700Y0092421D02*
X0136481Y0092421D01*
X0136052Y0093600D02*
X0137130Y0093600D01*
X0137864Y0094780D02*
X0135317Y0094780D01*
X0133822Y0095960D02*
X0139359Y0095960D01*
X0139323Y0098200D02*
X0138046Y0098200D01*
X0137450Y0098796D01*
X0136854Y0098200D01*
X0135578Y0098200D01*
X0134675Y0099102D01*
X0134675Y0104082D01*
X0135578Y0104984D01*
X0138706Y0104984D01*
X0139323Y0104367D01*
X0139940Y0103750D01*
X0140523Y0103750D01*
X0141154Y0103750D01*
X0141154Y0103750D01*
X0142389Y0103750D01*
X0142975Y0103164D01*
X0143561Y0103750D01*
X0144510Y0103750D01*
X0144510Y0104082D01*
X0145413Y0104984D01*
X0146689Y0104984D01*
X0147591Y0104082D01*
X0147591Y0102847D01*
X0147591Y0099102D01*
X0146689Y0098200D01*
X0143561Y0098200D01*
X0142975Y0098786D01*
X0142389Y0098200D01*
X0139878Y0098200D01*
X0139600Y0098478D01*
X0139323Y0098200D01*
X0139442Y0098319D02*
X0139759Y0098319D01*
X0137928Y0098319D02*
X0136973Y0098319D01*
X0135459Y0098319D02*
X0132418Y0098319D01*
X0133202Y0099498D02*
X0134675Y0099498D01*
X0134675Y0100678D02*
X0133819Y0100678D01*
X0133819Y0101858D02*
X0134675Y0101858D01*
X0134675Y0103037D02*
X0133012Y0103037D01*
X0134810Y0104217D02*
X0125694Y0104217D01*
X0119172Y0108935D02*
X0118549Y0108935D01*
X0134672Y0107756D02*
X0138509Y0107756D01*
X0137397Y0108935D02*
X0135784Y0108935D01*
X0136273Y0110115D02*
X0136908Y0110115D01*
X0136700Y0111295D02*
X0136481Y0111295D01*
X0136481Y0112474D02*
X0136700Y0112474D01*
X0137152Y0113654D02*
X0136029Y0113654D01*
X0135264Y0114833D02*
X0137917Y0114833D01*
X0139366Y0116013D02*
X0133693Y0116013D01*
X0137007Y0118372D02*
X0030289Y0118372D01*
X0031040Y0119552D02*
X0135827Y0119552D01*
X0138187Y0117193D02*
X0028753Y0117193D01*
X0027000Y0116013D02*
X0026181Y0116013D01*
X0026181Y0116680D02*
X0025398Y0116556D01*
X0024636Y0116308D01*
X0023923Y0115944D01*
X0023274Y0115473D01*
X0022708Y0114907D01*
X0022237Y0114259D01*
X0021873Y0113545D01*
X0021625Y0112783D01*
X0021501Y0112000D01*
X0026181Y0112000D01*
X0026181Y0116680D01*
X0024428Y0117193D02*
X0006260Y0117193D01*
X0006260Y0118372D02*
X0022893Y0118372D01*
X0022141Y0119552D02*
X0006260Y0119552D01*
X0006260Y0120732D02*
X0021700Y0120732D01*
X0021700Y0121911D02*
X0006260Y0121911D01*
X0006260Y0123091D02*
X0021918Y0123091D01*
X0022407Y0124270D02*
X0006260Y0124270D01*
X0006260Y0125450D02*
X0023534Y0125450D01*
X0026591Y0121591D02*
X0136591Y0121591D01*
X0141591Y0116591D01*
X0141591Y0111591D01*
X0145264Y0114833D02*
X0147654Y0114833D01*
X0146929Y0113654D02*
X0146029Y0113654D01*
X0146481Y0112474D02*
X0146577Y0112474D01*
X0149057Y0116013D02*
X0143693Y0116013D01*
X0143572Y0117193D02*
X0167000Y0117193D01*
X0167000Y0118372D02*
X0142610Y0118372D01*
X0141431Y0119552D02*
X0167000Y0119552D01*
X0167000Y0120732D02*
X0140251Y0120732D01*
X0139072Y0121911D02*
X0167000Y0121911D01*
X0167000Y0123091D02*
X0137892Y0123091D01*
X0130705Y0126102D02*
X0130584Y0125981D01*
X0130550Y0125813D01*
X0130146Y0125543D01*
X0129803Y0125200D01*
X0129631Y0125200D01*
X0129488Y0125105D01*
X0129012Y0125200D01*
X0128527Y0125200D01*
X0128405Y0125321D01*
X0128237Y0125355D01*
X0127968Y0125759D01*
X0127930Y0125796D01*
X0127334Y0125200D01*
X0123602Y0125200D01*
X0122700Y0126102D01*
X0122700Y0127379D01*
X0123317Y0127996D01*
X0123317Y0129188D01*
X0122700Y0129806D01*
X0122700Y0131082D01*
X0123602Y0131984D01*
X0124932Y0131984D01*
X0123820Y0132445D01*
X0122445Y0133820D01*
X0121700Y0135618D01*
X0121700Y0137563D01*
X0122445Y0139361D01*
X0123820Y0140737D01*
X0125618Y0141481D01*
X0127563Y0141481D01*
X0129361Y0140737D01*
X0130737Y0139361D01*
X0131481Y0137563D01*
X0131481Y0135618D01*
X0130737Y0133820D01*
X0129361Y0132445D01*
X0127678Y0131748D01*
X0127893Y0131425D01*
X0127930Y0131388D01*
X0128527Y0131984D01*
X0129803Y0131984D01*
X0130705Y0131082D01*
X0130705Y0127207D01*
X0130801Y0127064D01*
X0130705Y0126588D01*
X0130705Y0126102D01*
X0130714Y0126630D02*
X0167000Y0126630D01*
X0167000Y0127809D02*
X0130705Y0127809D01*
X0130705Y0128989D02*
X0167000Y0128989D01*
X0167000Y0130168D02*
X0130705Y0130168D01*
X0130439Y0131348D02*
X0167000Y0131348D01*
X0167000Y0132528D02*
X0129444Y0132528D01*
X0130624Y0133707D02*
X0167000Y0133707D01*
X0167000Y0134887D02*
X0131178Y0134887D01*
X0131481Y0136067D02*
X0167000Y0136067D01*
X0167000Y0137246D02*
X0131481Y0137246D01*
X0131124Y0138426D02*
X0167000Y0138426D01*
X0167000Y0139605D02*
X0130492Y0139605D01*
X0129244Y0140785D02*
X0167000Y0140785D01*
X0167000Y0141965D02*
X0006260Y0141965D01*
X0006260Y0143144D02*
X0060921Y0143144D01*
X0059742Y0144324D02*
X0006260Y0144324D01*
X0006260Y0145503D02*
X0058903Y0145503D01*
X0058903Y0146683D02*
X0006260Y0146683D01*
X0006260Y0147863D02*
X0058903Y0147863D01*
X0058903Y0149042D02*
X0006260Y0149042D01*
X0006260Y0140785D02*
X0099936Y0140785D01*
X0099753Y0140785D01*
X0099632Y0140664D01*
X0099511Y0140785D01*
X0095149Y0140785D01*
X0094653Y0140288D01*
X0094156Y0140785D01*
X0090545Y0140785D01*
X0090049Y0140288D01*
X0089552Y0140785D01*
X0085941Y0140785D01*
X0085820Y0140664D01*
X0085699Y0140785D01*
X0084340Y0140785D01*
X0083518Y0139963D01*
X0082696Y0140785D01*
X0081337Y0140785D01*
X0080841Y0140288D01*
X0080344Y0140785D01*
X0077484Y0140785D01*
X0076733Y0140034D01*
X0075772Y0139073D01*
X0075772Y0135530D01*
X0072848Y0135530D01*
X0072848Y0136071D01*
X0072026Y0136892D01*
X0072848Y0137714D01*
X0072848Y0139073D01*
X0072098Y0139824D01*
X0071137Y0140785D01*
X0068276Y0140785D01*
X0067526Y0140034D01*
X0067404Y0139913D01*
X0066533Y0140785D01*
X0062922Y0140785D01*
X0061961Y0139824D01*
X0061961Y0133961D01*
X0062922Y0133000D01*
X0066533Y0133000D01*
X0067283Y0133751D01*
X0067404Y0133872D01*
X0068276Y0133000D01*
X0071137Y0133000D01*
X0071258Y0133121D01*
X0072130Y0132249D01*
X0076491Y0132249D01*
X0077363Y0133121D01*
X0077484Y0133000D01*
X0080344Y0133000D01*
X0081216Y0133872D01*
X0082088Y0133000D01*
X0084948Y0133000D01*
X0085445Y0133496D01*
X0085941Y0133000D01*
X0087300Y0133000D01*
X0088122Y0133822D01*
X0088944Y0133000D01*
X0090303Y0133000D01*
X0090424Y0133121D01*
X0090545Y0133000D01*
X0091904Y0133000D01*
X0092726Y0133822D01*
X0093548Y0133000D01*
X0094907Y0133000D01*
X0095028Y0133121D01*
X0095149Y0133000D01*
X0099511Y0133000D01*
X0099632Y0133121D01*
X0099753Y0133000D01*
X0101112Y0133000D01*
X0101934Y0133822D01*
X0102160Y0133595D01*
X0102447Y0133165D01*
X0102626Y0133129D01*
X0102756Y0133000D01*
X0103273Y0133000D01*
X0103780Y0132899D01*
X0103932Y0133000D01*
X0104115Y0133000D01*
X0104480Y0133366D01*
X0104911Y0133652D01*
X0104946Y0133832D01*
X0104986Y0133872D01*
X0105858Y0133000D01*
X0107217Y0133000D01*
X0108178Y0133961D01*
X0108178Y0137504D01*
X0108719Y0137504D01*
X0109680Y0138465D01*
X0109680Y0139824D01*
X0108719Y0140785D01*
X0104357Y0140785D01*
X0104236Y0140664D01*
X0104115Y0140785D01*
X0102756Y0140785D01*
X0101934Y0139963D01*
X0101708Y0140190D01*
X0101421Y0140620D01*
X0101241Y0140656D01*
X0101112Y0140785D01*
X0100595Y0140785D01*
X0100088Y0140886D01*
X0099936Y0140785D01*
X0100595Y0140785D02*
X0113703Y0140785D01*
X0113923Y0140944D02*
X0113274Y0140473D01*
X0112708Y0139907D01*
X0112237Y0139259D01*
X0111873Y0138545D01*
X0111625Y0137783D01*
X0111501Y0137000D01*
X0116181Y0137000D01*
X0116181Y0136181D01*
X0111501Y0136181D01*
X0111625Y0135398D01*
X0111873Y0134636D01*
X0112237Y0133923D01*
X0112708Y0133274D01*
X0113274Y0132708D01*
X0113923Y0132237D01*
X0114636Y0131873D01*
X0114641Y0131871D01*
X0114158Y0131388D01*
X0114121Y0131425D01*
X0113852Y0131829D01*
X0113683Y0131863D01*
X0113562Y0131984D01*
X0113076Y0131984D01*
X0112600Y0132079D01*
X0112457Y0131984D01*
X0112286Y0131984D01*
X0112008Y0131707D01*
X0111730Y0131984D01*
X0110496Y0131984D01*
X0110496Y0131984D01*
X0109851Y0131984D01*
X0109220Y0131984D01*
X0109220Y0131984D01*
X0109198Y0131962D01*
X0108317Y0131082D01*
X0108317Y0131082D01*
X0107722Y0130487D01*
X0107700Y0130465D01*
X0107700Y0130465D01*
X0107700Y0129833D01*
X0107700Y0126720D01*
X0108317Y0126102D01*
X0109220Y0125200D01*
X0111086Y0125200D01*
X0111730Y0125200D01*
X0112008Y0125478D01*
X0112286Y0125200D01*
X0113562Y0125200D01*
X0114158Y0125796D01*
X0114195Y0125759D01*
X0114465Y0125355D01*
X0114633Y0125321D01*
X0114754Y0125200D01*
X0115240Y0125200D01*
X0115716Y0125105D01*
X0115859Y0125200D01*
X0118452Y0125200D01*
X0119097Y0125200D01*
X0119714Y0125817D01*
X0120616Y0126720D01*
X0120616Y0127364D01*
X0120616Y0127996D01*
X0120616Y0130465D01*
X0119999Y0131082D01*
X0119097Y0131984D01*
X0118763Y0131984D01*
X0119259Y0132237D01*
X0119907Y0132708D01*
X0120473Y0133274D01*
X0120944Y0133923D01*
X0121308Y0134636D01*
X0121556Y0135398D01*
X0121680Y0136181D01*
X0117000Y0136181D01*
X0117000Y0137000D01*
X0121680Y0137000D01*
X0121556Y0137783D01*
X0121308Y0138545D01*
X0120944Y0139259D01*
X0120473Y0139907D01*
X0119907Y0140473D01*
X0119259Y0140944D01*
X0118545Y0141308D01*
X0117783Y0141556D01*
X0117000Y0141680D01*
X0117000Y0137000D01*
X0116181Y0137000D01*
X0116181Y0141680D01*
X0115398Y0141556D01*
X0114636Y0141308D01*
X0113923Y0140944D01*
X0112489Y0139605D02*
X0109680Y0139605D01*
X0109641Y0138426D02*
X0111834Y0138426D01*
X0111540Y0137246D02*
X0108178Y0137246D01*
X0108178Y0136067D02*
X0111520Y0136067D01*
X0111792Y0134887D02*
X0108178Y0134887D01*
X0107925Y0133707D02*
X0112393Y0133707D01*
X0113522Y0132528D02*
X0076769Y0132528D01*
X0075772Y0136067D02*
X0072848Y0136067D01*
X0072380Y0137246D02*
X0075772Y0137246D01*
X0075772Y0138426D02*
X0072848Y0138426D01*
X0072316Y0139605D02*
X0076305Y0139605D01*
X0076980Y0143144D02*
X0077052Y0143144D01*
X0080800Y0143144D02*
X0082406Y0143144D01*
X0084654Y0143144D02*
X0086260Y0143144D01*
X0090008Y0143144D02*
X0090113Y0143144D01*
X0092360Y0143144D02*
X0093115Y0143144D01*
X0095363Y0143144D02*
X0098545Y0143144D01*
X0097365Y0144324D02*
X0095880Y0144324D01*
X0095470Y0145503D02*
X0097000Y0145503D01*
X0095880Y0146683D02*
X0101181Y0146683D01*
X0102000Y0146683D02*
X0122200Y0146683D01*
X0122200Y0145503D02*
X0106181Y0145503D01*
X0105816Y0144324D02*
X0122648Y0144324D01*
X0123828Y0143144D02*
X0104636Y0143144D01*
X0102000Y0143144D02*
X0101181Y0143144D01*
X0101181Y0144324D02*
X0102000Y0144324D01*
X0102000Y0145503D02*
X0101181Y0145503D01*
X0101181Y0147863D02*
X0102000Y0147863D01*
X0102000Y0149042D02*
X0101181Y0149042D01*
X0097550Y0149042D02*
X0095611Y0149042D01*
X0095880Y0147863D02*
X0097000Y0147863D01*
X0105631Y0149042D02*
X0122833Y0149042D01*
X0122200Y0147863D02*
X0106181Y0147863D01*
X0116181Y0140785D02*
X0117000Y0140785D01*
X0117000Y0139605D02*
X0116181Y0139605D01*
X0116181Y0138426D02*
X0117000Y0138426D01*
X0117000Y0137246D02*
X0116181Y0137246D01*
X0119478Y0140785D02*
X0123937Y0140785D01*
X0122689Y0139605D02*
X0120692Y0139605D01*
X0121347Y0138426D02*
X0122057Y0138426D01*
X0121700Y0137246D02*
X0121641Y0137246D01*
X0121662Y0136067D02*
X0121700Y0136067D01*
X0122003Y0134887D02*
X0121390Y0134887D01*
X0120788Y0133707D02*
X0122558Y0133707D01*
X0123737Y0132528D02*
X0119659Y0132528D01*
X0119733Y0131348D02*
X0122966Y0131348D01*
X0122700Y0130168D02*
X0120616Y0130168D01*
X0120616Y0128989D02*
X0123317Y0128989D01*
X0123131Y0127809D02*
X0120616Y0127809D01*
X0120616Y0127996D02*
X0120616Y0127996D01*
X0120526Y0126630D02*
X0122700Y0126630D01*
X0123352Y0125450D02*
X0119347Y0125450D01*
X0119714Y0125817D02*
X0119714Y0125817D01*
X0114401Y0125450D02*
X0113812Y0125450D01*
X0112036Y0125450D02*
X0111980Y0125450D01*
X0108970Y0125450D02*
X0043116Y0125450D01*
X0042667Y0124270D02*
X0167000Y0124270D01*
X0167000Y0125450D02*
X0130053Y0125450D01*
X0128174Y0125450D02*
X0127584Y0125450D01*
X0129353Y0143144D02*
X0167000Y0143144D01*
X0167000Y0144324D02*
X0130533Y0144324D01*
X0130981Y0145503D02*
X0167000Y0145503D01*
X0167000Y0146683D02*
X0130981Y0146683D01*
X0130981Y0147863D02*
X0167000Y0147863D01*
X0167000Y0149042D02*
X0130348Y0149042D01*
X0108583Y0131348D02*
X0006260Y0131348D01*
X0006260Y0130168D02*
X0107700Y0130168D01*
X0107700Y0128989D02*
X0042592Y0128989D01*
X0043116Y0127809D02*
X0107700Y0127809D01*
X0107790Y0126630D02*
X0042557Y0126630D01*
X0031266Y0124270D02*
X0030774Y0124270D01*
X0030200Y0125450D02*
X0029647Y0125450D01*
X0030200Y0126630D02*
X0006260Y0126630D01*
X0006260Y0127809D02*
X0030200Y0127809D01*
X0030200Y0128989D02*
X0006260Y0128989D01*
X0006260Y0132528D02*
X0071851Y0132528D01*
X0067569Y0133707D02*
X0067240Y0133707D01*
X0062214Y0133707D02*
X0006260Y0133707D01*
X0006260Y0134887D02*
X0061961Y0134887D01*
X0061961Y0136067D02*
X0006260Y0136067D01*
X0006260Y0137246D02*
X0061961Y0137246D01*
X0061961Y0138426D02*
X0006260Y0138426D01*
X0006260Y0139605D02*
X0061961Y0139605D01*
X0063169Y0143144D02*
X0064024Y0143144D01*
X0066271Y0143144D02*
X0067026Y0143144D01*
X0070875Y0143144D02*
X0071630Y0143144D01*
X0081052Y0133707D02*
X0081381Y0133707D01*
X0088008Y0133707D02*
X0088237Y0133707D01*
X0092612Y0133707D02*
X0092840Y0133707D01*
X0101819Y0133707D02*
X0102048Y0133707D01*
X0104922Y0133707D02*
X0105151Y0133707D01*
X0139473Y0104217D02*
X0144645Y0104217D01*
X0147456Y0104217D02*
X0147835Y0104217D01*
X0147700Y0103037D02*
X0147591Y0103037D01*
X0147591Y0101858D02*
X0147700Y0101858D01*
X0147700Y0100678D02*
X0147591Y0100678D01*
X0147591Y0099498D02*
X0147700Y0099498D01*
X0148484Y0098319D02*
X0146808Y0098319D01*
X0148953Y0095960D02*
X0143822Y0095960D01*
X0145317Y0094780D02*
X0147616Y0094780D01*
X0146901Y0093600D02*
X0146052Y0093600D01*
X0146481Y0092421D02*
X0146568Y0092421D01*
X0146481Y0091241D02*
X0151181Y0091241D01*
X0152000Y0091241D02*
X0158140Y0091241D01*
X0156446Y0090062D02*
X0167000Y0090062D01*
X0167000Y0091241D02*
X0165041Y0091241D01*
X0167000Y0088882D02*
X0155915Y0088882D01*
X0152000Y0088882D02*
X0151181Y0088882D01*
X0151181Y0090062D02*
X0152000Y0090062D01*
X0152000Y0087702D02*
X0151181Y0087702D01*
X0148282Y0087702D02*
X0144619Y0087702D01*
X0145762Y0088882D02*
X0147266Y0088882D01*
X0146735Y0090062D02*
X0146251Y0090062D01*
X0151181Y0092421D02*
X0152000Y0092421D01*
X0152000Y0093600D02*
X0151181Y0093600D01*
X0151181Y0094780D02*
X0152000Y0094780D01*
X0152000Y0095960D02*
X0151181Y0095960D01*
X0151586Y0097139D02*
X0029067Y0097139D01*
X0027000Y0097139D02*
X0026181Y0097139D01*
X0026181Y0098319D02*
X0027000Y0098319D01*
X0027000Y0099498D02*
X0026181Y0099498D01*
X0026181Y0100678D02*
X0027000Y0100678D01*
X0026181Y0101858D02*
X0006260Y0101858D01*
X0006260Y0107756D02*
X0023226Y0107756D01*
X0022230Y0108935D02*
X0006260Y0108935D01*
X0006260Y0110115D02*
X0021717Y0110115D01*
X0021577Y0112474D02*
X0006260Y0112474D01*
X0006260Y0111295D02*
X0026181Y0111295D01*
X0026181Y0112474D02*
X0027000Y0112474D01*
X0027000Y0113654D02*
X0026181Y0113654D01*
X0026181Y0114833D02*
X0027000Y0114833D01*
X0024057Y0116013D02*
X0006260Y0116013D01*
X0006260Y0114833D02*
X0022654Y0114833D01*
X0021929Y0113654D02*
X0006260Y0113654D01*
X0026181Y0110115D02*
X0027000Y0110115D01*
X0027000Y0108935D02*
X0026181Y0108935D01*
X0026181Y0107756D02*
X0027000Y0107756D01*
X0027000Y0105397D02*
X0026181Y0105397D01*
X0026181Y0104217D02*
X0027000Y0104217D01*
X0027000Y0103037D02*
X0026181Y0103037D01*
X0031102Y0089434D02*
X0031102Y0089434D01*
X0031434Y0089102D02*
X0031434Y0089102D01*
X0031655Y0088882D02*
X0030762Y0088882D01*
X0029619Y0087702D02*
X0128562Y0087702D01*
X0131065Y0083750D02*
X0131065Y0083750D01*
X0129723Y0078265D02*
X0129299Y0078265D01*
X0129230Y0075906D02*
X0028951Y0075906D01*
X0030371Y0074727D02*
X0032213Y0074727D01*
X0034004Y0074727D02*
X0035279Y0074727D01*
X0038305Y0074727D02*
X0086822Y0074727D01*
X0087130Y0075034D02*
X0086169Y0074073D01*
X0086169Y0069712D01*
X0086919Y0068961D01*
X0087880Y0068000D01*
X0090741Y0068000D01*
X0091612Y0068872D01*
X0092484Y0068000D01*
X0095344Y0068000D01*
X0095841Y0068496D01*
X0096337Y0068000D01*
X0097696Y0068000D01*
X0098518Y0068822D01*
X0099340Y0068000D01*
X0100699Y0068000D01*
X0100820Y0068121D01*
X0100941Y0068000D01*
X0102300Y0068000D01*
X0103122Y0068822D01*
X0103944Y0068000D01*
X0105303Y0068000D01*
X0105424Y0068121D01*
X0105545Y0068000D01*
X0109907Y0068000D01*
X0110028Y0068121D01*
X0110149Y0068000D01*
X0111508Y0068000D01*
X0112330Y0068822D01*
X0112556Y0068595D01*
X0112843Y0068165D01*
X0113022Y0068129D01*
X0113152Y0068000D01*
X0113669Y0068000D01*
X0114176Y0067899D01*
X0114328Y0068000D01*
X0114511Y0068000D01*
X0114876Y0068366D01*
X0115307Y0068652D01*
X0115343Y0068832D01*
X0115383Y0068872D01*
X0116254Y0068000D01*
X0117613Y0068000D01*
X0118485Y0068872D01*
X0119357Y0068000D01*
X0123719Y0068000D01*
X0124680Y0068961D01*
X0124680Y0070320D01*
X0123719Y0071281D01*
X0123178Y0071281D01*
X0123178Y0074824D01*
X0122217Y0075785D01*
X0120858Y0075785D01*
X0119987Y0074913D01*
X0119115Y0075785D01*
X0114753Y0075785D01*
X0114632Y0075664D01*
X0114511Y0075785D01*
X0113152Y0075785D01*
X0112330Y0074963D01*
X0112104Y0075190D01*
X0111817Y0075620D01*
X0111637Y0075656D01*
X0111508Y0075785D01*
X0110991Y0075785D01*
X0110484Y0075886D01*
X0110332Y0075785D01*
X0110149Y0075785D01*
X0110028Y0075664D01*
X0109907Y0075785D01*
X0105545Y0075785D01*
X0105049Y0075288D01*
X0104552Y0075785D01*
X0100941Y0075785D01*
X0100445Y0075288D01*
X0099948Y0075785D01*
X0096337Y0075785D01*
X0096216Y0075664D01*
X0096095Y0075785D01*
X0094736Y0075785D01*
X0093914Y0074963D01*
X0093093Y0075785D01*
X0091733Y0075785D01*
X0091237Y0075288D01*
X0090741Y0075785D01*
X0087880Y0075785D01*
X0087130Y0075034D01*
X0086169Y0073547D02*
X0039484Y0073547D01*
X0039567Y0072367D02*
X0086169Y0072367D01*
X0086169Y0071188D02*
X0039567Y0071188D01*
X0039567Y0070996D02*
X0039567Y0070996D01*
X0039567Y0070008D02*
X0086169Y0070008D01*
X0087052Y0068829D02*
X0038676Y0068829D01*
X0039567Y0069720D02*
X0039567Y0069720D01*
X0035279Y0064110D02*
X0034621Y0064110D01*
X0029565Y0067649D02*
X0128616Y0067649D01*
X0127441Y0068829D02*
X0124547Y0068829D01*
X0124680Y0070008D02*
X0126952Y0070008D01*
X0126700Y0071188D02*
X0123812Y0071188D01*
X0123178Y0072367D02*
X0126700Y0072367D01*
X0127107Y0073547D02*
X0123178Y0073547D01*
X0123178Y0074727D02*
X0127810Y0074727D01*
X0126040Y0078265D02*
X0125609Y0078265D01*
X0122968Y0078265D02*
X0122543Y0078265D01*
X0122478Y0078200D02*
X0122478Y0078200D01*
X0119285Y0078265D02*
X0030182Y0078265D01*
X0030995Y0079445D02*
X0118448Y0079445D01*
X0118448Y0080625D02*
X0031481Y0080625D01*
X0031481Y0081804D02*
X0118448Y0081804D01*
X0118448Y0082984D02*
X0031307Y0082984D01*
X0030818Y0084164D02*
X0118529Y0084164D01*
X0118442Y0068829D02*
X0118528Y0068829D01*
X0115426Y0068829D02*
X0115342Y0068829D01*
X0091656Y0068829D02*
X0091569Y0068829D01*
X0087130Y0088751D02*
X0087130Y0088751D01*
X0039567Y0040996D02*
X0039567Y0040996D01*
X0048457Y0021644D02*
X0102000Y0021644D01*
X0102000Y0020464D02*
X0050500Y0020464D01*
X0051797Y0019285D02*
X0102000Y0019285D01*
X0102000Y0018105D02*
X0052904Y0018105D01*
X0053585Y0016926D02*
X0102000Y0016926D01*
X0102000Y0015746D02*
X0054251Y0015746D01*
X0054567Y0014566D02*
X0102000Y0014566D01*
X0102000Y0013387D02*
X0054883Y0013387D01*
X0054980Y0012207D02*
X0102000Y0012207D01*
X0102000Y0011027D02*
X0054980Y0011027D01*
X0054897Y0009848D02*
X0102000Y0009848D01*
X0102000Y0008668D02*
X0054581Y0008668D01*
X0054265Y0007489D02*
X0102000Y0007489D01*
X0102000Y0006309D02*
X0053616Y0006309D01*
X0006800Y0018105D02*
X0006381Y0018105D01*
X0006381Y0019285D02*
X0006800Y0019285D01*
X0006800Y0020464D02*
X0006381Y0020464D01*
X0029754Y0085343D02*
X0167000Y0085343D01*
X0159041Y0083750D02*
X0159041Y0083750D01*
X0143442Y0098319D02*
X0142508Y0098319D01*
X0152000Y0111295D02*
X0156619Y0111295D01*
X0156605Y0112474D02*
X0160134Y0112474D01*
X0163047Y0112474D02*
X0167000Y0112474D01*
X0167000Y0111295D02*
X0166562Y0111295D01*
X0167000Y0113654D02*
X0156252Y0113654D01*
X0155527Y0114833D02*
X0167000Y0114833D01*
X0167000Y0116013D02*
X0154124Y0116013D01*
X0152000Y0116013D02*
X0151181Y0116013D01*
X0151181Y0114833D02*
X0152000Y0114833D01*
X0152000Y0113654D02*
X0151181Y0113654D01*
X0151181Y0112474D02*
X0152000Y0112474D01*
M02*
