%
M48
M72
T01C0.03200
T02C0.04000
T03C0.12598
%
T01
X6591Y21591
X16591Y21591
X16591Y31591
X16591Y41591
X6591Y41591
X6591Y31591
X6591Y51591
X6591Y61591
X6591Y71591
X16591Y71591
X16591Y61591
X16591Y51591
T02
X26591Y51591
X26591Y61591
X26591Y71591
X26591Y81591
X26591Y91591
X26591Y101591
X26591Y111591
X26591Y121591
X101591Y146591
X116591Y136591
X126591Y136591
X126591Y146591
X131591Y111591
X141591Y111591
X151591Y111591
X151591Y91591
X141591Y91591
X131591Y91591
X131591Y71591
X141591Y71591
X151591Y71591
X151591Y56591
X141591Y56591
X131591Y56591
X131591Y41591
X141591Y41591
X151591Y41591
X26591Y41591
X26591Y31591
X26591Y21591
T03
X44091Y11591
X156591Y11591
X161591Y101591
M30
