G75*
%MOIN*%
%OFA0B0*%
%FSLAX25Y25*%
%IPPOS*%
%LPD*%
%AMOC8*
5,1,8,0,0,1.08239X$1,22.5*
%
%ADD10C,0.00100*%
D10*
X0002691Y0021591D02*
X0002693Y0021715D01*
X0002699Y0021840D01*
X0002709Y0021964D01*
X0002723Y0022087D01*
X0002740Y0022210D01*
X0002762Y0022333D01*
X0002788Y0022455D01*
X0002817Y0022575D01*
X0002851Y0022695D01*
X0002888Y0022814D01*
X0002929Y0022931D01*
X0002973Y0023047D01*
X0003021Y0023162D01*
X0003073Y0023275D01*
X0003129Y0023386D01*
X0003188Y0023496D01*
X0003250Y0023603D01*
X0003316Y0023709D01*
X0003385Y0023812D01*
X0003458Y0023913D01*
X0003534Y0024012D01*
X0003612Y0024108D01*
X0003694Y0024202D01*
X0003779Y0024293D01*
X0003866Y0024382D01*
X0003957Y0024467D01*
X0004050Y0024550D01*
X0004146Y0024629D01*
X0004244Y0024705D01*
X0004344Y0024779D01*
X0004447Y0024849D01*
X0004552Y0024915D01*
X0004659Y0024979D01*
X0004768Y0025039D01*
X0004879Y0025095D01*
X0004991Y0025148D01*
X0005106Y0025197D01*
X0005221Y0025243D01*
X0005339Y0025284D01*
X0005457Y0025323D01*
X0005577Y0025357D01*
X0005697Y0025387D01*
X0005819Y0025414D01*
X0005941Y0025436D01*
X0006064Y0025455D01*
X0006187Y0025470D01*
X0006311Y0025481D01*
X0006436Y0025488D01*
X0006560Y0025491D01*
X0006684Y0025490D01*
X0006809Y0025485D01*
X0006933Y0025476D01*
X0007056Y0025463D01*
X0007180Y0025446D01*
X0007302Y0025426D01*
X0007424Y0025401D01*
X0007545Y0025372D01*
X0007665Y0025340D01*
X0007784Y0025304D01*
X0007902Y0025264D01*
X0008019Y0025220D01*
X0008134Y0025173D01*
X0008247Y0025122D01*
X0008359Y0025067D01*
X0008469Y0025009D01*
X0008577Y0024948D01*
X0008683Y0024883D01*
X0008787Y0024814D01*
X0008888Y0024743D01*
X0008988Y0024668D01*
X0009085Y0024590D01*
X0009179Y0024509D01*
X0009271Y0024425D01*
X0009360Y0024338D01*
X0009446Y0024248D01*
X0009529Y0024156D01*
X0009609Y0024061D01*
X0009687Y0023963D01*
X0009761Y0023863D01*
X0009832Y0023761D01*
X0009899Y0023657D01*
X0009963Y0023550D01*
X0010024Y0023441D01*
X0010081Y0023331D01*
X0010135Y0023219D01*
X0010185Y0023105D01*
X0010232Y0022990D01*
X0010274Y0022873D01*
X0010313Y0022755D01*
X0010349Y0022635D01*
X0010380Y0022515D01*
X0010407Y0022394D01*
X0010431Y0022272D01*
X0010451Y0022149D01*
X0010467Y0022025D01*
X0010479Y0021902D01*
X0010487Y0021778D01*
X0010491Y0021653D01*
X0010491Y0021529D01*
X0010487Y0021404D01*
X0010479Y0021280D01*
X0010467Y0021157D01*
X0010451Y0021033D01*
X0010431Y0020910D01*
X0010407Y0020788D01*
X0010380Y0020667D01*
X0010349Y0020547D01*
X0010313Y0020427D01*
X0010274Y0020309D01*
X0010232Y0020192D01*
X0010185Y0020077D01*
X0010135Y0019963D01*
X0010081Y0019851D01*
X0010024Y0019741D01*
X0009963Y0019632D01*
X0009899Y0019525D01*
X0009832Y0019421D01*
X0009761Y0019319D01*
X0009687Y0019219D01*
X0009609Y0019121D01*
X0009529Y0019026D01*
X0009446Y0018934D01*
X0009360Y0018844D01*
X0009271Y0018757D01*
X0009179Y0018673D01*
X0009085Y0018592D01*
X0008988Y0018514D01*
X0008888Y0018439D01*
X0008787Y0018368D01*
X0008683Y0018299D01*
X0008577Y0018234D01*
X0008469Y0018173D01*
X0008359Y0018115D01*
X0008247Y0018060D01*
X0008134Y0018009D01*
X0008019Y0017962D01*
X0007902Y0017918D01*
X0007784Y0017878D01*
X0007665Y0017842D01*
X0007545Y0017810D01*
X0007424Y0017781D01*
X0007302Y0017756D01*
X0007180Y0017736D01*
X0007056Y0017719D01*
X0006933Y0017706D01*
X0006809Y0017697D01*
X0006684Y0017692D01*
X0006560Y0017691D01*
X0006436Y0017694D01*
X0006311Y0017701D01*
X0006187Y0017712D01*
X0006064Y0017727D01*
X0005941Y0017746D01*
X0005819Y0017768D01*
X0005697Y0017795D01*
X0005577Y0017825D01*
X0005457Y0017859D01*
X0005339Y0017898D01*
X0005221Y0017939D01*
X0005106Y0017985D01*
X0004991Y0018034D01*
X0004879Y0018087D01*
X0004768Y0018143D01*
X0004659Y0018203D01*
X0004552Y0018267D01*
X0004447Y0018333D01*
X0004344Y0018403D01*
X0004244Y0018477D01*
X0004146Y0018553D01*
X0004050Y0018632D01*
X0003957Y0018715D01*
X0003866Y0018800D01*
X0003779Y0018889D01*
X0003694Y0018980D01*
X0003612Y0019074D01*
X0003534Y0019170D01*
X0003458Y0019269D01*
X0003385Y0019370D01*
X0003316Y0019473D01*
X0003250Y0019579D01*
X0003188Y0019686D01*
X0003129Y0019796D01*
X0003073Y0019907D01*
X0003021Y0020020D01*
X0002973Y0020135D01*
X0002929Y0020251D01*
X0002888Y0020368D01*
X0002851Y0020487D01*
X0002817Y0020607D01*
X0002788Y0020727D01*
X0002762Y0020849D01*
X0002740Y0020972D01*
X0002723Y0021095D01*
X0002709Y0021218D01*
X0002699Y0021342D01*
X0002693Y0021467D01*
X0002691Y0021591D01*
X0002591Y0017591D02*
X0010591Y0025591D01*
X0012691Y0021591D02*
X0012693Y0021715D01*
X0012699Y0021840D01*
X0012709Y0021964D01*
X0012723Y0022087D01*
X0012740Y0022210D01*
X0012762Y0022333D01*
X0012788Y0022455D01*
X0012817Y0022575D01*
X0012851Y0022695D01*
X0012888Y0022814D01*
X0012929Y0022931D01*
X0012973Y0023047D01*
X0013021Y0023162D01*
X0013073Y0023275D01*
X0013129Y0023386D01*
X0013188Y0023496D01*
X0013250Y0023603D01*
X0013316Y0023709D01*
X0013385Y0023812D01*
X0013458Y0023913D01*
X0013534Y0024012D01*
X0013612Y0024108D01*
X0013694Y0024202D01*
X0013779Y0024293D01*
X0013866Y0024382D01*
X0013957Y0024467D01*
X0014050Y0024550D01*
X0014146Y0024629D01*
X0014244Y0024705D01*
X0014344Y0024779D01*
X0014447Y0024849D01*
X0014552Y0024915D01*
X0014659Y0024979D01*
X0014768Y0025039D01*
X0014879Y0025095D01*
X0014991Y0025148D01*
X0015106Y0025197D01*
X0015221Y0025243D01*
X0015339Y0025284D01*
X0015457Y0025323D01*
X0015577Y0025357D01*
X0015697Y0025387D01*
X0015819Y0025414D01*
X0015941Y0025436D01*
X0016064Y0025455D01*
X0016187Y0025470D01*
X0016311Y0025481D01*
X0016436Y0025488D01*
X0016560Y0025491D01*
X0016684Y0025490D01*
X0016809Y0025485D01*
X0016933Y0025476D01*
X0017056Y0025463D01*
X0017180Y0025446D01*
X0017302Y0025426D01*
X0017424Y0025401D01*
X0017545Y0025372D01*
X0017665Y0025340D01*
X0017784Y0025304D01*
X0017902Y0025264D01*
X0018019Y0025220D01*
X0018134Y0025173D01*
X0018247Y0025122D01*
X0018359Y0025067D01*
X0018469Y0025009D01*
X0018577Y0024948D01*
X0018683Y0024883D01*
X0018787Y0024814D01*
X0018888Y0024743D01*
X0018988Y0024668D01*
X0019085Y0024590D01*
X0019179Y0024509D01*
X0019271Y0024425D01*
X0019360Y0024338D01*
X0019446Y0024248D01*
X0019529Y0024156D01*
X0019609Y0024061D01*
X0019687Y0023963D01*
X0019761Y0023863D01*
X0019832Y0023761D01*
X0019899Y0023657D01*
X0019963Y0023550D01*
X0020024Y0023441D01*
X0020081Y0023331D01*
X0020135Y0023219D01*
X0020185Y0023105D01*
X0020232Y0022990D01*
X0020274Y0022873D01*
X0020313Y0022755D01*
X0020349Y0022635D01*
X0020380Y0022515D01*
X0020407Y0022394D01*
X0020431Y0022272D01*
X0020451Y0022149D01*
X0020467Y0022025D01*
X0020479Y0021902D01*
X0020487Y0021778D01*
X0020491Y0021653D01*
X0020491Y0021529D01*
X0020487Y0021404D01*
X0020479Y0021280D01*
X0020467Y0021157D01*
X0020451Y0021033D01*
X0020431Y0020910D01*
X0020407Y0020788D01*
X0020380Y0020667D01*
X0020349Y0020547D01*
X0020313Y0020427D01*
X0020274Y0020309D01*
X0020232Y0020192D01*
X0020185Y0020077D01*
X0020135Y0019963D01*
X0020081Y0019851D01*
X0020024Y0019741D01*
X0019963Y0019632D01*
X0019899Y0019525D01*
X0019832Y0019421D01*
X0019761Y0019319D01*
X0019687Y0019219D01*
X0019609Y0019121D01*
X0019529Y0019026D01*
X0019446Y0018934D01*
X0019360Y0018844D01*
X0019271Y0018757D01*
X0019179Y0018673D01*
X0019085Y0018592D01*
X0018988Y0018514D01*
X0018888Y0018439D01*
X0018787Y0018368D01*
X0018683Y0018299D01*
X0018577Y0018234D01*
X0018469Y0018173D01*
X0018359Y0018115D01*
X0018247Y0018060D01*
X0018134Y0018009D01*
X0018019Y0017962D01*
X0017902Y0017918D01*
X0017784Y0017878D01*
X0017665Y0017842D01*
X0017545Y0017810D01*
X0017424Y0017781D01*
X0017302Y0017756D01*
X0017180Y0017736D01*
X0017056Y0017719D01*
X0016933Y0017706D01*
X0016809Y0017697D01*
X0016684Y0017692D01*
X0016560Y0017691D01*
X0016436Y0017694D01*
X0016311Y0017701D01*
X0016187Y0017712D01*
X0016064Y0017727D01*
X0015941Y0017746D01*
X0015819Y0017768D01*
X0015697Y0017795D01*
X0015577Y0017825D01*
X0015457Y0017859D01*
X0015339Y0017898D01*
X0015221Y0017939D01*
X0015106Y0017985D01*
X0014991Y0018034D01*
X0014879Y0018087D01*
X0014768Y0018143D01*
X0014659Y0018203D01*
X0014552Y0018267D01*
X0014447Y0018333D01*
X0014344Y0018403D01*
X0014244Y0018477D01*
X0014146Y0018553D01*
X0014050Y0018632D01*
X0013957Y0018715D01*
X0013866Y0018800D01*
X0013779Y0018889D01*
X0013694Y0018980D01*
X0013612Y0019074D01*
X0013534Y0019170D01*
X0013458Y0019269D01*
X0013385Y0019370D01*
X0013316Y0019473D01*
X0013250Y0019579D01*
X0013188Y0019686D01*
X0013129Y0019796D01*
X0013073Y0019907D01*
X0013021Y0020020D01*
X0012973Y0020135D01*
X0012929Y0020251D01*
X0012888Y0020368D01*
X0012851Y0020487D01*
X0012817Y0020607D01*
X0012788Y0020727D01*
X0012762Y0020849D01*
X0012740Y0020972D01*
X0012723Y0021095D01*
X0012709Y0021218D01*
X0012699Y0021342D01*
X0012693Y0021467D01*
X0012691Y0021591D01*
X0012591Y0017591D02*
X0020591Y0025591D01*
X0012691Y0031591D02*
X0012693Y0031715D01*
X0012699Y0031840D01*
X0012709Y0031964D01*
X0012723Y0032087D01*
X0012740Y0032210D01*
X0012762Y0032333D01*
X0012788Y0032455D01*
X0012817Y0032575D01*
X0012851Y0032695D01*
X0012888Y0032814D01*
X0012929Y0032931D01*
X0012973Y0033047D01*
X0013021Y0033162D01*
X0013073Y0033275D01*
X0013129Y0033386D01*
X0013188Y0033496D01*
X0013250Y0033603D01*
X0013316Y0033709D01*
X0013385Y0033812D01*
X0013458Y0033913D01*
X0013534Y0034012D01*
X0013612Y0034108D01*
X0013694Y0034202D01*
X0013779Y0034293D01*
X0013866Y0034382D01*
X0013957Y0034467D01*
X0014050Y0034550D01*
X0014146Y0034629D01*
X0014244Y0034705D01*
X0014344Y0034779D01*
X0014447Y0034849D01*
X0014552Y0034915D01*
X0014659Y0034979D01*
X0014768Y0035039D01*
X0014879Y0035095D01*
X0014991Y0035148D01*
X0015106Y0035197D01*
X0015221Y0035243D01*
X0015339Y0035284D01*
X0015457Y0035323D01*
X0015577Y0035357D01*
X0015697Y0035387D01*
X0015819Y0035414D01*
X0015941Y0035436D01*
X0016064Y0035455D01*
X0016187Y0035470D01*
X0016311Y0035481D01*
X0016436Y0035488D01*
X0016560Y0035491D01*
X0016684Y0035490D01*
X0016809Y0035485D01*
X0016933Y0035476D01*
X0017056Y0035463D01*
X0017180Y0035446D01*
X0017302Y0035426D01*
X0017424Y0035401D01*
X0017545Y0035372D01*
X0017665Y0035340D01*
X0017784Y0035304D01*
X0017902Y0035264D01*
X0018019Y0035220D01*
X0018134Y0035173D01*
X0018247Y0035122D01*
X0018359Y0035067D01*
X0018469Y0035009D01*
X0018577Y0034948D01*
X0018683Y0034883D01*
X0018787Y0034814D01*
X0018888Y0034743D01*
X0018988Y0034668D01*
X0019085Y0034590D01*
X0019179Y0034509D01*
X0019271Y0034425D01*
X0019360Y0034338D01*
X0019446Y0034248D01*
X0019529Y0034156D01*
X0019609Y0034061D01*
X0019687Y0033963D01*
X0019761Y0033863D01*
X0019832Y0033761D01*
X0019899Y0033657D01*
X0019963Y0033550D01*
X0020024Y0033441D01*
X0020081Y0033331D01*
X0020135Y0033219D01*
X0020185Y0033105D01*
X0020232Y0032990D01*
X0020274Y0032873D01*
X0020313Y0032755D01*
X0020349Y0032635D01*
X0020380Y0032515D01*
X0020407Y0032394D01*
X0020431Y0032272D01*
X0020451Y0032149D01*
X0020467Y0032025D01*
X0020479Y0031902D01*
X0020487Y0031778D01*
X0020491Y0031653D01*
X0020491Y0031529D01*
X0020487Y0031404D01*
X0020479Y0031280D01*
X0020467Y0031157D01*
X0020451Y0031033D01*
X0020431Y0030910D01*
X0020407Y0030788D01*
X0020380Y0030667D01*
X0020349Y0030547D01*
X0020313Y0030427D01*
X0020274Y0030309D01*
X0020232Y0030192D01*
X0020185Y0030077D01*
X0020135Y0029963D01*
X0020081Y0029851D01*
X0020024Y0029741D01*
X0019963Y0029632D01*
X0019899Y0029525D01*
X0019832Y0029421D01*
X0019761Y0029319D01*
X0019687Y0029219D01*
X0019609Y0029121D01*
X0019529Y0029026D01*
X0019446Y0028934D01*
X0019360Y0028844D01*
X0019271Y0028757D01*
X0019179Y0028673D01*
X0019085Y0028592D01*
X0018988Y0028514D01*
X0018888Y0028439D01*
X0018787Y0028368D01*
X0018683Y0028299D01*
X0018577Y0028234D01*
X0018469Y0028173D01*
X0018359Y0028115D01*
X0018247Y0028060D01*
X0018134Y0028009D01*
X0018019Y0027962D01*
X0017902Y0027918D01*
X0017784Y0027878D01*
X0017665Y0027842D01*
X0017545Y0027810D01*
X0017424Y0027781D01*
X0017302Y0027756D01*
X0017180Y0027736D01*
X0017056Y0027719D01*
X0016933Y0027706D01*
X0016809Y0027697D01*
X0016684Y0027692D01*
X0016560Y0027691D01*
X0016436Y0027694D01*
X0016311Y0027701D01*
X0016187Y0027712D01*
X0016064Y0027727D01*
X0015941Y0027746D01*
X0015819Y0027768D01*
X0015697Y0027795D01*
X0015577Y0027825D01*
X0015457Y0027859D01*
X0015339Y0027898D01*
X0015221Y0027939D01*
X0015106Y0027985D01*
X0014991Y0028034D01*
X0014879Y0028087D01*
X0014768Y0028143D01*
X0014659Y0028203D01*
X0014552Y0028267D01*
X0014447Y0028333D01*
X0014344Y0028403D01*
X0014244Y0028477D01*
X0014146Y0028553D01*
X0014050Y0028632D01*
X0013957Y0028715D01*
X0013866Y0028800D01*
X0013779Y0028889D01*
X0013694Y0028980D01*
X0013612Y0029074D01*
X0013534Y0029170D01*
X0013458Y0029269D01*
X0013385Y0029370D01*
X0013316Y0029473D01*
X0013250Y0029579D01*
X0013188Y0029686D01*
X0013129Y0029796D01*
X0013073Y0029907D01*
X0013021Y0030020D01*
X0012973Y0030135D01*
X0012929Y0030251D01*
X0012888Y0030368D01*
X0012851Y0030487D01*
X0012817Y0030607D01*
X0012788Y0030727D01*
X0012762Y0030849D01*
X0012740Y0030972D01*
X0012723Y0031095D01*
X0012709Y0031218D01*
X0012699Y0031342D01*
X0012693Y0031467D01*
X0012691Y0031591D01*
X0012591Y0027591D02*
X0020591Y0035591D01*
X0012691Y0041591D02*
X0012693Y0041715D01*
X0012699Y0041840D01*
X0012709Y0041964D01*
X0012723Y0042087D01*
X0012740Y0042210D01*
X0012762Y0042333D01*
X0012788Y0042455D01*
X0012817Y0042575D01*
X0012851Y0042695D01*
X0012888Y0042814D01*
X0012929Y0042931D01*
X0012973Y0043047D01*
X0013021Y0043162D01*
X0013073Y0043275D01*
X0013129Y0043386D01*
X0013188Y0043496D01*
X0013250Y0043603D01*
X0013316Y0043709D01*
X0013385Y0043812D01*
X0013458Y0043913D01*
X0013534Y0044012D01*
X0013612Y0044108D01*
X0013694Y0044202D01*
X0013779Y0044293D01*
X0013866Y0044382D01*
X0013957Y0044467D01*
X0014050Y0044550D01*
X0014146Y0044629D01*
X0014244Y0044705D01*
X0014344Y0044779D01*
X0014447Y0044849D01*
X0014552Y0044915D01*
X0014659Y0044979D01*
X0014768Y0045039D01*
X0014879Y0045095D01*
X0014991Y0045148D01*
X0015106Y0045197D01*
X0015221Y0045243D01*
X0015339Y0045284D01*
X0015457Y0045323D01*
X0015577Y0045357D01*
X0015697Y0045387D01*
X0015819Y0045414D01*
X0015941Y0045436D01*
X0016064Y0045455D01*
X0016187Y0045470D01*
X0016311Y0045481D01*
X0016436Y0045488D01*
X0016560Y0045491D01*
X0016684Y0045490D01*
X0016809Y0045485D01*
X0016933Y0045476D01*
X0017056Y0045463D01*
X0017180Y0045446D01*
X0017302Y0045426D01*
X0017424Y0045401D01*
X0017545Y0045372D01*
X0017665Y0045340D01*
X0017784Y0045304D01*
X0017902Y0045264D01*
X0018019Y0045220D01*
X0018134Y0045173D01*
X0018247Y0045122D01*
X0018359Y0045067D01*
X0018469Y0045009D01*
X0018577Y0044948D01*
X0018683Y0044883D01*
X0018787Y0044814D01*
X0018888Y0044743D01*
X0018988Y0044668D01*
X0019085Y0044590D01*
X0019179Y0044509D01*
X0019271Y0044425D01*
X0019360Y0044338D01*
X0019446Y0044248D01*
X0019529Y0044156D01*
X0019609Y0044061D01*
X0019687Y0043963D01*
X0019761Y0043863D01*
X0019832Y0043761D01*
X0019899Y0043657D01*
X0019963Y0043550D01*
X0020024Y0043441D01*
X0020081Y0043331D01*
X0020135Y0043219D01*
X0020185Y0043105D01*
X0020232Y0042990D01*
X0020274Y0042873D01*
X0020313Y0042755D01*
X0020349Y0042635D01*
X0020380Y0042515D01*
X0020407Y0042394D01*
X0020431Y0042272D01*
X0020451Y0042149D01*
X0020467Y0042025D01*
X0020479Y0041902D01*
X0020487Y0041778D01*
X0020491Y0041653D01*
X0020491Y0041529D01*
X0020487Y0041404D01*
X0020479Y0041280D01*
X0020467Y0041157D01*
X0020451Y0041033D01*
X0020431Y0040910D01*
X0020407Y0040788D01*
X0020380Y0040667D01*
X0020349Y0040547D01*
X0020313Y0040427D01*
X0020274Y0040309D01*
X0020232Y0040192D01*
X0020185Y0040077D01*
X0020135Y0039963D01*
X0020081Y0039851D01*
X0020024Y0039741D01*
X0019963Y0039632D01*
X0019899Y0039525D01*
X0019832Y0039421D01*
X0019761Y0039319D01*
X0019687Y0039219D01*
X0019609Y0039121D01*
X0019529Y0039026D01*
X0019446Y0038934D01*
X0019360Y0038844D01*
X0019271Y0038757D01*
X0019179Y0038673D01*
X0019085Y0038592D01*
X0018988Y0038514D01*
X0018888Y0038439D01*
X0018787Y0038368D01*
X0018683Y0038299D01*
X0018577Y0038234D01*
X0018469Y0038173D01*
X0018359Y0038115D01*
X0018247Y0038060D01*
X0018134Y0038009D01*
X0018019Y0037962D01*
X0017902Y0037918D01*
X0017784Y0037878D01*
X0017665Y0037842D01*
X0017545Y0037810D01*
X0017424Y0037781D01*
X0017302Y0037756D01*
X0017180Y0037736D01*
X0017056Y0037719D01*
X0016933Y0037706D01*
X0016809Y0037697D01*
X0016684Y0037692D01*
X0016560Y0037691D01*
X0016436Y0037694D01*
X0016311Y0037701D01*
X0016187Y0037712D01*
X0016064Y0037727D01*
X0015941Y0037746D01*
X0015819Y0037768D01*
X0015697Y0037795D01*
X0015577Y0037825D01*
X0015457Y0037859D01*
X0015339Y0037898D01*
X0015221Y0037939D01*
X0015106Y0037985D01*
X0014991Y0038034D01*
X0014879Y0038087D01*
X0014768Y0038143D01*
X0014659Y0038203D01*
X0014552Y0038267D01*
X0014447Y0038333D01*
X0014344Y0038403D01*
X0014244Y0038477D01*
X0014146Y0038553D01*
X0014050Y0038632D01*
X0013957Y0038715D01*
X0013866Y0038800D01*
X0013779Y0038889D01*
X0013694Y0038980D01*
X0013612Y0039074D01*
X0013534Y0039170D01*
X0013458Y0039269D01*
X0013385Y0039370D01*
X0013316Y0039473D01*
X0013250Y0039579D01*
X0013188Y0039686D01*
X0013129Y0039796D01*
X0013073Y0039907D01*
X0013021Y0040020D01*
X0012973Y0040135D01*
X0012929Y0040251D01*
X0012888Y0040368D01*
X0012851Y0040487D01*
X0012817Y0040607D01*
X0012788Y0040727D01*
X0012762Y0040849D01*
X0012740Y0040972D01*
X0012723Y0041095D01*
X0012709Y0041218D01*
X0012699Y0041342D01*
X0012693Y0041467D01*
X0012691Y0041591D01*
X0012591Y0037591D02*
X0020591Y0045591D01*
X0012691Y0051591D02*
X0012693Y0051715D01*
X0012699Y0051840D01*
X0012709Y0051964D01*
X0012723Y0052087D01*
X0012740Y0052210D01*
X0012762Y0052333D01*
X0012788Y0052455D01*
X0012817Y0052575D01*
X0012851Y0052695D01*
X0012888Y0052814D01*
X0012929Y0052931D01*
X0012973Y0053047D01*
X0013021Y0053162D01*
X0013073Y0053275D01*
X0013129Y0053386D01*
X0013188Y0053496D01*
X0013250Y0053603D01*
X0013316Y0053709D01*
X0013385Y0053812D01*
X0013458Y0053913D01*
X0013534Y0054012D01*
X0013612Y0054108D01*
X0013694Y0054202D01*
X0013779Y0054293D01*
X0013866Y0054382D01*
X0013957Y0054467D01*
X0014050Y0054550D01*
X0014146Y0054629D01*
X0014244Y0054705D01*
X0014344Y0054779D01*
X0014447Y0054849D01*
X0014552Y0054915D01*
X0014659Y0054979D01*
X0014768Y0055039D01*
X0014879Y0055095D01*
X0014991Y0055148D01*
X0015106Y0055197D01*
X0015221Y0055243D01*
X0015339Y0055284D01*
X0015457Y0055323D01*
X0015577Y0055357D01*
X0015697Y0055387D01*
X0015819Y0055414D01*
X0015941Y0055436D01*
X0016064Y0055455D01*
X0016187Y0055470D01*
X0016311Y0055481D01*
X0016436Y0055488D01*
X0016560Y0055491D01*
X0016684Y0055490D01*
X0016809Y0055485D01*
X0016933Y0055476D01*
X0017056Y0055463D01*
X0017180Y0055446D01*
X0017302Y0055426D01*
X0017424Y0055401D01*
X0017545Y0055372D01*
X0017665Y0055340D01*
X0017784Y0055304D01*
X0017902Y0055264D01*
X0018019Y0055220D01*
X0018134Y0055173D01*
X0018247Y0055122D01*
X0018359Y0055067D01*
X0018469Y0055009D01*
X0018577Y0054948D01*
X0018683Y0054883D01*
X0018787Y0054814D01*
X0018888Y0054743D01*
X0018988Y0054668D01*
X0019085Y0054590D01*
X0019179Y0054509D01*
X0019271Y0054425D01*
X0019360Y0054338D01*
X0019446Y0054248D01*
X0019529Y0054156D01*
X0019609Y0054061D01*
X0019687Y0053963D01*
X0019761Y0053863D01*
X0019832Y0053761D01*
X0019899Y0053657D01*
X0019963Y0053550D01*
X0020024Y0053441D01*
X0020081Y0053331D01*
X0020135Y0053219D01*
X0020185Y0053105D01*
X0020232Y0052990D01*
X0020274Y0052873D01*
X0020313Y0052755D01*
X0020349Y0052635D01*
X0020380Y0052515D01*
X0020407Y0052394D01*
X0020431Y0052272D01*
X0020451Y0052149D01*
X0020467Y0052025D01*
X0020479Y0051902D01*
X0020487Y0051778D01*
X0020491Y0051653D01*
X0020491Y0051529D01*
X0020487Y0051404D01*
X0020479Y0051280D01*
X0020467Y0051157D01*
X0020451Y0051033D01*
X0020431Y0050910D01*
X0020407Y0050788D01*
X0020380Y0050667D01*
X0020349Y0050547D01*
X0020313Y0050427D01*
X0020274Y0050309D01*
X0020232Y0050192D01*
X0020185Y0050077D01*
X0020135Y0049963D01*
X0020081Y0049851D01*
X0020024Y0049741D01*
X0019963Y0049632D01*
X0019899Y0049525D01*
X0019832Y0049421D01*
X0019761Y0049319D01*
X0019687Y0049219D01*
X0019609Y0049121D01*
X0019529Y0049026D01*
X0019446Y0048934D01*
X0019360Y0048844D01*
X0019271Y0048757D01*
X0019179Y0048673D01*
X0019085Y0048592D01*
X0018988Y0048514D01*
X0018888Y0048439D01*
X0018787Y0048368D01*
X0018683Y0048299D01*
X0018577Y0048234D01*
X0018469Y0048173D01*
X0018359Y0048115D01*
X0018247Y0048060D01*
X0018134Y0048009D01*
X0018019Y0047962D01*
X0017902Y0047918D01*
X0017784Y0047878D01*
X0017665Y0047842D01*
X0017545Y0047810D01*
X0017424Y0047781D01*
X0017302Y0047756D01*
X0017180Y0047736D01*
X0017056Y0047719D01*
X0016933Y0047706D01*
X0016809Y0047697D01*
X0016684Y0047692D01*
X0016560Y0047691D01*
X0016436Y0047694D01*
X0016311Y0047701D01*
X0016187Y0047712D01*
X0016064Y0047727D01*
X0015941Y0047746D01*
X0015819Y0047768D01*
X0015697Y0047795D01*
X0015577Y0047825D01*
X0015457Y0047859D01*
X0015339Y0047898D01*
X0015221Y0047939D01*
X0015106Y0047985D01*
X0014991Y0048034D01*
X0014879Y0048087D01*
X0014768Y0048143D01*
X0014659Y0048203D01*
X0014552Y0048267D01*
X0014447Y0048333D01*
X0014344Y0048403D01*
X0014244Y0048477D01*
X0014146Y0048553D01*
X0014050Y0048632D01*
X0013957Y0048715D01*
X0013866Y0048800D01*
X0013779Y0048889D01*
X0013694Y0048980D01*
X0013612Y0049074D01*
X0013534Y0049170D01*
X0013458Y0049269D01*
X0013385Y0049370D01*
X0013316Y0049473D01*
X0013250Y0049579D01*
X0013188Y0049686D01*
X0013129Y0049796D01*
X0013073Y0049907D01*
X0013021Y0050020D01*
X0012973Y0050135D01*
X0012929Y0050251D01*
X0012888Y0050368D01*
X0012851Y0050487D01*
X0012817Y0050607D01*
X0012788Y0050727D01*
X0012762Y0050849D01*
X0012740Y0050972D01*
X0012723Y0051095D01*
X0012709Y0051218D01*
X0012699Y0051342D01*
X0012693Y0051467D01*
X0012691Y0051591D01*
X0012591Y0047591D02*
X0020591Y0055591D01*
X0012691Y0061591D02*
X0012693Y0061715D01*
X0012699Y0061840D01*
X0012709Y0061964D01*
X0012723Y0062087D01*
X0012740Y0062210D01*
X0012762Y0062333D01*
X0012788Y0062455D01*
X0012817Y0062575D01*
X0012851Y0062695D01*
X0012888Y0062814D01*
X0012929Y0062931D01*
X0012973Y0063047D01*
X0013021Y0063162D01*
X0013073Y0063275D01*
X0013129Y0063386D01*
X0013188Y0063496D01*
X0013250Y0063603D01*
X0013316Y0063709D01*
X0013385Y0063812D01*
X0013458Y0063913D01*
X0013534Y0064012D01*
X0013612Y0064108D01*
X0013694Y0064202D01*
X0013779Y0064293D01*
X0013866Y0064382D01*
X0013957Y0064467D01*
X0014050Y0064550D01*
X0014146Y0064629D01*
X0014244Y0064705D01*
X0014344Y0064779D01*
X0014447Y0064849D01*
X0014552Y0064915D01*
X0014659Y0064979D01*
X0014768Y0065039D01*
X0014879Y0065095D01*
X0014991Y0065148D01*
X0015106Y0065197D01*
X0015221Y0065243D01*
X0015339Y0065284D01*
X0015457Y0065323D01*
X0015577Y0065357D01*
X0015697Y0065387D01*
X0015819Y0065414D01*
X0015941Y0065436D01*
X0016064Y0065455D01*
X0016187Y0065470D01*
X0016311Y0065481D01*
X0016436Y0065488D01*
X0016560Y0065491D01*
X0016684Y0065490D01*
X0016809Y0065485D01*
X0016933Y0065476D01*
X0017056Y0065463D01*
X0017180Y0065446D01*
X0017302Y0065426D01*
X0017424Y0065401D01*
X0017545Y0065372D01*
X0017665Y0065340D01*
X0017784Y0065304D01*
X0017902Y0065264D01*
X0018019Y0065220D01*
X0018134Y0065173D01*
X0018247Y0065122D01*
X0018359Y0065067D01*
X0018469Y0065009D01*
X0018577Y0064948D01*
X0018683Y0064883D01*
X0018787Y0064814D01*
X0018888Y0064743D01*
X0018988Y0064668D01*
X0019085Y0064590D01*
X0019179Y0064509D01*
X0019271Y0064425D01*
X0019360Y0064338D01*
X0019446Y0064248D01*
X0019529Y0064156D01*
X0019609Y0064061D01*
X0019687Y0063963D01*
X0019761Y0063863D01*
X0019832Y0063761D01*
X0019899Y0063657D01*
X0019963Y0063550D01*
X0020024Y0063441D01*
X0020081Y0063331D01*
X0020135Y0063219D01*
X0020185Y0063105D01*
X0020232Y0062990D01*
X0020274Y0062873D01*
X0020313Y0062755D01*
X0020349Y0062635D01*
X0020380Y0062515D01*
X0020407Y0062394D01*
X0020431Y0062272D01*
X0020451Y0062149D01*
X0020467Y0062025D01*
X0020479Y0061902D01*
X0020487Y0061778D01*
X0020491Y0061653D01*
X0020491Y0061529D01*
X0020487Y0061404D01*
X0020479Y0061280D01*
X0020467Y0061157D01*
X0020451Y0061033D01*
X0020431Y0060910D01*
X0020407Y0060788D01*
X0020380Y0060667D01*
X0020349Y0060547D01*
X0020313Y0060427D01*
X0020274Y0060309D01*
X0020232Y0060192D01*
X0020185Y0060077D01*
X0020135Y0059963D01*
X0020081Y0059851D01*
X0020024Y0059741D01*
X0019963Y0059632D01*
X0019899Y0059525D01*
X0019832Y0059421D01*
X0019761Y0059319D01*
X0019687Y0059219D01*
X0019609Y0059121D01*
X0019529Y0059026D01*
X0019446Y0058934D01*
X0019360Y0058844D01*
X0019271Y0058757D01*
X0019179Y0058673D01*
X0019085Y0058592D01*
X0018988Y0058514D01*
X0018888Y0058439D01*
X0018787Y0058368D01*
X0018683Y0058299D01*
X0018577Y0058234D01*
X0018469Y0058173D01*
X0018359Y0058115D01*
X0018247Y0058060D01*
X0018134Y0058009D01*
X0018019Y0057962D01*
X0017902Y0057918D01*
X0017784Y0057878D01*
X0017665Y0057842D01*
X0017545Y0057810D01*
X0017424Y0057781D01*
X0017302Y0057756D01*
X0017180Y0057736D01*
X0017056Y0057719D01*
X0016933Y0057706D01*
X0016809Y0057697D01*
X0016684Y0057692D01*
X0016560Y0057691D01*
X0016436Y0057694D01*
X0016311Y0057701D01*
X0016187Y0057712D01*
X0016064Y0057727D01*
X0015941Y0057746D01*
X0015819Y0057768D01*
X0015697Y0057795D01*
X0015577Y0057825D01*
X0015457Y0057859D01*
X0015339Y0057898D01*
X0015221Y0057939D01*
X0015106Y0057985D01*
X0014991Y0058034D01*
X0014879Y0058087D01*
X0014768Y0058143D01*
X0014659Y0058203D01*
X0014552Y0058267D01*
X0014447Y0058333D01*
X0014344Y0058403D01*
X0014244Y0058477D01*
X0014146Y0058553D01*
X0014050Y0058632D01*
X0013957Y0058715D01*
X0013866Y0058800D01*
X0013779Y0058889D01*
X0013694Y0058980D01*
X0013612Y0059074D01*
X0013534Y0059170D01*
X0013458Y0059269D01*
X0013385Y0059370D01*
X0013316Y0059473D01*
X0013250Y0059579D01*
X0013188Y0059686D01*
X0013129Y0059796D01*
X0013073Y0059907D01*
X0013021Y0060020D01*
X0012973Y0060135D01*
X0012929Y0060251D01*
X0012888Y0060368D01*
X0012851Y0060487D01*
X0012817Y0060607D01*
X0012788Y0060727D01*
X0012762Y0060849D01*
X0012740Y0060972D01*
X0012723Y0061095D01*
X0012709Y0061218D01*
X0012699Y0061342D01*
X0012693Y0061467D01*
X0012691Y0061591D01*
X0012591Y0057591D02*
X0020591Y0065591D01*
X0012691Y0071591D02*
X0012693Y0071715D01*
X0012699Y0071840D01*
X0012709Y0071964D01*
X0012723Y0072087D01*
X0012740Y0072210D01*
X0012762Y0072333D01*
X0012788Y0072455D01*
X0012817Y0072575D01*
X0012851Y0072695D01*
X0012888Y0072814D01*
X0012929Y0072931D01*
X0012973Y0073047D01*
X0013021Y0073162D01*
X0013073Y0073275D01*
X0013129Y0073386D01*
X0013188Y0073496D01*
X0013250Y0073603D01*
X0013316Y0073709D01*
X0013385Y0073812D01*
X0013458Y0073913D01*
X0013534Y0074012D01*
X0013612Y0074108D01*
X0013694Y0074202D01*
X0013779Y0074293D01*
X0013866Y0074382D01*
X0013957Y0074467D01*
X0014050Y0074550D01*
X0014146Y0074629D01*
X0014244Y0074705D01*
X0014344Y0074779D01*
X0014447Y0074849D01*
X0014552Y0074915D01*
X0014659Y0074979D01*
X0014768Y0075039D01*
X0014879Y0075095D01*
X0014991Y0075148D01*
X0015106Y0075197D01*
X0015221Y0075243D01*
X0015339Y0075284D01*
X0015457Y0075323D01*
X0015577Y0075357D01*
X0015697Y0075387D01*
X0015819Y0075414D01*
X0015941Y0075436D01*
X0016064Y0075455D01*
X0016187Y0075470D01*
X0016311Y0075481D01*
X0016436Y0075488D01*
X0016560Y0075491D01*
X0016684Y0075490D01*
X0016809Y0075485D01*
X0016933Y0075476D01*
X0017056Y0075463D01*
X0017180Y0075446D01*
X0017302Y0075426D01*
X0017424Y0075401D01*
X0017545Y0075372D01*
X0017665Y0075340D01*
X0017784Y0075304D01*
X0017902Y0075264D01*
X0018019Y0075220D01*
X0018134Y0075173D01*
X0018247Y0075122D01*
X0018359Y0075067D01*
X0018469Y0075009D01*
X0018577Y0074948D01*
X0018683Y0074883D01*
X0018787Y0074814D01*
X0018888Y0074743D01*
X0018988Y0074668D01*
X0019085Y0074590D01*
X0019179Y0074509D01*
X0019271Y0074425D01*
X0019360Y0074338D01*
X0019446Y0074248D01*
X0019529Y0074156D01*
X0019609Y0074061D01*
X0019687Y0073963D01*
X0019761Y0073863D01*
X0019832Y0073761D01*
X0019899Y0073657D01*
X0019963Y0073550D01*
X0020024Y0073441D01*
X0020081Y0073331D01*
X0020135Y0073219D01*
X0020185Y0073105D01*
X0020232Y0072990D01*
X0020274Y0072873D01*
X0020313Y0072755D01*
X0020349Y0072635D01*
X0020380Y0072515D01*
X0020407Y0072394D01*
X0020431Y0072272D01*
X0020451Y0072149D01*
X0020467Y0072025D01*
X0020479Y0071902D01*
X0020487Y0071778D01*
X0020491Y0071653D01*
X0020491Y0071529D01*
X0020487Y0071404D01*
X0020479Y0071280D01*
X0020467Y0071157D01*
X0020451Y0071033D01*
X0020431Y0070910D01*
X0020407Y0070788D01*
X0020380Y0070667D01*
X0020349Y0070547D01*
X0020313Y0070427D01*
X0020274Y0070309D01*
X0020232Y0070192D01*
X0020185Y0070077D01*
X0020135Y0069963D01*
X0020081Y0069851D01*
X0020024Y0069741D01*
X0019963Y0069632D01*
X0019899Y0069525D01*
X0019832Y0069421D01*
X0019761Y0069319D01*
X0019687Y0069219D01*
X0019609Y0069121D01*
X0019529Y0069026D01*
X0019446Y0068934D01*
X0019360Y0068844D01*
X0019271Y0068757D01*
X0019179Y0068673D01*
X0019085Y0068592D01*
X0018988Y0068514D01*
X0018888Y0068439D01*
X0018787Y0068368D01*
X0018683Y0068299D01*
X0018577Y0068234D01*
X0018469Y0068173D01*
X0018359Y0068115D01*
X0018247Y0068060D01*
X0018134Y0068009D01*
X0018019Y0067962D01*
X0017902Y0067918D01*
X0017784Y0067878D01*
X0017665Y0067842D01*
X0017545Y0067810D01*
X0017424Y0067781D01*
X0017302Y0067756D01*
X0017180Y0067736D01*
X0017056Y0067719D01*
X0016933Y0067706D01*
X0016809Y0067697D01*
X0016684Y0067692D01*
X0016560Y0067691D01*
X0016436Y0067694D01*
X0016311Y0067701D01*
X0016187Y0067712D01*
X0016064Y0067727D01*
X0015941Y0067746D01*
X0015819Y0067768D01*
X0015697Y0067795D01*
X0015577Y0067825D01*
X0015457Y0067859D01*
X0015339Y0067898D01*
X0015221Y0067939D01*
X0015106Y0067985D01*
X0014991Y0068034D01*
X0014879Y0068087D01*
X0014768Y0068143D01*
X0014659Y0068203D01*
X0014552Y0068267D01*
X0014447Y0068333D01*
X0014344Y0068403D01*
X0014244Y0068477D01*
X0014146Y0068553D01*
X0014050Y0068632D01*
X0013957Y0068715D01*
X0013866Y0068800D01*
X0013779Y0068889D01*
X0013694Y0068980D01*
X0013612Y0069074D01*
X0013534Y0069170D01*
X0013458Y0069269D01*
X0013385Y0069370D01*
X0013316Y0069473D01*
X0013250Y0069579D01*
X0013188Y0069686D01*
X0013129Y0069796D01*
X0013073Y0069907D01*
X0013021Y0070020D01*
X0012973Y0070135D01*
X0012929Y0070251D01*
X0012888Y0070368D01*
X0012851Y0070487D01*
X0012817Y0070607D01*
X0012788Y0070727D01*
X0012762Y0070849D01*
X0012740Y0070972D01*
X0012723Y0071095D01*
X0012709Y0071218D01*
X0012699Y0071342D01*
X0012693Y0071467D01*
X0012691Y0071591D01*
X0012591Y0067591D02*
X0020591Y0075591D01*
X0022691Y0071591D02*
X0022693Y0071715D01*
X0022699Y0071840D01*
X0022709Y0071964D01*
X0022723Y0072087D01*
X0022740Y0072210D01*
X0022762Y0072333D01*
X0022788Y0072455D01*
X0022817Y0072575D01*
X0022851Y0072695D01*
X0022888Y0072814D01*
X0022929Y0072931D01*
X0022973Y0073047D01*
X0023021Y0073162D01*
X0023073Y0073275D01*
X0023129Y0073386D01*
X0023188Y0073496D01*
X0023250Y0073603D01*
X0023316Y0073709D01*
X0023385Y0073812D01*
X0023458Y0073913D01*
X0023534Y0074012D01*
X0023612Y0074108D01*
X0023694Y0074202D01*
X0023779Y0074293D01*
X0023866Y0074382D01*
X0023957Y0074467D01*
X0024050Y0074550D01*
X0024146Y0074629D01*
X0024244Y0074705D01*
X0024344Y0074779D01*
X0024447Y0074849D01*
X0024552Y0074915D01*
X0024659Y0074979D01*
X0024768Y0075039D01*
X0024879Y0075095D01*
X0024991Y0075148D01*
X0025106Y0075197D01*
X0025221Y0075243D01*
X0025339Y0075284D01*
X0025457Y0075323D01*
X0025577Y0075357D01*
X0025697Y0075387D01*
X0025819Y0075414D01*
X0025941Y0075436D01*
X0026064Y0075455D01*
X0026187Y0075470D01*
X0026311Y0075481D01*
X0026436Y0075488D01*
X0026560Y0075491D01*
X0026684Y0075490D01*
X0026809Y0075485D01*
X0026933Y0075476D01*
X0027056Y0075463D01*
X0027180Y0075446D01*
X0027302Y0075426D01*
X0027424Y0075401D01*
X0027545Y0075372D01*
X0027665Y0075340D01*
X0027784Y0075304D01*
X0027902Y0075264D01*
X0028019Y0075220D01*
X0028134Y0075173D01*
X0028247Y0075122D01*
X0028359Y0075067D01*
X0028469Y0075009D01*
X0028577Y0074948D01*
X0028683Y0074883D01*
X0028787Y0074814D01*
X0028888Y0074743D01*
X0028988Y0074668D01*
X0029085Y0074590D01*
X0029179Y0074509D01*
X0029271Y0074425D01*
X0029360Y0074338D01*
X0029446Y0074248D01*
X0029529Y0074156D01*
X0029609Y0074061D01*
X0029687Y0073963D01*
X0029761Y0073863D01*
X0029832Y0073761D01*
X0029899Y0073657D01*
X0029963Y0073550D01*
X0030024Y0073441D01*
X0030081Y0073331D01*
X0030135Y0073219D01*
X0030185Y0073105D01*
X0030232Y0072990D01*
X0030274Y0072873D01*
X0030313Y0072755D01*
X0030349Y0072635D01*
X0030380Y0072515D01*
X0030407Y0072394D01*
X0030431Y0072272D01*
X0030451Y0072149D01*
X0030467Y0072025D01*
X0030479Y0071902D01*
X0030487Y0071778D01*
X0030491Y0071653D01*
X0030491Y0071529D01*
X0030487Y0071404D01*
X0030479Y0071280D01*
X0030467Y0071157D01*
X0030451Y0071033D01*
X0030431Y0070910D01*
X0030407Y0070788D01*
X0030380Y0070667D01*
X0030349Y0070547D01*
X0030313Y0070427D01*
X0030274Y0070309D01*
X0030232Y0070192D01*
X0030185Y0070077D01*
X0030135Y0069963D01*
X0030081Y0069851D01*
X0030024Y0069741D01*
X0029963Y0069632D01*
X0029899Y0069525D01*
X0029832Y0069421D01*
X0029761Y0069319D01*
X0029687Y0069219D01*
X0029609Y0069121D01*
X0029529Y0069026D01*
X0029446Y0068934D01*
X0029360Y0068844D01*
X0029271Y0068757D01*
X0029179Y0068673D01*
X0029085Y0068592D01*
X0028988Y0068514D01*
X0028888Y0068439D01*
X0028787Y0068368D01*
X0028683Y0068299D01*
X0028577Y0068234D01*
X0028469Y0068173D01*
X0028359Y0068115D01*
X0028247Y0068060D01*
X0028134Y0068009D01*
X0028019Y0067962D01*
X0027902Y0067918D01*
X0027784Y0067878D01*
X0027665Y0067842D01*
X0027545Y0067810D01*
X0027424Y0067781D01*
X0027302Y0067756D01*
X0027180Y0067736D01*
X0027056Y0067719D01*
X0026933Y0067706D01*
X0026809Y0067697D01*
X0026684Y0067692D01*
X0026560Y0067691D01*
X0026436Y0067694D01*
X0026311Y0067701D01*
X0026187Y0067712D01*
X0026064Y0067727D01*
X0025941Y0067746D01*
X0025819Y0067768D01*
X0025697Y0067795D01*
X0025577Y0067825D01*
X0025457Y0067859D01*
X0025339Y0067898D01*
X0025221Y0067939D01*
X0025106Y0067985D01*
X0024991Y0068034D01*
X0024879Y0068087D01*
X0024768Y0068143D01*
X0024659Y0068203D01*
X0024552Y0068267D01*
X0024447Y0068333D01*
X0024344Y0068403D01*
X0024244Y0068477D01*
X0024146Y0068553D01*
X0024050Y0068632D01*
X0023957Y0068715D01*
X0023866Y0068800D01*
X0023779Y0068889D01*
X0023694Y0068980D01*
X0023612Y0069074D01*
X0023534Y0069170D01*
X0023458Y0069269D01*
X0023385Y0069370D01*
X0023316Y0069473D01*
X0023250Y0069579D01*
X0023188Y0069686D01*
X0023129Y0069796D01*
X0023073Y0069907D01*
X0023021Y0070020D01*
X0022973Y0070135D01*
X0022929Y0070251D01*
X0022888Y0070368D01*
X0022851Y0070487D01*
X0022817Y0070607D01*
X0022788Y0070727D01*
X0022762Y0070849D01*
X0022740Y0070972D01*
X0022723Y0071095D01*
X0022709Y0071218D01*
X0022699Y0071342D01*
X0022693Y0071467D01*
X0022691Y0071591D01*
X0022591Y0067591D02*
X0030591Y0075591D01*
X0022691Y0081591D02*
X0022693Y0081715D01*
X0022699Y0081840D01*
X0022709Y0081964D01*
X0022723Y0082087D01*
X0022740Y0082210D01*
X0022762Y0082333D01*
X0022788Y0082455D01*
X0022817Y0082575D01*
X0022851Y0082695D01*
X0022888Y0082814D01*
X0022929Y0082931D01*
X0022973Y0083047D01*
X0023021Y0083162D01*
X0023073Y0083275D01*
X0023129Y0083386D01*
X0023188Y0083496D01*
X0023250Y0083603D01*
X0023316Y0083709D01*
X0023385Y0083812D01*
X0023458Y0083913D01*
X0023534Y0084012D01*
X0023612Y0084108D01*
X0023694Y0084202D01*
X0023779Y0084293D01*
X0023866Y0084382D01*
X0023957Y0084467D01*
X0024050Y0084550D01*
X0024146Y0084629D01*
X0024244Y0084705D01*
X0024344Y0084779D01*
X0024447Y0084849D01*
X0024552Y0084915D01*
X0024659Y0084979D01*
X0024768Y0085039D01*
X0024879Y0085095D01*
X0024991Y0085148D01*
X0025106Y0085197D01*
X0025221Y0085243D01*
X0025339Y0085284D01*
X0025457Y0085323D01*
X0025577Y0085357D01*
X0025697Y0085387D01*
X0025819Y0085414D01*
X0025941Y0085436D01*
X0026064Y0085455D01*
X0026187Y0085470D01*
X0026311Y0085481D01*
X0026436Y0085488D01*
X0026560Y0085491D01*
X0026684Y0085490D01*
X0026809Y0085485D01*
X0026933Y0085476D01*
X0027056Y0085463D01*
X0027180Y0085446D01*
X0027302Y0085426D01*
X0027424Y0085401D01*
X0027545Y0085372D01*
X0027665Y0085340D01*
X0027784Y0085304D01*
X0027902Y0085264D01*
X0028019Y0085220D01*
X0028134Y0085173D01*
X0028247Y0085122D01*
X0028359Y0085067D01*
X0028469Y0085009D01*
X0028577Y0084948D01*
X0028683Y0084883D01*
X0028787Y0084814D01*
X0028888Y0084743D01*
X0028988Y0084668D01*
X0029085Y0084590D01*
X0029179Y0084509D01*
X0029271Y0084425D01*
X0029360Y0084338D01*
X0029446Y0084248D01*
X0029529Y0084156D01*
X0029609Y0084061D01*
X0029687Y0083963D01*
X0029761Y0083863D01*
X0029832Y0083761D01*
X0029899Y0083657D01*
X0029963Y0083550D01*
X0030024Y0083441D01*
X0030081Y0083331D01*
X0030135Y0083219D01*
X0030185Y0083105D01*
X0030232Y0082990D01*
X0030274Y0082873D01*
X0030313Y0082755D01*
X0030349Y0082635D01*
X0030380Y0082515D01*
X0030407Y0082394D01*
X0030431Y0082272D01*
X0030451Y0082149D01*
X0030467Y0082025D01*
X0030479Y0081902D01*
X0030487Y0081778D01*
X0030491Y0081653D01*
X0030491Y0081529D01*
X0030487Y0081404D01*
X0030479Y0081280D01*
X0030467Y0081157D01*
X0030451Y0081033D01*
X0030431Y0080910D01*
X0030407Y0080788D01*
X0030380Y0080667D01*
X0030349Y0080547D01*
X0030313Y0080427D01*
X0030274Y0080309D01*
X0030232Y0080192D01*
X0030185Y0080077D01*
X0030135Y0079963D01*
X0030081Y0079851D01*
X0030024Y0079741D01*
X0029963Y0079632D01*
X0029899Y0079525D01*
X0029832Y0079421D01*
X0029761Y0079319D01*
X0029687Y0079219D01*
X0029609Y0079121D01*
X0029529Y0079026D01*
X0029446Y0078934D01*
X0029360Y0078844D01*
X0029271Y0078757D01*
X0029179Y0078673D01*
X0029085Y0078592D01*
X0028988Y0078514D01*
X0028888Y0078439D01*
X0028787Y0078368D01*
X0028683Y0078299D01*
X0028577Y0078234D01*
X0028469Y0078173D01*
X0028359Y0078115D01*
X0028247Y0078060D01*
X0028134Y0078009D01*
X0028019Y0077962D01*
X0027902Y0077918D01*
X0027784Y0077878D01*
X0027665Y0077842D01*
X0027545Y0077810D01*
X0027424Y0077781D01*
X0027302Y0077756D01*
X0027180Y0077736D01*
X0027056Y0077719D01*
X0026933Y0077706D01*
X0026809Y0077697D01*
X0026684Y0077692D01*
X0026560Y0077691D01*
X0026436Y0077694D01*
X0026311Y0077701D01*
X0026187Y0077712D01*
X0026064Y0077727D01*
X0025941Y0077746D01*
X0025819Y0077768D01*
X0025697Y0077795D01*
X0025577Y0077825D01*
X0025457Y0077859D01*
X0025339Y0077898D01*
X0025221Y0077939D01*
X0025106Y0077985D01*
X0024991Y0078034D01*
X0024879Y0078087D01*
X0024768Y0078143D01*
X0024659Y0078203D01*
X0024552Y0078267D01*
X0024447Y0078333D01*
X0024344Y0078403D01*
X0024244Y0078477D01*
X0024146Y0078553D01*
X0024050Y0078632D01*
X0023957Y0078715D01*
X0023866Y0078800D01*
X0023779Y0078889D01*
X0023694Y0078980D01*
X0023612Y0079074D01*
X0023534Y0079170D01*
X0023458Y0079269D01*
X0023385Y0079370D01*
X0023316Y0079473D01*
X0023250Y0079579D01*
X0023188Y0079686D01*
X0023129Y0079796D01*
X0023073Y0079907D01*
X0023021Y0080020D01*
X0022973Y0080135D01*
X0022929Y0080251D01*
X0022888Y0080368D01*
X0022851Y0080487D01*
X0022817Y0080607D01*
X0022788Y0080727D01*
X0022762Y0080849D01*
X0022740Y0080972D01*
X0022723Y0081095D01*
X0022709Y0081218D01*
X0022699Y0081342D01*
X0022693Y0081467D01*
X0022691Y0081591D01*
X0022591Y0077591D02*
X0030591Y0085591D01*
X0022691Y0091591D02*
X0022693Y0091715D01*
X0022699Y0091840D01*
X0022709Y0091964D01*
X0022723Y0092087D01*
X0022740Y0092210D01*
X0022762Y0092333D01*
X0022788Y0092455D01*
X0022817Y0092575D01*
X0022851Y0092695D01*
X0022888Y0092814D01*
X0022929Y0092931D01*
X0022973Y0093047D01*
X0023021Y0093162D01*
X0023073Y0093275D01*
X0023129Y0093386D01*
X0023188Y0093496D01*
X0023250Y0093603D01*
X0023316Y0093709D01*
X0023385Y0093812D01*
X0023458Y0093913D01*
X0023534Y0094012D01*
X0023612Y0094108D01*
X0023694Y0094202D01*
X0023779Y0094293D01*
X0023866Y0094382D01*
X0023957Y0094467D01*
X0024050Y0094550D01*
X0024146Y0094629D01*
X0024244Y0094705D01*
X0024344Y0094779D01*
X0024447Y0094849D01*
X0024552Y0094915D01*
X0024659Y0094979D01*
X0024768Y0095039D01*
X0024879Y0095095D01*
X0024991Y0095148D01*
X0025106Y0095197D01*
X0025221Y0095243D01*
X0025339Y0095284D01*
X0025457Y0095323D01*
X0025577Y0095357D01*
X0025697Y0095387D01*
X0025819Y0095414D01*
X0025941Y0095436D01*
X0026064Y0095455D01*
X0026187Y0095470D01*
X0026311Y0095481D01*
X0026436Y0095488D01*
X0026560Y0095491D01*
X0026684Y0095490D01*
X0026809Y0095485D01*
X0026933Y0095476D01*
X0027056Y0095463D01*
X0027180Y0095446D01*
X0027302Y0095426D01*
X0027424Y0095401D01*
X0027545Y0095372D01*
X0027665Y0095340D01*
X0027784Y0095304D01*
X0027902Y0095264D01*
X0028019Y0095220D01*
X0028134Y0095173D01*
X0028247Y0095122D01*
X0028359Y0095067D01*
X0028469Y0095009D01*
X0028577Y0094948D01*
X0028683Y0094883D01*
X0028787Y0094814D01*
X0028888Y0094743D01*
X0028988Y0094668D01*
X0029085Y0094590D01*
X0029179Y0094509D01*
X0029271Y0094425D01*
X0029360Y0094338D01*
X0029446Y0094248D01*
X0029529Y0094156D01*
X0029609Y0094061D01*
X0029687Y0093963D01*
X0029761Y0093863D01*
X0029832Y0093761D01*
X0029899Y0093657D01*
X0029963Y0093550D01*
X0030024Y0093441D01*
X0030081Y0093331D01*
X0030135Y0093219D01*
X0030185Y0093105D01*
X0030232Y0092990D01*
X0030274Y0092873D01*
X0030313Y0092755D01*
X0030349Y0092635D01*
X0030380Y0092515D01*
X0030407Y0092394D01*
X0030431Y0092272D01*
X0030451Y0092149D01*
X0030467Y0092025D01*
X0030479Y0091902D01*
X0030487Y0091778D01*
X0030491Y0091653D01*
X0030491Y0091529D01*
X0030487Y0091404D01*
X0030479Y0091280D01*
X0030467Y0091157D01*
X0030451Y0091033D01*
X0030431Y0090910D01*
X0030407Y0090788D01*
X0030380Y0090667D01*
X0030349Y0090547D01*
X0030313Y0090427D01*
X0030274Y0090309D01*
X0030232Y0090192D01*
X0030185Y0090077D01*
X0030135Y0089963D01*
X0030081Y0089851D01*
X0030024Y0089741D01*
X0029963Y0089632D01*
X0029899Y0089525D01*
X0029832Y0089421D01*
X0029761Y0089319D01*
X0029687Y0089219D01*
X0029609Y0089121D01*
X0029529Y0089026D01*
X0029446Y0088934D01*
X0029360Y0088844D01*
X0029271Y0088757D01*
X0029179Y0088673D01*
X0029085Y0088592D01*
X0028988Y0088514D01*
X0028888Y0088439D01*
X0028787Y0088368D01*
X0028683Y0088299D01*
X0028577Y0088234D01*
X0028469Y0088173D01*
X0028359Y0088115D01*
X0028247Y0088060D01*
X0028134Y0088009D01*
X0028019Y0087962D01*
X0027902Y0087918D01*
X0027784Y0087878D01*
X0027665Y0087842D01*
X0027545Y0087810D01*
X0027424Y0087781D01*
X0027302Y0087756D01*
X0027180Y0087736D01*
X0027056Y0087719D01*
X0026933Y0087706D01*
X0026809Y0087697D01*
X0026684Y0087692D01*
X0026560Y0087691D01*
X0026436Y0087694D01*
X0026311Y0087701D01*
X0026187Y0087712D01*
X0026064Y0087727D01*
X0025941Y0087746D01*
X0025819Y0087768D01*
X0025697Y0087795D01*
X0025577Y0087825D01*
X0025457Y0087859D01*
X0025339Y0087898D01*
X0025221Y0087939D01*
X0025106Y0087985D01*
X0024991Y0088034D01*
X0024879Y0088087D01*
X0024768Y0088143D01*
X0024659Y0088203D01*
X0024552Y0088267D01*
X0024447Y0088333D01*
X0024344Y0088403D01*
X0024244Y0088477D01*
X0024146Y0088553D01*
X0024050Y0088632D01*
X0023957Y0088715D01*
X0023866Y0088800D01*
X0023779Y0088889D01*
X0023694Y0088980D01*
X0023612Y0089074D01*
X0023534Y0089170D01*
X0023458Y0089269D01*
X0023385Y0089370D01*
X0023316Y0089473D01*
X0023250Y0089579D01*
X0023188Y0089686D01*
X0023129Y0089796D01*
X0023073Y0089907D01*
X0023021Y0090020D01*
X0022973Y0090135D01*
X0022929Y0090251D01*
X0022888Y0090368D01*
X0022851Y0090487D01*
X0022817Y0090607D01*
X0022788Y0090727D01*
X0022762Y0090849D01*
X0022740Y0090972D01*
X0022723Y0091095D01*
X0022709Y0091218D01*
X0022699Y0091342D01*
X0022693Y0091467D01*
X0022691Y0091591D01*
X0022591Y0087591D02*
X0030591Y0095591D01*
X0022691Y0101591D02*
X0022693Y0101715D01*
X0022699Y0101840D01*
X0022709Y0101964D01*
X0022723Y0102087D01*
X0022740Y0102210D01*
X0022762Y0102333D01*
X0022788Y0102455D01*
X0022817Y0102575D01*
X0022851Y0102695D01*
X0022888Y0102814D01*
X0022929Y0102931D01*
X0022973Y0103047D01*
X0023021Y0103162D01*
X0023073Y0103275D01*
X0023129Y0103386D01*
X0023188Y0103496D01*
X0023250Y0103603D01*
X0023316Y0103709D01*
X0023385Y0103812D01*
X0023458Y0103913D01*
X0023534Y0104012D01*
X0023612Y0104108D01*
X0023694Y0104202D01*
X0023779Y0104293D01*
X0023866Y0104382D01*
X0023957Y0104467D01*
X0024050Y0104550D01*
X0024146Y0104629D01*
X0024244Y0104705D01*
X0024344Y0104779D01*
X0024447Y0104849D01*
X0024552Y0104915D01*
X0024659Y0104979D01*
X0024768Y0105039D01*
X0024879Y0105095D01*
X0024991Y0105148D01*
X0025106Y0105197D01*
X0025221Y0105243D01*
X0025339Y0105284D01*
X0025457Y0105323D01*
X0025577Y0105357D01*
X0025697Y0105387D01*
X0025819Y0105414D01*
X0025941Y0105436D01*
X0026064Y0105455D01*
X0026187Y0105470D01*
X0026311Y0105481D01*
X0026436Y0105488D01*
X0026560Y0105491D01*
X0026684Y0105490D01*
X0026809Y0105485D01*
X0026933Y0105476D01*
X0027056Y0105463D01*
X0027180Y0105446D01*
X0027302Y0105426D01*
X0027424Y0105401D01*
X0027545Y0105372D01*
X0027665Y0105340D01*
X0027784Y0105304D01*
X0027902Y0105264D01*
X0028019Y0105220D01*
X0028134Y0105173D01*
X0028247Y0105122D01*
X0028359Y0105067D01*
X0028469Y0105009D01*
X0028577Y0104948D01*
X0028683Y0104883D01*
X0028787Y0104814D01*
X0028888Y0104743D01*
X0028988Y0104668D01*
X0029085Y0104590D01*
X0029179Y0104509D01*
X0029271Y0104425D01*
X0029360Y0104338D01*
X0029446Y0104248D01*
X0029529Y0104156D01*
X0029609Y0104061D01*
X0029687Y0103963D01*
X0029761Y0103863D01*
X0029832Y0103761D01*
X0029899Y0103657D01*
X0029963Y0103550D01*
X0030024Y0103441D01*
X0030081Y0103331D01*
X0030135Y0103219D01*
X0030185Y0103105D01*
X0030232Y0102990D01*
X0030274Y0102873D01*
X0030313Y0102755D01*
X0030349Y0102635D01*
X0030380Y0102515D01*
X0030407Y0102394D01*
X0030431Y0102272D01*
X0030451Y0102149D01*
X0030467Y0102025D01*
X0030479Y0101902D01*
X0030487Y0101778D01*
X0030491Y0101653D01*
X0030491Y0101529D01*
X0030487Y0101404D01*
X0030479Y0101280D01*
X0030467Y0101157D01*
X0030451Y0101033D01*
X0030431Y0100910D01*
X0030407Y0100788D01*
X0030380Y0100667D01*
X0030349Y0100547D01*
X0030313Y0100427D01*
X0030274Y0100309D01*
X0030232Y0100192D01*
X0030185Y0100077D01*
X0030135Y0099963D01*
X0030081Y0099851D01*
X0030024Y0099741D01*
X0029963Y0099632D01*
X0029899Y0099525D01*
X0029832Y0099421D01*
X0029761Y0099319D01*
X0029687Y0099219D01*
X0029609Y0099121D01*
X0029529Y0099026D01*
X0029446Y0098934D01*
X0029360Y0098844D01*
X0029271Y0098757D01*
X0029179Y0098673D01*
X0029085Y0098592D01*
X0028988Y0098514D01*
X0028888Y0098439D01*
X0028787Y0098368D01*
X0028683Y0098299D01*
X0028577Y0098234D01*
X0028469Y0098173D01*
X0028359Y0098115D01*
X0028247Y0098060D01*
X0028134Y0098009D01*
X0028019Y0097962D01*
X0027902Y0097918D01*
X0027784Y0097878D01*
X0027665Y0097842D01*
X0027545Y0097810D01*
X0027424Y0097781D01*
X0027302Y0097756D01*
X0027180Y0097736D01*
X0027056Y0097719D01*
X0026933Y0097706D01*
X0026809Y0097697D01*
X0026684Y0097692D01*
X0026560Y0097691D01*
X0026436Y0097694D01*
X0026311Y0097701D01*
X0026187Y0097712D01*
X0026064Y0097727D01*
X0025941Y0097746D01*
X0025819Y0097768D01*
X0025697Y0097795D01*
X0025577Y0097825D01*
X0025457Y0097859D01*
X0025339Y0097898D01*
X0025221Y0097939D01*
X0025106Y0097985D01*
X0024991Y0098034D01*
X0024879Y0098087D01*
X0024768Y0098143D01*
X0024659Y0098203D01*
X0024552Y0098267D01*
X0024447Y0098333D01*
X0024344Y0098403D01*
X0024244Y0098477D01*
X0024146Y0098553D01*
X0024050Y0098632D01*
X0023957Y0098715D01*
X0023866Y0098800D01*
X0023779Y0098889D01*
X0023694Y0098980D01*
X0023612Y0099074D01*
X0023534Y0099170D01*
X0023458Y0099269D01*
X0023385Y0099370D01*
X0023316Y0099473D01*
X0023250Y0099579D01*
X0023188Y0099686D01*
X0023129Y0099796D01*
X0023073Y0099907D01*
X0023021Y0100020D01*
X0022973Y0100135D01*
X0022929Y0100251D01*
X0022888Y0100368D01*
X0022851Y0100487D01*
X0022817Y0100607D01*
X0022788Y0100727D01*
X0022762Y0100849D01*
X0022740Y0100972D01*
X0022723Y0101095D01*
X0022709Y0101218D01*
X0022699Y0101342D01*
X0022693Y0101467D01*
X0022691Y0101591D01*
X0022591Y0097591D02*
X0030591Y0105591D01*
X0022691Y0111591D02*
X0022693Y0111715D01*
X0022699Y0111840D01*
X0022709Y0111964D01*
X0022723Y0112087D01*
X0022740Y0112210D01*
X0022762Y0112333D01*
X0022788Y0112455D01*
X0022817Y0112575D01*
X0022851Y0112695D01*
X0022888Y0112814D01*
X0022929Y0112931D01*
X0022973Y0113047D01*
X0023021Y0113162D01*
X0023073Y0113275D01*
X0023129Y0113386D01*
X0023188Y0113496D01*
X0023250Y0113603D01*
X0023316Y0113709D01*
X0023385Y0113812D01*
X0023458Y0113913D01*
X0023534Y0114012D01*
X0023612Y0114108D01*
X0023694Y0114202D01*
X0023779Y0114293D01*
X0023866Y0114382D01*
X0023957Y0114467D01*
X0024050Y0114550D01*
X0024146Y0114629D01*
X0024244Y0114705D01*
X0024344Y0114779D01*
X0024447Y0114849D01*
X0024552Y0114915D01*
X0024659Y0114979D01*
X0024768Y0115039D01*
X0024879Y0115095D01*
X0024991Y0115148D01*
X0025106Y0115197D01*
X0025221Y0115243D01*
X0025339Y0115284D01*
X0025457Y0115323D01*
X0025577Y0115357D01*
X0025697Y0115387D01*
X0025819Y0115414D01*
X0025941Y0115436D01*
X0026064Y0115455D01*
X0026187Y0115470D01*
X0026311Y0115481D01*
X0026436Y0115488D01*
X0026560Y0115491D01*
X0026684Y0115490D01*
X0026809Y0115485D01*
X0026933Y0115476D01*
X0027056Y0115463D01*
X0027180Y0115446D01*
X0027302Y0115426D01*
X0027424Y0115401D01*
X0027545Y0115372D01*
X0027665Y0115340D01*
X0027784Y0115304D01*
X0027902Y0115264D01*
X0028019Y0115220D01*
X0028134Y0115173D01*
X0028247Y0115122D01*
X0028359Y0115067D01*
X0028469Y0115009D01*
X0028577Y0114948D01*
X0028683Y0114883D01*
X0028787Y0114814D01*
X0028888Y0114743D01*
X0028988Y0114668D01*
X0029085Y0114590D01*
X0029179Y0114509D01*
X0029271Y0114425D01*
X0029360Y0114338D01*
X0029446Y0114248D01*
X0029529Y0114156D01*
X0029609Y0114061D01*
X0029687Y0113963D01*
X0029761Y0113863D01*
X0029832Y0113761D01*
X0029899Y0113657D01*
X0029963Y0113550D01*
X0030024Y0113441D01*
X0030081Y0113331D01*
X0030135Y0113219D01*
X0030185Y0113105D01*
X0030232Y0112990D01*
X0030274Y0112873D01*
X0030313Y0112755D01*
X0030349Y0112635D01*
X0030380Y0112515D01*
X0030407Y0112394D01*
X0030431Y0112272D01*
X0030451Y0112149D01*
X0030467Y0112025D01*
X0030479Y0111902D01*
X0030487Y0111778D01*
X0030491Y0111653D01*
X0030491Y0111529D01*
X0030487Y0111404D01*
X0030479Y0111280D01*
X0030467Y0111157D01*
X0030451Y0111033D01*
X0030431Y0110910D01*
X0030407Y0110788D01*
X0030380Y0110667D01*
X0030349Y0110547D01*
X0030313Y0110427D01*
X0030274Y0110309D01*
X0030232Y0110192D01*
X0030185Y0110077D01*
X0030135Y0109963D01*
X0030081Y0109851D01*
X0030024Y0109741D01*
X0029963Y0109632D01*
X0029899Y0109525D01*
X0029832Y0109421D01*
X0029761Y0109319D01*
X0029687Y0109219D01*
X0029609Y0109121D01*
X0029529Y0109026D01*
X0029446Y0108934D01*
X0029360Y0108844D01*
X0029271Y0108757D01*
X0029179Y0108673D01*
X0029085Y0108592D01*
X0028988Y0108514D01*
X0028888Y0108439D01*
X0028787Y0108368D01*
X0028683Y0108299D01*
X0028577Y0108234D01*
X0028469Y0108173D01*
X0028359Y0108115D01*
X0028247Y0108060D01*
X0028134Y0108009D01*
X0028019Y0107962D01*
X0027902Y0107918D01*
X0027784Y0107878D01*
X0027665Y0107842D01*
X0027545Y0107810D01*
X0027424Y0107781D01*
X0027302Y0107756D01*
X0027180Y0107736D01*
X0027056Y0107719D01*
X0026933Y0107706D01*
X0026809Y0107697D01*
X0026684Y0107692D01*
X0026560Y0107691D01*
X0026436Y0107694D01*
X0026311Y0107701D01*
X0026187Y0107712D01*
X0026064Y0107727D01*
X0025941Y0107746D01*
X0025819Y0107768D01*
X0025697Y0107795D01*
X0025577Y0107825D01*
X0025457Y0107859D01*
X0025339Y0107898D01*
X0025221Y0107939D01*
X0025106Y0107985D01*
X0024991Y0108034D01*
X0024879Y0108087D01*
X0024768Y0108143D01*
X0024659Y0108203D01*
X0024552Y0108267D01*
X0024447Y0108333D01*
X0024344Y0108403D01*
X0024244Y0108477D01*
X0024146Y0108553D01*
X0024050Y0108632D01*
X0023957Y0108715D01*
X0023866Y0108800D01*
X0023779Y0108889D01*
X0023694Y0108980D01*
X0023612Y0109074D01*
X0023534Y0109170D01*
X0023458Y0109269D01*
X0023385Y0109370D01*
X0023316Y0109473D01*
X0023250Y0109579D01*
X0023188Y0109686D01*
X0023129Y0109796D01*
X0023073Y0109907D01*
X0023021Y0110020D01*
X0022973Y0110135D01*
X0022929Y0110251D01*
X0022888Y0110368D01*
X0022851Y0110487D01*
X0022817Y0110607D01*
X0022788Y0110727D01*
X0022762Y0110849D01*
X0022740Y0110972D01*
X0022723Y0111095D01*
X0022709Y0111218D01*
X0022699Y0111342D01*
X0022693Y0111467D01*
X0022691Y0111591D01*
X0022591Y0107591D02*
X0030591Y0115591D01*
X0022691Y0121591D02*
X0022693Y0121715D01*
X0022699Y0121840D01*
X0022709Y0121964D01*
X0022723Y0122087D01*
X0022740Y0122210D01*
X0022762Y0122333D01*
X0022788Y0122455D01*
X0022817Y0122575D01*
X0022851Y0122695D01*
X0022888Y0122814D01*
X0022929Y0122931D01*
X0022973Y0123047D01*
X0023021Y0123162D01*
X0023073Y0123275D01*
X0023129Y0123386D01*
X0023188Y0123496D01*
X0023250Y0123603D01*
X0023316Y0123709D01*
X0023385Y0123812D01*
X0023458Y0123913D01*
X0023534Y0124012D01*
X0023612Y0124108D01*
X0023694Y0124202D01*
X0023779Y0124293D01*
X0023866Y0124382D01*
X0023957Y0124467D01*
X0024050Y0124550D01*
X0024146Y0124629D01*
X0024244Y0124705D01*
X0024344Y0124779D01*
X0024447Y0124849D01*
X0024552Y0124915D01*
X0024659Y0124979D01*
X0024768Y0125039D01*
X0024879Y0125095D01*
X0024991Y0125148D01*
X0025106Y0125197D01*
X0025221Y0125243D01*
X0025339Y0125284D01*
X0025457Y0125323D01*
X0025577Y0125357D01*
X0025697Y0125387D01*
X0025819Y0125414D01*
X0025941Y0125436D01*
X0026064Y0125455D01*
X0026187Y0125470D01*
X0026311Y0125481D01*
X0026436Y0125488D01*
X0026560Y0125491D01*
X0026684Y0125490D01*
X0026809Y0125485D01*
X0026933Y0125476D01*
X0027056Y0125463D01*
X0027180Y0125446D01*
X0027302Y0125426D01*
X0027424Y0125401D01*
X0027545Y0125372D01*
X0027665Y0125340D01*
X0027784Y0125304D01*
X0027902Y0125264D01*
X0028019Y0125220D01*
X0028134Y0125173D01*
X0028247Y0125122D01*
X0028359Y0125067D01*
X0028469Y0125009D01*
X0028577Y0124948D01*
X0028683Y0124883D01*
X0028787Y0124814D01*
X0028888Y0124743D01*
X0028988Y0124668D01*
X0029085Y0124590D01*
X0029179Y0124509D01*
X0029271Y0124425D01*
X0029360Y0124338D01*
X0029446Y0124248D01*
X0029529Y0124156D01*
X0029609Y0124061D01*
X0029687Y0123963D01*
X0029761Y0123863D01*
X0029832Y0123761D01*
X0029899Y0123657D01*
X0029963Y0123550D01*
X0030024Y0123441D01*
X0030081Y0123331D01*
X0030135Y0123219D01*
X0030185Y0123105D01*
X0030232Y0122990D01*
X0030274Y0122873D01*
X0030313Y0122755D01*
X0030349Y0122635D01*
X0030380Y0122515D01*
X0030407Y0122394D01*
X0030431Y0122272D01*
X0030451Y0122149D01*
X0030467Y0122025D01*
X0030479Y0121902D01*
X0030487Y0121778D01*
X0030491Y0121653D01*
X0030491Y0121529D01*
X0030487Y0121404D01*
X0030479Y0121280D01*
X0030467Y0121157D01*
X0030451Y0121033D01*
X0030431Y0120910D01*
X0030407Y0120788D01*
X0030380Y0120667D01*
X0030349Y0120547D01*
X0030313Y0120427D01*
X0030274Y0120309D01*
X0030232Y0120192D01*
X0030185Y0120077D01*
X0030135Y0119963D01*
X0030081Y0119851D01*
X0030024Y0119741D01*
X0029963Y0119632D01*
X0029899Y0119525D01*
X0029832Y0119421D01*
X0029761Y0119319D01*
X0029687Y0119219D01*
X0029609Y0119121D01*
X0029529Y0119026D01*
X0029446Y0118934D01*
X0029360Y0118844D01*
X0029271Y0118757D01*
X0029179Y0118673D01*
X0029085Y0118592D01*
X0028988Y0118514D01*
X0028888Y0118439D01*
X0028787Y0118368D01*
X0028683Y0118299D01*
X0028577Y0118234D01*
X0028469Y0118173D01*
X0028359Y0118115D01*
X0028247Y0118060D01*
X0028134Y0118009D01*
X0028019Y0117962D01*
X0027902Y0117918D01*
X0027784Y0117878D01*
X0027665Y0117842D01*
X0027545Y0117810D01*
X0027424Y0117781D01*
X0027302Y0117756D01*
X0027180Y0117736D01*
X0027056Y0117719D01*
X0026933Y0117706D01*
X0026809Y0117697D01*
X0026684Y0117692D01*
X0026560Y0117691D01*
X0026436Y0117694D01*
X0026311Y0117701D01*
X0026187Y0117712D01*
X0026064Y0117727D01*
X0025941Y0117746D01*
X0025819Y0117768D01*
X0025697Y0117795D01*
X0025577Y0117825D01*
X0025457Y0117859D01*
X0025339Y0117898D01*
X0025221Y0117939D01*
X0025106Y0117985D01*
X0024991Y0118034D01*
X0024879Y0118087D01*
X0024768Y0118143D01*
X0024659Y0118203D01*
X0024552Y0118267D01*
X0024447Y0118333D01*
X0024344Y0118403D01*
X0024244Y0118477D01*
X0024146Y0118553D01*
X0024050Y0118632D01*
X0023957Y0118715D01*
X0023866Y0118800D01*
X0023779Y0118889D01*
X0023694Y0118980D01*
X0023612Y0119074D01*
X0023534Y0119170D01*
X0023458Y0119269D01*
X0023385Y0119370D01*
X0023316Y0119473D01*
X0023250Y0119579D01*
X0023188Y0119686D01*
X0023129Y0119796D01*
X0023073Y0119907D01*
X0023021Y0120020D01*
X0022973Y0120135D01*
X0022929Y0120251D01*
X0022888Y0120368D01*
X0022851Y0120487D01*
X0022817Y0120607D01*
X0022788Y0120727D01*
X0022762Y0120849D01*
X0022740Y0120972D01*
X0022723Y0121095D01*
X0022709Y0121218D01*
X0022699Y0121342D01*
X0022693Y0121467D01*
X0022691Y0121591D01*
X0022591Y0117591D02*
X0030591Y0125591D01*
X0002691Y0071591D02*
X0002693Y0071715D01*
X0002699Y0071840D01*
X0002709Y0071964D01*
X0002723Y0072087D01*
X0002740Y0072210D01*
X0002762Y0072333D01*
X0002788Y0072455D01*
X0002817Y0072575D01*
X0002851Y0072695D01*
X0002888Y0072814D01*
X0002929Y0072931D01*
X0002973Y0073047D01*
X0003021Y0073162D01*
X0003073Y0073275D01*
X0003129Y0073386D01*
X0003188Y0073496D01*
X0003250Y0073603D01*
X0003316Y0073709D01*
X0003385Y0073812D01*
X0003458Y0073913D01*
X0003534Y0074012D01*
X0003612Y0074108D01*
X0003694Y0074202D01*
X0003779Y0074293D01*
X0003866Y0074382D01*
X0003957Y0074467D01*
X0004050Y0074550D01*
X0004146Y0074629D01*
X0004244Y0074705D01*
X0004344Y0074779D01*
X0004447Y0074849D01*
X0004552Y0074915D01*
X0004659Y0074979D01*
X0004768Y0075039D01*
X0004879Y0075095D01*
X0004991Y0075148D01*
X0005106Y0075197D01*
X0005221Y0075243D01*
X0005339Y0075284D01*
X0005457Y0075323D01*
X0005577Y0075357D01*
X0005697Y0075387D01*
X0005819Y0075414D01*
X0005941Y0075436D01*
X0006064Y0075455D01*
X0006187Y0075470D01*
X0006311Y0075481D01*
X0006436Y0075488D01*
X0006560Y0075491D01*
X0006684Y0075490D01*
X0006809Y0075485D01*
X0006933Y0075476D01*
X0007056Y0075463D01*
X0007180Y0075446D01*
X0007302Y0075426D01*
X0007424Y0075401D01*
X0007545Y0075372D01*
X0007665Y0075340D01*
X0007784Y0075304D01*
X0007902Y0075264D01*
X0008019Y0075220D01*
X0008134Y0075173D01*
X0008247Y0075122D01*
X0008359Y0075067D01*
X0008469Y0075009D01*
X0008577Y0074948D01*
X0008683Y0074883D01*
X0008787Y0074814D01*
X0008888Y0074743D01*
X0008988Y0074668D01*
X0009085Y0074590D01*
X0009179Y0074509D01*
X0009271Y0074425D01*
X0009360Y0074338D01*
X0009446Y0074248D01*
X0009529Y0074156D01*
X0009609Y0074061D01*
X0009687Y0073963D01*
X0009761Y0073863D01*
X0009832Y0073761D01*
X0009899Y0073657D01*
X0009963Y0073550D01*
X0010024Y0073441D01*
X0010081Y0073331D01*
X0010135Y0073219D01*
X0010185Y0073105D01*
X0010232Y0072990D01*
X0010274Y0072873D01*
X0010313Y0072755D01*
X0010349Y0072635D01*
X0010380Y0072515D01*
X0010407Y0072394D01*
X0010431Y0072272D01*
X0010451Y0072149D01*
X0010467Y0072025D01*
X0010479Y0071902D01*
X0010487Y0071778D01*
X0010491Y0071653D01*
X0010491Y0071529D01*
X0010487Y0071404D01*
X0010479Y0071280D01*
X0010467Y0071157D01*
X0010451Y0071033D01*
X0010431Y0070910D01*
X0010407Y0070788D01*
X0010380Y0070667D01*
X0010349Y0070547D01*
X0010313Y0070427D01*
X0010274Y0070309D01*
X0010232Y0070192D01*
X0010185Y0070077D01*
X0010135Y0069963D01*
X0010081Y0069851D01*
X0010024Y0069741D01*
X0009963Y0069632D01*
X0009899Y0069525D01*
X0009832Y0069421D01*
X0009761Y0069319D01*
X0009687Y0069219D01*
X0009609Y0069121D01*
X0009529Y0069026D01*
X0009446Y0068934D01*
X0009360Y0068844D01*
X0009271Y0068757D01*
X0009179Y0068673D01*
X0009085Y0068592D01*
X0008988Y0068514D01*
X0008888Y0068439D01*
X0008787Y0068368D01*
X0008683Y0068299D01*
X0008577Y0068234D01*
X0008469Y0068173D01*
X0008359Y0068115D01*
X0008247Y0068060D01*
X0008134Y0068009D01*
X0008019Y0067962D01*
X0007902Y0067918D01*
X0007784Y0067878D01*
X0007665Y0067842D01*
X0007545Y0067810D01*
X0007424Y0067781D01*
X0007302Y0067756D01*
X0007180Y0067736D01*
X0007056Y0067719D01*
X0006933Y0067706D01*
X0006809Y0067697D01*
X0006684Y0067692D01*
X0006560Y0067691D01*
X0006436Y0067694D01*
X0006311Y0067701D01*
X0006187Y0067712D01*
X0006064Y0067727D01*
X0005941Y0067746D01*
X0005819Y0067768D01*
X0005697Y0067795D01*
X0005577Y0067825D01*
X0005457Y0067859D01*
X0005339Y0067898D01*
X0005221Y0067939D01*
X0005106Y0067985D01*
X0004991Y0068034D01*
X0004879Y0068087D01*
X0004768Y0068143D01*
X0004659Y0068203D01*
X0004552Y0068267D01*
X0004447Y0068333D01*
X0004344Y0068403D01*
X0004244Y0068477D01*
X0004146Y0068553D01*
X0004050Y0068632D01*
X0003957Y0068715D01*
X0003866Y0068800D01*
X0003779Y0068889D01*
X0003694Y0068980D01*
X0003612Y0069074D01*
X0003534Y0069170D01*
X0003458Y0069269D01*
X0003385Y0069370D01*
X0003316Y0069473D01*
X0003250Y0069579D01*
X0003188Y0069686D01*
X0003129Y0069796D01*
X0003073Y0069907D01*
X0003021Y0070020D01*
X0002973Y0070135D01*
X0002929Y0070251D01*
X0002888Y0070368D01*
X0002851Y0070487D01*
X0002817Y0070607D01*
X0002788Y0070727D01*
X0002762Y0070849D01*
X0002740Y0070972D01*
X0002723Y0071095D01*
X0002709Y0071218D01*
X0002699Y0071342D01*
X0002693Y0071467D01*
X0002691Y0071591D01*
X0002591Y0067591D02*
X0010591Y0075591D01*
X0002691Y0061591D02*
X0002693Y0061715D01*
X0002699Y0061840D01*
X0002709Y0061964D01*
X0002723Y0062087D01*
X0002740Y0062210D01*
X0002762Y0062333D01*
X0002788Y0062455D01*
X0002817Y0062575D01*
X0002851Y0062695D01*
X0002888Y0062814D01*
X0002929Y0062931D01*
X0002973Y0063047D01*
X0003021Y0063162D01*
X0003073Y0063275D01*
X0003129Y0063386D01*
X0003188Y0063496D01*
X0003250Y0063603D01*
X0003316Y0063709D01*
X0003385Y0063812D01*
X0003458Y0063913D01*
X0003534Y0064012D01*
X0003612Y0064108D01*
X0003694Y0064202D01*
X0003779Y0064293D01*
X0003866Y0064382D01*
X0003957Y0064467D01*
X0004050Y0064550D01*
X0004146Y0064629D01*
X0004244Y0064705D01*
X0004344Y0064779D01*
X0004447Y0064849D01*
X0004552Y0064915D01*
X0004659Y0064979D01*
X0004768Y0065039D01*
X0004879Y0065095D01*
X0004991Y0065148D01*
X0005106Y0065197D01*
X0005221Y0065243D01*
X0005339Y0065284D01*
X0005457Y0065323D01*
X0005577Y0065357D01*
X0005697Y0065387D01*
X0005819Y0065414D01*
X0005941Y0065436D01*
X0006064Y0065455D01*
X0006187Y0065470D01*
X0006311Y0065481D01*
X0006436Y0065488D01*
X0006560Y0065491D01*
X0006684Y0065490D01*
X0006809Y0065485D01*
X0006933Y0065476D01*
X0007056Y0065463D01*
X0007180Y0065446D01*
X0007302Y0065426D01*
X0007424Y0065401D01*
X0007545Y0065372D01*
X0007665Y0065340D01*
X0007784Y0065304D01*
X0007902Y0065264D01*
X0008019Y0065220D01*
X0008134Y0065173D01*
X0008247Y0065122D01*
X0008359Y0065067D01*
X0008469Y0065009D01*
X0008577Y0064948D01*
X0008683Y0064883D01*
X0008787Y0064814D01*
X0008888Y0064743D01*
X0008988Y0064668D01*
X0009085Y0064590D01*
X0009179Y0064509D01*
X0009271Y0064425D01*
X0009360Y0064338D01*
X0009446Y0064248D01*
X0009529Y0064156D01*
X0009609Y0064061D01*
X0009687Y0063963D01*
X0009761Y0063863D01*
X0009832Y0063761D01*
X0009899Y0063657D01*
X0009963Y0063550D01*
X0010024Y0063441D01*
X0010081Y0063331D01*
X0010135Y0063219D01*
X0010185Y0063105D01*
X0010232Y0062990D01*
X0010274Y0062873D01*
X0010313Y0062755D01*
X0010349Y0062635D01*
X0010380Y0062515D01*
X0010407Y0062394D01*
X0010431Y0062272D01*
X0010451Y0062149D01*
X0010467Y0062025D01*
X0010479Y0061902D01*
X0010487Y0061778D01*
X0010491Y0061653D01*
X0010491Y0061529D01*
X0010487Y0061404D01*
X0010479Y0061280D01*
X0010467Y0061157D01*
X0010451Y0061033D01*
X0010431Y0060910D01*
X0010407Y0060788D01*
X0010380Y0060667D01*
X0010349Y0060547D01*
X0010313Y0060427D01*
X0010274Y0060309D01*
X0010232Y0060192D01*
X0010185Y0060077D01*
X0010135Y0059963D01*
X0010081Y0059851D01*
X0010024Y0059741D01*
X0009963Y0059632D01*
X0009899Y0059525D01*
X0009832Y0059421D01*
X0009761Y0059319D01*
X0009687Y0059219D01*
X0009609Y0059121D01*
X0009529Y0059026D01*
X0009446Y0058934D01*
X0009360Y0058844D01*
X0009271Y0058757D01*
X0009179Y0058673D01*
X0009085Y0058592D01*
X0008988Y0058514D01*
X0008888Y0058439D01*
X0008787Y0058368D01*
X0008683Y0058299D01*
X0008577Y0058234D01*
X0008469Y0058173D01*
X0008359Y0058115D01*
X0008247Y0058060D01*
X0008134Y0058009D01*
X0008019Y0057962D01*
X0007902Y0057918D01*
X0007784Y0057878D01*
X0007665Y0057842D01*
X0007545Y0057810D01*
X0007424Y0057781D01*
X0007302Y0057756D01*
X0007180Y0057736D01*
X0007056Y0057719D01*
X0006933Y0057706D01*
X0006809Y0057697D01*
X0006684Y0057692D01*
X0006560Y0057691D01*
X0006436Y0057694D01*
X0006311Y0057701D01*
X0006187Y0057712D01*
X0006064Y0057727D01*
X0005941Y0057746D01*
X0005819Y0057768D01*
X0005697Y0057795D01*
X0005577Y0057825D01*
X0005457Y0057859D01*
X0005339Y0057898D01*
X0005221Y0057939D01*
X0005106Y0057985D01*
X0004991Y0058034D01*
X0004879Y0058087D01*
X0004768Y0058143D01*
X0004659Y0058203D01*
X0004552Y0058267D01*
X0004447Y0058333D01*
X0004344Y0058403D01*
X0004244Y0058477D01*
X0004146Y0058553D01*
X0004050Y0058632D01*
X0003957Y0058715D01*
X0003866Y0058800D01*
X0003779Y0058889D01*
X0003694Y0058980D01*
X0003612Y0059074D01*
X0003534Y0059170D01*
X0003458Y0059269D01*
X0003385Y0059370D01*
X0003316Y0059473D01*
X0003250Y0059579D01*
X0003188Y0059686D01*
X0003129Y0059796D01*
X0003073Y0059907D01*
X0003021Y0060020D01*
X0002973Y0060135D01*
X0002929Y0060251D01*
X0002888Y0060368D01*
X0002851Y0060487D01*
X0002817Y0060607D01*
X0002788Y0060727D01*
X0002762Y0060849D01*
X0002740Y0060972D01*
X0002723Y0061095D01*
X0002709Y0061218D01*
X0002699Y0061342D01*
X0002693Y0061467D01*
X0002691Y0061591D01*
X0002591Y0057591D02*
X0010591Y0065591D01*
X0002691Y0051591D02*
X0002693Y0051715D01*
X0002699Y0051840D01*
X0002709Y0051964D01*
X0002723Y0052087D01*
X0002740Y0052210D01*
X0002762Y0052333D01*
X0002788Y0052455D01*
X0002817Y0052575D01*
X0002851Y0052695D01*
X0002888Y0052814D01*
X0002929Y0052931D01*
X0002973Y0053047D01*
X0003021Y0053162D01*
X0003073Y0053275D01*
X0003129Y0053386D01*
X0003188Y0053496D01*
X0003250Y0053603D01*
X0003316Y0053709D01*
X0003385Y0053812D01*
X0003458Y0053913D01*
X0003534Y0054012D01*
X0003612Y0054108D01*
X0003694Y0054202D01*
X0003779Y0054293D01*
X0003866Y0054382D01*
X0003957Y0054467D01*
X0004050Y0054550D01*
X0004146Y0054629D01*
X0004244Y0054705D01*
X0004344Y0054779D01*
X0004447Y0054849D01*
X0004552Y0054915D01*
X0004659Y0054979D01*
X0004768Y0055039D01*
X0004879Y0055095D01*
X0004991Y0055148D01*
X0005106Y0055197D01*
X0005221Y0055243D01*
X0005339Y0055284D01*
X0005457Y0055323D01*
X0005577Y0055357D01*
X0005697Y0055387D01*
X0005819Y0055414D01*
X0005941Y0055436D01*
X0006064Y0055455D01*
X0006187Y0055470D01*
X0006311Y0055481D01*
X0006436Y0055488D01*
X0006560Y0055491D01*
X0006684Y0055490D01*
X0006809Y0055485D01*
X0006933Y0055476D01*
X0007056Y0055463D01*
X0007180Y0055446D01*
X0007302Y0055426D01*
X0007424Y0055401D01*
X0007545Y0055372D01*
X0007665Y0055340D01*
X0007784Y0055304D01*
X0007902Y0055264D01*
X0008019Y0055220D01*
X0008134Y0055173D01*
X0008247Y0055122D01*
X0008359Y0055067D01*
X0008469Y0055009D01*
X0008577Y0054948D01*
X0008683Y0054883D01*
X0008787Y0054814D01*
X0008888Y0054743D01*
X0008988Y0054668D01*
X0009085Y0054590D01*
X0009179Y0054509D01*
X0009271Y0054425D01*
X0009360Y0054338D01*
X0009446Y0054248D01*
X0009529Y0054156D01*
X0009609Y0054061D01*
X0009687Y0053963D01*
X0009761Y0053863D01*
X0009832Y0053761D01*
X0009899Y0053657D01*
X0009963Y0053550D01*
X0010024Y0053441D01*
X0010081Y0053331D01*
X0010135Y0053219D01*
X0010185Y0053105D01*
X0010232Y0052990D01*
X0010274Y0052873D01*
X0010313Y0052755D01*
X0010349Y0052635D01*
X0010380Y0052515D01*
X0010407Y0052394D01*
X0010431Y0052272D01*
X0010451Y0052149D01*
X0010467Y0052025D01*
X0010479Y0051902D01*
X0010487Y0051778D01*
X0010491Y0051653D01*
X0010491Y0051529D01*
X0010487Y0051404D01*
X0010479Y0051280D01*
X0010467Y0051157D01*
X0010451Y0051033D01*
X0010431Y0050910D01*
X0010407Y0050788D01*
X0010380Y0050667D01*
X0010349Y0050547D01*
X0010313Y0050427D01*
X0010274Y0050309D01*
X0010232Y0050192D01*
X0010185Y0050077D01*
X0010135Y0049963D01*
X0010081Y0049851D01*
X0010024Y0049741D01*
X0009963Y0049632D01*
X0009899Y0049525D01*
X0009832Y0049421D01*
X0009761Y0049319D01*
X0009687Y0049219D01*
X0009609Y0049121D01*
X0009529Y0049026D01*
X0009446Y0048934D01*
X0009360Y0048844D01*
X0009271Y0048757D01*
X0009179Y0048673D01*
X0009085Y0048592D01*
X0008988Y0048514D01*
X0008888Y0048439D01*
X0008787Y0048368D01*
X0008683Y0048299D01*
X0008577Y0048234D01*
X0008469Y0048173D01*
X0008359Y0048115D01*
X0008247Y0048060D01*
X0008134Y0048009D01*
X0008019Y0047962D01*
X0007902Y0047918D01*
X0007784Y0047878D01*
X0007665Y0047842D01*
X0007545Y0047810D01*
X0007424Y0047781D01*
X0007302Y0047756D01*
X0007180Y0047736D01*
X0007056Y0047719D01*
X0006933Y0047706D01*
X0006809Y0047697D01*
X0006684Y0047692D01*
X0006560Y0047691D01*
X0006436Y0047694D01*
X0006311Y0047701D01*
X0006187Y0047712D01*
X0006064Y0047727D01*
X0005941Y0047746D01*
X0005819Y0047768D01*
X0005697Y0047795D01*
X0005577Y0047825D01*
X0005457Y0047859D01*
X0005339Y0047898D01*
X0005221Y0047939D01*
X0005106Y0047985D01*
X0004991Y0048034D01*
X0004879Y0048087D01*
X0004768Y0048143D01*
X0004659Y0048203D01*
X0004552Y0048267D01*
X0004447Y0048333D01*
X0004344Y0048403D01*
X0004244Y0048477D01*
X0004146Y0048553D01*
X0004050Y0048632D01*
X0003957Y0048715D01*
X0003866Y0048800D01*
X0003779Y0048889D01*
X0003694Y0048980D01*
X0003612Y0049074D01*
X0003534Y0049170D01*
X0003458Y0049269D01*
X0003385Y0049370D01*
X0003316Y0049473D01*
X0003250Y0049579D01*
X0003188Y0049686D01*
X0003129Y0049796D01*
X0003073Y0049907D01*
X0003021Y0050020D01*
X0002973Y0050135D01*
X0002929Y0050251D01*
X0002888Y0050368D01*
X0002851Y0050487D01*
X0002817Y0050607D01*
X0002788Y0050727D01*
X0002762Y0050849D01*
X0002740Y0050972D01*
X0002723Y0051095D01*
X0002709Y0051218D01*
X0002699Y0051342D01*
X0002693Y0051467D01*
X0002691Y0051591D01*
X0002591Y0047591D02*
X0010591Y0055591D01*
X0002691Y0041591D02*
X0002693Y0041715D01*
X0002699Y0041840D01*
X0002709Y0041964D01*
X0002723Y0042087D01*
X0002740Y0042210D01*
X0002762Y0042333D01*
X0002788Y0042455D01*
X0002817Y0042575D01*
X0002851Y0042695D01*
X0002888Y0042814D01*
X0002929Y0042931D01*
X0002973Y0043047D01*
X0003021Y0043162D01*
X0003073Y0043275D01*
X0003129Y0043386D01*
X0003188Y0043496D01*
X0003250Y0043603D01*
X0003316Y0043709D01*
X0003385Y0043812D01*
X0003458Y0043913D01*
X0003534Y0044012D01*
X0003612Y0044108D01*
X0003694Y0044202D01*
X0003779Y0044293D01*
X0003866Y0044382D01*
X0003957Y0044467D01*
X0004050Y0044550D01*
X0004146Y0044629D01*
X0004244Y0044705D01*
X0004344Y0044779D01*
X0004447Y0044849D01*
X0004552Y0044915D01*
X0004659Y0044979D01*
X0004768Y0045039D01*
X0004879Y0045095D01*
X0004991Y0045148D01*
X0005106Y0045197D01*
X0005221Y0045243D01*
X0005339Y0045284D01*
X0005457Y0045323D01*
X0005577Y0045357D01*
X0005697Y0045387D01*
X0005819Y0045414D01*
X0005941Y0045436D01*
X0006064Y0045455D01*
X0006187Y0045470D01*
X0006311Y0045481D01*
X0006436Y0045488D01*
X0006560Y0045491D01*
X0006684Y0045490D01*
X0006809Y0045485D01*
X0006933Y0045476D01*
X0007056Y0045463D01*
X0007180Y0045446D01*
X0007302Y0045426D01*
X0007424Y0045401D01*
X0007545Y0045372D01*
X0007665Y0045340D01*
X0007784Y0045304D01*
X0007902Y0045264D01*
X0008019Y0045220D01*
X0008134Y0045173D01*
X0008247Y0045122D01*
X0008359Y0045067D01*
X0008469Y0045009D01*
X0008577Y0044948D01*
X0008683Y0044883D01*
X0008787Y0044814D01*
X0008888Y0044743D01*
X0008988Y0044668D01*
X0009085Y0044590D01*
X0009179Y0044509D01*
X0009271Y0044425D01*
X0009360Y0044338D01*
X0009446Y0044248D01*
X0009529Y0044156D01*
X0009609Y0044061D01*
X0009687Y0043963D01*
X0009761Y0043863D01*
X0009832Y0043761D01*
X0009899Y0043657D01*
X0009963Y0043550D01*
X0010024Y0043441D01*
X0010081Y0043331D01*
X0010135Y0043219D01*
X0010185Y0043105D01*
X0010232Y0042990D01*
X0010274Y0042873D01*
X0010313Y0042755D01*
X0010349Y0042635D01*
X0010380Y0042515D01*
X0010407Y0042394D01*
X0010431Y0042272D01*
X0010451Y0042149D01*
X0010467Y0042025D01*
X0010479Y0041902D01*
X0010487Y0041778D01*
X0010491Y0041653D01*
X0010491Y0041529D01*
X0010487Y0041404D01*
X0010479Y0041280D01*
X0010467Y0041157D01*
X0010451Y0041033D01*
X0010431Y0040910D01*
X0010407Y0040788D01*
X0010380Y0040667D01*
X0010349Y0040547D01*
X0010313Y0040427D01*
X0010274Y0040309D01*
X0010232Y0040192D01*
X0010185Y0040077D01*
X0010135Y0039963D01*
X0010081Y0039851D01*
X0010024Y0039741D01*
X0009963Y0039632D01*
X0009899Y0039525D01*
X0009832Y0039421D01*
X0009761Y0039319D01*
X0009687Y0039219D01*
X0009609Y0039121D01*
X0009529Y0039026D01*
X0009446Y0038934D01*
X0009360Y0038844D01*
X0009271Y0038757D01*
X0009179Y0038673D01*
X0009085Y0038592D01*
X0008988Y0038514D01*
X0008888Y0038439D01*
X0008787Y0038368D01*
X0008683Y0038299D01*
X0008577Y0038234D01*
X0008469Y0038173D01*
X0008359Y0038115D01*
X0008247Y0038060D01*
X0008134Y0038009D01*
X0008019Y0037962D01*
X0007902Y0037918D01*
X0007784Y0037878D01*
X0007665Y0037842D01*
X0007545Y0037810D01*
X0007424Y0037781D01*
X0007302Y0037756D01*
X0007180Y0037736D01*
X0007056Y0037719D01*
X0006933Y0037706D01*
X0006809Y0037697D01*
X0006684Y0037692D01*
X0006560Y0037691D01*
X0006436Y0037694D01*
X0006311Y0037701D01*
X0006187Y0037712D01*
X0006064Y0037727D01*
X0005941Y0037746D01*
X0005819Y0037768D01*
X0005697Y0037795D01*
X0005577Y0037825D01*
X0005457Y0037859D01*
X0005339Y0037898D01*
X0005221Y0037939D01*
X0005106Y0037985D01*
X0004991Y0038034D01*
X0004879Y0038087D01*
X0004768Y0038143D01*
X0004659Y0038203D01*
X0004552Y0038267D01*
X0004447Y0038333D01*
X0004344Y0038403D01*
X0004244Y0038477D01*
X0004146Y0038553D01*
X0004050Y0038632D01*
X0003957Y0038715D01*
X0003866Y0038800D01*
X0003779Y0038889D01*
X0003694Y0038980D01*
X0003612Y0039074D01*
X0003534Y0039170D01*
X0003458Y0039269D01*
X0003385Y0039370D01*
X0003316Y0039473D01*
X0003250Y0039579D01*
X0003188Y0039686D01*
X0003129Y0039796D01*
X0003073Y0039907D01*
X0003021Y0040020D01*
X0002973Y0040135D01*
X0002929Y0040251D01*
X0002888Y0040368D01*
X0002851Y0040487D01*
X0002817Y0040607D01*
X0002788Y0040727D01*
X0002762Y0040849D01*
X0002740Y0040972D01*
X0002723Y0041095D01*
X0002709Y0041218D01*
X0002699Y0041342D01*
X0002693Y0041467D01*
X0002691Y0041591D01*
X0002591Y0037591D02*
X0010591Y0045591D01*
X0002691Y0031591D02*
X0002693Y0031715D01*
X0002699Y0031840D01*
X0002709Y0031964D01*
X0002723Y0032087D01*
X0002740Y0032210D01*
X0002762Y0032333D01*
X0002788Y0032455D01*
X0002817Y0032575D01*
X0002851Y0032695D01*
X0002888Y0032814D01*
X0002929Y0032931D01*
X0002973Y0033047D01*
X0003021Y0033162D01*
X0003073Y0033275D01*
X0003129Y0033386D01*
X0003188Y0033496D01*
X0003250Y0033603D01*
X0003316Y0033709D01*
X0003385Y0033812D01*
X0003458Y0033913D01*
X0003534Y0034012D01*
X0003612Y0034108D01*
X0003694Y0034202D01*
X0003779Y0034293D01*
X0003866Y0034382D01*
X0003957Y0034467D01*
X0004050Y0034550D01*
X0004146Y0034629D01*
X0004244Y0034705D01*
X0004344Y0034779D01*
X0004447Y0034849D01*
X0004552Y0034915D01*
X0004659Y0034979D01*
X0004768Y0035039D01*
X0004879Y0035095D01*
X0004991Y0035148D01*
X0005106Y0035197D01*
X0005221Y0035243D01*
X0005339Y0035284D01*
X0005457Y0035323D01*
X0005577Y0035357D01*
X0005697Y0035387D01*
X0005819Y0035414D01*
X0005941Y0035436D01*
X0006064Y0035455D01*
X0006187Y0035470D01*
X0006311Y0035481D01*
X0006436Y0035488D01*
X0006560Y0035491D01*
X0006684Y0035490D01*
X0006809Y0035485D01*
X0006933Y0035476D01*
X0007056Y0035463D01*
X0007180Y0035446D01*
X0007302Y0035426D01*
X0007424Y0035401D01*
X0007545Y0035372D01*
X0007665Y0035340D01*
X0007784Y0035304D01*
X0007902Y0035264D01*
X0008019Y0035220D01*
X0008134Y0035173D01*
X0008247Y0035122D01*
X0008359Y0035067D01*
X0008469Y0035009D01*
X0008577Y0034948D01*
X0008683Y0034883D01*
X0008787Y0034814D01*
X0008888Y0034743D01*
X0008988Y0034668D01*
X0009085Y0034590D01*
X0009179Y0034509D01*
X0009271Y0034425D01*
X0009360Y0034338D01*
X0009446Y0034248D01*
X0009529Y0034156D01*
X0009609Y0034061D01*
X0009687Y0033963D01*
X0009761Y0033863D01*
X0009832Y0033761D01*
X0009899Y0033657D01*
X0009963Y0033550D01*
X0010024Y0033441D01*
X0010081Y0033331D01*
X0010135Y0033219D01*
X0010185Y0033105D01*
X0010232Y0032990D01*
X0010274Y0032873D01*
X0010313Y0032755D01*
X0010349Y0032635D01*
X0010380Y0032515D01*
X0010407Y0032394D01*
X0010431Y0032272D01*
X0010451Y0032149D01*
X0010467Y0032025D01*
X0010479Y0031902D01*
X0010487Y0031778D01*
X0010491Y0031653D01*
X0010491Y0031529D01*
X0010487Y0031404D01*
X0010479Y0031280D01*
X0010467Y0031157D01*
X0010451Y0031033D01*
X0010431Y0030910D01*
X0010407Y0030788D01*
X0010380Y0030667D01*
X0010349Y0030547D01*
X0010313Y0030427D01*
X0010274Y0030309D01*
X0010232Y0030192D01*
X0010185Y0030077D01*
X0010135Y0029963D01*
X0010081Y0029851D01*
X0010024Y0029741D01*
X0009963Y0029632D01*
X0009899Y0029525D01*
X0009832Y0029421D01*
X0009761Y0029319D01*
X0009687Y0029219D01*
X0009609Y0029121D01*
X0009529Y0029026D01*
X0009446Y0028934D01*
X0009360Y0028844D01*
X0009271Y0028757D01*
X0009179Y0028673D01*
X0009085Y0028592D01*
X0008988Y0028514D01*
X0008888Y0028439D01*
X0008787Y0028368D01*
X0008683Y0028299D01*
X0008577Y0028234D01*
X0008469Y0028173D01*
X0008359Y0028115D01*
X0008247Y0028060D01*
X0008134Y0028009D01*
X0008019Y0027962D01*
X0007902Y0027918D01*
X0007784Y0027878D01*
X0007665Y0027842D01*
X0007545Y0027810D01*
X0007424Y0027781D01*
X0007302Y0027756D01*
X0007180Y0027736D01*
X0007056Y0027719D01*
X0006933Y0027706D01*
X0006809Y0027697D01*
X0006684Y0027692D01*
X0006560Y0027691D01*
X0006436Y0027694D01*
X0006311Y0027701D01*
X0006187Y0027712D01*
X0006064Y0027727D01*
X0005941Y0027746D01*
X0005819Y0027768D01*
X0005697Y0027795D01*
X0005577Y0027825D01*
X0005457Y0027859D01*
X0005339Y0027898D01*
X0005221Y0027939D01*
X0005106Y0027985D01*
X0004991Y0028034D01*
X0004879Y0028087D01*
X0004768Y0028143D01*
X0004659Y0028203D01*
X0004552Y0028267D01*
X0004447Y0028333D01*
X0004344Y0028403D01*
X0004244Y0028477D01*
X0004146Y0028553D01*
X0004050Y0028632D01*
X0003957Y0028715D01*
X0003866Y0028800D01*
X0003779Y0028889D01*
X0003694Y0028980D01*
X0003612Y0029074D01*
X0003534Y0029170D01*
X0003458Y0029269D01*
X0003385Y0029370D01*
X0003316Y0029473D01*
X0003250Y0029579D01*
X0003188Y0029686D01*
X0003129Y0029796D01*
X0003073Y0029907D01*
X0003021Y0030020D01*
X0002973Y0030135D01*
X0002929Y0030251D01*
X0002888Y0030368D01*
X0002851Y0030487D01*
X0002817Y0030607D01*
X0002788Y0030727D01*
X0002762Y0030849D01*
X0002740Y0030972D01*
X0002723Y0031095D01*
X0002709Y0031218D01*
X0002699Y0031342D01*
X0002693Y0031467D01*
X0002691Y0031591D01*
X0002591Y0027591D02*
X0010591Y0035591D01*
X0022691Y0031591D02*
X0022693Y0031715D01*
X0022699Y0031840D01*
X0022709Y0031964D01*
X0022723Y0032087D01*
X0022740Y0032210D01*
X0022762Y0032333D01*
X0022788Y0032455D01*
X0022817Y0032575D01*
X0022851Y0032695D01*
X0022888Y0032814D01*
X0022929Y0032931D01*
X0022973Y0033047D01*
X0023021Y0033162D01*
X0023073Y0033275D01*
X0023129Y0033386D01*
X0023188Y0033496D01*
X0023250Y0033603D01*
X0023316Y0033709D01*
X0023385Y0033812D01*
X0023458Y0033913D01*
X0023534Y0034012D01*
X0023612Y0034108D01*
X0023694Y0034202D01*
X0023779Y0034293D01*
X0023866Y0034382D01*
X0023957Y0034467D01*
X0024050Y0034550D01*
X0024146Y0034629D01*
X0024244Y0034705D01*
X0024344Y0034779D01*
X0024447Y0034849D01*
X0024552Y0034915D01*
X0024659Y0034979D01*
X0024768Y0035039D01*
X0024879Y0035095D01*
X0024991Y0035148D01*
X0025106Y0035197D01*
X0025221Y0035243D01*
X0025339Y0035284D01*
X0025457Y0035323D01*
X0025577Y0035357D01*
X0025697Y0035387D01*
X0025819Y0035414D01*
X0025941Y0035436D01*
X0026064Y0035455D01*
X0026187Y0035470D01*
X0026311Y0035481D01*
X0026436Y0035488D01*
X0026560Y0035491D01*
X0026684Y0035490D01*
X0026809Y0035485D01*
X0026933Y0035476D01*
X0027056Y0035463D01*
X0027180Y0035446D01*
X0027302Y0035426D01*
X0027424Y0035401D01*
X0027545Y0035372D01*
X0027665Y0035340D01*
X0027784Y0035304D01*
X0027902Y0035264D01*
X0028019Y0035220D01*
X0028134Y0035173D01*
X0028247Y0035122D01*
X0028359Y0035067D01*
X0028469Y0035009D01*
X0028577Y0034948D01*
X0028683Y0034883D01*
X0028787Y0034814D01*
X0028888Y0034743D01*
X0028988Y0034668D01*
X0029085Y0034590D01*
X0029179Y0034509D01*
X0029271Y0034425D01*
X0029360Y0034338D01*
X0029446Y0034248D01*
X0029529Y0034156D01*
X0029609Y0034061D01*
X0029687Y0033963D01*
X0029761Y0033863D01*
X0029832Y0033761D01*
X0029899Y0033657D01*
X0029963Y0033550D01*
X0030024Y0033441D01*
X0030081Y0033331D01*
X0030135Y0033219D01*
X0030185Y0033105D01*
X0030232Y0032990D01*
X0030274Y0032873D01*
X0030313Y0032755D01*
X0030349Y0032635D01*
X0030380Y0032515D01*
X0030407Y0032394D01*
X0030431Y0032272D01*
X0030451Y0032149D01*
X0030467Y0032025D01*
X0030479Y0031902D01*
X0030487Y0031778D01*
X0030491Y0031653D01*
X0030491Y0031529D01*
X0030487Y0031404D01*
X0030479Y0031280D01*
X0030467Y0031157D01*
X0030451Y0031033D01*
X0030431Y0030910D01*
X0030407Y0030788D01*
X0030380Y0030667D01*
X0030349Y0030547D01*
X0030313Y0030427D01*
X0030274Y0030309D01*
X0030232Y0030192D01*
X0030185Y0030077D01*
X0030135Y0029963D01*
X0030081Y0029851D01*
X0030024Y0029741D01*
X0029963Y0029632D01*
X0029899Y0029525D01*
X0029832Y0029421D01*
X0029761Y0029319D01*
X0029687Y0029219D01*
X0029609Y0029121D01*
X0029529Y0029026D01*
X0029446Y0028934D01*
X0029360Y0028844D01*
X0029271Y0028757D01*
X0029179Y0028673D01*
X0029085Y0028592D01*
X0028988Y0028514D01*
X0028888Y0028439D01*
X0028787Y0028368D01*
X0028683Y0028299D01*
X0028577Y0028234D01*
X0028469Y0028173D01*
X0028359Y0028115D01*
X0028247Y0028060D01*
X0028134Y0028009D01*
X0028019Y0027962D01*
X0027902Y0027918D01*
X0027784Y0027878D01*
X0027665Y0027842D01*
X0027545Y0027810D01*
X0027424Y0027781D01*
X0027302Y0027756D01*
X0027180Y0027736D01*
X0027056Y0027719D01*
X0026933Y0027706D01*
X0026809Y0027697D01*
X0026684Y0027692D01*
X0026560Y0027691D01*
X0026436Y0027694D01*
X0026311Y0027701D01*
X0026187Y0027712D01*
X0026064Y0027727D01*
X0025941Y0027746D01*
X0025819Y0027768D01*
X0025697Y0027795D01*
X0025577Y0027825D01*
X0025457Y0027859D01*
X0025339Y0027898D01*
X0025221Y0027939D01*
X0025106Y0027985D01*
X0024991Y0028034D01*
X0024879Y0028087D01*
X0024768Y0028143D01*
X0024659Y0028203D01*
X0024552Y0028267D01*
X0024447Y0028333D01*
X0024344Y0028403D01*
X0024244Y0028477D01*
X0024146Y0028553D01*
X0024050Y0028632D01*
X0023957Y0028715D01*
X0023866Y0028800D01*
X0023779Y0028889D01*
X0023694Y0028980D01*
X0023612Y0029074D01*
X0023534Y0029170D01*
X0023458Y0029269D01*
X0023385Y0029370D01*
X0023316Y0029473D01*
X0023250Y0029579D01*
X0023188Y0029686D01*
X0023129Y0029796D01*
X0023073Y0029907D01*
X0023021Y0030020D01*
X0022973Y0030135D01*
X0022929Y0030251D01*
X0022888Y0030368D01*
X0022851Y0030487D01*
X0022817Y0030607D01*
X0022788Y0030727D01*
X0022762Y0030849D01*
X0022740Y0030972D01*
X0022723Y0031095D01*
X0022709Y0031218D01*
X0022699Y0031342D01*
X0022693Y0031467D01*
X0022691Y0031591D01*
X0022591Y0027591D02*
X0030591Y0035591D01*
X0022691Y0041591D02*
X0022693Y0041715D01*
X0022699Y0041840D01*
X0022709Y0041964D01*
X0022723Y0042087D01*
X0022740Y0042210D01*
X0022762Y0042333D01*
X0022788Y0042455D01*
X0022817Y0042575D01*
X0022851Y0042695D01*
X0022888Y0042814D01*
X0022929Y0042931D01*
X0022973Y0043047D01*
X0023021Y0043162D01*
X0023073Y0043275D01*
X0023129Y0043386D01*
X0023188Y0043496D01*
X0023250Y0043603D01*
X0023316Y0043709D01*
X0023385Y0043812D01*
X0023458Y0043913D01*
X0023534Y0044012D01*
X0023612Y0044108D01*
X0023694Y0044202D01*
X0023779Y0044293D01*
X0023866Y0044382D01*
X0023957Y0044467D01*
X0024050Y0044550D01*
X0024146Y0044629D01*
X0024244Y0044705D01*
X0024344Y0044779D01*
X0024447Y0044849D01*
X0024552Y0044915D01*
X0024659Y0044979D01*
X0024768Y0045039D01*
X0024879Y0045095D01*
X0024991Y0045148D01*
X0025106Y0045197D01*
X0025221Y0045243D01*
X0025339Y0045284D01*
X0025457Y0045323D01*
X0025577Y0045357D01*
X0025697Y0045387D01*
X0025819Y0045414D01*
X0025941Y0045436D01*
X0026064Y0045455D01*
X0026187Y0045470D01*
X0026311Y0045481D01*
X0026436Y0045488D01*
X0026560Y0045491D01*
X0026684Y0045490D01*
X0026809Y0045485D01*
X0026933Y0045476D01*
X0027056Y0045463D01*
X0027180Y0045446D01*
X0027302Y0045426D01*
X0027424Y0045401D01*
X0027545Y0045372D01*
X0027665Y0045340D01*
X0027784Y0045304D01*
X0027902Y0045264D01*
X0028019Y0045220D01*
X0028134Y0045173D01*
X0028247Y0045122D01*
X0028359Y0045067D01*
X0028469Y0045009D01*
X0028577Y0044948D01*
X0028683Y0044883D01*
X0028787Y0044814D01*
X0028888Y0044743D01*
X0028988Y0044668D01*
X0029085Y0044590D01*
X0029179Y0044509D01*
X0029271Y0044425D01*
X0029360Y0044338D01*
X0029446Y0044248D01*
X0029529Y0044156D01*
X0029609Y0044061D01*
X0029687Y0043963D01*
X0029761Y0043863D01*
X0029832Y0043761D01*
X0029899Y0043657D01*
X0029963Y0043550D01*
X0030024Y0043441D01*
X0030081Y0043331D01*
X0030135Y0043219D01*
X0030185Y0043105D01*
X0030232Y0042990D01*
X0030274Y0042873D01*
X0030313Y0042755D01*
X0030349Y0042635D01*
X0030380Y0042515D01*
X0030407Y0042394D01*
X0030431Y0042272D01*
X0030451Y0042149D01*
X0030467Y0042025D01*
X0030479Y0041902D01*
X0030487Y0041778D01*
X0030491Y0041653D01*
X0030491Y0041529D01*
X0030487Y0041404D01*
X0030479Y0041280D01*
X0030467Y0041157D01*
X0030451Y0041033D01*
X0030431Y0040910D01*
X0030407Y0040788D01*
X0030380Y0040667D01*
X0030349Y0040547D01*
X0030313Y0040427D01*
X0030274Y0040309D01*
X0030232Y0040192D01*
X0030185Y0040077D01*
X0030135Y0039963D01*
X0030081Y0039851D01*
X0030024Y0039741D01*
X0029963Y0039632D01*
X0029899Y0039525D01*
X0029832Y0039421D01*
X0029761Y0039319D01*
X0029687Y0039219D01*
X0029609Y0039121D01*
X0029529Y0039026D01*
X0029446Y0038934D01*
X0029360Y0038844D01*
X0029271Y0038757D01*
X0029179Y0038673D01*
X0029085Y0038592D01*
X0028988Y0038514D01*
X0028888Y0038439D01*
X0028787Y0038368D01*
X0028683Y0038299D01*
X0028577Y0038234D01*
X0028469Y0038173D01*
X0028359Y0038115D01*
X0028247Y0038060D01*
X0028134Y0038009D01*
X0028019Y0037962D01*
X0027902Y0037918D01*
X0027784Y0037878D01*
X0027665Y0037842D01*
X0027545Y0037810D01*
X0027424Y0037781D01*
X0027302Y0037756D01*
X0027180Y0037736D01*
X0027056Y0037719D01*
X0026933Y0037706D01*
X0026809Y0037697D01*
X0026684Y0037692D01*
X0026560Y0037691D01*
X0026436Y0037694D01*
X0026311Y0037701D01*
X0026187Y0037712D01*
X0026064Y0037727D01*
X0025941Y0037746D01*
X0025819Y0037768D01*
X0025697Y0037795D01*
X0025577Y0037825D01*
X0025457Y0037859D01*
X0025339Y0037898D01*
X0025221Y0037939D01*
X0025106Y0037985D01*
X0024991Y0038034D01*
X0024879Y0038087D01*
X0024768Y0038143D01*
X0024659Y0038203D01*
X0024552Y0038267D01*
X0024447Y0038333D01*
X0024344Y0038403D01*
X0024244Y0038477D01*
X0024146Y0038553D01*
X0024050Y0038632D01*
X0023957Y0038715D01*
X0023866Y0038800D01*
X0023779Y0038889D01*
X0023694Y0038980D01*
X0023612Y0039074D01*
X0023534Y0039170D01*
X0023458Y0039269D01*
X0023385Y0039370D01*
X0023316Y0039473D01*
X0023250Y0039579D01*
X0023188Y0039686D01*
X0023129Y0039796D01*
X0023073Y0039907D01*
X0023021Y0040020D01*
X0022973Y0040135D01*
X0022929Y0040251D01*
X0022888Y0040368D01*
X0022851Y0040487D01*
X0022817Y0040607D01*
X0022788Y0040727D01*
X0022762Y0040849D01*
X0022740Y0040972D01*
X0022723Y0041095D01*
X0022709Y0041218D01*
X0022699Y0041342D01*
X0022693Y0041467D01*
X0022691Y0041591D01*
X0022591Y0037591D02*
X0030591Y0045591D01*
X0022691Y0051591D02*
X0022693Y0051715D01*
X0022699Y0051840D01*
X0022709Y0051964D01*
X0022723Y0052087D01*
X0022740Y0052210D01*
X0022762Y0052333D01*
X0022788Y0052455D01*
X0022817Y0052575D01*
X0022851Y0052695D01*
X0022888Y0052814D01*
X0022929Y0052931D01*
X0022973Y0053047D01*
X0023021Y0053162D01*
X0023073Y0053275D01*
X0023129Y0053386D01*
X0023188Y0053496D01*
X0023250Y0053603D01*
X0023316Y0053709D01*
X0023385Y0053812D01*
X0023458Y0053913D01*
X0023534Y0054012D01*
X0023612Y0054108D01*
X0023694Y0054202D01*
X0023779Y0054293D01*
X0023866Y0054382D01*
X0023957Y0054467D01*
X0024050Y0054550D01*
X0024146Y0054629D01*
X0024244Y0054705D01*
X0024344Y0054779D01*
X0024447Y0054849D01*
X0024552Y0054915D01*
X0024659Y0054979D01*
X0024768Y0055039D01*
X0024879Y0055095D01*
X0024991Y0055148D01*
X0025106Y0055197D01*
X0025221Y0055243D01*
X0025339Y0055284D01*
X0025457Y0055323D01*
X0025577Y0055357D01*
X0025697Y0055387D01*
X0025819Y0055414D01*
X0025941Y0055436D01*
X0026064Y0055455D01*
X0026187Y0055470D01*
X0026311Y0055481D01*
X0026436Y0055488D01*
X0026560Y0055491D01*
X0026684Y0055490D01*
X0026809Y0055485D01*
X0026933Y0055476D01*
X0027056Y0055463D01*
X0027180Y0055446D01*
X0027302Y0055426D01*
X0027424Y0055401D01*
X0027545Y0055372D01*
X0027665Y0055340D01*
X0027784Y0055304D01*
X0027902Y0055264D01*
X0028019Y0055220D01*
X0028134Y0055173D01*
X0028247Y0055122D01*
X0028359Y0055067D01*
X0028469Y0055009D01*
X0028577Y0054948D01*
X0028683Y0054883D01*
X0028787Y0054814D01*
X0028888Y0054743D01*
X0028988Y0054668D01*
X0029085Y0054590D01*
X0029179Y0054509D01*
X0029271Y0054425D01*
X0029360Y0054338D01*
X0029446Y0054248D01*
X0029529Y0054156D01*
X0029609Y0054061D01*
X0029687Y0053963D01*
X0029761Y0053863D01*
X0029832Y0053761D01*
X0029899Y0053657D01*
X0029963Y0053550D01*
X0030024Y0053441D01*
X0030081Y0053331D01*
X0030135Y0053219D01*
X0030185Y0053105D01*
X0030232Y0052990D01*
X0030274Y0052873D01*
X0030313Y0052755D01*
X0030349Y0052635D01*
X0030380Y0052515D01*
X0030407Y0052394D01*
X0030431Y0052272D01*
X0030451Y0052149D01*
X0030467Y0052025D01*
X0030479Y0051902D01*
X0030487Y0051778D01*
X0030491Y0051653D01*
X0030491Y0051529D01*
X0030487Y0051404D01*
X0030479Y0051280D01*
X0030467Y0051157D01*
X0030451Y0051033D01*
X0030431Y0050910D01*
X0030407Y0050788D01*
X0030380Y0050667D01*
X0030349Y0050547D01*
X0030313Y0050427D01*
X0030274Y0050309D01*
X0030232Y0050192D01*
X0030185Y0050077D01*
X0030135Y0049963D01*
X0030081Y0049851D01*
X0030024Y0049741D01*
X0029963Y0049632D01*
X0029899Y0049525D01*
X0029832Y0049421D01*
X0029761Y0049319D01*
X0029687Y0049219D01*
X0029609Y0049121D01*
X0029529Y0049026D01*
X0029446Y0048934D01*
X0029360Y0048844D01*
X0029271Y0048757D01*
X0029179Y0048673D01*
X0029085Y0048592D01*
X0028988Y0048514D01*
X0028888Y0048439D01*
X0028787Y0048368D01*
X0028683Y0048299D01*
X0028577Y0048234D01*
X0028469Y0048173D01*
X0028359Y0048115D01*
X0028247Y0048060D01*
X0028134Y0048009D01*
X0028019Y0047962D01*
X0027902Y0047918D01*
X0027784Y0047878D01*
X0027665Y0047842D01*
X0027545Y0047810D01*
X0027424Y0047781D01*
X0027302Y0047756D01*
X0027180Y0047736D01*
X0027056Y0047719D01*
X0026933Y0047706D01*
X0026809Y0047697D01*
X0026684Y0047692D01*
X0026560Y0047691D01*
X0026436Y0047694D01*
X0026311Y0047701D01*
X0026187Y0047712D01*
X0026064Y0047727D01*
X0025941Y0047746D01*
X0025819Y0047768D01*
X0025697Y0047795D01*
X0025577Y0047825D01*
X0025457Y0047859D01*
X0025339Y0047898D01*
X0025221Y0047939D01*
X0025106Y0047985D01*
X0024991Y0048034D01*
X0024879Y0048087D01*
X0024768Y0048143D01*
X0024659Y0048203D01*
X0024552Y0048267D01*
X0024447Y0048333D01*
X0024344Y0048403D01*
X0024244Y0048477D01*
X0024146Y0048553D01*
X0024050Y0048632D01*
X0023957Y0048715D01*
X0023866Y0048800D01*
X0023779Y0048889D01*
X0023694Y0048980D01*
X0023612Y0049074D01*
X0023534Y0049170D01*
X0023458Y0049269D01*
X0023385Y0049370D01*
X0023316Y0049473D01*
X0023250Y0049579D01*
X0023188Y0049686D01*
X0023129Y0049796D01*
X0023073Y0049907D01*
X0023021Y0050020D01*
X0022973Y0050135D01*
X0022929Y0050251D01*
X0022888Y0050368D01*
X0022851Y0050487D01*
X0022817Y0050607D01*
X0022788Y0050727D01*
X0022762Y0050849D01*
X0022740Y0050972D01*
X0022723Y0051095D01*
X0022709Y0051218D01*
X0022699Y0051342D01*
X0022693Y0051467D01*
X0022691Y0051591D01*
X0022591Y0047591D02*
X0030591Y0055591D01*
X0022691Y0061591D02*
X0022693Y0061715D01*
X0022699Y0061840D01*
X0022709Y0061964D01*
X0022723Y0062087D01*
X0022740Y0062210D01*
X0022762Y0062333D01*
X0022788Y0062455D01*
X0022817Y0062575D01*
X0022851Y0062695D01*
X0022888Y0062814D01*
X0022929Y0062931D01*
X0022973Y0063047D01*
X0023021Y0063162D01*
X0023073Y0063275D01*
X0023129Y0063386D01*
X0023188Y0063496D01*
X0023250Y0063603D01*
X0023316Y0063709D01*
X0023385Y0063812D01*
X0023458Y0063913D01*
X0023534Y0064012D01*
X0023612Y0064108D01*
X0023694Y0064202D01*
X0023779Y0064293D01*
X0023866Y0064382D01*
X0023957Y0064467D01*
X0024050Y0064550D01*
X0024146Y0064629D01*
X0024244Y0064705D01*
X0024344Y0064779D01*
X0024447Y0064849D01*
X0024552Y0064915D01*
X0024659Y0064979D01*
X0024768Y0065039D01*
X0024879Y0065095D01*
X0024991Y0065148D01*
X0025106Y0065197D01*
X0025221Y0065243D01*
X0025339Y0065284D01*
X0025457Y0065323D01*
X0025577Y0065357D01*
X0025697Y0065387D01*
X0025819Y0065414D01*
X0025941Y0065436D01*
X0026064Y0065455D01*
X0026187Y0065470D01*
X0026311Y0065481D01*
X0026436Y0065488D01*
X0026560Y0065491D01*
X0026684Y0065490D01*
X0026809Y0065485D01*
X0026933Y0065476D01*
X0027056Y0065463D01*
X0027180Y0065446D01*
X0027302Y0065426D01*
X0027424Y0065401D01*
X0027545Y0065372D01*
X0027665Y0065340D01*
X0027784Y0065304D01*
X0027902Y0065264D01*
X0028019Y0065220D01*
X0028134Y0065173D01*
X0028247Y0065122D01*
X0028359Y0065067D01*
X0028469Y0065009D01*
X0028577Y0064948D01*
X0028683Y0064883D01*
X0028787Y0064814D01*
X0028888Y0064743D01*
X0028988Y0064668D01*
X0029085Y0064590D01*
X0029179Y0064509D01*
X0029271Y0064425D01*
X0029360Y0064338D01*
X0029446Y0064248D01*
X0029529Y0064156D01*
X0029609Y0064061D01*
X0029687Y0063963D01*
X0029761Y0063863D01*
X0029832Y0063761D01*
X0029899Y0063657D01*
X0029963Y0063550D01*
X0030024Y0063441D01*
X0030081Y0063331D01*
X0030135Y0063219D01*
X0030185Y0063105D01*
X0030232Y0062990D01*
X0030274Y0062873D01*
X0030313Y0062755D01*
X0030349Y0062635D01*
X0030380Y0062515D01*
X0030407Y0062394D01*
X0030431Y0062272D01*
X0030451Y0062149D01*
X0030467Y0062025D01*
X0030479Y0061902D01*
X0030487Y0061778D01*
X0030491Y0061653D01*
X0030491Y0061529D01*
X0030487Y0061404D01*
X0030479Y0061280D01*
X0030467Y0061157D01*
X0030451Y0061033D01*
X0030431Y0060910D01*
X0030407Y0060788D01*
X0030380Y0060667D01*
X0030349Y0060547D01*
X0030313Y0060427D01*
X0030274Y0060309D01*
X0030232Y0060192D01*
X0030185Y0060077D01*
X0030135Y0059963D01*
X0030081Y0059851D01*
X0030024Y0059741D01*
X0029963Y0059632D01*
X0029899Y0059525D01*
X0029832Y0059421D01*
X0029761Y0059319D01*
X0029687Y0059219D01*
X0029609Y0059121D01*
X0029529Y0059026D01*
X0029446Y0058934D01*
X0029360Y0058844D01*
X0029271Y0058757D01*
X0029179Y0058673D01*
X0029085Y0058592D01*
X0028988Y0058514D01*
X0028888Y0058439D01*
X0028787Y0058368D01*
X0028683Y0058299D01*
X0028577Y0058234D01*
X0028469Y0058173D01*
X0028359Y0058115D01*
X0028247Y0058060D01*
X0028134Y0058009D01*
X0028019Y0057962D01*
X0027902Y0057918D01*
X0027784Y0057878D01*
X0027665Y0057842D01*
X0027545Y0057810D01*
X0027424Y0057781D01*
X0027302Y0057756D01*
X0027180Y0057736D01*
X0027056Y0057719D01*
X0026933Y0057706D01*
X0026809Y0057697D01*
X0026684Y0057692D01*
X0026560Y0057691D01*
X0026436Y0057694D01*
X0026311Y0057701D01*
X0026187Y0057712D01*
X0026064Y0057727D01*
X0025941Y0057746D01*
X0025819Y0057768D01*
X0025697Y0057795D01*
X0025577Y0057825D01*
X0025457Y0057859D01*
X0025339Y0057898D01*
X0025221Y0057939D01*
X0025106Y0057985D01*
X0024991Y0058034D01*
X0024879Y0058087D01*
X0024768Y0058143D01*
X0024659Y0058203D01*
X0024552Y0058267D01*
X0024447Y0058333D01*
X0024344Y0058403D01*
X0024244Y0058477D01*
X0024146Y0058553D01*
X0024050Y0058632D01*
X0023957Y0058715D01*
X0023866Y0058800D01*
X0023779Y0058889D01*
X0023694Y0058980D01*
X0023612Y0059074D01*
X0023534Y0059170D01*
X0023458Y0059269D01*
X0023385Y0059370D01*
X0023316Y0059473D01*
X0023250Y0059579D01*
X0023188Y0059686D01*
X0023129Y0059796D01*
X0023073Y0059907D01*
X0023021Y0060020D01*
X0022973Y0060135D01*
X0022929Y0060251D01*
X0022888Y0060368D01*
X0022851Y0060487D01*
X0022817Y0060607D01*
X0022788Y0060727D01*
X0022762Y0060849D01*
X0022740Y0060972D01*
X0022723Y0061095D01*
X0022709Y0061218D01*
X0022699Y0061342D01*
X0022693Y0061467D01*
X0022691Y0061591D01*
X0022591Y0057591D02*
X0030591Y0065591D01*
X0022691Y0021591D02*
X0022693Y0021715D01*
X0022699Y0021840D01*
X0022709Y0021964D01*
X0022723Y0022087D01*
X0022740Y0022210D01*
X0022762Y0022333D01*
X0022788Y0022455D01*
X0022817Y0022575D01*
X0022851Y0022695D01*
X0022888Y0022814D01*
X0022929Y0022931D01*
X0022973Y0023047D01*
X0023021Y0023162D01*
X0023073Y0023275D01*
X0023129Y0023386D01*
X0023188Y0023496D01*
X0023250Y0023603D01*
X0023316Y0023709D01*
X0023385Y0023812D01*
X0023458Y0023913D01*
X0023534Y0024012D01*
X0023612Y0024108D01*
X0023694Y0024202D01*
X0023779Y0024293D01*
X0023866Y0024382D01*
X0023957Y0024467D01*
X0024050Y0024550D01*
X0024146Y0024629D01*
X0024244Y0024705D01*
X0024344Y0024779D01*
X0024447Y0024849D01*
X0024552Y0024915D01*
X0024659Y0024979D01*
X0024768Y0025039D01*
X0024879Y0025095D01*
X0024991Y0025148D01*
X0025106Y0025197D01*
X0025221Y0025243D01*
X0025339Y0025284D01*
X0025457Y0025323D01*
X0025577Y0025357D01*
X0025697Y0025387D01*
X0025819Y0025414D01*
X0025941Y0025436D01*
X0026064Y0025455D01*
X0026187Y0025470D01*
X0026311Y0025481D01*
X0026436Y0025488D01*
X0026560Y0025491D01*
X0026684Y0025490D01*
X0026809Y0025485D01*
X0026933Y0025476D01*
X0027056Y0025463D01*
X0027180Y0025446D01*
X0027302Y0025426D01*
X0027424Y0025401D01*
X0027545Y0025372D01*
X0027665Y0025340D01*
X0027784Y0025304D01*
X0027902Y0025264D01*
X0028019Y0025220D01*
X0028134Y0025173D01*
X0028247Y0025122D01*
X0028359Y0025067D01*
X0028469Y0025009D01*
X0028577Y0024948D01*
X0028683Y0024883D01*
X0028787Y0024814D01*
X0028888Y0024743D01*
X0028988Y0024668D01*
X0029085Y0024590D01*
X0029179Y0024509D01*
X0029271Y0024425D01*
X0029360Y0024338D01*
X0029446Y0024248D01*
X0029529Y0024156D01*
X0029609Y0024061D01*
X0029687Y0023963D01*
X0029761Y0023863D01*
X0029832Y0023761D01*
X0029899Y0023657D01*
X0029963Y0023550D01*
X0030024Y0023441D01*
X0030081Y0023331D01*
X0030135Y0023219D01*
X0030185Y0023105D01*
X0030232Y0022990D01*
X0030274Y0022873D01*
X0030313Y0022755D01*
X0030349Y0022635D01*
X0030380Y0022515D01*
X0030407Y0022394D01*
X0030431Y0022272D01*
X0030451Y0022149D01*
X0030467Y0022025D01*
X0030479Y0021902D01*
X0030487Y0021778D01*
X0030491Y0021653D01*
X0030491Y0021529D01*
X0030487Y0021404D01*
X0030479Y0021280D01*
X0030467Y0021157D01*
X0030451Y0021033D01*
X0030431Y0020910D01*
X0030407Y0020788D01*
X0030380Y0020667D01*
X0030349Y0020547D01*
X0030313Y0020427D01*
X0030274Y0020309D01*
X0030232Y0020192D01*
X0030185Y0020077D01*
X0030135Y0019963D01*
X0030081Y0019851D01*
X0030024Y0019741D01*
X0029963Y0019632D01*
X0029899Y0019525D01*
X0029832Y0019421D01*
X0029761Y0019319D01*
X0029687Y0019219D01*
X0029609Y0019121D01*
X0029529Y0019026D01*
X0029446Y0018934D01*
X0029360Y0018844D01*
X0029271Y0018757D01*
X0029179Y0018673D01*
X0029085Y0018592D01*
X0028988Y0018514D01*
X0028888Y0018439D01*
X0028787Y0018368D01*
X0028683Y0018299D01*
X0028577Y0018234D01*
X0028469Y0018173D01*
X0028359Y0018115D01*
X0028247Y0018060D01*
X0028134Y0018009D01*
X0028019Y0017962D01*
X0027902Y0017918D01*
X0027784Y0017878D01*
X0027665Y0017842D01*
X0027545Y0017810D01*
X0027424Y0017781D01*
X0027302Y0017756D01*
X0027180Y0017736D01*
X0027056Y0017719D01*
X0026933Y0017706D01*
X0026809Y0017697D01*
X0026684Y0017692D01*
X0026560Y0017691D01*
X0026436Y0017694D01*
X0026311Y0017701D01*
X0026187Y0017712D01*
X0026064Y0017727D01*
X0025941Y0017746D01*
X0025819Y0017768D01*
X0025697Y0017795D01*
X0025577Y0017825D01*
X0025457Y0017859D01*
X0025339Y0017898D01*
X0025221Y0017939D01*
X0025106Y0017985D01*
X0024991Y0018034D01*
X0024879Y0018087D01*
X0024768Y0018143D01*
X0024659Y0018203D01*
X0024552Y0018267D01*
X0024447Y0018333D01*
X0024344Y0018403D01*
X0024244Y0018477D01*
X0024146Y0018553D01*
X0024050Y0018632D01*
X0023957Y0018715D01*
X0023866Y0018800D01*
X0023779Y0018889D01*
X0023694Y0018980D01*
X0023612Y0019074D01*
X0023534Y0019170D01*
X0023458Y0019269D01*
X0023385Y0019370D01*
X0023316Y0019473D01*
X0023250Y0019579D01*
X0023188Y0019686D01*
X0023129Y0019796D01*
X0023073Y0019907D01*
X0023021Y0020020D01*
X0022973Y0020135D01*
X0022929Y0020251D01*
X0022888Y0020368D01*
X0022851Y0020487D01*
X0022817Y0020607D01*
X0022788Y0020727D01*
X0022762Y0020849D01*
X0022740Y0020972D01*
X0022723Y0021095D01*
X0022709Y0021218D01*
X0022699Y0021342D01*
X0022693Y0021467D01*
X0022691Y0021591D01*
X0022591Y0017591D02*
X0030591Y0025591D01*
X0040091Y0011591D02*
X0048091Y0011591D01*
X0044091Y0007591D02*
X0044091Y0015591D01*
X0040191Y0011591D02*
X0040193Y0011715D01*
X0040199Y0011840D01*
X0040209Y0011964D01*
X0040223Y0012087D01*
X0040240Y0012210D01*
X0040262Y0012333D01*
X0040288Y0012455D01*
X0040317Y0012575D01*
X0040351Y0012695D01*
X0040388Y0012814D01*
X0040429Y0012931D01*
X0040473Y0013047D01*
X0040521Y0013162D01*
X0040573Y0013275D01*
X0040629Y0013386D01*
X0040688Y0013496D01*
X0040750Y0013603D01*
X0040816Y0013709D01*
X0040885Y0013812D01*
X0040958Y0013913D01*
X0041034Y0014012D01*
X0041112Y0014108D01*
X0041194Y0014202D01*
X0041279Y0014293D01*
X0041366Y0014382D01*
X0041457Y0014467D01*
X0041550Y0014550D01*
X0041646Y0014629D01*
X0041744Y0014705D01*
X0041844Y0014779D01*
X0041947Y0014849D01*
X0042052Y0014915D01*
X0042159Y0014979D01*
X0042268Y0015039D01*
X0042379Y0015095D01*
X0042491Y0015148D01*
X0042606Y0015197D01*
X0042721Y0015243D01*
X0042839Y0015284D01*
X0042957Y0015323D01*
X0043077Y0015357D01*
X0043197Y0015387D01*
X0043319Y0015414D01*
X0043441Y0015436D01*
X0043564Y0015455D01*
X0043687Y0015470D01*
X0043811Y0015481D01*
X0043936Y0015488D01*
X0044060Y0015491D01*
X0044184Y0015490D01*
X0044309Y0015485D01*
X0044433Y0015476D01*
X0044556Y0015463D01*
X0044680Y0015446D01*
X0044802Y0015426D01*
X0044924Y0015401D01*
X0045045Y0015372D01*
X0045165Y0015340D01*
X0045284Y0015304D01*
X0045402Y0015264D01*
X0045519Y0015220D01*
X0045634Y0015173D01*
X0045747Y0015122D01*
X0045859Y0015067D01*
X0045969Y0015009D01*
X0046077Y0014948D01*
X0046183Y0014883D01*
X0046287Y0014814D01*
X0046388Y0014743D01*
X0046488Y0014668D01*
X0046585Y0014590D01*
X0046679Y0014509D01*
X0046771Y0014425D01*
X0046860Y0014338D01*
X0046946Y0014248D01*
X0047029Y0014156D01*
X0047109Y0014061D01*
X0047187Y0013963D01*
X0047261Y0013863D01*
X0047332Y0013761D01*
X0047399Y0013657D01*
X0047463Y0013550D01*
X0047524Y0013441D01*
X0047581Y0013331D01*
X0047635Y0013219D01*
X0047685Y0013105D01*
X0047732Y0012990D01*
X0047774Y0012873D01*
X0047813Y0012755D01*
X0047849Y0012635D01*
X0047880Y0012515D01*
X0047907Y0012394D01*
X0047931Y0012272D01*
X0047951Y0012149D01*
X0047967Y0012025D01*
X0047979Y0011902D01*
X0047987Y0011778D01*
X0047991Y0011653D01*
X0047991Y0011529D01*
X0047987Y0011404D01*
X0047979Y0011280D01*
X0047967Y0011157D01*
X0047951Y0011033D01*
X0047931Y0010910D01*
X0047907Y0010788D01*
X0047880Y0010667D01*
X0047849Y0010547D01*
X0047813Y0010427D01*
X0047774Y0010309D01*
X0047732Y0010192D01*
X0047685Y0010077D01*
X0047635Y0009963D01*
X0047581Y0009851D01*
X0047524Y0009741D01*
X0047463Y0009632D01*
X0047399Y0009525D01*
X0047332Y0009421D01*
X0047261Y0009319D01*
X0047187Y0009219D01*
X0047109Y0009121D01*
X0047029Y0009026D01*
X0046946Y0008934D01*
X0046860Y0008844D01*
X0046771Y0008757D01*
X0046679Y0008673D01*
X0046585Y0008592D01*
X0046488Y0008514D01*
X0046388Y0008439D01*
X0046287Y0008368D01*
X0046183Y0008299D01*
X0046077Y0008234D01*
X0045969Y0008173D01*
X0045859Y0008115D01*
X0045747Y0008060D01*
X0045634Y0008009D01*
X0045519Y0007962D01*
X0045402Y0007918D01*
X0045284Y0007878D01*
X0045165Y0007842D01*
X0045045Y0007810D01*
X0044924Y0007781D01*
X0044802Y0007756D01*
X0044680Y0007736D01*
X0044556Y0007719D01*
X0044433Y0007706D01*
X0044309Y0007697D01*
X0044184Y0007692D01*
X0044060Y0007691D01*
X0043936Y0007694D01*
X0043811Y0007701D01*
X0043687Y0007712D01*
X0043564Y0007727D01*
X0043441Y0007746D01*
X0043319Y0007768D01*
X0043197Y0007795D01*
X0043077Y0007825D01*
X0042957Y0007859D01*
X0042839Y0007898D01*
X0042721Y0007939D01*
X0042606Y0007985D01*
X0042491Y0008034D01*
X0042379Y0008087D01*
X0042268Y0008143D01*
X0042159Y0008203D01*
X0042052Y0008267D01*
X0041947Y0008333D01*
X0041844Y0008403D01*
X0041744Y0008477D01*
X0041646Y0008553D01*
X0041550Y0008632D01*
X0041457Y0008715D01*
X0041366Y0008800D01*
X0041279Y0008889D01*
X0041194Y0008980D01*
X0041112Y0009074D01*
X0041034Y0009170D01*
X0040958Y0009269D01*
X0040885Y0009370D01*
X0040816Y0009473D01*
X0040750Y0009579D01*
X0040688Y0009686D01*
X0040629Y0009796D01*
X0040573Y0009907D01*
X0040521Y0010020D01*
X0040473Y0010135D01*
X0040429Y0010251D01*
X0040388Y0010368D01*
X0040351Y0010487D01*
X0040317Y0010607D01*
X0040288Y0010727D01*
X0040262Y0010849D01*
X0040240Y0010972D01*
X0040223Y0011095D01*
X0040209Y0011218D01*
X0040199Y0011342D01*
X0040193Y0011467D01*
X0040191Y0011591D01*
X0042141Y0011591D02*
X0042143Y0011679D01*
X0042149Y0011767D01*
X0042159Y0011855D01*
X0042173Y0011942D01*
X0042191Y0012028D01*
X0042212Y0012113D01*
X0042238Y0012198D01*
X0042267Y0012281D01*
X0042300Y0012363D01*
X0042337Y0012443D01*
X0042377Y0012521D01*
X0042421Y0012598D01*
X0042468Y0012672D01*
X0042519Y0012744D01*
X0042572Y0012814D01*
X0042629Y0012882D01*
X0042689Y0012946D01*
X0042752Y0013008D01*
X0042817Y0013067D01*
X0042885Y0013123D01*
X0042956Y0013176D01*
X0043028Y0013226D01*
X0043103Y0013272D01*
X0043180Y0013315D01*
X0043259Y0013355D01*
X0043340Y0013390D01*
X0043422Y0013423D01*
X0043505Y0013451D01*
X0043590Y0013476D01*
X0043676Y0013496D01*
X0043762Y0013513D01*
X0043849Y0013526D01*
X0043937Y0013535D01*
X0044025Y0013540D01*
X0044113Y0013541D01*
X0044201Y0013538D01*
X0044289Y0013531D01*
X0044376Y0013520D01*
X0044463Y0013505D01*
X0044549Y0013486D01*
X0044635Y0013464D01*
X0044719Y0013437D01*
X0044801Y0013407D01*
X0044883Y0013373D01*
X0044963Y0013335D01*
X0045040Y0013294D01*
X0045116Y0013250D01*
X0045190Y0013202D01*
X0045262Y0013150D01*
X0045331Y0013096D01*
X0045398Y0013038D01*
X0045462Y0012978D01*
X0045523Y0012914D01*
X0045582Y0012848D01*
X0045637Y0012780D01*
X0045689Y0012708D01*
X0045738Y0012635D01*
X0045783Y0012560D01*
X0045825Y0012482D01*
X0045864Y0012403D01*
X0045899Y0012322D01*
X0045930Y0012239D01*
X0045957Y0012156D01*
X0045981Y0012071D01*
X0046001Y0011985D01*
X0046017Y0011898D01*
X0046029Y0011811D01*
X0046037Y0011723D01*
X0046041Y0011635D01*
X0046041Y0011547D01*
X0046037Y0011459D01*
X0046029Y0011371D01*
X0046017Y0011284D01*
X0046001Y0011197D01*
X0045981Y0011111D01*
X0045957Y0011026D01*
X0045930Y0010943D01*
X0045899Y0010860D01*
X0045864Y0010779D01*
X0045825Y0010700D01*
X0045783Y0010622D01*
X0045738Y0010547D01*
X0045689Y0010474D01*
X0045637Y0010402D01*
X0045582Y0010334D01*
X0045523Y0010268D01*
X0045462Y0010204D01*
X0045398Y0010144D01*
X0045331Y0010086D01*
X0045262Y0010032D01*
X0045190Y0009980D01*
X0045116Y0009932D01*
X0045040Y0009888D01*
X0044963Y0009847D01*
X0044883Y0009809D01*
X0044801Y0009775D01*
X0044719Y0009745D01*
X0044635Y0009718D01*
X0044549Y0009696D01*
X0044463Y0009677D01*
X0044376Y0009662D01*
X0044289Y0009651D01*
X0044201Y0009644D01*
X0044113Y0009641D01*
X0044025Y0009642D01*
X0043937Y0009647D01*
X0043849Y0009656D01*
X0043762Y0009669D01*
X0043676Y0009686D01*
X0043590Y0009706D01*
X0043505Y0009731D01*
X0043422Y0009759D01*
X0043340Y0009792D01*
X0043259Y0009827D01*
X0043180Y0009867D01*
X0043103Y0009910D01*
X0043028Y0009956D01*
X0042956Y0010006D01*
X0042885Y0010059D01*
X0042817Y0010115D01*
X0042752Y0010174D01*
X0042689Y0010236D01*
X0042629Y0010300D01*
X0042572Y0010368D01*
X0042519Y0010438D01*
X0042468Y0010510D01*
X0042421Y0010584D01*
X0042377Y0010661D01*
X0042337Y0010739D01*
X0042300Y0010819D01*
X0042267Y0010901D01*
X0042238Y0010984D01*
X0042212Y0011069D01*
X0042191Y0011154D01*
X0042173Y0011240D01*
X0042159Y0011327D01*
X0042149Y0011415D01*
X0042143Y0011503D01*
X0042141Y0011591D01*
X0127691Y0041591D02*
X0127693Y0041715D01*
X0127699Y0041840D01*
X0127709Y0041964D01*
X0127723Y0042087D01*
X0127740Y0042210D01*
X0127762Y0042333D01*
X0127788Y0042455D01*
X0127817Y0042575D01*
X0127851Y0042695D01*
X0127888Y0042814D01*
X0127929Y0042931D01*
X0127973Y0043047D01*
X0128021Y0043162D01*
X0128073Y0043275D01*
X0128129Y0043386D01*
X0128188Y0043496D01*
X0128250Y0043603D01*
X0128316Y0043709D01*
X0128385Y0043812D01*
X0128458Y0043913D01*
X0128534Y0044012D01*
X0128612Y0044108D01*
X0128694Y0044202D01*
X0128779Y0044293D01*
X0128866Y0044382D01*
X0128957Y0044467D01*
X0129050Y0044550D01*
X0129146Y0044629D01*
X0129244Y0044705D01*
X0129344Y0044779D01*
X0129447Y0044849D01*
X0129552Y0044915D01*
X0129659Y0044979D01*
X0129768Y0045039D01*
X0129879Y0045095D01*
X0129991Y0045148D01*
X0130106Y0045197D01*
X0130221Y0045243D01*
X0130339Y0045284D01*
X0130457Y0045323D01*
X0130577Y0045357D01*
X0130697Y0045387D01*
X0130819Y0045414D01*
X0130941Y0045436D01*
X0131064Y0045455D01*
X0131187Y0045470D01*
X0131311Y0045481D01*
X0131436Y0045488D01*
X0131560Y0045491D01*
X0131684Y0045490D01*
X0131809Y0045485D01*
X0131933Y0045476D01*
X0132056Y0045463D01*
X0132180Y0045446D01*
X0132302Y0045426D01*
X0132424Y0045401D01*
X0132545Y0045372D01*
X0132665Y0045340D01*
X0132784Y0045304D01*
X0132902Y0045264D01*
X0133019Y0045220D01*
X0133134Y0045173D01*
X0133247Y0045122D01*
X0133359Y0045067D01*
X0133469Y0045009D01*
X0133577Y0044948D01*
X0133683Y0044883D01*
X0133787Y0044814D01*
X0133888Y0044743D01*
X0133988Y0044668D01*
X0134085Y0044590D01*
X0134179Y0044509D01*
X0134271Y0044425D01*
X0134360Y0044338D01*
X0134446Y0044248D01*
X0134529Y0044156D01*
X0134609Y0044061D01*
X0134687Y0043963D01*
X0134761Y0043863D01*
X0134832Y0043761D01*
X0134899Y0043657D01*
X0134963Y0043550D01*
X0135024Y0043441D01*
X0135081Y0043331D01*
X0135135Y0043219D01*
X0135185Y0043105D01*
X0135232Y0042990D01*
X0135274Y0042873D01*
X0135313Y0042755D01*
X0135349Y0042635D01*
X0135380Y0042515D01*
X0135407Y0042394D01*
X0135431Y0042272D01*
X0135451Y0042149D01*
X0135467Y0042025D01*
X0135479Y0041902D01*
X0135487Y0041778D01*
X0135491Y0041653D01*
X0135491Y0041529D01*
X0135487Y0041404D01*
X0135479Y0041280D01*
X0135467Y0041157D01*
X0135451Y0041033D01*
X0135431Y0040910D01*
X0135407Y0040788D01*
X0135380Y0040667D01*
X0135349Y0040547D01*
X0135313Y0040427D01*
X0135274Y0040309D01*
X0135232Y0040192D01*
X0135185Y0040077D01*
X0135135Y0039963D01*
X0135081Y0039851D01*
X0135024Y0039741D01*
X0134963Y0039632D01*
X0134899Y0039525D01*
X0134832Y0039421D01*
X0134761Y0039319D01*
X0134687Y0039219D01*
X0134609Y0039121D01*
X0134529Y0039026D01*
X0134446Y0038934D01*
X0134360Y0038844D01*
X0134271Y0038757D01*
X0134179Y0038673D01*
X0134085Y0038592D01*
X0133988Y0038514D01*
X0133888Y0038439D01*
X0133787Y0038368D01*
X0133683Y0038299D01*
X0133577Y0038234D01*
X0133469Y0038173D01*
X0133359Y0038115D01*
X0133247Y0038060D01*
X0133134Y0038009D01*
X0133019Y0037962D01*
X0132902Y0037918D01*
X0132784Y0037878D01*
X0132665Y0037842D01*
X0132545Y0037810D01*
X0132424Y0037781D01*
X0132302Y0037756D01*
X0132180Y0037736D01*
X0132056Y0037719D01*
X0131933Y0037706D01*
X0131809Y0037697D01*
X0131684Y0037692D01*
X0131560Y0037691D01*
X0131436Y0037694D01*
X0131311Y0037701D01*
X0131187Y0037712D01*
X0131064Y0037727D01*
X0130941Y0037746D01*
X0130819Y0037768D01*
X0130697Y0037795D01*
X0130577Y0037825D01*
X0130457Y0037859D01*
X0130339Y0037898D01*
X0130221Y0037939D01*
X0130106Y0037985D01*
X0129991Y0038034D01*
X0129879Y0038087D01*
X0129768Y0038143D01*
X0129659Y0038203D01*
X0129552Y0038267D01*
X0129447Y0038333D01*
X0129344Y0038403D01*
X0129244Y0038477D01*
X0129146Y0038553D01*
X0129050Y0038632D01*
X0128957Y0038715D01*
X0128866Y0038800D01*
X0128779Y0038889D01*
X0128694Y0038980D01*
X0128612Y0039074D01*
X0128534Y0039170D01*
X0128458Y0039269D01*
X0128385Y0039370D01*
X0128316Y0039473D01*
X0128250Y0039579D01*
X0128188Y0039686D01*
X0128129Y0039796D01*
X0128073Y0039907D01*
X0128021Y0040020D01*
X0127973Y0040135D01*
X0127929Y0040251D01*
X0127888Y0040368D01*
X0127851Y0040487D01*
X0127817Y0040607D01*
X0127788Y0040727D01*
X0127762Y0040849D01*
X0127740Y0040972D01*
X0127723Y0041095D01*
X0127709Y0041218D01*
X0127699Y0041342D01*
X0127693Y0041467D01*
X0127691Y0041591D01*
X0127591Y0037591D02*
X0135591Y0045591D01*
X0137691Y0041591D02*
X0137693Y0041715D01*
X0137699Y0041840D01*
X0137709Y0041964D01*
X0137723Y0042087D01*
X0137740Y0042210D01*
X0137762Y0042333D01*
X0137788Y0042455D01*
X0137817Y0042575D01*
X0137851Y0042695D01*
X0137888Y0042814D01*
X0137929Y0042931D01*
X0137973Y0043047D01*
X0138021Y0043162D01*
X0138073Y0043275D01*
X0138129Y0043386D01*
X0138188Y0043496D01*
X0138250Y0043603D01*
X0138316Y0043709D01*
X0138385Y0043812D01*
X0138458Y0043913D01*
X0138534Y0044012D01*
X0138612Y0044108D01*
X0138694Y0044202D01*
X0138779Y0044293D01*
X0138866Y0044382D01*
X0138957Y0044467D01*
X0139050Y0044550D01*
X0139146Y0044629D01*
X0139244Y0044705D01*
X0139344Y0044779D01*
X0139447Y0044849D01*
X0139552Y0044915D01*
X0139659Y0044979D01*
X0139768Y0045039D01*
X0139879Y0045095D01*
X0139991Y0045148D01*
X0140106Y0045197D01*
X0140221Y0045243D01*
X0140339Y0045284D01*
X0140457Y0045323D01*
X0140577Y0045357D01*
X0140697Y0045387D01*
X0140819Y0045414D01*
X0140941Y0045436D01*
X0141064Y0045455D01*
X0141187Y0045470D01*
X0141311Y0045481D01*
X0141436Y0045488D01*
X0141560Y0045491D01*
X0141684Y0045490D01*
X0141809Y0045485D01*
X0141933Y0045476D01*
X0142056Y0045463D01*
X0142180Y0045446D01*
X0142302Y0045426D01*
X0142424Y0045401D01*
X0142545Y0045372D01*
X0142665Y0045340D01*
X0142784Y0045304D01*
X0142902Y0045264D01*
X0143019Y0045220D01*
X0143134Y0045173D01*
X0143247Y0045122D01*
X0143359Y0045067D01*
X0143469Y0045009D01*
X0143577Y0044948D01*
X0143683Y0044883D01*
X0143787Y0044814D01*
X0143888Y0044743D01*
X0143988Y0044668D01*
X0144085Y0044590D01*
X0144179Y0044509D01*
X0144271Y0044425D01*
X0144360Y0044338D01*
X0144446Y0044248D01*
X0144529Y0044156D01*
X0144609Y0044061D01*
X0144687Y0043963D01*
X0144761Y0043863D01*
X0144832Y0043761D01*
X0144899Y0043657D01*
X0144963Y0043550D01*
X0145024Y0043441D01*
X0145081Y0043331D01*
X0145135Y0043219D01*
X0145185Y0043105D01*
X0145232Y0042990D01*
X0145274Y0042873D01*
X0145313Y0042755D01*
X0145349Y0042635D01*
X0145380Y0042515D01*
X0145407Y0042394D01*
X0145431Y0042272D01*
X0145451Y0042149D01*
X0145467Y0042025D01*
X0145479Y0041902D01*
X0145487Y0041778D01*
X0145491Y0041653D01*
X0145491Y0041529D01*
X0145487Y0041404D01*
X0145479Y0041280D01*
X0145467Y0041157D01*
X0145451Y0041033D01*
X0145431Y0040910D01*
X0145407Y0040788D01*
X0145380Y0040667D01*
X0145349Y0040547D01*
X0145313Y0040427D01*
X0145274Y0040309D01*
X0145232Y0040192D01*
X0145185Y0040077D01*
X0145135Y0039963D01*
X0145081Y0039851D01*
X0145024Y0039741D01*
X0144963Y0039632D01*
X0144899Y0039525D01*
X0144832Y0039421D01*
X0144761Y0039319D01*
X0144687Y0039219D01*
X0144609Y0039121D01*
X0144529Y0039026D01*
X0144446Y0038934D01*
X0144360Y0038844D01*
X0144271Y0038757D01*
X0144179Y0038673D01*
X0144085Y0038592D01*
X0143988Y0038514D01*
X0143888Y0038439D01*
X0143787Y0038368D01*
X0143683Y0038299D01*
X0143577Y0038234D01*
X0143469Y0038173D01*
X0143359Y0038115D01*
X0143247Y0038060D01*
X0143134Y0038009D01*
X0143019Y0037962D01*
X0142902Y0037918D01*
X0142784Y0037878D01*
X0142665Y0037842D01*
X0142545Y0037810D01*
X0142424Y0037781D01*
X0142302Y0037756D01*
X0142180Y0037736D01*
X0142056Y0037719D01*
X0141933Y0037706D01*
X0141809Y0037697D01*
X0141684Y0037692D01*
X0141560Y0037691D01*
X0141436Y0037694D01*
X0141311Y0037701D01*
X0141187Y0037712D01*
X0141064Y0037727D01*
X0140941Y0037746D01*
X0140819Y0037768D01*
X0140697Y0037795D01*
X0140577Y0037825D01*
X0140457Y0037859D01*
X0140339Y0037898D01*
X0140221Y0037939D01*
X0140106Y0037985D01*
X0139991Y0038034D01*
X0139879Y0038087D01*
X0139768Y0038143D01*
X0139659Y0038203D01*
X0139552Y0038267D01*
X0139447Y0038333D01*
X0139344Y0038403D01*
X0139244Y0038477D01*
X0139146Y0038553D01*
X0139050Y0038632D01*
X0138957Y0038715D01*
X0138866Y0038800D01*
X0138779Y0038889D01*
X0138694Y0038980D01*
X0138612Y0039074D01*
X0138534Y0039170D01*
X0138458Y0039269D01*
X0138385Y0039370D01*
X0138316Y0039473D01*
X0138250Y0039579D01*
X0138188Y0039686D01*
X0138129Y0039796D01*
X0138073Y0039907D01*
X0138021Y0040020D01*
X0137973Y0040135D01*
X0137929Y0040251D01*
X0137888Y0040368D01*
X0137851Y0040487D01*
X0137817Y0040607D01*
X0137788Y0040727D01*
X0137762Y0040849D01*
X0137740Y0040972D01*
X0137723Y0041095D01*
X0137709Y0041218D01*
X0137699Y0041342D01*
X0137693Y0041467D01*
X0137691Y0041591D01*
X0137591Y0037591D02*
X0145591Y0045591D01*
X0147691Y0041591D02*
X0147693Y0041715D01*
X0147699Y0041840D01*
X0147709Y0041964D01*
X0147723Y0042087D01*
X0147740Y0042210D01*
X0147762Y0042333D01*
X0147788Y0042455D01*
X0147817Y0042575D01*
X0147851Y0042695D01*
X0147888Y0042814D01*
X0147929Y0042931D01*
X0147973Y0043047D01*
X0148021Y0043162D01*
X0148073Y0043275D01*
X0148129Y0043386D01*
X0148188Y0043496D01*
X0148250Y0043603D01*
X0148316Y0043709D01*
X0148385Y0043812D01*
X0148458Y0043913D01*
X0148534Y0044012D01*
X0148612Y0044108D01*
X0148694Y0044202D01*
X0148779Y0044293D01*
X0148866Y0044382D01*
X0148957Y0044467D01*
X0149050Y0044550D01*
X0149146Y0044629D01*
X0149244Y0044705D01*
X0149344Y0044779D01*
X0149447Y0044849D01*
X0149552Y0044915D01*
X0149659Y0044979D01*
X0149768Y0045039D01*
X0149879Y0045095D01*
X0149991Y0045148D01*
X0150106Y0045197D01*
X0150221Y0045243D01*
X0150339Y0045284D01*
X0150457Y0045323D01*
X0150577Y0045357D01*
X0150697Y0045387D01*
X0150819Y0045414D01*
X0150941Y0045436D01*
X0151064Y0045455D01*
X0151187Y0045470D01*
X0151311Y0045481D01*
X0151436Y0045488D01*
X0151560Y0045491D01*
X0151684Y0045490D01*
X0151809Y0045485D01*
X0151933Y0045476D01*
X0152056Y0045463D01*
X0152180Y0045446D01*
X0152302Y0045426D01*
X0152424Y0045401D01*
X0152545Y0045372D01*
X0152665Y0045340D01*
X0152784Y0045304D01*
X0152902Y0045264D01*
X0153019Y0045220D01*
X0153134Y0045173D01*
X0153247Y0045122D01*
X0153359Y0045067D01*
X0153469Y0045009D01*
X0153577Y0044948D01*
X0153683Y0044883D01*
X0153787Y0044814D01*
X0153888Y0044743D01*
X0153988Y0044668D01*
X0154085Y0044590D01*
X0154179Y0044509D01*
X0154271Y0044425D01*
X0154360Y0044338D01*
X0154446Y0044248D01*
X0154529Y0044156D01*
X0154609Y0044061D01*
X0154687Y0043963D01*
X0154761Y0043863D01*
X0154832Y0043761D01*
X0154899Y0043657D01*
X0154963Y0043550D01*
X0155024Y0043441D01*
X0155081Y0043331D01*
X0155135Y0043219D01*
X0155185Y0043105D01*
X0155232Y0042990D01*
X0155274Y0042873D01*
X0155313Y0042755D01*
X0155349Y0042635D01*
X0155380Y0042515D01*
X0155407Y0042394D01*
X0155431Y0042272D01*
X0155451Y0042149D01*
X0155467Y0042025D01*
X0155479Y0041902D01*
X0155487Y0041778D01*
X0155491Y0041653D01*
X0155491Y0041529D01*
X0155487Y0041404D01*
X0155479Y0041280D01*
X0155467Y0041157D01*
X0155451Y0041033D01*
X0155431Y0040910D01*
X0155407Y0040788D01*
X0155380Y0040667D01*
X0155349Y0040547D01*
X0155313Y0040427D01*
X0155274Y0040309D01*
X0155232Y0040192D01*
X0155185Y0040077D01*
X0155135Y0039963D01*
X0155081Y0039851D01*
X0155024Y0039741D01*
X0154963Y0039632D01*
X0154899Y0039525D01*
X0154832Y0039421D01*
X0154761Y0039319D01*
X0154687Y0039219D01*
X0154609Y0039121D01*
X0154529Y0039026D01*
X0154446Y0038934D01*
X0154360Y0038844D01*
X0154271Y0038757D01*
X0154179Y0038673D01*
X0154085Y0038592D01*
X0153988Y0038514D01*
X0153888Y0038439D01*
X0153787Y0038368D01*
X0153683Y0038299D01*
X0153577Y0038234D01*
X0153469Y0038173D01*
X0153359Y0038115D01*
X0153247Y0038060D01*
X0153134Y0038009D01*
X0153019Y0037962D01*
X0152902Y0037918D01*
X0152784Y0037878D01*
X0152665Y0037842D01*
X0152545Y0037810D01*
X0152424Y0037781D01*
X0152302Y0037756D01*
X0152180Y0037736D01*
X0152056Y0037719D01*
X0151933Y0037706D01*
X0151809Y0037697D01*
X0151684Y0037692D01*
X0151560Y0037691D01*
X0151436Y0037694D01*
X0151311Y0037701D01*
X0151187Y0037712D01*
X0151064Y0037727D01*
X0150941Y0037746D01*
X0150819Y0037768D01*
X0150697Y0037795D01*
X0150577Y0037825D01*
X0150457Y0037859D01*
X0150339Y0037898D01*
X0150221Y0037939D01*
X0150106Y0037985D01*
X0149991Y0038034D01*
X0149879Y0038087D01*
X0149768Y0038143D01*
X0149659Y0038203D01*
X0149552Y0038267D01*
X0149447Y0038333D01*
X0149344Y0038403D01*
X0149244Y0038477D01*
X0149146Y0038553D01*
X0149050Y0038632D01*
X0148957Y0038715D01*
X0148866Y0038800D01*
X0148779Y0038889D01*
X0148694Y0038980D01*
X0148612Y0039074D01*
X0148534Y0039170D01*
X0148458Y0039269D01*
X0148385Y0039370D01*
X0148316Y0039473D01*
X0148250Y0039579D01*
X0148188Y0039686D01*
X0148129Y0039796D01*
X0148073Y0039907D01*
X0148021Y0040020D01*
X0147973Y0040135D01*
X0147929Y0040251D01*
X0147888Y0040368D01*
X0147851Y0040487D01*
X0147817Y0040607D01*
X0147788Y0040727D01*
X0147762Y0040849D01*
X0147740Y0040972D01*
X0147723Y0041095D01*
X0147709Y0041218D01*
X0147699Y0041342D01*
X0147693Y0041467D01*
X0147691Y0041591D01*
X0147591Y0037591D02*
X0155591Y0045591D01*
X0147691Y0056591D02*
X0147693Y0056715D01*
X0147699Y0056840D01*
X0147709Y0056964D01*
X0147723Y0057087D01*
X0147740Y0057210D01*
X0147762Y0057333D01*
X0147788Y0057455D01*
X0147817Y0057575D01*
X0147851Y0057695D01*
X0147888Y0057814D01*
X0147929Y0057931D01*
X0147973Y0058047D01*
X0148021Y0058162D01*
X0148073Y0058275D01*
X0148129Y0058386D01*
X0148188Y0058496D01*
X0148250Y0058603D01*
X0148316Y0058709D01*
X0148385Y0058812D01*
X0148458Y0058913D01*
X0148534Y0059012D01*
X0148612Y0059108D01*
X0148694Y0059202D01*
X0148779Y0059293D01*
X0148866Y0059382D01*
X0148957Y0059467D01*
X0149050Y0059550D01*
X0149146Y0059629D01*
X0149244Y0059705D01*
X0149344Y0059779D01*
X0149447Y0059849D01*
X0149552Y0059915D01*
X0149659Y0059979D01*
X0149768Y0060039D01*
X0149879Y0060095D01*
X0149991Y0060148D01*
X0150106Y0060197D01*
X0150221Y0060243D01*
X0150339Y0060284D01*
X0150457Y0060323D01*
X0150577Y0060357D01*
X0150697Y0060387D01*
X0150819Y0060414D01*
X0150941Y0060436D01*
X0151064Y0060455D01*
X0151187Y0060470D01*
X0151311Y0060481D01*
X0151436Y0060488D01*
X0151560Y0060491D01*
X0151684Y0060490D01*
X0151809Y0060485D01*
X0151933Y0060476D01*
X0152056Y0060463D01*
X0152180Y0060446D01*
X0152302Y0060426D01*
X0152424Y0060401D01*
X0152545Y0060372D01*
X0152665Y0060340D01*
X0152784Y0060304D01*
X0152902Y0060264D01*
X0153019Y0060220D01*
X0153134Y0060173D01*
X0153247Y0060122D01*
X0153359Y0060067D01*
X0153469Y0060009D01*
X0153577Y0059948D01*
X0153683Y0059883D01*
X0153787Y0059814D01*
X0153888Y0059743D01*
X0153988Y0059668D01*
X0154085Y0059590D01*
X0154179Y0059509D01*
X0154271Y0059425D01*
X0154360Y0059338D01*
X0154446Y0059248D01*
X0154529Y0059156D01*
X0154609Y0059061D01*
X0154687Y0058963D01*
X0154761Y0058863D01*
X0154832Y0058761D01*
X0154899Y0058657D01*
X0154963Y0058550D01*
X0155024Y0058441D01*
X0155081Y0058331D01*
X0155135Y0058219D01*
X0155185Y0058105D01*
X0155232Y0057990D01*
X0155274Y0057873D01*
X0155313Y0057755D01*
X0155349Y0057635D01*
X0155380Y0057515D01*
X0155407Y0057394D01*
X0155431Y0057272D01*
X0155451Y0057149D01*
X0155467Y0057025D01*
X0155479Y0056902D01*
X0155487Y0056778D01*
X0155491Y0056653D01*
X0155491Y0056529D01*
X0155487Y0056404D01*
X0155479Y0056280D01*
X0155467Y0056157D01*
X0155451Y0056033D01*
X0155431Y0055910D01*
X0155407Y0055788D01*
X0155380Y0055667D01*
X0155349Y0055547D01*
X0155313Y0055427D01*
X0155274Y0055309D01*
X0155232Y0055192D01*
X0155185Y0055077D01*
X0155135Y0054963D01*
X0155081Y0054851D01*
X0155024Y0054741D01*
X0154963Y0054632D01*
X0154899Y0054525D01*
X0154832Y0054421D01*
X0154761Y0054319D01*
X0154687Y0054219D01*
X0154609Y0054121D01*
X0154529Y0054026D01*
X0154446Y0053934D01*
X0154360Y0053844D01*
X0154271Y0053757D01*
X0154179Y0053673D01*
X0154085Y0053592D01*
X0153988Y0053514D01*
X0153888Y0053439D01*
X0153787Y0053368D01*
X0153683Y0053299D01*
X0153577Y0053234D01*
X0153469Y0053173D01*
X0153359Y0053115D01*
X0153247Y0053060D01*
X0153134Y0053009D01*
X0153019Y0052962D01*
X0152902Y0052918D01*
X0152784Y0052878D01*
X0152665Y0052842D01*
X0152545Y0052810D01*
X0152424Y0052781D01*
X0152302Y0052756D01*
X0152180Y0052736D01*
X0152056Y0052719D01*
X0151933Y0052706D01*
X0151809Y0052697D01*
X0151684Y0052692D01*
X0151560Y0052691D01*
X0151436Y0052694D01*
X0151311Y0052701D01*
X0151187Y0052712D01*
X0151064Y0052727D01*
X0150941Y0052746D01*
X0150819Y0052768D01*
X0150697Y0052795D01*
X0150577Y0052825D01*
X0150457Y0052859D01*
X0150339Y0052898D01*
X0150221Y0052939D01*
X0150106Y0052985D01*
X0149991Y0053034D01*
X0149879Y0053087D01*
X0149768Y0053143D01*
X0149659Y0053203D01*
X0149552Y0053267D01*
X0149447Y0053333D01*
X0149344Y0053403D01*
X0149244Y0053477D01*
X0149146Y0053553D01*
X0149050Y0053632D01*
X0148957Y0053715D01*
X0148866Y0053800D01*
X0148779Y0053889D01*
X0148694Y0053980D01*
X0148612Y0054074D01*
X0148534Y0054170D01*
X0148458Y0054269D01*
X0148385Y0054370D01*
X0148316Y0054473D01*
X0148250Y0054579D01*
X0148188Y0054686D01*
X0148129Y0054796D01*
X0148073Y0054907D01*
X0148021Y0055020D01*
X0147973Y0055135D01*
X0147929Y0055251D01*
X0147888Y0055368D01*
X0147851Y0055487D01*
X0147817Y0055607D01*
X0147788Y0055727D01*
X0147762Y0055849D01*
X0147740Y0055972D01*
X0147723Y0056095D01*
X0147709Y0056218D01*
X0147699Y0056342D01*
X0147693Y0056467D01*
X0147691Y0056591D01*
X0147591Y0052591D02*
X0155591Y0060591D01*
X0147691Y0071591D02*
X0147693Y0071715D01*
X0147699Y0071840D01*
X0147709Y0071964D01*
X0147723Y0072087D01*
X0147740Y0072210D01*
X0147762Y0072333D01*
X0147788Y0072455D01*
X0147817Y0072575D01*
X0147851Y0072695D01*
X0147888Y0072814D01*
X0147929Y0072931D01*
X0147973Y0073047D01*
X0148021Y0073162D01*
X0148073Y0073275D01*
X0148129Y0073386D01*
X0148188Y0073496D01*
X0148250Y0073603D01*
X0148316Y0073709D01*
X0148385Y0073812D01*
X0148458Y0073913D01*
X0148534Y0074012D01*
X0148612Y0074108D01*
X0148694Y0074202D01*
X0148779Y0074293D01*
X0148866Y0074382D01*
X0148957Y0074467D01*
X0149050Y0074550D01*
X0149146Y0074629D01*
X0149244Y0074705D01*
X0149344Y0074779D01*
X0149447Y0074849D01*
X0149552Y0074915D01*
X0149659Y0074979D01*
X0149768Y0075039D01*
X0149879Y0075095D01*
X0149991Y0075148D01*
X0150106Y0075197D01*
X0150221Y0075243D01*
X0150339Y0075284D01*
X0150457Y0075323D01*
X0150577Y0075357D01*
X0150697Y0075387D01*
X0150819Y0075414D01*
X0150941Y0075436D01*
X0151064Y0075455D01*
X0151187Y0075470D01*
X0151311Y0075481D01*
X0151436Y0075488D01*
X0151560Y0075491D01*
X0151684Y0075490D01*
X0151809Y0075485D01*
X0151933Y0075476D01*
X0152056Y0075463D01*
X0152180Y0075446D01*
X0152302Y0075426D01*
X0152424Y0075401D01*
X0152545Y0075372D01*
X0152665Y0075340D01*
X0152784Y0075304D01*
X0152902Y0075264D01*
X0153019Y0075220D01*
X0153134Y0075173D01*
X0153247Y0075122D01*
X0153359Y0075067D01*
X0153469Y0075009D01*
X0153577Y0074948D01*
X0153683Y0074883D01*
X0153787Y0074814D01*
X0153888Y0074743D01*
X0153988Y0074668D01*
X0154085Y0074590D01*
X0154179Y0074509D01*
X0154271Y0074425D01*
X0154360Y0074338D01*
X0154446Y0074248D01*
X0154529Y0074156D01*
X0154609Y0074061D01*
X0154687Y0073963D01*
X0154761Y0073863D01*
X0154832Y0073761D01*
X0154899Y0073657D01*
X0154963Y0073550D01*
X0155024Y0073441D01*
X0155081Y0073331D01*
X0155135Y0073219D01*
X0155185Y0073105D01*
X0155232Y0072990D01*
X0155274Y0072873D01*
X0155313Y0072755D01*
X0155349Y0072635D01*
X0155380Y0072515D01*
X0155407Y0072394D01*
X0155431Y0072272D01*
X0155451Y0072149D01*
X0155467Y0072025D01*
X0155479Y0071902D01*
X0155487Y0071778D01*
X0155491Y0071653D01*
X0155491Y0071529D01*
X0155487Y0071404D01*
X0155479Y0071280D01*
X0155467Y0071157D01*
X0155451Y0071033D01*
X0155431Y0070910D01*
X0155407Y0070788D01*
X0155380Y0070667D01*
X0155349Y0070547D01*
X0155313Y0070427D01*
X0155274Y0070309D01*
X0155232Y0070192D01*
X0155185Y0070077D01*
X0155135Y0069963D01*
X0155081Y0069851D01*
X0155024Y0069741D01*
X0154963Y0069632D01*
X0154899Y0069525D01*
X0154832Y0069421D01*
X0154761Y0069319D01*
X0154687Y0069219D01*
X0154609Y0069121D01*
X0154529Y0069026D01*
X0154446Y0068934D01*
X0154360Y0068844D01*
X0154271Y0068757D01*
X0154179Y0068673D01*
X0154085Y0068592D01*
X0153988Y0068514D01*
X0153888Y0068439D01*
X0153787Y0068368D01*
X0153683Y0068299D01*
X0153577Y0068234D01*
X0153469Y0068173D01*
X0153359Y0068115D01*
X0153247Y0068060D01*
X0153134Y0068009D01*
X0153019Y0067962D01*
X0152902Y0067918D01*
X0152784Y0067878D01*
X0152665Y0067842D01*
X0152545Y0067810D01*
X0152424Y0067781D01*
X0152302Y0067756D01*
X0152180Y0067736D01*
X0152056Y0067719D01*
X0151933Y0067706D01*
X0151809Y0067697D01*
X0151684Y0067692D01*
X0151560Y0067691D01*
X0151436Y0067694D01*
X0151311Y0067701D01*
X0151187Y0067712D01*
X0151064Y0067727D01*
X0150941Y0067746D01*
X0150819Y0067768D01*
X0150697Y0067795D01*
X0150577Y0067825D01*
X0150457Y0067859D01*
X0150339Y0067898D01*
X0150221Y0067939D01*
X0150106Y0067985D01*
X0149991Y0068034D01*
X0149879Y0068087D01*
X0149768Y0068143D01*
X0149659Y0068203D01*
X0149552Y0068267D01*
X0149447Y0068333D01*
X0149344Y0068403D01*
X0149244Y0068477D01*
X0149146Y0068553D01*
X0149050Y0068632D01*
X0148957Y0068715D01*
X0148866Y0068800D01*
X0148779Y0068889D01*
X0148694Y0068980D01*
X0148612Y0069074D01*
X0148534Y0069170D01*
X0148458Y0069269D01*
X0148385Y0069370D01*
X0148316Y0069473D01*
X0148250Y0069579D01*
X0148188Y0069686D01*
X0148129Y0069796D01*
X0148073Y0069907D01*
X0148021Y0070020D01*
X0147973Y0070135D01*
X0147929Y0070251D01*
X0147888Y0070368D01*
X0147851Y0070487D01*
X0147817Y0070607D01*
X0147788Y0070727D01*
X0147762Y0070849D01*
X0147740Y0070972D01*
X0147723Y0071095D01*
X0147709Y0071218D01*
X0147699Y0071342D01*
X0147693Y0071467D01*
X0147691Y0071591D01*
X0147591Y0067591D02*
X0155591Y0075591D01*
X0137691Y0071591D02*
X0137693Y0071715D01*
X0137699Y0071840D01*
X0137709Y0071964D01*
X0137723Y0072087D01*
X0137740Y0072210D01*
X0137762Y0072333D01*
X0137788Y0072455D01*
X0137817Y0072575D01*
X0137851Y0072695D01*
X0137888Y0072814D01*
X0137929Y0072931D01*
X0137973Y0073047D01*
X0138021Y0073162D01*
X0138073Y0073275D01*
X0138129Y0073386D01*
X0138188Y0073496D01*
X0138250Y0073603D01*
X0138316Y0073709D01*
X0138385Y0073812D01*
X0138458Y0073913D01*
X0138534Y0074012D01*
X0138612Y0074108D01*
X0138694Y0074202D01*
X0138779Y0074293D01*
X0138866Y0074382D01*
X0138957Y0074467D01*
X0139050Y0074550D01*
X0139146Y0074629D01*
X0139244Y0074705D01*
X0139344Y0074779D01*
X0139447Y0074849D01*
X0139552Y0074915D01*
X0139659Y0074979D01*
X0139768Y0075039D01*
X0139879Y0075095D01*
X0139991Y0075148D01*
X0140106Y0075197D01*
X0140221Y0075243D01*
X0140339Y0075284D01*
X0140457Y0075323D01*
X0140577Y0075357D01*
X0140697Y0075387D01*
X0140819Y0075414D01*
X0140941Y0075436D01*
X0141064Y0075455D01*
X0141187Y0075470D01*
X0141311Y0075481D01*
X0141436Y0075488D01*
X0141560Y0075491D01*
X0141684Y0075490D01*
X0141809Y0075485D01*
X0141933Y0075476D01*
X0142056Y0075463D01*
X0142180Y0075446D01*
X0142302Y0075426D01*
X0142424Y0075401D01*
X0142545Y0075372D01*
X0142665Y0075340D01*
X0142784Y0075304D01*
X0142902Y0075264D01*
X0143019Y0075220D01*
X0143134Y0075173D01*
X0143247Y0075122D01*
X0143359Y0075067D01*
X0143469Y0075009D01*
X0143577Y0074948D01*
X0143683Y0074883D01*
X0143787Y0074814D01*
X0143888Y0074743D01*
X0143988Y0074668D01*
X0144085Y0074590D01*
X0144179Y0074509D01*
X0144271Y0074425D01*
X0144360Y0074338D01*
X0144446Y0074248D01*
X0144529Y0074156D01*
X0144609Y0074061D01*
X0144687Y0073963D01*
X0144761Y0073863D01*
X0144832Y0073761D01*
X0144899Y0073657D01*
X0144963Y0073550D01*
X0145024Y0073441D01*
X0145081Y0073331D01*
X0145135Y0073219D01*
X0145185Y0073105D01*
X0145232Y0072990D01*
X0145274Y0072873D01*
X0145313Y0072755D01*
X0145349Y0072635D01*
X0145380Y0072515D01*
X0145407Y0072394D01*
X0145431Y0072272D01*
X0145451Y0072149D01*
X0145467Y0072025D01*
X0145479Y0071902D01*
X0145487Y0071778D01*
X0145491Y0071653D01*
X0145491Y0071529D01*
X0145487Y0071404D01*
X0145479Y0071280D01*
X0145467Y0071157D01*
X0145451Y0071033D01*
X0145431Y0070910D01*
X0145407Y0070788D01*
X0145380Y0070667D01*
X0145349Y0070547D01*
X0145313Y0070427D01*
X0145274Y0070309D01*
X0145232Y0070192D01*
X0145185Y0070077D01*
X0145135Y0069963D01*
X0145081Y0069851D01*
X0145024Y0069741D01*
X0144963Y0069632D01*
X0144899Y0069525D01*
X0144832Y0069421D01*
X0144761Y0069319D01*
X0144687Y0069219D01*
X0144609Y0069121D01*
X0144529Y0069026D01*
X0144446Y0068934D01*
X0144360Y0068844D01*
X0144271Y0068757D01*
X0144179Y0068673D01*
X0144085Y0068592D01*
X0143988Y0068514D01*
X0143888Y0068439D01*
X0143787Y0068368D01*
X0143683Y0068299D01*
X0143577Y0068234D01*
X0143469Y0068173D01*
X0143359Y0068115D01*
X0143247Y0068060D01*
X0143134Y0068009D01*
X0143019Y0067962D01*
X0142902Y0067918D01*
X0142784Y0067878D01*
X0142665Y0067842D01*
X0142545Y0067810D01*
X0142424Y0067781D01*
X0142302Y0067756D01*
X0142180Y0067736D01*
X0142056Y0067719D01*
X0141933Y0067706D01*
X0141809Y0067697D01*
X0141684Y0067692D01*
X0141560Y0067691D01*
X0141436Y0067694D01*
X0141311Y0067701D01*
X0141187Y0067712D01*
X0141064Y0067727D01*
X0140941Y0067746D01*
X0140819Y0067768D01*
X0140697Y0067795D01*
X0140577Y0067825D01*
X0140457Y0067859D01*
X0140339Y0067898D01*
X0140221Y0067939D01*
X0140106Y0067985D01*
X0139991Y0068034D01*
X0139879Y0068087D01*
X0139768Y0068143D01*
X0139659Y0068203D01*
X0139552Y0068267D01*
X0139447Y0068333D01*
X0139344Y0068403D01*
X0139244Y0068477D01*
X0139146Y0068553D01*
X0139050Y0068632D01*
X0138957Y0068715D01*
X0138866Y0068800D01*
X0138779Y0068889D01*
X0138694Y0068980D01*
X0138612Y0069074D01*
X0138534Y0069170D01*
X0138458Y0069269D01*
X0138385Y0069370D01*
X0138316Y0069473D01*
X0138250Y0069579D01*
X0138188Y0069686D01*
X0138129Y0069796D01*
X0138073Y0069907D01*
X0138021Y0070020D01*
X0137973Y0070135D01*
X0137929Y0070251D01*
X0137888Y0070368D01*
X0137851Y0070487D01*
X0137817Y0070607D01*
X0137788Y0070727D01*
X0137762Y0070849D01*
X0137740Y0070972D01*
X0137723Y0071095D01*
X0137709Y0071218D01*
X0137699Y0071342D01*
X0137693Y0071467D01*
X0137691Y0071591D01*
X0137591Y0067591D02*
X0145591Y0075591D01*
X0127691Y0071591D02*
X0127693Y0071715D01*
X0127699Y0071840D01*
X0127709Y0071964D01*
X0127723Y0072087D01*
X0127740Y0072210D01*
X0127762Y0072333D01*
X0127788Y0072455D01*
X0127817Y0072575D01*
X0127851Y0072695D01*
X0127888Y0072814D01*
X0127929Y0072931D01*
X0127973Y0073047D01*
X0128021Y0073162D01*
X0128073Y0073275D01*
X0128129Y0073386D01*
X0128188Y0073496D01*
X0128250Y0073603D01*
X0128316Y0073709D01*
X0128385Y0073812D01*
X0128458Y0073913D01*
X0128534Y0074012D01*
X0128612Y0074108D01*
X0128694Y0074202D01*
X0128779Y0074293D01*
X0128866Y0074382D01*
X0128957Y0074467D01*
X0129050Y0074550D01*
X0129146Y0074629D01*
X0129244Y0074705D01*
X0129344Y0074779D01*
X0129447Y0074849D01*
X0129552Y0074915D01*
X0129659Y0074979D01*
X0129768Y0075039D01*
X0129879Y0075095D01*
X0129991Y0075148D01*
X0130106Y0075197D01*
X0130221Y0075243D01*
X0130339Y0075284D01*
X0130457Y0075323D01*
X0130577Y0075357D01*
X0130697Y0075387D01*
X0130819Y0075414D01*
X0130941Y0075436D01*
X0131064Y0075455D01*
X0131187Y0075470D01*
X0131311Y0075481D01*
X0131436Y0075488D01*
X0131560Y0075491D01*
X0131684Y0075490D01*
X0131809Y0075485D01*
X0131933Y0075476D01*
X0132056Y0075463D01*
X0132180Y0075446D01*
X0132302Y0075426D01*
X0132424Y0075401D01*
X0132545Y0075372D01*
X0132665Y0075340D01*
X0132784Y0075304D01*
X0132902Y0075264D01*
X0133019Y0075220D01*
X0133134Y0075173D01*
X0133247Y0075122D01*
X0133359Y0075067D01*
X0133469Y0075009D01*
X0133577Y0074948D01*
X0133683Y0074883D01*
X0133787Y0074814D01*
X0133888Y0074743D01*
X0133988Y0074668D01*
X0134085Y0074590D01*
X0134179Y0074509D01*
X0134271Y0074425D01*
X0134360Y0074338D01*
X0134446Y0074248D01*
X0134529Y0074156D01*
X0134609Y0074061D01*
X0134687Y0073963D01*
X0134761Y0073863D01*
X0134832Y0073761D01*
X0134899Y0073657D01*
X0134963Y0073550D01*
X0135024Y0073441D01*
X0135081Y0073331D01*
X0135135Y0073219D01*
X0135185Y0073105D01*
X0135232Y0072990D01*
X0135274Y0072873D01*
X0135313Y0072755D01*
X0135349Y0072635D01*
X0135380Y0072515D01*
X0135407Y0072394D01*
X0135431Y0072272D01*
X0135451Y0072149D01*
X0135467Y0072025D01*
X0135479Y0071902D01*
X0135487Y0071778D01*
X0135491Y0071653D01*
X0135491Y0071529D01*
X0135487Y0071404D01*
X0135479Y0071280D01*
X0135467Y0071157D01*
X0135451Y0071033D01*
X0135431Y0070910D01*
X0135407Y0070788D01*
X0135380Y0070667D01*
X0135349Y0070547D01*
X0135313Y0070427D01*
X0135274Y0070309D01*
X0135232Y0070192D01*
X0135185Y0070077D01*
X0135135Y0069963D01*
X0135081Y0069851D01*
X0135024Y0069741D01*
X0134963Y0069632D01*
X0134899Y0069525D01*
X0134832Y0069421D01*
X0134761Y0069319D01*
X0134687Y0069219D01*
X0134609Y0069121D01*
X0134529Y0069026D01*
X0134446Y0068934D01*
X0134360Y0068844D01*
X0134271Y0068757D01*
X0134179Y0068673D01*
X0134085Y0068592D01*
X0133988Y0068514D01*
X0133888Y0068439D01*
X0133787Y0068368D01*
X0133683Y0068299D01*
X0133577Y0068234D01*
X0133469Y0068173D01*
X0133359Y0068115D01*
X0133247Y0068060D01*
X0133134Y0068009D01*
X0133019Y0067962D01*
X0132902Y0067918D01*
X0132784Y0067878D01*
X0132665Y0067842D01*
X0132545Y0067810D01*
X0132424Y0067781D01*
X0132302Y0067756D01*
X0132180Y0067736D01*
X0132056Y0067719D01*
X0131933Y0067706D01*
X0131809Y0067697D01*
X0131684Y0067692D01*
X0131560Y0067691D01*
X0131436Y0067694D01*
X0131311Y0067701D01*
X0131187Y0067712D01*
X0131064Y0067727D01*
X0130941Y0067746D01*
X0130819Y0067768D01*
X0130697Y0067795D01*
X0130577Y0067825D01*
X0130457Y0067859D01*
X0130339Y0067898D01*
X0130221Y0067939D01*
X0130106Y0067985D01*
X0129991Y0068034D01*
X0129879Y0068087D01*
X0129768Y0068143D01*
X0129659Y0068203D01*
X0129552Y0068267D01*
X0129447Y0068333D01*
X0129344Y0068403D01*
X0129244Y0068477D01*
X0129146Y0068553D01*
X0129050Y0068632D01*
X0128957Y0068715D01*
X0128866Y0068800D01*
X0128779Y0068889D01*
X0128694Y0068980D01*
X0128612Y0069074D01*
X0128534Y0069170D01*
X0128458Y0069269D01*
X0128385Y0069370D01*
X0128316Y0069473D01*
X0128250Y0069579D01*
X0128188Y0069686D01*
X0128129Y0069796D01*
X0128073Y0069907D01*
X0128021Y0070020D01*
X0127973Y0070135D01*
X0127929Y0070251D01*
X0127888Y0070368D01*
X0127851Y0070487D01*
X0127817Y0070607D01*
X0127788Y0070727D01*
X0127762Y0070849D01*
X0127740Y0070972D01*
X0127723Y0071095D01*
X0127709Y0071218D01*
X0127699Y0071342D01*
X0127693Y0071467D01*
X0127691Y0071591D01*
X0127591Y0067591D02*
X0135591Y0075591D01*
X0127691Y0091591D02*
X0127693Y0091715D01*
X0127699Y0091840D01*
X0127709Y0091964D01*
X0127723Y0092087D01*
X0127740Y0092210D01*
X0127762Y0092333D01*
X0127788Y0092455D01*
X0127817Y0092575D01*
X0127851Y0092695D01*
X0127888Y0092814D01*
X0127929Y0092931D01*
X0127973Y0093047D01*
X0128021Y0093162D01*
X0128073Y0093275D01*
X0128129Y0093386D01*
X0128188Y0093496D01*
X0128250Y0093603D01*
X0128316Y0093709D01*
X0128385Y0093812D01*
X0128458Y0093913D01*
X0128534Y0094012D01*
X0128612Y0094108D01*
X0128694Y0094202D01*
X0128779Y0094293D01*
X0128866Y0094382D01*
X0128957Y0094467D01*
X0129050Y0094550D01*
X0129146Y0094629D01*
X0129244Y0094705D01*
X0129344Y0094779D01*
X0129447Y0094849D01*
X0129552Y0094915D01*
X0129659Y0094979D01*
X0129768Y0095039D01*
X0129879Y0095095D01*
X0129991Y0095148D01*
X0130106Y0095197D01*
X0130221Y0095243D01*
X0130339Y0095284D01*
X0130457Y0095323D01*
X0130577Y0095357D01*
X0130697Y0095387D01*
X0130819Y0095414D01*
X0130941Y0095436D01*
X0131064Y0095455D01*
X0131187Y0095470D01*
X0131311Y0095481D01*
X0131436Y0095488D01*
X0131560Y0095491D01*
X0131684Y0095490D01*
X0131809Y0095485D01*
X0131933Y0095476D01*
X0132056Y0095463D01*
X0132180Y0095446D01*
X0132302Y0095426D01*
X0132424Y0095401D01*
X0132545Y0095372D01*
X0132665Y0095340D01*
X0132784Y0095304D01*
X0132902Y0095264D01*
X0133019Y0095220D01*
X0133134Y0095173D01*
X0133247Y0095122D01*
X0133359Y0095067D01*
X0133469Y0095009D01*
X0133577Y0094948D01*
X0133683Y0094883D01*
X0133787Y0094814D01*
X0133888Y0094743D01*
X0133988Y0094668D01*
X0134085Y0094590D01*
X0134179Y0094509D01*
X0134271Y0094425D01*
X0134360Y0094338D01*
X0134446Y0094248D01*
X0134529Y0094156D01*
X0134609Y0094061D01*
X0134687Y0093963D01*
X0134761Y0093863D01*
X0134832Y0093761D01*
X0134899Y0093657D01*
X0134963Y0093550D01*
X0135024Y0093441D01*
X0135081Y0093331D01*
X0135135Y0093219D01*
X0135185Y0093105D01*
X0135232Y0092990D01*
X0135274Y0092873D01*
X0135313Y0092755D01*
X0135349Y0092635D01*
X0135380Y0092515D01*
X0135407Y0092394D01*
X0135431Y0092272D01*
X0135451Y0092149D01*
X0135467Y0092025D01*
X0135479Y0091902D01*
X0135487Y0091778D01*
X0135491Y0091653D01*
X0135491Y0091529D01*
X0135487Y0091404D01*
X0135479Y0091280D01*
X0135467Y0091157D01*
X0135451Y0091033D01*
X0135431Y0090910D01*
X0135407Y0090788D01*
X0135380Y0090667D01*
X0135349Y0090547D01*
X0135313Y0090427D01*
X0135274Y0090309D01*
X0135232Y0090192D01*
X0135185Y0090077D01*
X0135135Y0089963D01*
X0135081Y0089851D01*
X0135024Y0089741D01*
X0134963Y0089632D01*
X0134899Y0089525D01*
X0134832Y0089421D01*
X0134761Y0089319D01*
X0134687Y0089219D01*
X0134609Y0089121D01*
X0134529Y0089026D01*
X0134446Y0088934D01*
X0134360Y0088844D01*
X0134271Y0088757D01*
X0134179Y0088673D01*
X0134085Y0088592D01*
X0133988Y0088514D01*
X0133888Y0088439D01*
X0133787Y0088368D01*
X0133683Y0088299D01*
X0133577Y0088234D01*
X0133469Y0088173D01*
X0133359Y0088115D01*
X0133247Y0088060D01*
X0133134Y0088009D01*
X0133019Y0087962D01*
X0132902Y0087918D01*
X0132784Y0087878D01*
X0132665Y0087842D01*
X0132545Y0087810D01*
X0132424Y0087781D01*
X0132302Y0087756D01*
X0132180Y0087736D01*
X0132056Y0087719D01*
X0131933Y0087706D01*
X0131809Y0087697D01*
X0131684Y0087692D01*
X0131560Y0087691D01*
X0131436Y0087694D01*
X0131311Y0087701D01*
X0131187Y0087712D01*
X0131064Y0087727D01*
X0130941Y0087746D01*
X0130819Y0087768D01*
X0130697Y0087795D01*
X0130577Y0087825D01*
X0130457Y0087859D01*
X0130339Y0087898D01*
X0130221Y0087939D01*
X0130106Y0087985D01*
X0129991Y0088034D01*
X0129879Y0088087D01*
X0129768Y0088143D01*
X0129659Y0088203D01*
X0129552Y0088267D01*
X0129447Y0088333D01*
X0129344Y0088403D01*
X0129244Y0088477D01*
X0129146Y0088553D01*
X0129050Y0088632D01*
X0128957Y0088715D01*
X0128866Y0088800D01*
X0128779Y0088889D01*
X0128694Y0088980D01*
X0128612Y0089074D01*
X0128534Y0089170D01*
X0128458Y0089269D01*
X0128385Y0089370D01*
X0128316Y0089473D01*
X0128250Y0089579D01*
X0128188Y0089686D01*
X0128129Y0089796D01*
X0128073Y0089907D01*
X0128021Y0090020D01*
X0127973Y0090135D01*
X0127929Y0090251D01*
X0127888Y0090368D01*
X0127851Y0090487D01*
X0127817Y0090607D01*
X0127788Y0090727D01*
X0127762Y0090849D01*
X0127740Y0090972D01*
X0127723Y0091095D01*
X0127709Y0091218D01*
X0127699Y0091342D01*
X0127693Y0091467D01*
X0127691Y0091591D01*
X0127591Y0087591D02*
X0135591Y0095591D01*
X0137691Y0091591D02*
X0137693Y0091715D01*
X0137699Y0091840D01*
X0137709Y0091964D01*
X0137723Y0092087D01*
X0137740Y0092210D01*
X0137762Y0092333D01*
X0137788Y0092455D01*
X0137817Y0092575D01*
X0137851Y0092695D01*
X0137888Y0092814D01*
X0137929Y0092931D01*
X0137973Y0093047D01*
X0138021Y0093162D01*
X0138073Y0093275D01*
X0138129Y0093386D01*
X0138188Y0093496D01*
X0138250Y0093603D01*
X0138316Y0093709D01*
X0138385Y0093812D01*
X0138458Y0093913D01*
X0138534Y0094012D01*
X0138612Y0094108D01*
X0138694Y0094202D01*
X0138779Y0094293D01*
X0138866Y0094382D01*
X0138957Y0094467D01*
X0139050Y0094550D01*
X0139146Y0094629D01*
X0139244Y0094705D01*
X0139344Y0094779D01*
X0139447Y0094849D01*
X0139552Y0094915D01*
X0139659Y0094979D01*
X0139768Y0095039D01*
X0139879Y0095095D01*
X0139991Y0095148D01*
X0140106Y0095197D01*
X0140221Y0095243D01*
X0140339Y0095284D01*
X0140457Y0095323D01*
X0140577Y0095357D01*
X0140697Y0095387D01*
X0140819Y0095414D01*
X0140941Y0095436D01*
X0141064Y0095455D01*
X0141187Y0095470D01*
X0141311Y0095481D01*
X0141436Y0095488D01*
X0141560Y0095491D01*
X0141684Y0095490D01*
X0141809Y0095485D01*
X0141933Y0095476D01*
X0142056Y0095463D01*
X0142180Y0095446D01*
X0142302Y0095426D01*
X0142424Y0095401D01*
X0142545Y0095372D01*
X0142665Y0095340D01*
X0142784Y0095304D01*
X0142902Y0095264D01*
X0143019Y0095220D01*
X0143134Y0095173D01*
X0143247Y0095122D01*
X0143359Y0095067D01*
X0143469Y0095009D01*
X0143577Y0094948D01*
X0143683Y0094883D01*
X0143787Y0094814D01*
X0143888Y0094743D01*
X0143988Y0094668D01*
X0144085Y0094590D01*
X0144179Y0094509D01*
X0144271Y0094425D01*
X0144360Y0094338D01*
X0144446Y0094248D01*
X0144529Y0094156D01*
X0144609Y0094061D01*
X0144687Y0093963D01*
X0144761Y0093863D01*
X0144832Y0093761D01*
X0144899Y0093657D01*
X0144963Y0093550D01*
X0145024Y0093441D01*
X0145081Y0093331D01*
X0145135Y0093219D01*
X0145185Y0093105D01*
X0145232Y0092990D01*
X0145274Y0092873D01*
X0145313Y0092755D01*
X0145349Y0092635D01*
X0145380Y0092515D01*
X0145407Y0092394D01*
X0145431Y0092272D01*
X0145451Y0092149D01*
X0145467Y0092025D01*
X0145479Y0091902D01*
X0145487Y0091778D01*
X0145491Y0091653D01*
X0145491Y0091529D01*
X0145487Y0091404D01*
X0145479Y0091280D01*
X0145467Y0091157D01*
X0145451Y0091033D01*
X0145431Y0090910D01*
X0145407Y0090788D01*
X0145380Y0090667D01*
X0145349Y0090547D01*
X0145313Y0090427D01*
X0145274Y0090309D01*
X0145232Y0090192D01*
X0145185Y0090077D01*
X0145135Y0089963D01*
X0145081Y0089851D01*
X0145024Y0089741D01*
X0144963Y0089632D01*
X0144899Y0089525D01*
X0144832Y0089421D01*
X0144761Y0089319D01*
X0144687Y0089219D01*
X0144609Y0089121D01*
X0144529Y0089026D01*
X0144446Y0088934D01*
X0144360Y0088844D01*
X0144271Y0088757D01*
X0144179Y0088673D01*
X0144085Y0088592D01*
X0143988Y0088514D01*
X0143888Y0088439D01*
X0143787Y0088368D01*
X0143683Y0088299D01*
X0143577Y0088234D01*
X0143469Y0088173D01*
X0143359Y0088115D01*
X0143247Y0088060D01*
X0143134Y0088009D01*
X0143019Y0087962D01*
X0142902Y0087918D01*
X0142784Y0087878D01*
X0142665Y0087842D01*
X0142545Y0087810D01*
X0142424Y0087781D01*
X0142302Y0087756D01*
X0142180Y0087736D01*
X0142056Y0087719D01*
X0141933Y0087706D01*
X0141809Y0087697D01*
X0141684Y0087692D01*
X0141560Y0087691D01*
X0141436Y0087694D01*
X0141311Y0087701D01*
X0141187Y0087712D01*
X0141064Y0087727D01*
X0140941Y0087746D01*
X0140819Y0087768D01*
X0140697Y0087795D01*
X0140577Y0087825D01*
X0140457Y0087859D01*
X0140339Y0087898D01*
X0140221Y0087939D01*
X0140106Y0087985D01*
X0139991Y0088034D01*
X0139879Y0088087D01*
X0139768Y0088143D01*
X0139659Y0088203D01*
X0139552Y0088267D01*
X0139447Y0088333D01*
X0139344Y0088403D01*
X0139244Y0088477D01*
X0139146Y0088553D01*
X0139050Y0088632D01*
X0138957Y0088715D01*
X0138866Y0088800D01*
X0138779Y0088889D01*
X0138694Y0088980D01*
X0138612Y0089074D01*
X0138534Y0089170D01*
X0138458Y0089269D01*
X0138385Y0089370D01*
X0138316Y0089473D01*
X0138250Y0089579D01*
X0138188Y0089686D01*
X0138129Y0089796D01*
X0138073Y0089907D01*
X0138021Y0090020D01*
X0137973Y0090135D01*
X0137929Y0090251D01*
X0137888Y0090368D01*
X0137851Y0090487D01*
X0137817Y0090607D01*
X0137788Y0090727D01*
X0137762Y0090849D01*
X0137740Y0090972D01*
X0137723Y0091095D01*
X0137709Y0091218D01*
X0137699Y0091342D01*
X0137693Y0091467D01*
X0137691Y0091591D01*
X0137591Y0087591D02*
X0145591Y0095591D01*
X0147691Y0091591D02*
X0147693Y0091715D01*
X0147699Y0091840D01*
X0147709Y0091964D01*
X0147723Y0092087D01*
X0147740Y0092210D01*
X0147762Y0092333D01*
X0147788Y0092455D01*
X0147817Y0092575D01*
X0147851Y0092695D01*
X0147888Y0092814D01*
X0147929Y0092931D01*
X0147973Y0093047D01*
X0148021Y0093162D01*
X0148073Y0093275D01*
X0148129Y0093386D01*
X0148188Y0093496D01*
X0148250Y0093603D01*
X0148316Y0093709D01*
X0148385Y0093812D01*
X0148458Y0093913D01*
X0148534Y0094012D01*
X0148612Y0094108D01*
X0148694Y0094202D01*
X0148779Y0094293D01*
X0148866Y0094382D01*
X0148957Y0094467D01*
X0149050Y0094550D01*
X0149146Y0094629D01*
X0149244Y0094705D01*
X0149344Y0094779D01*
X0149447Y0094849D01*
X0149552Y0094915D01*
X0149659Y0094979D01*
X0149768Y0095039D01*
X0149879Y0095095D01*
X0149991Y0095148D01*
X0150106Y0095197D01*
X0150221Y0095243D01*
X0150339Y0095284D01*
X0150457Y0095323D01*
X0150577Y0095357D01*
X0150697Y0095387D01*
X0150819Y0095414D01*
X0150941Y0095436D01*
X0151064Y0095455D01*
X0151187Y0095470D01*
X0151311Y0095481D01*
X0151436Y0095488D01*
X0151560Y0095491D01*
X0151684Y0095490D01*
X0151809Y0095485D01*
X0151933Y0095476D01*
X0152056Y0095463D01*
X0152180Y0095446D01*
X0152302Y0095426D01*
X0152424Y0095401D01*
X0152545Y0095372D01*
X0152665Y0095340D01*
X0152784Y0095304D01*
X0152902Y0095264D01*
X0153019Y0095220D01*
X0153134Y0095173D01*
X0153247Y0095122D01*
X0153359Y0095067D01*
X0153469Y0095009D01*
X0153577Y0094948D01*
X0153683Y0094883D01*
X0153787Y0094814D01*
X0153888Y0094743D01*
X0153988Y0094668D01*
X0154085Y0094590D01*
X0154179Y0094509D01*
X0154271Y0094425D01*
X0154360Y0094338D01*
X0154446Y0094248D01*
X0154529Y0094156D01*
X0154609Y0094061D01*
X0154687Y0093963D01*
X0154761Y0093863D01*
X0154832Y0093761D01*
X0154899Y0093657D01*
X0154963Y0093550D01*
X0155024Y0093441D01*
X0155081Y0093331D01*
X0155135Y0093219D01*
X0155185Y0093105D01*
X0155232Y0092990D01*
X0155274Y0092873D01*
X0155313Y0092755D01*
X0155349Y0092635D01*
X0155380Y0092515D01*
X0155407Y0092394D01*
X0155431Y0092272D01*
X0155451Y0092149D01*
X0155467Y0092025D01*
X0155479Y0091902D01*
X0155487Y0091778D01*
X0155491Y0091653D01*
X0155491Y0091529D01*
X0155487Y0091404D01*
X0155479Y0091280D01*
X0155467Y0091157D01*
X0155451Y0091033D01*
X0155431Y0090910D01*
X0155407Y0090788D01*
X0155380Y0090667D01*
X0155349Y0090547D01*
X0155313Y0090427D01*
X0155274Y0090309D01*
X0155232Y0090192D01*
X0155185Y0090077D01*
X0155135Y0089963D01*
X0155081Y0089851D01*
X0155024Y0089741D01*
X0154963Y0089632D01*
X0154899Y0089525D01*
X0154832Y0089421D01*
X0154761Y0089319D01*
X0154687Y0089219D01*
X0154609Y0089121D01*
X0154529Y0089026D01*
X0154446Y0088934D01*
X0154360Y0088844D01*
X0154271Y0088757D01*
X0154179Y0088673D01*
X0154085Y0088592D01*
X0153988Y0088514D01*
X0153888Y0088439D01*
X0153787Y0088368D01*
X0153683Y0088299D01*
X0153577Y0088234D01*
X0153469Y0088173D01*
X0153359Y0088115D01*
X0153247Y0088060D01*
X0153134Y0088009D01*
X0153019Y0087962D01*
X0152902Y0087918D01*
X0152784Y0087878D01*
X0152665Y0087842D01*
X0152545Y0087810D01*
X0152424Y0087781D01*
X0152302Y0087756D01*
X0152180Y0087736D01*
X0152056Y0087719D01*
X0151933Y0087706D01*
X0151809Y0087697D01*
X0151684Y0087692D01*
X0151560Y0087691D01*
X0151436Y0087694D01*
X0151311Y0087701D01*
X0151187Y0087712D01*
X0151064Y0087727D01*
X0150941Y0087746D01*
X0150819Y0087768D01*
X0150697Y0087795D01*
X0150577Y0087825D01*
X0150457Y0087859D01*
X0150339Y0087898D01*
X0150221Y0087939D01*
X0150106Y0087985D01*
X0149991Y0088034D01*
X0149879Y0088087D01*
X0149768Y0088143D01*
X0149659Y0088203D01*
X0149552Y0088267D01*
X0149447Y0088333D01*
X0149344Y0088403D01*
X0149244Y0088477D01*
X0149146Y0088553D01*
X0149050Y0088632D01*
X0148957Y0088715D01*
X0148866Y0088800D01*
X0148779Y0088889D01*
X0148694Y0088980D01*
X0148612Y0089074D01*
X0148534Y0089170D01*
X0148458Y0089269D01*
X0148385Y0089370D01*
X0148316Y0089473D01*
X0148250Y0089579D01*
X0148188Y0089686D01*
X0148129Y0089796D01*
X0148073Y0089907D01*
X0148021Y0090020D01*
X0147973Y0090135D01*
X0147929Y0090251D01*
X0147888Y0090368D01*
X0147851Y0090487D01*
X0147817Y0090607D01*
X0147788Y0090727D01*
X0147762Y0090849D01*
X0147740Y0090972D01*
X0147723Y0091095D01*
X0147709Y0091218D01*
X0147699Y0091342D01*
X0147693Y0091467D01*
X0147691Y0091591D01*
X0147591Y0087591D02*
X0155591Y0095591D01*
X0157591Y0101591D02*
X0165591Y0101591D01*
X0161591Y0097591D02*
X0161591Y0105591D01*
X0157691Y0101591D02*
X0157693Y0101715D01*
X0157699Y0101840D01*
X0157709Y0101964D01*
X0157723Y0102087D01*
X0157740Y0102210D01*
X0157762Y0102333D01*
X0157788Y0102455D01*
X0157817Y0102575D01*
X0157851Y0102695D01*
X0157888Y0102814D01*
X0157929Y0102931D01*
X0157973Y0103047D01*
X0158021Y0103162D01*
X0158073Y0103275D01*
X0158129Y0103386D01*
X0158188Y0103496D01*
X0158250Y0103603D01*
X0158316Y0103709D01*
X0158385Y0103812D01*
X0158458Y0103913D01*
X0158534Y0104012D01*
X0158612Y0104108D01*
X0158694Y0104202D01*
X0158779Y0104293D01*
X0158866Y0104382D01*
X0158957Y0104467D01*
X0159050Y0104550D01*
X0159146Y0104629D01*
X0159244Y0104705D01*
X0159344Y0104779D01*
X0159447Y0104849D01*
X0159552Y0104915D01*
X0159659Y0104979D01*
X0159768Y0105039D01*
X0159879Y0105095D01*
X0159991Y0105148D01*
X0160106Y0105197D01*
X0160221Y0105243D01*
X0160339Y0105284D01*
X0160457Y0105323D01*
X0160577Y0105357D01*
X0160697Y0105387D01*
X0160819Y0105414D01*
X0160941Y0105436D01*
X0161064Y0105455D01*
X0161187Y0105470D01*
X0161311Y0105481D01*
X0161436Y0105488D01*
X0161560Y0105491D01*
X0161684Y0105490D01*
X0161809Y0105485D01*
X0161933Y0105476D01*
X0162056Y0105463D01*
X0162180Y0105446D01*
X0162302Y0105426D01*
X0162424Y0105401D01*
X0162545Y0105372D01*
X0162665Y0105340D01*
X0162784Y0105304D01*
X0162902Y0105264D01*
X0163019Y0105220D01*
X0163134Y0105173D01*
X0163247Y0105122D01*
X0163359Y0105067D01*
X0163469Y0105009D01*
X0163577Y0104948D01*
X0163683Y0104883D01*
X0163787Y0104814D01*
X0163888Y0104743D01*
X0163988Y0104668D01*
X0164085Y0104590D01*
X0164179Y0104509D01*
X0164271Y0104425D01*
X0164360Y0104338D01*
X0164446Y0104248D01*
X0164529Y0104156D01*
X0164609Y0104061D01*
X0164687Y0103963D01*
X0164761Y0103863D01*
X0164832Y0103761D01*
X0164899Y0103657D01*
X0164963Y0103550D01*
X0165024Y0103441D01*
X0165081Y0103331D01*
X0165135Y0103219D01*
X0165185Y0103105D01*
X0165232Y0102990D01*
X0165274Y0102873D01*
X0165313Y0102755D01*
X0165349Y0102635D01*
X0165380Y0102515D01*
X0165407Y0102394D01*
X0165431Y0102272D01*
X0165451Y0102149D01*
X0165467Y0102025D01*
X0165479Y0101902D01*
X0165487Y0101778D01*
X0165491Y0101653D01*
X0165491Y0101529D01*
X0165487Y0101404D01*
X0165479Y0101280D01*
X0165467Y0101157D01*
X0165451Y0101033D01*
X0165431Y0100910D01*
X0165407Y0100788D01*
X0165380Y0100667D01*
X0165349Y0100547D01*
X0165313Y0100427D01*
X0165274Y0100309D01*
X0165232Y0100192D01*
X0165185Y0100077D01*
X0165135Y0099963D01*
X0165081Y0099851D01*
X0165024Y0099741D01*
X0164963Y0099632D01*
X0164899Y0099525D01*
X0164832Y0099421D01*
X0164761Y0099319D01*
X0164687Y0099219D01*
X0164609Y0099121D01*
X0164529Y0099026D01*
X0164446Y0098934D01*
X0164360Y0098844D01*
X0164271Y0098757D01*
X0164179Y0098673D01*
X0164085Y0098592D01*
X0163988Y0098514D01*
X0163888Y0098439D01*
X0163787Y0098368D01*
X0163683Y0098299D01*
X0163577Y0098234D01*
X0163469Y0098173D01*
X0163359Y0098115D01*
X0163247Y0098060D01*
X0163134Y0098009D01*
X0163019Y0097962D01*
X0162902Y0097918D01*
X0162784Y0097878D01*
X0162665Y0097842D01*
X0162545Y0097810D01*
X0162424Y0097781D01*
X0162302Y0097756D01*
X0162180Y0097736D01*
X0162056Y0097719D01*
X0161933Y0097706D01*
X0161809Y0097697D01*
X0161684Y0097692D01*
X0161560Y0097691D01*
X0161436Y0097694D01*
X0161311Y0097701D01*
X0161187Y0097712D01*
X0161064Y0097727D01*
X0160941Y0097746D01*
X0160819Y0097768D01*
X0160697Y0097795D01*
X0160577Y0097825D01*
X0160457Y0097859D01*
X0160339Y0097898D01*
X0160221Y0097939D01*
X0160106Y0097985D01*
X0159991Y0098034D01*
X0159879Y0098087D01*
X0159768Y0098143D01*
X0159659Y0098203D01*
X0159552Y0098267D01*
X0159447Y0098333D01*
X0159344Y0098403D01*
X0159244Y0098477D01*
X0159146Y0098553D01*
X0159050Y0098632D01*
X0158957Y0098715D01*
X0158866Y0098800D01*
X0158779Y0098889D01*
X0158694Y0098980D01*
X0158612Y0099074D01*
X0158534Y0099170D01*
X0158458Y0099269D01*
X0158385Y0099370D01*
X0158316Y0099473D01*
X0158250Y0099579D01*
X0158188Y0099686D01*
X0158129Y0099796D01*
X0158073Y0099907D01*
X0158021Y0100020D01*
X0157973Y0100135D01*
X0157929Y0100251D01*
X0157888Y0100368D01*
X0157851Y0100487D01*
X0157817Y0100607D01*
X0157788Y0100727D01*
X0157762Y0100849D01*
X0157740Y0100972D01*
X0157723Y0101095D01*
X0157709Y0101218D01*
X0157699Y0101342D01*
X0157693Y0101467D01*
X0157691Y0101591D01*
X0159641Y0101591D02*
X0159643Y0101679D01*
X0159649Y0101767D01*
X0159659Y0101855D01*
X0159673Y0101942D01*
X0159691Y0102028D01*
X0159712Y0102113D01*
X0159738Y0102198D01*
X0159767Y0102281D01*
X0159800Y0102363D01*
X0159837Y0102443D01*
X0159877Y0102521D01*
X0159921Y0102598D01*
X0159968Y0102672D01*
X0160019Y0102744D01*
X0160072Y0102814D01*
X0160129Y0102882D01*
X0160189Y0102946D01*
X0160252Y0103008D01*
X0160317Y0103067D01*
X0160385Y0103123D01*
X0160456Y0103176D01*
X0160528Y0103226D01*
X0160603Y0103272D01*
X0160680Y0103315D01*
X0160759Y0103355D01*
X0160840Y0103390D01*
X0160922Y0103423D01*
X0161005Y0103451D01*
X0161090Y0103476D01*
X0161176Y0103496D01*
X0161262Y0103513D01*
X0161349Y0103526D01*
X0161437Y0103535D01*
X0161525Y0103540D01*
X0161613Y0103541D01*
X0161701Y0103538D01*
X0161789Y0103531D01*
X0161876Y0103520D01*
X0161963Y0103505D01*
X0162049Y0103486D01*
X0162135Y0103464D01*
X0162219Y0103437D01*
X0162301Y0103407D01*
X0162383Y0103373D01*
X0162463Y0103335D01*
X0162540Y0103294D01*
X0162616Y0103250D01*
X0162690Y0103202D01*
X0162762Y0103150D01*
X0162831Y0103096D01*
X0162898Y0103038D01*
X0162962Y0102978D01*
X0163023Y0102914D01*
X0163082Y0102848D01*
X0163137Y0102780D01*
X0163189Y0102708D01*
X0163238Y0102635D01*
X0163283Y0102560D01*
X0163325Y0102482D01*
X0163364Y0102403D01*
X0163399Y0102322D01*
X0163430Y0102239D01*
X0163457Y0102156D01*
X0163481Y0102071D01*
X0163501Y0101985D01*
X0163517Y0101898D01*
X0163529Y0101811D01*
X0163537Y0101723D01*
X0163541Y0101635D01*
X0163541Y0101547D01*
X0163537Y0101459D01*
X0163529Y0101371D01*
X0163517Y0101284D01*
X0163501Y0101197D01*
X0163481Y0101111D01*
X0163457Y0101026D01*
X0163430Y0100943D01*
X0163399Y0100860D01*
X0163364Y0100779D01*
X0163325Y0100700D01*
X0163283Y0100622D01*
X0163238Y0100547D01*
X0163189Y0100474D01*
X0163137Y0100402D01*
X0163082Y0100334D01*
X0163023Y0100268D01*
X0162962Y0100204D01*
X0162898Y0100144D01*
X0162831Y0100086D01*
X0162762Y0100032D01*
X0162690Y0099980D01*
X0162616Y0099932D01*
X0162540Y0099888D01*
X0162463Y0099847D01*
X0162383Y0099809D01*
X0162301Y0099775D01*
X0162219Y0099745D01*
X0162135Y0099718D01*
X0162049Y0099696D01*
X0161963Y0099677D01*
X0161876Y0099662D01*
X0161789Y0099651D01*
X0161701Y0099644D01*
X0161613Y0099641D01*
X0161525Y0099642D01*
X0161437Y0099647D01*
X0161349Y0099656D01*
X0161262Y0099669D01*
X0161176Y0099686D01*
X0161090Y0099706D01*
X0161005Y0099731D01*
X0160922Y0099759D01*
X0160840Y0099792D01*
X0160759Y0099827D01*
X0160680Y0099867D01*
X0160603Y0099910D01*
X0160528Y0099956D01*
X0160456Y0100006D01*
X0160385Y0100059D01*
X0160317Y0100115D01*
X0160252Y0100174D01*
X0160189Y0100236D01*
X0160129Y0100300D01*
X0160072Y0100368D01*
X0160019Y0100438D01*
X0159968Y0100510D01*
X0159921Y0100584D01*
X0159877Y0100661D01*
X0159837Y0100739D01*
X0159800Y0100819D01*
X0159767Y0100901D01*
X0159738Y0100984D01*
X0159712Y0101069D01*
X0159691Y0101154D01*
X0159673Y0101240D01*
X0159659Y0101327D01*
X0159649Y0101415D01*
X0159643Y0101503D01*
X0159641Y0101591D01*
X0147691Y0111591D02*
X0147693Y0111715D01*
X0147699Y0111840D01*
X0147709Y0111964D01*
X0147723Y0112087D01*
X0147740Y0112210D01*
X0147762Y0112333D01*
X0147788Y0112455D01*
X0147817Y0112575D01*
X0147851Y0112695D01*
X0147888Y0112814D01*
X0147929Y0112931D01*
X0147973Y0113047D01*
X0148021Y0113162D01*
X0148073Y0113275D01*
X0148129Y0113386D01*
X0148188Y0113496D01*
X0148250Y0113603D01*
X0148316Y0113709D01*
X0148385Y0113812D01*
X0148458Y0113913D01*
X0148534Y0114012D01*
X0148612Y0114108D01*
X0148694Y0114202D01*
X0148779Y0114293D01*
X0148866Y0114382D01*
X0148957Y0114467D01*
X0149050Y0114550D01*
X0149146Y0114629D01*
X0149244Y0114705D01*
X0149344Y0114779D01*
X0149447Y0114849D01*
X0149552Y0114915D01*
X0149659Y0114979D01*
X0149768Y0115039D01*
X0149879Y0115095D01*
X0149991Y0115148D01*
X0150106Y0115197D01*
X0150221Y0115243D01*
X0150339Y0115284D01*
X0150457Y0115323D01*
X0150577Y0115357D01*
X0150697Y0115387D01*
X0150819Y0115414D01*
X0150941Y0115436D01*
X0151064Y0115455D01*
X0151187Y0115470D01*
X0151311Y0115481D01*
X0151436Y0115488D01*
X0151560Y0115491D01*
X0151684Y0115490D01*
X0151809Y0115485D01*
X0151933Y0115476D01*
X0152056Y0115463D01*
X0152180Y0115446D01*
X0152302Y0115426D01*
X0152424Y0115401D01*
X0152545Y0115372D01*
X0152665Y0115340D01*
X0152784Y0115304D01*
X0152902Y0115264D01*
X0153019Y0115220D01*
X0153134Y0115173D01*
X0153247Y0115122D01*
X0153359Y0115067D01*
X0153469Y0115009D01*
X0153577Y0114948D01*
X0153683Y0114883D01*
X0153787Y0114814D01*
X0153888Y0114743D01*
X0153988Y0114668D01*
X0154085Y0114590D01*
X0154179Y0114509D01*
X0154271Y0114425D01*
X0154360Y0114338D01*
X0154446Y0114248D01*
X0154529Y0114156D01*
X0154609Y0114061D01*
X0154687Y0113963D01*
X0154761Y0113863D01*
X0154832Y0113761D01*
X0154899Y0113657D01*
X0154963Y0113550D01*
X0155024Y0113441D01*
X0155081Y0113331D01*
X0155135Y0113219D01*
X0155185Y0113105D01*
X0155232Y0112990D01*
X0155274Y0112873D01*
X0155313Y0112755D01*
X0155349Y0112635D01*
X0155380Y0112515D01*
X0155407Y0112394D01*
X0155431Y0112272D01*
X0155451Y0112149D01*
X0155467Y0112025D01*
X0155479Y0111902D01*
X0155487Y0111778D01*
X0155491Y0111653D01*
X0155491Y0111529D01*
X0155487Y0111404D01*
X0155479Y0111280D01*
X0155467Y0111157D01*
X0155451Y0111033D01*
X0155431Y0110910D01*
X0155407Y0110788D01*
X0155380Y0110667D01*
X0155349Y0110547D01*
X0155313Y0110427D01*
X0155274Y0110309D01*
X0155232Y0110192D01*
X0155185Y0110077D01*
X0155135Y0109963D01*
X0155081Y0109851D01*
X0155024Y0109741D01*
X0154963Y0109632D01*
X0154899Y0109525D01*
X0154832Y0109421D01*
X0154761Y0109319D01*
X0154687Y0109219D01*
X0154609Y0109121D01*
X0154529Y0109026D01*
X0154446Y0108934D01*
X0154360Y0108844D01*
X0154271Y0108757D01*
X0154179Y0108673D01*
X0154085Y0108592D01*
X0153988Y0108514D01*
X0153888Y0108439D01*
X0153787Y0108368D01*
X0153683Y0108299D01*
X0153577Y0108234D01*
X0153469Y0108173D01*
X0153359Y0108115D01*
X0153247Y0108060D01*
X0153134Y0108009D01*
X0153019Y0107962D01*
X0152902Y0107918D01*
X0152784Y0107878D01*
X0152665Y0107842D01*
X0152545Y0107810D01*
X0152424Y0107781D01*
X0152302Y0107756D01*
X0152180Y0107736D01*
X0152056Y0107719D01*
X0151933Y0107706D01*
X0151809Y0107697D01*
X0151684Y0107692D01*
X0151560Y0107691D01*
X0151436Y0107694D01*
X0151311Y0107701D01*
X0151187Y0107712D01*
X0151064Y0107727D01*
X0150941Y0107746D01*
X0150819Y0107768D01*
X0150697Y0107795D01*
X0150577Y0107825D01*
X0150457Y0107859D01*
X0150339Y0107898D01*
X0150221Y0107939D01*
X0150106Y0107985D01*
X0149991Y0108034D01*
X0149879Y0108087D01*
X0149768Y0108143D01*
X0149659Y0108203D01*
X0149552Y0108267D01*
X0149447Y0108333D01*
X0149344Y0108403D01*
X0149244Y0108477D01*
X0149146Y0108553D01*
X0149050Y0108632D01*
X0148957Y0108715D01*
X0148866Y0108800D01*
X0148779Y0108889D01*
X0148694Y0108980D01*
X0148612Y0109074D01*
X0148534Y0109170D01*
X0148458Y0109269D01*
X0148385Y0109370D01*
X0148316Y0109473D01*
X0148250Y0109579D01*
X0148188Y0109686D01*
X0148129Y0109796D01*
X0148073Y0109907D01*
X0148021Y0110020D01*
X0147973Y0110135D01*
X0147929Y0110251D01*
X0147888Y0110368D01*
X0147851Y0110487D01*
X0147817Y0110607D01*
X0147788Y0110727D01*
X0147762Y0110849D01*
X0147740Y0110972D01*
X0147723Y0111095D01*
X0147709Y0111218D01*
X0147699Y0111342D01*
X0147693Y0111467D01*
X0147691Y0111591D01*
X0147591Y0107591D02*
X0155591Y0115591D01*
X0137691Y0111591D02*
X0137693Y0111715D01*
X0137699Y0111840D01*
X0137709Y0111964D01*
X0137723Y0112087D01*
X0137740Y0112210D01*
X0137762Y0112333D01*
X0137788Y0112455D01*
X0137817Y0112575D01*
X0137851Y0112695D01*
X0137888Y0112814D01*
X0137929Y0112931D01*
X0137973Y0113047D01*
X0138021Y0113162D01*
X0138073Y0113275D01*
X0138129Y0113386D01*
X0138188Y0113496D01*
X0138250Y0113603D01*
X0138316Y0113709D01*
X0138385Y0113812D01*
X0138458Y0113913D01*
X0138534Y0114012D01*
X0138612Y0114108D01*
X0138694Y0114202D01*
X0138779Y0114293D01*
X0138866Y0114382D01*
X0138957Y0114467D01*
X0139050Y0114550D01*
X0139146Y0114629D01*
X0139244Y0114705D01*
X0139344Y0114779D01*
X0139447Y0114849D01*
X0139552Y0114915D01*
X0139659Y0114979D01*
X0139768Y0115039D01*
X0139879Y0115095D01*
X0139991Y0115148D01*
X0140106Y0115197D01*
X0140221Y0115243D01*
X0140339Y0115284D01*
X0140457Y0115323D01*
X0140577Y0115357D01*
X0140697Y0115387D01*
X0140819Y0115414D01*
X0140941Y0115436D01*
X0141064Y0115455D01*
X0141187Y0115470D01*
X0141311Y0115481D01*
X0141436Y0115488D01*
X0141560Y0115491D01*
X0141684Y0115490D01*
X0141809Y0115485D01*
X0141933Y0115476D01*
X0142056Y0115463D01*
X0142180Y0115446D01*
X0142302Y0115426D01*
X0142424Y0115401D01*
X0142545Y0115372D01*
X0142665Y0115340D01*
X0142784Y0115304D01*
X0142902Y0115264D01*
X0143019Y0115220D01*
X0143134Y0115173D01*
X0143247Y0115122D01*
X0143359Y0115067D01*
X0143469Y0115009D01*
X0143577Y0114948D01*
X0143683Y0114883D01*
X0143787Y0114814D01*
X0143888Y0114743D01*
X0143988Y0114668D01*
X0144085Y0114590D01*
X0144179Y0114509D01*
X0144271Y0114425D01*
X0144360Y0114338D01*
X0144446Y0114248D01*
X0144529Y0114156D01*
X0144609Y0114061D01*
X0144687Y0113963D01*
X0144761Y0113863D01*
X0144832Y0113761D01*
X0144899Y0113657D01*
X0144963Y0113550D01*
X0145024Y0113441D01*
X0145081Y0113331D01*
X0145135Y0113219D01*
X0145185Y0113105D01*
X0145232Y0112990D01*
X0145274Y0112873D01*
X0145313Y0112755D01*
X0145349Y0112635D01*
X0145380Y0112515D01*
X0145407Y0112394D01*
X0145431Y0112272D01*
X0145451Y0112149D01*
X0145467Y0112025D01*
X0145479Y0111902D01*
X0145487Y0111778D01*
X0145491Y0111653D01*
X0145491Y0111529D01*
X0145487Y0111404D01*
X0145479Y0111280D01*
X0145467Y0111157D01*
X0145451Y0111033D01*
X0145431Y0110910D01*
X0145407Y0110788D01*
X0145380Y0110667D01*
X0145349Y0110547D01*
X0145313Y0110427D01*
X0145274Y0110309D01*
X0145232Y0110192D01*
X0145185Y0110077D01*
X0145135Y0109963D01*
X0145081Y0109851D01*
X0145024Y0109741D01*
X0144963Y0109632D01*
X0144899Y0109525D01*
X0144832Y0109421D01*
X0144761Y0109319D01*
X0144687Y0109219D01*
X0144609Y0109121D01*
X0144529Y0109026D01*
X0144446Y0108934D01*
X0144360Y0108844D01*
X0144271Y0108757D01*
X0144179Y0108673D01*
X0144085Y0108592D01*
X0143988Y0108514D01*
X0143888Y0108439D01*
X0143787Y0108368D01*
X0143683Y0108299D01*
X0143577Y0108234D01*
X0143469Y0108173D01*
X0143359Y0108115D01*
X0143247Y0108060D01*
X0143134Y0108009D01*
X0143019Y0107962D01*
X0142902Y0107918D01*
X0142784Y0107878D01*
X0142665Y0107842D01*
X0142545Y0107810D01*
X0142424Y0107781D01*
X0142302Y0107756D01*
X0142180Y0107736D01*
X0142056Y0107719D01*
X0141933Y0107706D01*
X0141809Y0107697D01*
X0141684Y0107692D01*
X0141560Y0107691D01*
X0141436Y0107694D01*
X0141311Y0107701D01*
X0141187Y0107712D01*
X0141064Y0107727D01*
X0140941Y0107746D01*
X0140819Y0107768D01*
X0140697Y0107795D01*
X0140577Y0107825D01*
X0140457Y0107859D01*
X0140339Y0107898D01*
X0140221Y0107939D01*
X0140106Y0107985D01*
X0139991Y0108034D01*
X0139879Y0108087D01*
X0139768Y0108143D01*
X0139659Y0108203D01*
X0139552Y0108267D01*
X0139447Y0108333D01*
X0139344Y0108403D01*
X0139244Y0108477D01*
X0139146Y0108553D01*
X0139050Y0108632D01*
X0138957Y0108715D01*
X0138866Y0108800D01*
X0138779Y0108889D01*
X0138694Y0108980D01*
X0138612Y0109074D01*
X0138534Y0109170D01*
X0138458Y0109269D01*
X0138385Y0109370D01*
X0138316Y0109473D01*
X0138250Y0109579D01*
X0138188Y0109686D01*
X0138129Y0109796D01*
X0138073Y0109907D01*
X0138021Y0110020D01*
X0137973Y0110135D01*
X0137929Y0110251D01*
X0137888Y0110368D01*
X0137851Y0110487D01*
X0137817Y0110607D01*
X0137788Y0110727D01*
X0137762Y0110849D01*
X0137740Y0110972D01*
X0137723Y0111095D01*
X0137709Y0111218D01*
X0137699Y0111342D01*
X0137693Y0111467D01*
X0137691Y0111591D01*
X0137591Y0107591D02*
X0145591Y0115591D01*
X0127691Y0111591D02*
X0127693Y0111715D01*
X0127699Y0111840D01*
X0127709Y0111964D01*
X0127723Y0112087D01*
X0127740Y0112210D01*
X0127762Y0112333D01*
X0127788Y0112455D01*
X0127817Y0112575D01*
X0127851Y0112695D01*
X0127888Y0112814D01*
X0127929Y0112931D01*
X0127973Y0113047D01*
X0128021Y0113162D01*
X0128073Y0113275D01*
X0128129Y0113386D01*
X0128188Y0113496D01*
X0128250Y0113603D01*
X0128316Y0113709D01*
X0128385Y0113812D01*
X0128458Y0113913D01*
X0128534Y0114012D01*
X0128612Y0114108D01*
X0128694Y0114202D01*
X0128779Y0114293D01*
X0128866Y0114382D01*
X0128957Y0114467D01*
X0129050Y0114550D01*
X0129146Y0114629D01*
X0129244Y0114705D01*
X0129344Y0114779D01*
X0129447Y0114849D01*
X0129552Y0114915D01*
X0129659Y0114979D01*
X0129768Y0115039D01*
X0129879Y0115095D01*
X0129991Y0115148D01*
X0130106Y0115197D01*
X0130221Y0115243D01*
X0130339Y0115284D01*
X0130457Y0115323D01*
X0130577Y0115357D01*
X0130697Y0115387D01*
X0130819Y0115414D01*
X0130941Y0115436D01*
X0131064Y0115455D01*
X0131187Y0115470D01*
X0131311Y0115481D01*
X0131436Y0115488D01*
X0131560Y0115491D01*
X0131684Y0115490D01*
X0131809Y0115485D01*
X0131933Y0115476D01*
X0132056Y0115463D01*
X0132180Y0115446D01*
X0132302Y0115426D01*
X0132424Y0115401D01*
X0132545Y0115372D01*
X0132665Y0115340D01*
X0132784Y0115304D01*
X0132902Y0115264D01*
X0133019Y0115220D01*
X0133134Y0115173D01*
X0133247Y0115122D01*
X0133359Y0115067D01*
X0133469Y0115009D01*
X0133577Y0114948D01*
X0133683Y0114883D01*
X0133787Y0114814D01*
X0133888Y0114743D01*
X0133988Y0114668D01*
X0134085Y0114590D01*
X0134179Y0114509D01*
X0134271Y0114425D01*
X0134360Y0114338D01*
X0134446Y0114248D01*
X0134529Y0114156D01*
X0134609Y0114061D01*
X0134687Y0113963D01*
X0134761Y0113863D01*
X0134832Y0113761D01*
X0134899Y0113657D01*
X0134963Y0113550D01*
X0135024Y0113441D01*
X0135081Y0113331D01*
X0135135Y0113219D01*
X0135185Y0113105D01*
X0135232Y0112990D01*
X0135274Y0112873D01*
X0135313Y0112755D01*
X0135349Y0112635D01*
X0135380Y0112515D01*
X0135407Y0112394D01*
X0135431Y0112272D01*
X0135451Y0112149D01*
X0135467Y0112025D01*
X0135479Y0111902D01*
X0135487Y0111778D01*
X0135491Y0111653D01*
X0135491Y0111529D01*
X0135487Y0111404D01*
X0135479Y0111280D01*
X0135467Y0111157D01*
X0135451Y0111033D01*
X0135431Y0110910D01*
X0135407Y0110788D01*
X0135380Y0110667D01*
X0135349Y0110547D01*
X0135313Y0110427D01*
X0135274Y0110309D01*
X0135232Y0110192D01*
X0135185Y0110077D01*
X0135135Y0109963D01*
X0135081Y0109851D01*
X0135024Y0109741D01*
X0134963Y0109632D01*
X0134899Y0109525D01*
X0134832Y0109421D01*
X0134761Y0109319D01*
X0134687Y0109219D01*
X0134609Y0109121D01*
X0134529Y0109026D01*
X0134446Y0108934D01*
X0134360Y0108844D01*
X0134271Y0108757D01*
X0134179Y0108673D01*
X0134085Y0108592D01*
X0133988Y0108514D01*
X0133888Y0108439D01*
X0133787Y0108368D01*
X0133683Y0108299D01*
X0133577Y0108234D01*
X0133469Y0108173D01*
X0133359Y0108115D01*
X0133247Y0108060D01*
X0133134Y0108009D01*
X0133019Y0107962D01*
X0132902Y0107918D01*
X0132784Y0107878D01*
X0132665Y0107842D01*
X0132545Y0107810D01*
X0132424Y0107781D01*
X0132302Y0107756D01*
X0132180Y0107736D01*
X0132056Y0107719D01*
X0131933Y0107706D01*
X0131809Y0107697D01*
X0131684Y0107692D01*
X0131560Y0107691D01*
X0131436Y0107694D01*
X0131311Y0107701D01*
X0131187Y0107712D01*
X0131064Y0107727D01*
X0130941Y0107746D01*
X0130819Y0107768D01*
X0130697Y0107795D01*
X0130577Y0107825D01*
X0130457Y0107859D01*
X0130339Y0107898D01*
X0130221Y0107939D01*
X0130106Y0107985D01*
X0129991Y0108034D01*
X0129879Y0108087D01*
X0129768Y0108143D01*
X0129659Y0108203D01*
X0129552Y0108267D01*
X0129447Y0108333D01*
X0129344Y0108403D01*
X0129244Y0108477D01*
X0129146Y0108553D01*
X0129050Y0108632D01*
X0128957Y0108715D01*
X0128866Y0108800D01*
X0128779Y0108889D01*
X0128694Y0108980D01*
X0128612Y0109074D01*
X0128534Y0109170D01*
X0128458Y0109269D01*
X0128385Y0109370D01*
X0128316Y0109473D01*
X0128250Y0109579D01*
X0128188Y0109686D01*
X0128129Y0109796D01*
X0128073Y0109907D01*
X0128021Y0110020D01*
X0127973Y0110135D01*
X0127929Y0110251D01*
X0127888Y0110368D01*
X0127851Y0110487D01*
X0127817Y0110607D01*
X0127788Y0110727D01*
X0127762Y0110849D01*
X0127740Y0110972D01*
X0127723Y0111095D01*
X0127709Y0111218D01*
X0127699Y0111342D01*
X0127693Y0111467D01*
X0127691Y0111591D01*
X0127591Y0107591D02*
X0135591Y0115591D01*
X0122691Y0136591D02*
X0122693Y0136715D01*
X0122699Y0136840D01*
X0122709Y0136964D01*
X0122723Y0137087D01*
X0122740Y0137210D01*
X0122762Y0137333D01*
X0122788Y0137455D01*
X0122817Y0137575D01*
X0122851Y0137695D01*
X0122888Y0137814D01*
X0122929Y0137931D01*
X0122973Y0138047D01*
X0123021Y0138162D01*
X0123073Y0138275D01*
X0123129Y0138386D01*
X0123188Y0138496D01*
X0123250Y0138603D01*
X0123316Y0138709D01*
X0123385Y0138812D01*
X0123458Y0138913D01*
X0123534Y0139012D01*
X0123612Y0139108D01*
X0123694Y0139202D01*
X0123779Y0139293D01*
X0123866Y0139382D01*
X0123957Y0139467D01*
X0124050Y0139550D01*
X0124146Y0139629D01*
X0124244Y0139705D01*
X0124344Y0139779D01*
X0124447Y0139849D01*
X0124552Y0139915D01*
X0124659Y0139979D01*
X0124768Y0140039D01*
X0124879Y0140095D01*
X0124991Y0140148D01*
X0125106Y0140197D01*
X0125221Y0140243D01*
X0125339Y0140284D01*
X0125457Y0140323D01*
X0125577Y0140357D01*
X0125697Y0140387D01*
X0125819Y0140414D01*
X0125941Y0140436D01*
X0126064Y0140455D01*
X0126187Y0140470D01*
X0126311Y0140481D01*
X0126436Y0140488D01*
X0126560Y0140491D01*
X0126684Y0140490D01*
X0126809Y0140485D01*
X0126933Y0140476D01*
X0127056Y0140463D01*
X0127180Y0140446D01*
X0127302Y0140426D01*
X0127424Y0140401D01*
X0127545Y0140372D01*
X0127665Y0140340D01*
X0127784Y0140304D01*
X0127902Y0140264D01*
X0128019Y0140220D01*
X0128134Y0140173D01*
X0128247Y0140122D01*
X0128359Y0140067D01*
X0128469Y0140009D01*
X0128577Y0139948D01*
X0128683Y0139883D01*
X0128787Y0139814D01*
X0128888Y0139743D01*
X0128988Y0139668D01*
X0129085Y0139590D01*
X0129179Y0139509D01*
X0129271Y0139425D01*
X0129360Y0139338D01*
X0129446Y0139248D01*
X0129529Y0139156D01*
X0129609Y0139061D01*
X0129687Y0138963D01*
X0129761Y0138863D01*
X0129832Y0138761D01*
X0129899Y0138657D01*
X0129963Y0138550D01*
X0130024Y0138441D01*
X0130081Y0138331D01*
X0130135Y0138219D01*
X0130185Y0138105D01*
X0130232Y0137990D01*
X0130274Y0137873D01*
X0130313Y0137755D01*
X0130349Y0137635D01*
X0130380Y0137515D01*
X0130407Y0137394D01*
X0130431Y0137272D01*
X0130451Y0137149D01*
X0130467Y0137025D01*
X0130479Y0136902D01*
X0130487Y0136778D01*
X0130491Y0136653D01*
X0130491Y0136529D01*
X0130487Y0136404D01*
X0130479Y0136280D01*
X0130467Y0136157D01*
X0130451Y0136033D01*
X0130431Y0135910D01*
X0130407Y0135788D01*
X0130380Y0135667D01*
X0130349Y0135547D01*
X0130313Y0135427D01*
X0130274Y0135309D01*
X0130232Y0135192D01*
X0130185Y0135077D01*
X0130135Y0134963D01*
X0130081Y0134851D01*
X0130024Y0134741D01*
X0129963Y0134632D01*
X0129899Y0134525D01*
X0129832Y0134421D01*
X0129761Y0134319D01*
X0129687Y0134219D01*
X0129609Y0134121D01*
X0129529Y0134026D01*
X0129446Y0133934D01*
X0129360Y0133844D01*
X0129271Y0133757D01*
X0129179Y0133673D01*
X0129085Y0133592D01*
X0128988Y0133514D01*
X0128888Y0133439D01*
X0128787Y0133368D01*
X0128683Y0133299D01*
X0128577Y0133234D01*
X0128469Y0133173D01*
X0128359Y0133115D01*
X0128247Y0133060D01*
X0128134Y0133009D01*
X0128019Y0132962D01*
X0127902Y0132918D01*
X0127784Y0132878D01*
X0127665Y0132842D01*
X0127545Y0132810D01*
X0127424Y0132781D01*
X0127302Y0132756D01*
X0127180Y0132736D01*
X0127056Y0132719D01*
X0126933Y0132706D01*
X0126809Y0132697D01*
X0126684Y0132692D01*
X0126560Y0132691D01*
X0126436Y0132694D01*
X0126311Y0132701D01*
X0126187Y0132712D01*
X0126064Y0132727D01*
X0125941Y0132746D01*
X0125819Y0132768D01*
X0125697Y0132795D01*
X0125577Y0132825D01*
X0125457Y0132859D01*
X0125339Y0132898D01*
X0125221Y0132939D01*
X0125106Y0132985D01*
X0124991Y0133034D01*
X0124879Y0133087D01*
X0124768Y0133143D01*
X0124659Y0133203D01*
X0124552Y0133267D01*
X0124447Y0133333D01*
X0124344Y0133403D01*
X0124244Y0133477D01*
X0124146Y0133553D01*
X0124050Y0133632D01*
X0123957Y0133715D01*
X0123866Y0133800D01*
X0123779Y0133889D01*
X0123694Y0133980D01*
X0123612Y0134074D01*
X0123534Y0134170D01*
X0123458Y0134269D01*
X0123385Y0134370D01*
X0123316Y0134473D01*
X0123250Y0134579D01*
X0123188Y0134686D01*
X0123129Y0134796D01*
X0123073Y0134907D01*
X0123021Y0135020D01*
X0122973Y0135135D01*
X0122929Y0135251D01*
X0122888Y0135368D01*
X0122851Y0135487D01*
X0122817Y0135607D01*
X0122788Y0135727D01*
X0122762Y0135849D01*
X0122740Y0135972D01*
X0122723Y0136095D01*
X0122709Y0136218D01*
X0122699Y0136342D01*
X0122693Y0136467D01*
X0122691Y0136591D01*
X0122591Y0132591D02*
X0130591Y0140591D01*
X0122691Y0146591D02*
X0122693Y0146715D01*
X0122699Y0146840D01*
X0122709Y0146964D01*
X0122723Y0147087D01*
X0122740Y0147210D01*
X0122762Y0147333D01*
X0122788Y0147455D01*
X0122817Y0147575D01*
X0122851Y0147695D01*
X0122888Y0147814D01*
X0122929Y0147931D01*
X0122973Y0148047D01*
X0123021Y0148162D01*
X0123073Y0148275D01*
X0123129Y0148386D01*
X0123188Y0148496D01*
X0123250Y0148603D01*
X0123316Y0148709D01*
X0123385Y0148812D01*
X0123458Y0148913D01*
X0123534Y0149012D01*
X0123612Y0149108D01*
X0123694Y0149202D01*
X0123779Y0149293D01*
X0123866Y0149382D01*
X0123957Y0149467D01*
X0124050Y0149550D01*
X0124146Y0149629D01*
X0124244Y0149705D01*
X0124344Y0149779D01*
X0124447Y0149849D01*
X0124552Y0149915D01*
X0124659Y0149979D01*
X0124768Y0150039D01*
X0124879Y0150095D01*
X0124991Y0150148D01*
X0125106Y0150197D01*
X0125221Y0150243D01*
X0125339Y0150284D01*
X0125457Y0150323D01*
X0125577Y0150357D01*
X0125697Y0150387D01*
X0125819Y0150414D01*
X0125941Y0150436D01*
X0126064Y0150455D01*
X0126187Y0150470D01*
X0126311Y0150481D01*
X0126436Y0150488D01*
X0126560Y0150491D01*
X0126684Y0150490D01*
X0126809Y0150485D01*
X0126933Y0150476D01*
X0127056Y0150463D01*
X0127180Y0150446D01*
X0127302Y0150426D01*
X0127424Y0150401D01*
X0127545Y0150372D01*
X0127665Y0150340D01*
X0127784Y0150304D01*
X0127902Y0150264D01*
X0128019Y0150220D01*
X0128134Y0150173D01*
X0128247Y0150122D01*
X0128359Y0150067D01*
X0128469Y0150009D01*
X0128577Y0149948D01*
X0128683Y0149883D01*
X0128787Y0149814D01*
X0128888Y0149743D01*
X0128988Y0149668D01*
X0129085Y0149590D01*
X0129179Y0149509D01*
X0129271Y0149425D01*
X0129360Y0149338D01*
X0129446Y0149248D01*
X0129529Y0149156D01*
X0129609Y0149061D01*
X0129687Y0148963D01*
X0129761Y0148863D01*
X0129832Y0148761D01*
X0129899Y0148657D01*
X0129963Y0148550D01*
X0130024Y0148441D01*
X0130081Y0148331D01*
X0130135Y0148219D01*
X0130185Y0148105D01*
X0130232Y0147990D01*
X0130274Y0147873D01*
X0130313Y0147755D01*
X0130349Y0147635D01*
X0130380Y0147515D01*
X0130407Y0147394D01*
X0130431Y0147272D01*
X0130451Y0147149D01*
X0130467Y0147025D01*
X0130479Y0146902D01*
X0130487Y0146778D01*
X0130491Y0146653D01*
X0130491Y0146529D01*
X0130487Y0146404D01*
X0130479Y0146280D01*
X0130467Y0146157D01*
X0130451Y0146033D01*
X0130431Y0145910D01*
X0130407Y0145788D01*
X0130380Y0145667D01*
X0130349Y0145547D01*
X0130313Y0145427D01*
X0130274Y0145309D01*
X0130232Y0145192D01*
X0130185Y0145077D01*
X0130135Y0144963D01*
X0130081Y0144851D01*
X0130024Y0144741D01*
X0129963Y0144632D01*
X0129899Y0144525D01*
X0129832Y0144421D01*
X0129761Y0144319D01*
X0129687Y0144219D01*
X0129609Y0144121D01*
X0129529Y0144026D01*
X0129446Y0143934D01*
X0129360Y0143844D01*
X0129271Y0143757D01*
X0129179Y0143673D01*
X0129085Y0143592D01*
X0128988Y0143514D01*
X0128888Y0143439D01*
X0128787Y0143368D01*
X0128683Y0143299D01*
X0128577Y0143234D01*
X0128469Y0143173D01*
X0128359Y0143115D01*
X0128247Y0143060D01*
X0128134Y0143009D01*
X0128019Y0142962D01*
X0127902Y0142918D01*
X0127784Y0142878D01*
X0127665Y0142842D01*
X0127545Y0142810D01*
X0127424Y0142781D01*
X0127302Y0142756D01*
X0127180Y0142736D01*
X0127056Y0142719D01*
X0126933Y0142706D01*
X0126809Y0142697D01*
X0126684Y0142692D01*
X0126560Y0142691D01*
X0126436Y0142694D01*
X0126311Y0142701D01*
X0126187Y0142712D01*
X0126064Y0142727D01*
X0125941Y0142746D01*
X0125819Y0142768D01*
X0125697Y0142795D01*
X0125577Y0142825D01*
X0125457Y0142859D01*
X0125339Y0142898D01*
X0125221Y0142939D01*
X0125106Y0142985D01*
X0124991Y0143034D01*
X0124879Y0143087D01*
X0124768Y0143143D01*
X0124659Y0143203D01*
X0124552Y0143267D01*
X0124447Y0143333D01*
X0124344Y0143403D01*
X0124244Y0143477D01*
X0124146Y0143553D01*
X0124050Y0143632D01*
X0123957Y0143715D01*
X0123866Y0143800D01*
X0123779Y0143889D01*
X0123694Y0143980D01*
X0123612Y0144074D01*
X0123534Y0144170D01*
X0123458Y0144269D01*
X0123385Y0144370D01*
X0123316Y0144473D01*
X0123250Y0144579D01*
X0123188Y0144686D01*
X0123129Y0144796D01*
X0123073Y0144907D01*
X0123021Y0145020D01*
X0122973Y0145135D01*
X0122929Y0145251D01*
X0122888Y0145368D01*
X0122851Y0145487D01*
X0122817Y0145607D01*
X0122788Y0145727D01*
X0122762Y0145849D01*
X0122740Y0145972D01*
X0122723Y0146095D01*
X0122709Y0146218D01*
X0122699Y0146342D01*
X0122693Y0146467D01*
X0122691Y0146591D01*
X0122591Y0142591D02*
X0130591Y0150591D01*
X0112691Y0136591D02*
X0112693Y0136715D01*
X0112699Y0136840D01*
X0112709Y0136964D01*
X0112723Y0137087D01*
X0112740Y0137210D01*
X0112762Y0137333D01*
X0112788Y0137455D01*
X0112817Y0137575D01*
X0112851Y0137695D01*
X0112888Y0137814D01*
X0112929Y0137931D01*
X0112973Y0138047D01*
X0113021Y0138162D01*
X0113073Y0138275D01*
X0113129Y0138386D01*
X0113188Y0138496D01*
X0113250Y0138603D01*
X0113316Y0138709D01*
X0113385Y0138812D01*
X0113458Y0138913D01*
X0113534Y0139012D01*
X0113612Y0139108D01*
X0113694Y0139202D01*
X0113779Y0139293D01*
X0113866Y0139382D01*
X0113957Y0139467D01*
X0114050Y0139550D01*
X0114146Y0139629D01*
X0114244Y0139705D01*
X0114344Y0139779D01*
X0114447Y0139849D01*
X0114552Y0139915D01*
X0114659Y0139979D01*
X0114768Y0140039D01*
X0114879Y0140095D01*
X0114991Y0140148D01*
X0115106Y0140197D01*
X0115221Y0140243D01*
X0115339Y0140284D01*
X0115457Y0140323D01*
X0115577Y0140357D01*
X0115697Y0140387D01*
X0115819Y0140414D01*
X0115941Y0140436D01*
X0116064Y0140455D01*
X0116187Y0140470D01*
X0116311Y0140481D01*
X0116436Y0140488D01*
X0116560Y0140491D01*
X0116684Y0140490D01*
X0116809Y0140485D01*
X0116933Y0140476D01*
X0117056Y0140463D01*
X0117180Y0140446D01*
X0117302Y0140426D01*
X0117424Y0140401D01*
X0117545Y0140372D01*
X0117665Y0140340D01*
X0117784Y0140304D01*
X0117902Y0140264D01*
X0118019Y0140220D01*
X0118134Y0140173D01*
X0118247Y0140122D01*
X0118359Y0140067D01*
X0118469Y0140009D01*
X0118577Y0139948D01*
X0118683Y0139883D01*
X0118787Y0139814D01*
X0118888Y0139743D01*
X0118988Y0139668D01*
X0119085Y0139590D01*
X0119179Y0139509D01*
X0119271Y0139425D01*
X0119360Y0139338D01*
X0119446Y0139248D01*
X0119529Y0139156D01*
X0119609Y0139061D01*
X0119687Y0138963D01*
X0119761Y0138863D01*
X0119832Y0138761D01*
X0119899Y0138657D01*
X0119963Y0138550D01*
X0120024Y0138441D01*
X0120081Y0138331D01*
X0120135Y0138219D01*
X0120185Y0138105D01*
X0120232Y0137990D01*
X0120274Y0137873D01*
X0120313Y0137755D01*
X0120349Y0137635D01*
X0120380Y0137515D01*
X0120407Y0137394D01*
X0120431Y0137272D01*
X0120451Y0137149D01*
X0120467Y0137025D01*
X0120479Y0136902D01*
X0120487Y0136778D01*
X0120491Y0136653D01*
X0120491Y0136529D01*
X0120487Y0136404D01*
X0120479Y0136280D01*
X0120467Y0136157D01*
X0120451Y0136033D01*
X0120431Y0135910D01*
X0120407Y0135788D01*
X0120380Y0135667D01*
X0120349Y0135547D01*
X0120313Y0135427D01*
X0120274Y0135309D01*
X0120232Y0135192D01*
X0120185Y0135077D01*
X0120135Y0134963D01*
X0120081Y0134851D01*
X0120024Y0134741D01*
X0119963Y0134632D01*
X0119899Y0134525D01*
X0119832Y0134421D01*
X0119761Y0134319D01*
X0119687Y0134219D01*
X0119609Y0134121D01*
X0119529Y0134026D01*
X0119446Y0133934D01*
X0119360Y0133844D01*
X0119271Y0133757D01*
X0119179Y0133673D01*
X0119085Y0133592D01*
X0118988Y0133514D01*
X0118888Y0133439D01*
X0118787Y0133368D01*
X0118683Y0133299D01*
X0118577Y0133234D01*
X0118469Y0133173D01*
X0118359Y0133115D01*
X0118247Y0133060D01*
X0118134Y0133009D01*
X0118019Y0132962D01*
X0117902Y0132918D01*
X0117784Y0132878D01*
X0117665Y0132842D01*
X0117545Y0132810D01*
X0117424Y0132781D01*
X0117302Y0132756D01*
X0117180Y0132736D01*
X0117056Y0132719D01*
X0116933Y0132706D01*
X0116809Y0132697D01*
X0116684Y0132692D01*
X0116560Y0132691D01*
X0116436Y0132694D01*
X0116311Y0132701D01*
X0116187Y0132712D01*
X0116064Y0132727D01*
X0115941Y0132746D01*
X0115819Y0132768D01*
X0115697Y0132795D01*
X0115577Y0132825D01*
X0115457Y0132859D01*
X0115339Y0132898D01*
X0115221Y0132939D01*
X0115106Y0132985D01*
X0114991Y0133034D01*
X0114879Y0133087D01*
X0114768Y0133143D01*
X0114659Y0133203D01*
X0114552Y0133267D01*
X0114447Y0133333D01*
X0114344Y0133403D01*
X0114244Y0133477D01*
X0114146Y0133553D01*
X0114050Y0133632D01*
X0113957Y0133715D01*
X0113866Y0133800D01*
X0113779Y0133889D01*
X0113694Y0133980D01*
X0113612Y0134074D01*
X0113534Y0134170D01*
X0113458Y0134269D01*
X0113385Y0134370D01*
X0113316Y0134473D01*
X0113250Y0134579D01*
X0113188Y0134686D01*
X0113129Y0134796D01*
X0113073Y0134907D01*
X0113021Y0135020D01*
X0112973Y0135135D01*
X0112929Y0135251D01*
X0112888Y0135368D01*
X0112851Y0135487D01*
X0112817Y0135607D01*
X0112788Y0135727D01*
X0112762Y0135849D01*
X0112740Y0135972D01*
X0112723Y0136095D01*
X0112709Y0136218D01*
X0112699Y0136342D01*
X0112693Y0136467D01*
X0112691Y0136591D01*
X0112591Y0132591D02*
X0120591Y0140591D01*
X0097691Y0146591D02*
X0097693Y0146715D01*
X0097699Y0146840D01*
X0097709Y0146964D01*
X0097723Y0147087D01*
X0097740Y0147210D01*
X0097762Y0147333D01*
X0097788Y0147455D01*
X0097817Y0147575D01*
X0097851Y0147695D01*
X0097888Y0147814D01*
X0097929Y0147931D01*
X0097973Y0148047D01*
X0098021Y0148162D01*
X0098073Y0148275D01*
X0098129Y0148386D01*
X0098188Y0148496D01*
X0098250Y0148603D01*
X0098316Y0148709D01*
X0098385Y0148812D01*
X0098458Y0148913D01*
X0098534Y0149012D01*
X0098612Y0149108D01*
X0098694Y0149202D01*
X0098779Y0149293D01*
X0098866Y0149382D01*
X0098957Y0149467D01*
X0099050Y0149550D01*
X0099146Y0149629D01*
X0099244Y0149705D01*
X0099344Y0149779D01*
X0099447Y0149849D01*
X0099552Y0149915D01*
X0099659Y0149979D01*
X0099768Y0150039D01*
X0099879Y0150095D01*
X0099991Y0150148D01*
X0100106Y0150197D01*
X0100221Y0150243D01*
X0100339Y0150284D01*
X0100457Y0150323D01*
X0100577Y0150357D01*
X0100697Y0150387D01*
X0100819Y0150414D01*
X0100941Y0150436D01*
X0101064Y0150455D01*
X0101187Y0150470D01*
X0101311Y0150481D01*
X0101436Y0150488D01*
X0101560Y0150491D01*
X0101684Y0150490D01*
X0101809Y0150485D01*
X0101933Y0150476D01*
X0102056Y0150463D01*
X0102180Y0150446D01*
X0102302Y0150426D01*
X0102424Y0150401D01*
X0102545Y0150372D01*
X0102665Y0150340D01*
X0102784Y0150304D01*
X0102902Y0150264D01*
X0103019Y0150220D01*
X0103134Y0150173D01*
X0103247Y0150122D01*
X0103359Y0150067D01*
X0103469Y0150009D01*
X0103577Y0149948D01*
X0103683Y0149883D01*
X0103787Y0149814D01*
X0103888Y0149743D01*
X0103988Y0149668D01*
X0104085Y0149590D01*
X0104179Y0149509D01*
X0104271Y0149425D01*
X0104360Y0149338D01*
X0104446Y0149248D01*
X0104529Y0149156D01*
X0104609Y0149061D01*
X0104687Y0148963D01*
X0104761Y0148863D01*
X0104832Y0148761D01*
X0104899Y0148657D01*
X0104963Y0148550D01*
X0105024Y0148441D01*
X0105081Y0148331D01*
X0105135Y0148219D01*
X0105185Y0148105D01*
X0105232Y0147990D01*
X0105274Y0147873D01*
X0105313Y0147755D01*
X0105349Y0147635D01*
X0105380Y0147515D01*
X0105407Y0147394D01*
X0105431Y0147272D01*
X0105451Y0147149D01*
X0105467Y0147025D01*
X0105479Y0146902D01*
X0105487Y0146778D01*
X0105491Y0146653D01*
X0105491Y0146529D01*
X0105487Y0146404D01*
X0105479Y0146280D01*
X0105467Y0146157D01*
X0105451Y0146033D01*
X0105431Y0145910D01*
X0105407Y0145788D01*
X0105380Y0145667D01*
X0105349Y0145547D01*
X0105313Y0145427D01*
X0105274Y0145309D01*
X0105232Y0145192D01*
X0105185Y0145077D01*
X0105135Y0144963D01*
X0105081Y0144851D01*
X0105024Y0144741D01*
X0104963Y0144632D01*
X0104899Y0144525D01*
X0104832Y0144421D01*
X0104761Y0144319D01*
X0104687Y0144219D01*
X0104609Y0144121D01*
X0104529Y0144026D01*
X0104446Y0143934D01*
X0104360Y0143844D01*
X0104271Y0143757D01*
X0104179Y0143673D01*
X0104085Y0143592D01*
X0103988Y0143514D01*
X0103888Y0143439D01*
X0103787Y0143368D01*
X0103683Y0143299D01*
X0103577Y0143234D01*
X0103469Y0143173D01*
X0103359Y0143115D01*
X0103247Y0143060D01*
X0103134Y0143009D01*
X0103019Y0142962D01*
X0102902Y0142918D01*
X0102784Y0142878D01*
X0102665Y0142842D01*
X0102545Y0142810D01*
X0102424Y0142781D01*
X0102302Y0142756D01*
X0102180Y0142736D01*
X0102056Y0142719D01*
X0101933Y0142706D01*
X0101809Y0142697D01*
X0101684Y0142692D01*
X0101560Y0142691D01*
X0101436Y0142694D01*
X0101311Y0142701D01*
X0101187Y0142712D01*
X0101064Y0142727D01*
X0100941Y0142746D01*
X0100819Y0142768D01*
X0100697Y0142795D01*
X0100577Y0142825D01*
X0100457Y0142859D01*
X0100339Y0142898D01*
X0100221Y0142939D01*
X0100106Y0142985D01*
X0099991Y0143034D01*
X0099879Y0143087D01*
X0099768Y0143143D01*
X0099659Y0143203D01*
X0099552Y0143267D01*
X0099447Y0143333D01*
X0099344Y0143403D01*
X0099244Y0143477D01*
X0099146Y0143553D01*
X0099050Y0143632D01*
X0098957Y0143715D01*
X0098866Y0143800D01*
X0098779Y0143889D01*
X0098694Y0143980D01*
X0098612Y0144074D01*
X0098534Y0144170D01*
X0098458Y0144269D01*
X0098385Y0144370D01*
X0098316Y0144473D01*
X0098250Y0144579D01*
X0098188Y0144686D01*
X0098129Y0144796D01*
X0098073Y0144907D01*
X0098021Y0145020D01*
X0097973Y0145135D01*
X0097929Y0145251D01*
X0097888Y0145368D01*
X0097851Y0145487D01*
X0097817Y0145607D01*
X0097788Y0145727D01*
X0097762Y0145849D01*
X0097740Y0145972D01*
X0097723Y0146095D01*
X0097709Y0146218D01*
X0097699Y0146342D01*
X0097693Y0146467D01*
X0097691Y0146591D01*
X0097591Y0142591D02*
X0105591Y0150591D01*
X0127691Y0056591D02*
X0127693Y0056715D01*
X0127699Y0056840D01*
X0127709Y0056964D01*
X0127723Y0057087D01*
X0127740Y0057210D01*
X0127762Y0057333D01*
X0127788Y0057455D01*
X0127817Y0057575D01*
X0127851Y0057695D01*
X0127888Y0057814D01*
X0127929Y0057931D01*
X0127973Y0058047D01*
X0128021Y0058162D01*
X0128073Y0058275D01*
X0128129Y0058386D01*
X0128188Y0058496D01*
X0128250Y0058603D01*
X0128316Y0058709D01*
X0128385Y0058812D01*
X0128458Y0058913D01*
X0128534Y0059012D01*
X0128612Y0059108D01*
X0128694Y0059202D01*
X0128779Y0059293D01*
X0128866Y0059382D01*
X0128957Y0059467D01*
X0129050Y0059550D01*
X0129146Y0059629D01*
X0129244Y0059705D01*
X0129344Y0059779D01*
X0129447Y0059849D01*
X0129552Y0059915D01*
X0129659Y0059979D01*
X0129768Y0060039D01*
X0129879Y0060095D01*
X0129991Y0060148D01*
X0130106Y0060197D01*
X0130221Y0060243D01*
X0130339Y0060284D01*
X0130457Y0060323D01*
X0130577Y0060357D01*
X0130697Y0060387D01*
X0130819Y0060414D01*
X0130941Y0060436D01*
X0131064Y0060455D01*
X0131187Y0060470D01*
X0131311Y0060481D01*
X0131436Y0060488D01*
X0131560Y0060491D01*
X0131684Y0060490D01*
X0131809Y0060485D01*
X0131933Y0060476D01*
X0132056Y0060463D01*
X0132180Y0060446D01*
X0132302Y0060426D01*
X0132424Y0060401D01*
X0132545Y0060372D01*
X0132665Y0060340D01*
X0132784Y0060304D01*
X0132902Y0060264D01*
X0133019Y0060220D01*
X0133134Y0060173D01*
X0133247Y0060122D01*
X0133359Y0060067D01*
X0133469Y0060009D01*
X0133577Y0059948D01*
X0133683Y0059883D01*
X0133787Y0059814D01*
X0133888Y0059743D01*
X0133988Y0059668D01*
X0134085Y0059590D01*
X0134179Y0059509D01*
X0134271Y0059425D01*
X0134360Y0059338D01*
X0134446Y0059248D01*
X0134529Y0059156D01*
X0134609Y0059061D01*
X0134687Y0058963D01*
X0134761Y0058863D01*
X0134832Y0058761D01*
X0134899Y0058657D01*
X0134963Y0058550D01*
X0135024Y0058441D01*
X0135081Y0058331D01*
X0135135Y0058219D01*
X0135185Y0058105D01*
X0135232Y0057990D01*
X0135274Y0057873D01*
X0135313Y0057755D01*
X0135349Y0057635D01*
X0135380Y0057515D01*
X0135407Y0057394D01*
X0135431Y0057272D01*
X0135451Y0057149D01*
X0135467Y0057025D01*
X0135479Y0056902D01*
X0135487Y0056778D01*
X0135491Y0056653D01*
X0135491Y0056529D01*
X0135487Y0056404D01*
X0135479Y0056280D01*
X0135467Y0056157D01*
X0135451Y0056033D01*
X0135431Y0055910D01*
X0135407Y0055788D01*
X0135380Y0055667D01*
X0135349Y0055547D01*
X0135313Y0055427D01*
X0135274Y0055309D01*
X0135232Y0055192D01*
X0135185Y0055077D01*
X0135135Y0054963D01*
X0135081Y0054851D01*
X0135024Y0054741D01*
X0134963Y0054632D01*
X0134899Y0054525D01*
X0134832Y0054421D01*
X0134761Y0054319D01*
X0134687Y0054219D01*
X0134609Y0054121D01*
X0134529Y0054026D01*
X0134446Y0053934D01*
X0134360Y0053844D01*
X0134271Y0053757D01*
X0134179Y0053673D01*
X0134085Y0053592D01*
X0133988Y0053514D01*
X0133888Y0053439D01*
X0133787Y0053368D01*
X0133683Y0053299D01*
X0133577Y0053234D01*
X0133469Y0053173D01*
X0133359Y0053115D01*
X0133247Y0053060D01*
X0133134Y0053009D01*
X0133019Y0052962D01*
X0132902Y0052918D01*
X0132784Y0052878D01*
X0132665Y0052842D01*
X0132545Y0052810D01*
X0132424Y0052781D01*
X0132302Y0052756D01*
X0132180Y0052736D01*
X0132056Y0052719D01*
X0131933Y0052706D01*
X0131809Y0052697D01*
X0131684Y0052692D01*
X0131560Y0052691D01*
X0131436Y0052694D01*
X0131311Y0052701D01*
X0131187Y0052712D01*
X0131064Y0052727D01*
X0130941Y0052746D01*
X0130819Y0052768D01*
X0130697Y0052795D01*
X0130577Y0052825D01*
X0130457Y0052859D01*
X0130339Y0052898D01*
X0130221Y0052939D01*
X0130106Y0052985D01*
X0129991Y0053034D01*
X0129879Y0053087D01*
X0129768Y0053143D01*
X0129659Y0053203D01*
X0129552Y0053267D01*
X0129447Y0053333D01*
X0129344Y0053403D01*
X0129244Y0053477D01*
X0129146Y0053553D01*
X0129050Y0053632D01*
X0128957Y0053715D01*
X0128866Y0053800D01*
X0128779Y0053889D01*
X0128694Y0053980D01*
X0128612Y0054074D01*
X0128534Y0054170D01*
X0128458Y0054269D01*
X0128385Y0054370D01*
X0128316Y0054473D01*
X0128250Y0054579D01*
X0128188Y0054686D01*
X0128129Y0054796D01*
X0128073Y0054907D01*
X0128021Y0055020D01*
X0127973Y0055135D01*
X0127929Y0055251D01*
X0127888Y0055368D01*
X0127851Y0055487D01*
X0127817Y0055607D01*
X0127788Y0055727D01*
X0127762Y0055849D01*
X0127740Y0055972D01*
X0127723Y0056095D01*
X0127709Y0056218D01*
X0127699Y0056342D01*
X0127693Y0056467D01*
X0127691Y0056591D01*
X0127591Y0052591D02*
X0135591Y0060591D01*
X0137691Y0056591D02*
X0137693Y0056715D01*
X0137699Y0056840D01*
X0137709Y0056964D01*
X0137723Y0057087D01*
X0137740Y0057210D01*
X0137762Y0057333D01*
X0137788Y0057455D01*
X0137817Y0057575D01*
X0137851Y0057695D01*
X0137888Y0057814D01*
X0137929Y0057931D01*
X0137973Y0058047D01*
X0138021Y0058162D01*
X0138073Y0058275D01*
X0138129Y0058386D01*
X0138188Y0058496D01*
X0138250Y0058603D01*
X0138316Y0058709D01*
X0138385Y0058812D01*
X0138458Y0058913D01*
X0138534Y0059012D01*
X0138612Y0059108D01*
X0138694Y0059202D01*
X0138779Y0059293D01*
X0138866Y0059382D01*
X0138957Y0059467D01*
X0139050Y0059550D01*
X0139146Y0059629D01*
X0139244Y0059705D01*
X0139344Y0059779D01*
X0139447Y0059849D01*
X0139552Y0059915D01*
X0139659Y0059979D01*
X0139768Y0060039D01*
X0139879Y0060095D01*
X0139991Y0060148D01*
X0140106Y0060197D01*
X0140221Y0060243D01*
X0140339Y0060284D01*
X0140457Y0060323D01*
X0140577Y0060357D01*
X0140697Y0060387D01*
X0140819Y0060414D01*
X0140941Y0060436D01*
X0141064Y0060455D01*
X0141187Y0060470D01*
X0141311Y0060481D01*
X0141436Y0060488D01*
X0141560Y0060491D01*
X0141684Y0060490D01*
X0141809Y0060485D01*
X0141933Y0060476D01*
X0142056Y0060463D01*
X0142180Y0060446D01*
X0142302Y0060426D01*
X0142424Y0060401D01*
X0142545Y0060372D01*
X0142665Y0060340D01*
X0142784Y0060304D01*
X0142902Y0060264D01*
X0143019Y0060220D01*
X0143134Y0060173D01*
X0143247Y0060122D01*
X0143359Y0060067D01*
X0143469Y0060009D01*
X0143577Y0059948D01*
X0143683Y0059883D01*
X0143787Y0059814D01*
X0143888Y0059743D01*
X0143988Y0059668D01*
X0144085Y0059590D01*
X0144179Y0059509D01*
X0144271Y0059425D01*
X0144360Y0059338D01*
X0144446Y0059248D01*
X0144529Y0059156D01*
X0144609Y0059061D01*
X0144687Y0058963D01*
X0144761Y0058863D01*
X0144832Y0058761D01*
X0144899Y0058657D01*
X0144963Y0058550D01*
X0145024Y0058441D01*
X0145081Y0058331D01*
X0145135Y0058219D01*
X0145185Y0058105D01*
X0145232Y0057990D01*
X0145274Y0057873D01*
X0145313Y0057755D01*
X0145349Y0057635D01*
X0145380Y0057515D01*
X0145407Y0057394D01*
X0145431Y0057272D01*
X0145451Y0057149D01*
X0145467Y0057025D01*
X0145479Y0056902D01*
X0145487Y0056778D01*
X0145491Y0056653D01*
X0145491Y0056529D01*
X0145487Y0056404D01*
X0145479Y0056280D01*
X0145467Y0056157D01*
X0145451Y0056033D01*
X0145431Y0055910D01*
X0145407Y0055788D01*
X0145380Y0055667D01*
X0145349Y0055547D01*
X0145313Y0055427D01*
X0145274Y0055309D01*
X0145232Y0055192D01*
X0145185Y0055077D01*
X0145135Y0054963D01*
X0145081Y0054851D01*
X0145024Y0054741D01*
X0144963Y0054632D01*
X0144899Y0054525D01*
X0144832Y0054421D01*
X0144761Y0054319D01*
X0144687Y0054219D01*
X0144609Y0054121D01*
X0144529Y0054026D01*
X0144446Y0053934D01*
X0144360Y0053844D01*
X0144271Y0053757D01*
X0144179Y0053673D01*
X0144085Y0053592D01*
X0143988Y0053514D01*
X0143888Y0053439D01*
X0143787Y0053368D01*
X0143683Y0053299D01*
X0143577Y0053234D01*
X0143469Y0053173D01*
X0143359Y0053115D01*
X0143247Y0053060D01*
X0143134Y0053009D01*
X0143019Y0052962D01*
X0142902Y0052918D01*
X0142784Y0052878D01*
X0142665Y0052842D01*
X0142545Y0052810D01*
X0142424Y0052781D01*
X0142302Y0052756D01*
X0142180Y0052736D01*
X0142056Y0052719D01*
X0141933Y0052706D01*
X0141809Y0052697D01*
X0141684Y0052692D01*
X0141560Y0052691D01*
X0141436Y0052694D01*
X0141311Y0052701D01*
X0141187Y0052712D01*
X0141064Y0052727D01*
X0140941Y0052746D01*
X0140819Y0052768D01*
X0140697Y0052795D01*
X0140577Y0052825D01*
X0140457Y0052859D01*
X0140339Y0052898D01*
X0140221Y0052939D01*
X0140106Y0052985D01*
X0139991Y0053034D01*
X0139879Y0053087D01*
X0139768Y0053143D01*
X0139659Y0053203D01*
X0139552Y0053267D01*
X0139447Y0053333D01*
X0139344Y0053403D01*
X0139244Y0053477D01*
X0139146Y0053553D01*
X0139050Y0053632D01*
X0138957Y0053715D01*
X0138866Y0053800D01*
X0138779Y0053889D01*
X0138694Y0053980D01*
X0138612Y0054074D01*
X0138534Y0054170D01*
X0138458Y0054269D01*
X0138385Y0054370D01*
X0138316Y0054473D01*
X0138250Y0054579D01*
X0138188Y0054686D01*
X0138129Y0054796D01*
X0138073Y0054907D01*
X0138021Y0055020D01*
X0137973Y0055135D01*
X0137929Y0055251D01*
X0137888Y0055368D01*
X0137851Y0055487D01*
X0137817Y0055607D01*
X0137788Y0055727D01*
X0137762Y0055849D01*
X0137740Y0055972D01*
X0137723Y0056095D01*
X0137709Y0056218D01*
X0137699Y0056342D01*
X0137693Y0056467D01*
X0137691Y0056591D01*
X0137591Y0052591D02*
X0145591Y0060591D01*
X0152591Y0011591D02*
X0160591Y0011591D01*
X0156591Y0007591D02*
X0156591Y0015591D01*
X0152691Y0011591D02*
X0152693Y0011715D01*
X0152699Y0011840D01*
X0152709Y0011964D01*
X0152723Y0012087D01*
X0152740Y0012210D01*
X0152762Y0012333D01*
X0152788Y0012455D01*
X0152817Y0012575D01*
X0152851Y0012695D01*
X0152888Y0012814D01*
X0152929Y0012931D01*
X0152973Y0013047D01*
X0153021Y0013162D01*
X0153073Y0013275D01*
X0153129Y0013386D01*
X0153188Y0013496D01*
X0153250Y0013603D01*
X0153316Y0013709D01*
X0153385Y0013812D01*
X0153458Y0013913D01*
X0153534Y0014012D01*
X0153612Y0014108D01*
X0153694Y0014202D01*
X0153779Y0014293D01*
X0153866Y0014382D01*
X0153957Y0014467D01*
X0154050Y0014550D01*
X0154146Y0014629D01*
X0154244Y0014705D01*
X0154344Y0014779D01*
X0154447Y0014849D01*
X0154552Y0014915D01*
X0154659Y0014979D01*
X0154768Y0015039D01*
X0154879Y0015095D01*
X0154991Y0015148D01*
X0155106Y0015197D01*
X0155221Y0015243D01*
X0155339Y0015284D01*
X0155457Y0015323D01*
X0155577Y0015357D01*
X0155697Y0015387D01*
X0155819Y0015414D01*
X0155941Y0015436D01*
X0156064Y0015455D01*
X0156187Y0015470D01*
X0156311Y0015481D01*
X0156436Y0015488D01*
X0156560Y0015491D01*
X0156684Y0015490D01*
X0156809Y0015485D01*
X0156933Y0015476D01*
X0157056Y0015463D01*
X0157180Y0015446D01*
X0157302Y0015426D01*
X0157424Y0015401D01*
X0157545Y0015372D01*
X0157665Y0015340D01*
X0157784Y0015304D01*
X0157902Y0015264D01*
X0158019Y0015220D01*
X0158134Y0015173D01*
X0158247Y0015122D01*
X0158359Y0015067D01*
X0158469Y0015009D01*
X0158577Y0014948D01*
X0158683Y0014883D01*
X0158787Y0014814D01*
X0158888Y0014743D01*
X0158988Y0014668D01*
X0159085Y0014590D01*
X0159179Y0014509D01*
X0159271Y0014425D01*
X0159360Y0014338D01*
X0159446Y0014248D01*
X0159529Y0014156D01*
X0159609Y0014061D01*
X0159687Y0013963D01*
X0159761Y0013863D01*
X0159832Y0013761D01*
X0159899Y0013657D01*
X0159963Y0013550D01*
X0160024Y0013441D01*
X0160081Y0013331D01*
X0160135Y0013219D01*
X0160185Y0013105D01*
X0160232Y0012990D01*
X0160274Y0012873D01*
X0160313Y0012755D01*
X0160349Y0012635D01*
X0160380Y0012515D01*
X0160407Y0012394D01*
X0160431Y0012272D01*
X0160451Y0012149D01*
X0160467Y0012025D01*
X0160479Y0011902D01*
X0160487Y0011778D01*
X0160491Y0011653D01*
X0160491Y0011529D01*
X0160487Y0011404D01*
X0160479Y0011280D01*
X0160467Y0011157D01*
X0160451Y0011033D01*
X0160431Y0010910D01*
X0160407Y0010788D01*
X0160380Y0010667D01*
X0160349Y0010547D01*
X0160313Y0010427D01*
X0160274Y0010309D01*
X0160232Y0010192D01*
X0160185Y0010077D01*
X0160135Y0009963D01*
X0160081Y0009851D01*
X0160024Y0009741D01*
X0159963Y0009632D01*
X0159899Y0009525D01*
X0159832Y0009421D01*
X0159761Y0009319D01*
X0159687Y0009219D01*
X0159609Y0009121D01*
X0159529Y0009026D01*
X0159446Y0008934D01*
X0159360Y0008844D01*
X0159271Y0008757D01*
X0159179Y0008673D01*
X0159085Y0008592D01*
X0158988Y0008514D01*
X0158888Y0008439D01*
X0158787Y0008368D01*
X0158683Y0008299D01*
X0158577Y0008234D01*
X0158469Y0008173D01*
X0158359Y0008115D01*
X0158247Y0008060D01*
X0158134Y0008009D01*
X0158019Y0007962D01*
X0157902Y0007918D01*
X0157784Y0007878D01*
X0157665Y0007842D01*
X0157545Y0007810D01*
X0157424Y0007781D01*
X0157302Y0007756D01*
X0157180Y0007736D01*
X0157056Y0007719D01*
X0156933Y0007706D01*
X0156809Y0007697D01*
X0156684Y0007692D01*
X0156560Y0007691D01*
X0156436Y0007694D01*
X0156311Y0007701D01*
X0156187Y0007712D01*
X0156064Y0007727D01*
X0155941Y0007746D01*
X0155819Y0007768D01*
X0155697Y0007795D01*
X0155577Y0007825D01*
X0155457Y0007859D01*
X0155339Y0007898D01*
X0155221Y0007939D01*
X0155106Y0007985D01*
X0154991Y0008034D01*
X0154879Y0008087D01*
X0154768Y0008143D01*
X0154659Y0008203D01*
X0154552Y0008267D01*
X0154447Y0008333D01*
X0154344Y0008403D01*
X0154244Y0008477D01*
X0154146Y0008553D01*
X0154050Y0008632D01*
X0153957Y0008715D01*
X0153866Y0008800D01*
X0153779Y0008889D01*
X0153694Y0008980D01*
X0153612Y0009074D01*
X0153534Y0009170D01*
X0153458Y0009269D01*
X0153385Y0009370D01*
X0153316Y0009473D01*
X0153250Y0009579D01*
X0153188Y0009686D01*
X0153129Y0009796D01*
X0153073Y0009907D01*
X0153021Y0010020D01*
X0152973Y0010135D01*
X0152929Y0010251D01*
X0152888Y0010368D01*
X0152851Y0010487D01*
X0152817Y0010607D01*
X0152788Y0010727D01*
X0152762Y0010849D01*
X0152740Y0010972D01*
X0152723Y0011095D01*
X0152709Y0011218D01*
X0152699Y0011342D01*
X0152693Y0011467D01*
X0152691Y0011591D01*
X0154641Y0011591D02*
X0154643Y0011679D01*
X0154649Y0011767D01*
X0154659Y0011855D01*
X0154673Y0011942D01*
X0154691Y0012028D01*
X0154712Y0012113D01*
X0154738Y0012198D01*
X0154767Y0012281D01*
X0154800Y0012363D01*
X0154837Y0012443D01*
X0154877Y0012521D01*
X0154921Y0012598D01*
X0154968Y0012672D01*
X0155019Y0012744D01*
X0155072Y0012814D01*
X0155129Y0012882D01*
X0155189Y0012946D01*
X0155252Y0013008D01*
X0155317Y0013067D01*
X0155385Y0013123D01*
X0155456Y0013176D01*
X0155528Y0013226D01*
X0155603Y0013272D01*
X0155680Y0013315D01*
X0155759Y0013355D01*
X0155840Y0013390D01*
X0155922Y0013423D01*
X0156005Y0013451D01*
X0156090Y0013476D01*
X0156176Y0013496D01*
X0156262Y0013513D01*
X0156349Y0013526D01*
X0156437Y0013535D01*
X0156525Y0013540D01*
X0156613Y0013541D01*
X0156701Y0013538D01*
X0156789Y0013531D01*
X0156876Y0013520D01*
X0156963Y0013505D01*
X0157049Y0013486D01*
X0157135Y0013464D01*
X0157219Y0013437D01*
X0157301Y0013407D01*
X0157383Y0013373D01*
X0157463Y0013335D01*
X0157540Y0013294D01*
X0157616Y0013250D01*
X0157690Y0013202D01*
X0157762Y0013150D01*
X0157831Y0013096D01*
X0157898Y0013038D01*
X0157962Y0012978D01*
X0158023Y0012914D01*
X0158082Y0012848D01*
X0158137Y0012780D01*
X0158189Y0012708D01*
X0158238Y0012635D01*
X0158283Y0012560D01*
X0158325Y0012482D01*
X0158364Y0012403D01*
X0158399Y0012322D01*
X0158430Y0012239D01*
X0158457Y0012156D01*
X0158481Y0012071D01*
X0158501Y0011985D01*
X0158517Y0011898D01*
X0158529Y0011811D01*
X0158537Y0011723D01*
X0158541Y0011635D01*
X0158541Y0011547D01*
X0158537Y0011459D01*
X0158529Y0011371D01*
X0158517Y0011284D01*
X0158501Y0011197D01*
X0158481Y0011111D01*
X0158457Y0011026D01*
X0158430Y0010943D01*
X0158399Y0010860D01*
X0158364Y0010779D01*
X0158325Y0010700D01*
X0158283Y0010622D01*
X0158238Y0010547D01*
X0158189Y0010474D01*
X0158137Y0010402D01*
X0158082Y0010334D01*
X0158023Y0010268D01*
X0157962Y0010204D01*
X0157898Y0010144D01*
X0157831Y0010086D01*
X0157762Y0010032D01*
X0157690Y0009980D01*
X0157616Y0009932D01*
X0157540Y0009888D01*
X0157463Y0009847D01*
X0157383Y0009809D01*
X0157301Y0009775D01*
X0157219Y0009745D01*
X0157135Y0009718D01*
X0157049Y0009696D01*
X0156963Y0009677D01*
X0156876Y0009662D01*
X0156789Y0009651D01*
X0156701Y0009644D01*
X0156613Y0009641D01*
X0156525Y0009642D01*
X0156437Y0009647D01*
X0156349Y0009656D01*
X0156262Y0009669D01*
X0156176Y0009686D01*
X0156090Y0009706D01*
X0156005Y0009731D01*
X0155922Y0009759D01*
X0155840Y0009792D01*
X0155759Y0009827D01*
X0155680Y0009867D01*
X0155603Y0009910D01*
X0155528Y0009956D01*
X0155456Y0010006D01*
X0155385Y0010059D01*
X0155317Y0010115D01*
X0155252Y0010174D01*
X0155189Y0010236D01*
X0155129Y0010300D01*
X0155072Y0010368D01*
X0155019Y0010438D01*
X0154968Y0010510D01*
X0154921Y0010584D01*
X0154877Y0010661D01*
X0154837Y0010739D01*
X0154800Y0010819D01*
X0154767Y0010901D01*
X0154738Y0010984D01*
X0154712Y0011069D01*
X0154691Y0011154D01*
X0154673Y0011240D01*
X0154659Y0011327D01*
X0154649Y0011415D01*
X0154643Y0011503D01*
X0154641Y0011591D01*
M02*
