G75*
%MOIN*%
%OFA0B0*%
%FSLAX25Y25*%
%IPPOS*%
%LPD*%
%AMOC8*
5,1,8,0,0,1.08239X$1,22.5*
%
%ADD10C,0.07000*%
%ADD11OC8,0.05200*%
%ADD12OC8,0.06000*%
%ADD13C,0.01181*%
D10*
X0026591Y0021591D03*
X0026591Y0031591D03*
X0026591Y0041591D03*
X0026591Y0051591D03*
X0026591Y0061591D03*
X0026591Y0071591D03*
X0026591Y0081591D03*
X0026591Y0091591D03*
X0026591Y0101591D03*
X0026591Y0111591D03*
X0026591Y0121591D03*
X0116591Y0136591D03*
X0126591Y0136591D03*
X0131591Y0111591D03*
X0141591Y0111591D03*
X0151591Y0111591D03*
X0151591Y0091591D03*
X0141591Y0091591D03*
X0131591Y0091591D03*
X0131591Y0071591D03*
X0141591Y0071591D03*
X0151591Y0071591D03*
X0151591Y0056591D03*
X0141591Y0056591D03*
X0131591Y0056591D03*
X0131591Y0041591D03*
X0141591Y0041591D03*
X0151591Y0041591D03*
D11*
X0016591Y0041591D03*
X0016591Y0031591D03*
X0006591Y0031591D03*
X0006591Y0041591D03*
X0006591Y0051591D03*
X0006591Y0061591D03*
X0006591Y0071591D03*
X0016591Y0071591D03*
X0016591Y0061591D03*
X0016591Y0051591D03*
X0016591Y0021591D03*
X0006591Y0021591D03*
D12*
X0101591Y0146591D03*
X0126591Y0146591D03*
D13*
X0006260Y0017400D02*
X0006260Y0006181D01*
X0034639Y0006181D01*
X0033943Y0007387D01*
X0033201Y0010157D01*
X0033201Y0013024D01*
X0033943Y0015794D01*
X0035377Y0018277D01*
X0037404Y0020305D01*
X0039887Y0021738D01*
X0042657Y0022480D01*
X0045524Y0022480D01*
X0048294Y0021738D01*
X0050777Y0020305D01*
X0052805Y0018277D01*
X0054238Y0015794D01*
X0054980Y0013024D01*
X0054980Y0010157D01*
X0054238Y0007387D01*
X0053542Y0006181D01*
X0102000Y0006181D01*
X0102000Y0032504D01*
X0102699Y0034191D01*
X0103990Y0035482D01*
X0105677Y0036181D01*
X0147504Y0036181D01*
X0149191Y0035482D01*
X0150482Y0034191D01*
X0151181Y0032504D01*
X0151181Y0021042D01*
X0152387Y0021738D01*
X0155157Y0022480D01*
X0158024Y0022480D01*
X0160794Y0021738D01*
X0163277Y0020305D01*
X0165305Y0018277D01*
X0166738Y0015794D01*
X0167000Y0014817D01*
X0167000Y0092139D01*
X0165794Y0091443D01*
X0163024Y0090701D01*
X0160157Y0090701D01*
X0157387Y0091443D01*
X0156422Y0092000D01*
X0152000Y0092000D01*
X0152000Y0091181D01*
X0152000Y0086501D01*
X0152783Y0086625D01*
X0153545Y0086873D01*
X0154259Y0087237D01*
X0154907Y0087708D01*
X0155473Y0088274D01*
X0155944Y0088923D01*
X0156308Y0089636D01*
X0156556Y0090398D01*
X0156680Y0091181D01*
X0152000Y0091181D01*
X0151181Y0091181D01*
X0151181Y0086501D01*
X0150398Y0086625D01*
X0149636Y0086873D01*
X0148923Y0087237D01*
X0148274Y0087708D01*
X0147708Y0088274D01*
X0147237Y0088923D01*
X0146873Y0089636D01*
X0146625Y0090398D01*
X0146501Y0091181D01*
X0151181Y0091181D01*
X0151181Y0092000D01*
X0146501Y0092000D01*
X0146625Y0092783D01*
X0146873Y0093545D01*
X0147237Y0094259D01*
X0147708Y0094907D01*
X0148274Y0095473D01*
X0148923Y0095944D01*
X0149636Y0096308D01*
X0150398Y0096556D01*
X0151181Y0096680D01*
X0151181Y0092000D01*
X0152000Y0092000D01*
X0152000Y0096422D01*
X0151443Y0097387D01*
X0150701Y0100157D01*
X0150701Y0103024D01*
X0151443Y0105794D01*
X0152000Y0106759D01*
X0152000Y0111181D01*
X0151181Y0111181D01*
X0151181Y0106501D01*
X0150398Y0106625D01*
X0149636Y0106873D01*
X0148923Y0107237D01*
X0148274Y0107708D01*
X0147708Y0108274D01*
X0147237Y0108923D01*
X0146873Y0109636D01*
X0146625Y0110398D01*
X0146501Y0111181D01*
X0151181Y0111181D01*
X0151181Y0112000D01*
X0146501Y0112000D01*
X0146625Y0112783D01*
X0146873Y0113545D01*
X0147237Y0114259D01*
X0147708Y0114907D01*
X0148274Y0115473D01*
X0148923Y0115944D01*
X0149636Y0116308D01*
X0150398Y0116556D01*
X0151181Y0116680D01*
X0151181Y0112000D01*
X0152000Y0112000D01*
X0152000Y0116680D01*
X0152783Y0116556D01*
X0153545Y0116308D01*
X0154259Y0115944D01*
X0154907Y0115473D01*
X0155473Y0114907D01*
X0155944Y0114259D01*
X0156308Y0113545D01*
X0156556Y0112783D01*
X0156680Y0112000D01*
X0152000Y0112000D01*
X0152000Y0111181D01*
X0156422Y0111181D01*
X0157387Y0111738D01*
X0160157Y0112480D01*
X0163024Y0112480D01*
X0165794Y0111738D01*
X0167000Y0111042D01*
X0167000Y0149500D01*
X0129890Y0149500D01*
X0130981Y0148409D01*
X0130981Y0144772D01*
X0128572Y0142362D01*
X0128572Y0141063D01*
X0129361Y0140737D01*
X0130737Y0139361D01*
X0131481Y0137563D01*
X0131481Y0135618D01*
X0130737Y0133820D01*
X0129361Y0132445D01*
X0128572Y0132118D01*
X0128572Y0128270D01*
X0121072Y0120770D01*
X0119911Y0119609D01*
X0082411Y0119609D01*
X0033572Y0070770D01*
X0033572Y0070770D01*
X0032411Y0069609D01*
X0031063Y0069609D01*
X0030737Y0068820D01*
X0029361Y0067445D01*
X0027563Y0066700D01*
X0025618Y0066700D01*
X0023820Y0067445D01*
X0022445Y0068820D01*
X0022118Y0069609D01*
X0020253Y0069609D01*
X0018243Y0067600D01*
X0014938Y0067600D01*
X0012600Y0069938D01*
X0012600Y0073243D01*
X0014938Y0075581D01*
X0018243Y0075581D01*
X0020253Y0073572D01*
X0022118Y0073572D01*
X0022445Y0074361D01*
X0023820Y0075737D01*
X0025618Y0076481D01*
X0027563Y0076481D01*
X0029361Y0075737D01*
X0030737Y0074361D01*
X0030977Y0073779D01*
X0079609Y0122411D01*
X0079609Y0122411D01*
X0080770Y0123572D01*
X0118270Y0123572D01*
X0124609Y0129911D01*
X0124609Y0132118D01*
X0123820Y0132445D01*
X0122445Y0133820D01*
X0121700Y0135618D01*
X0121700Y0137563D01*
X0122445Y0139361D01*
X0123820Y0140737D01*
X0124609Y0141063D01*
X0124609Y0142362D01*
X0122200Y0144772D01*
X0122200Y0148409D01*
X0123291Y0149500D01*
X0105173Y0149500D01*
X0106181Y0148492D01*
X0106181Y0147000D01*
X0102000Y0147000D01*
X0102000Y0146181D01*
X0102000Y0142000D01*
X0103492Y0142000D01*
X0106181Y0144689D01*
X0106181Y0146181D01*
X0102000Y0146181D01*
X0101181Y0146181D01*
X0097000Y0146181D01*
X0097000Y0144689D01*
X0099689Y0142000D01*
X0101181Y0142000D01*
X0101181Y0146181D01*
X0101181Y0147000D01*
X0097000Y0147000D01*
X0097000Y0148492D01*
X0098008Y0149500D01*
X0006260Y0149500D01*
X0006260Y0075781D01*
X0006381Y0075781D01*
X0006381Y0071800D01*
X0006800Y0071800D01*
X0006800Y0075781D01*
X0008326Y0075781D01*
X0010781Y0073326D01*
X0010781Y0071800D01*
X0006800Y0071800D01*
X0006800Y0071381D01*
X0006800Y0067400D01*
X0008326Y0067400D01*
X0010781Y0069855D01*
X0010781Y0071381D01*
X0006800Y0071381D01*
X0006381Y0071381D01*
X0006381Y0067400D01*
X0006260Y0067400D01*
X0006260Y0065781D01*
X0006381Y0065781D01*
X0006381Y0061800D01*
X0006800Y0061800D01*
X0006800Y0065781D01*
X0008326Y0065781D01*
X0010781Y0063326D01*
X0010781Y0061800D01*
X0006800Y0061800D01*
X0006800Y0061381D01*
X0006800Y0057400D01*
X0008326Y0057400D01*
X0010781Y0059855D01*
X0010781Y0061381D01*
X0006800Y0061381D01*
X0006381Y0061381D01*
X0006381Y0057400D01*
X0006260Y0057400D01*
X0006260Y0055781D01*
X0006381Y0055781D01*
X0006381Y0051800D01*
X0006800Y0051800D01*
X0006800Y0055781D01*
X0008326Y0055781D01*
X0010781Y0053326D01*
X0010781Y0051800D01*
X0006800Y0051800D01*
X0006800Y0051381D01*
X0006800Y0047400D01*
X0008326Y0047400D01*
X0010781Y0049855D01*
X0010781Y0051381D01*
X0006800Y0051381D01*
X0006381Y0051381D01*
X0006381Y0047400D01*
X0006260Y0047400D01*
X0006260Y0045781D01*
X0006381Y0045781D01*
X0006381Y0041800D01*
X0006800Y0041800D01*
X0006800Y0045781D01*
X0008326Y0045781D01*
X0010781Y0043326D01*
X0010781Y0041800D01*
X0006800Y0041800D01*
X0006800Y0041381D01*
X0006800Y0037400D01*
X0008326Y0037400D01*
X0010781Y0039855D01*
X0010781Y0041381D01*
X0006800Y0041381D01*
X0006381Y0041381D01*
X0006381Y0037400D01*
X0006260Y0037400D01*
X0006260Y0035781D01*
X0006381Y0035781D01*
X0006381Y0031800D01*
X0006800Y0031800D01*
X0006800Y0035781D01*
X0008326Y0035781D01*
X0010781Y0033326D01*
X0010781Y0031800D01*
X0006800Y0031800D01*
X0006800Y0031381D01*
X0006800Y0027400D01*
X0008326Y0027400D01*
X0010781Y0029855D01*
X0010781Y0031381D01*
X0006800Y0031381D01*
X0006381Y0031381D01*
X0006381Y0027400D01*
X0006260Y0027400D01*
X0006260Y0025781D01*
X0006381Y0025781D01*
X0006381Y0021800D01*
X0006800Y0021800D01*
X0006800Y0025781D01*
X0008326Y0025781D01*
X0010781Y0023326D01*
X0010781Y0021800D01*
X0006800Y0021800D01*
X0006800Y0021381D01*
X0006800Y0017400D01*
X0008326Y0017400D01*
X0010781Y0019855D01*
X0010781Y0021381D01*
X0006800Y0021381D01*
X0006381Y0021381D01*
X0006381Y0017400D01*
X0006260Y0017400D01*
X0006260Y0016926D02*
X0025073Y0016926D01*
X0025618Y0016700D02*
X0027563Y0016700D01*
X0029361Y0017445D01*
X0030737Y0018820D01*
X0031063Y0019609D01*
X0032411Y0019609D01*
X0059911Y0047109D01*
X0138270Y0047109D01*
X0139402Y0045977D01*
X0138820Y0045737D01*
X0137445Y0044361D01*
X0136700Y0042563D01*
X0136700Y0040618D01*
X0137445Y0038820D01*
X0138820Y0037445D01*
X0140618Y0036700D01*
X0142563Y0036700D01*
X0144361Y0037445D01*
X0145737Y0038820D01*
X0146481Y0040618D01*
X0146481Y0042563D01*
X0145737Y0044361D01*
X0144361Y0045737D01*
X0143572Y0046063D01*
X0143572Y0047411D01*
X0141072Y0049911D01*
X0139911Y0051072D01*
X0058270Y0051072D01*
X0057109Y0049911D01*
X0030977Y0023779D01*
X0030737Y0024361D01*
X0029361Y0025737D01*
X0027563Y0026481D01*
X0025618Y0026481D01*
X0023820Y0025737D01*
X0022445Y0024361D01*
X0022118Y0023572D01*
X0020253Y0023572D01*
X0018243Y0025581D01*
X0014938Y0025581D01*
X0012600Y0023243D01*
X0012600Y0019938D01*
X0014938Y0017600D01*
X0018243Y0017600D01*
X0020253Y0019609D01*
X0022118Y0019609D01*
X0022445Y0018820D01*
X0023820Y0017445D01*
X0025618Y0016700D01*
X0023160Y0018105D02*
X0018749Y0018105D01*
X0019928Y0019285D02*
X0022252Y0019285D01*
X0022296Y0024003D02*
X0019821Y0024003D01*
X0018642Y0025183D02*
X0023267Y0025183D01*
X0023820Y0027445D02*
X0025618Y0026700D01*
X0027563Y0026700D01*
X0029361Y0027445D01*
X0030737Y0028820D01*
X0031063Y0029609D01*
X0032411Y0029609D01*
X0064911Y0062109D01*
X0138270Y0062109D01*
X0139402Y0060977D01*
X0138820Y0060737D01*
X0137445Y0059361D01*
X0136700Y0057563D01*
X0136700Y0055618D01*
X0137445Y0053820D01*
X0138820Y0052445D01*
X0140618Y0051700D01*
X0142563Y0051700D01*
X0144361Y0052445D01*
X0145737Y0053820D01*
X0146481Y0055618D01*
X0146481Y0057563D01*
X0145737Y0059361D01*
X0144361Y0060737D01*
X0143572Y0061063D01*
X0143572Y0062411D01*
X0141072Y0064911D01*
X0139911Y0066072D01*
X0063270Y0066072D01*
X0062109Y0064911D01*
X0030977Y0033779D01*
X0030737Y0034361D01*
X0029361Y0035737D01*
X0027563Y0036481D01*
X0025618Y0036481D01*
X0023820Y0035737D01*
X0022445Y0034361D01*
X0022118Y0033572D01*
X0020253Y0033572D01*
X0018243Y0035581D01*
X0014938Y0035581D01*
X0012600Y0033243D01*
X0012600Y0029938D01*
X0014938Y0027600D01*
X0018243Y0027600D01*
X0020253Y0029609D01*
X0022118Y0029609D01*
X0022445Y0028820D01*
X0023820Y0027445D01*
X0023723Y0027542D02*
X0008468Y0027542D01*
X0006800Y0027542D02*
X0006381Y0027542D01*
X0006381Y0028722D02*
X0006800Y0028722D01*
X0006800Y0029901D02*
X0006381Y0029901D01*
X0006381Y0031081D02*
X0006800Y0031081D01*
X0006800Y0032261D02*
X0006381Y0032261D01*
X0006381Y0033440D02*
X0006800Y0033440D01*
X0006800Y0034620D02*
X0006381Y0034620D01*
X0006260Y0035799D02*
X0023972Y0035799D01*
X0024944Y0036979D02*
X0006260Y0036979D01*
X0006381Y0038159D02*
X0006800Y0038159D01*
X0006800Y0039338D02*
X0006381Y0039338D01*
X0006381Y0040518D02*
X0006800Y0040518D01*
X0006800Y0041697D02*
X0012600Y0041697D01*
X0012600Y0040518D02*
X0010781Y0040518D01*
X0010265Y0039338D02*
X0013199Y0039338D01*
X0012600Y0039938D02*
X0014938Y0037600D01*
X0018243Y0037600D01*
X0020253Y0039609D01*
X0022118Y0039609D01*
X0022445Y0038820D01*
X0023820Y0037445D01*
X0025618Y0036700D01*
X0027563Y0036700D01*
X0029361Y0037445D01*
X0030737Y0038820D01*
X0031063Y0039609D01*
X0032411Y0039609D01*
X0033572Y0040770D01*
X0062411Y0069609D01*
X0127118Y0069609D01*
X0127445Y0068820D01*
X0128820Y0067445D01*
X0130618Y0066700D01*
X0132563Y0066700D01*
X0134361Y0067445D01*
X0135737Y0068820D01*
X0136481Y0070618D01*
X0136481Y0072563D01*
X0135737Y0074361D01*
X0134361Y0075737D01*
X0132563Y0076481D01*
X0130618Y0076481D01*
X0128820Y0075737D01*
X0127445Y0074361D01*
X0127118Y0073572D01*
X0060770Y0073572D01*
X0030977Y0043779D01*
X0030737Y0044361D01*
X0029361Y0045737D01*
X0027563Y0046481D01*
X0025618Y0046481D01*
X0023820Y0045737D01*
X0022445Y0044361D01*
X0022118Y0043572D01*
X0020253Y0043572D01*
X0018243Y0045581D01*
X0014938Y0045581D01*
X0012600Y0043243D01*
X0012600Y0039938D01*
X0014379Y0038159D02*
X0009085Y0038159D01*
X0009488Y0034620D02*
X0013976Y0034620D01*
X0012797Y0033440D02*
X0010667Y0033440D01*
X0010781Y0032261D02*
X0012600Y0032261D01*
X0012600Y0031081D02*
X0010781Y0031081D01*
X0010781Y0029901D02*
X0012636Y0029901D01*
X0013816Y0028722D02*
X0009648Y0028722D01*
X0008925Y0025183D02*
X0014539Y0025183D01*
X0013360Y0024003D02*
X0010104Y0024003D01*
X0010781Y0022824D02*
X0012600Y0022824D01*
X0012600Y0021644D02*
X0006800Y0021644D01*
X0006800Y0022824D02*
X0006381Y0022824D01*
X0006381Y0024003D02*
X0006800Y0024003D01*
X0006800Y0025183D02*
X0006381Y0025183D01*
X0006260Y0026362D02*
X0025331Y0026362D01*
X0027850Y0026362D02*
X0033561Y0026362D01*
X0032381Y0025183D02*
X0029915Y0025183D01*
X0030885Y0024003D02*
X0031202Y0024003D01*
X0031591Y0021591D02*
X0059091Y0049091D01*
X0119091Y0049091D01*
X0121591Y0049091D01*
X0139091Y0049091D01*
X0141591Y0046591D01*
X0141591Y0041591D01*
X0145075Y0038159D02*
X0147823Y0038159D01*
X0147708Y0038274D02*
X0148274Y0037708D01*
X0148923Y0037237D01*
X0149636Y0036873D01*
X0150398Y0036625D01*
X0151181Y0036501D01*
X0151181Y0041181D01*
X0146501Y0041181D01*
X0146625Y0040398D01*
X0146873Y0039636D01*
X0147237Y0038923D01*
X0147708Y0038274D01*
X0147025Y0039338D02*
X0145951Y0039338D01*
X0146440Y0040518D02*
X0146606Y0040518D01*
X0146481Y0041697D02*
X0151181Y0041697D01*
X0151181Y0042000D02*
X0151181Y0041181D01*
X0152000Y0041181D01*
X0152000Y0036501D01*
X0152783Y0036625D01*
X0153545Y0036873D01*
X0154259Y0037237D01*
X0154907Y0037708D01*
X0155473Y0038274D01*
X0155944Y0038923D01*
X0156308Y0039636D01*
X0156556Y0040398D01*
X0156680Y0041181D01*
X0152000Y0041181D01*
X0152000Y0042000D01*
X0151181Y0042000D01*
X0146501Y0042000D01*
X0146625Y0042783D01*
X0146873Y0043545D01*
X0147237Y0044259D01*
X0147708Y0044907D01*
X0148274Y0045473D01*
X0148923Y0045944D01*
X0149636Y0046308D01*
X0150398Y0046556D01*
X0151181Y0046680D01*
X0151181Y0042000D01*
X0151591Y0041591D02*
X0156591Y0041591D01*
X0159091Y0044091D01*
X0159091Y0069091D01*
X0156591Y0071591D01*
X0151591Y0071591D01*
X0152000Y0071188D02*
X0167000Y0071188D01*
X0167000Y0072367D02*
X0156622Y0072367D01*
X0156680Y0072000D02*
X0156556Y0072783D01*
X0156308Y0073545D01*
X0155944Y0074259D01*
X0155473Y0074907D01*
X0154907Y0075473D01*
X0154259Y0075944D01*
X0153545Y0076308D01*
X0152783Y0076556D01*
X0152000Y0076680D01*
X0152000Y0072000D01*
X0151181Y0072000D01*
X0151181Y0071181D01*
X0146501Y0071181D01*
X0146625Y0070398D01*
X0146873Y0069636D01*
X0147237Y0068923D01*
X0147708Y0068274D01*
X0148274Y0067708D01*
X0148923Y0067237D01*
X0149636Y0066873D01*
X0150398Y0066625D01*
X0151181Y0066501D01*
X0151181Y0071181D01*
X0152000Y0071181D01*
X0152000Y0066501D01*
X0152783Y0066625D01*
X0153545Y0066873D01*
X0154259Y0067237D01*
X0154907Y0067708D01*
X0155473Y0068274D01*
X0155944Y0068923D01*
X0156308Y0069636D01*
X0156556Y0070398D01*
X0156680Y0071181D01*
X0152000Y0071181D01*
X0152000Y0072000D01*
X0156680Y0072000D01*
X0156307Y0073547D02*
X0167000Y0073547D01*
X0167000Y0074727D02*
X0155604Y0074727D01*
X0154311Y0075906D02*
X0167000Y0075906D01*
X0167000Y0077086D02*
X0143572Y0077086D01*
X0143572Y0076063D02*
X0143572Y0087118D01*
X0144361Y0087445D01*
X0145737Y0088820D01*
X0146481Y0090618D01*
X0146481Y0092563D01*
X0145737Y0094361D01*
X0144361Y0095737D01*
X0143572Y0096063D01*
X0143572Y0107118D01*
X0144361Y0107445D01*
X0145737Y0108820D01*
X0146481Y0110618D01*
X0146481Y0112563D01*
X0145737Y0114361D01*
X0144361Y0115737D01*
X0142563Y0116481D01*
X0140618Y0116481D01*
X0138820Y0115737D01*
X0137445Y0114361D01*
X0136700Y0112563D01*
X0136700Y0110618D01*
X0137445Y0108820D01*
X0138820Y0107445D01*
X0139609Y0107118D01*
X0139609Y0096063D01*
X0138820Y0095737D01*
X0137445Y0094361D01*
X0136700Y0092563D01*
X0136700Y0090618D01*
X0137445Y0088820D01*
X0138820Y0087445D01*
X0139609Y0087118D01*
X0139609Y0076063D01*
X0138820Y0075737D01*
X0137445Y0074361D01*
X0136700Y0072563D01*
X0136700Y0070618D01*
X0137445Y0068820D01*
X0138820Y0067445D01*
X0140618Y0066700D01*
X0142563Y0066700D01*
X0144361Y0067445D01*
X0145737Y0068820D01*
X0146481Y0070618D01*
X0146481Y0072563D01*
X0145737Y0074361D01*
X0144361Y0075737D01*
X0143572Y0076063D01*
X0143951Y0075906D02*
X0148870Y0075906D01*
X0148923Y0075944D02*
X0148274Y0075473D01*
X0147708Y0074907D01*
X0147237Y0074259D01*
X0146873Y0073545D01*
X0146625Y0072783D01*
X0146501Y0072000D01*
X0151181Y0072000D01*
X0151181Y0076680D01*
X0150398Y0076556D01*
X0149636Y0076308D01*
X0148923Y0075944D01*
X0147577Y0074727D02*
X0145371Y0074727D01*
X0146074Y0073547D02*
X0146874Y0073547D01*
X0146560Y0072367D02*
X0146481Y0072367D01*
X0146481Y0071188D02*
X0151181Y0071188D01*
X0151181Y0072367D02*
X0152000Y0072367D01*
X0152000Y0073547D02*
X0151181Y0073547D01*
X0151181Y0074727D02*
X0152000Y0074727D01*
X0152000Y0075906D02*
X0151181Y0075906D01*
X0151181Y0070008D02*
X0152000Y0070008D01*
X0152000Y0068829D02*
X0151181Y0068829D01*
X0151181Y0067649D02*
X0152000Y0067649D01*
X0154826Y0067649D02*
X0167000Y0067649D01*
X0167000Y0068829D02*
X0155876Y0068829D01*
X0156429Y0070008D02*
X0167000Y0070008D01*
X0167000Y0066469D02*
X0059271Y0066469D01*
X0058091Y0065290D02*
X0062488Y0065290D01*
X0061308Y0064110D02*
X0056912Y0064110D01*
X0055732Y0062930D02*
X0060129Y0062930D01*
X0058949Y0061751D02*
X0054553Y0061751D01*
X0053373Y0060571D02*
X0057770Y0060571D01*
X0056590Y0059392D02*
X0052193Y0059392D01*
X0051014Y0058212D02*
X0055410Y0058212D01*
X0054231Y0057032D02*
X0049834Y0057032D01*
X0048654Y0055853D02*
X0053051Y0055853D01*
X0051871Y0054673D02*
X0047475Y0054673D01*
X0046295Y0053494D02*
X0050692Y0053494D01*
X0049512Y0052314D02*
X0045116Y0052314D01*
X0043936Y0051134D02*
X0048333Y0051134D01*
X0047153Y0049955D02*
X0042756Y0049955D01*
X0041577Y0048775D02*
X0045973Y0048775D01*
X0044794Y0047595D02*
X0040397Y0047595D01*
X0039218Y0046416D02*
X0043614Y0046416D01*
X0042435Y0045236D02*
X0038038Y0045236D01*
X0036858Y0044057D02*
X0041255Y0044057D01*
X0040075Y0042877D02*
X0035679Y0042877D01*
X0034499Y0041697D02*
X0038896Y0041697D01*
X0037716Y0040518D02*
X0033320Y0040518D01*
X0031591Y0041591D02*
X0026591Y0041591D01*
X0016591Y0041591D01*
X0019768Y0044057D02*
X0022319Y0044057D01*
X0023320Y0045236D02*
X0018588Y0045236D01*
X0018243Y0047600D02*
X0020253Y0049609D01*
X0022118Y0049609D01*
X0022445Y0048820D01*
X0023820Y0047445D01*
X0025618Y0046700D01*
X0027563Y0046700D01*
X0029361Y0047445D01*
X0030737Y0048820D01*
X0031063Y0049609D01*
X0032411Y0049609D01*
X0033572Y0050770D01*
X0072411Y0089609D01*
X0127118Y0089609D01*
X0127445Y0088820D01*
X0128820Y0087445D01*
X0130618Y0086700D01*
X0132563Y0086700D01*
X0134361Y0087445D01*
X0135737Y0088820D01*
X0136481Y0090618D01*
X0136481Y0092563D01*
X0135737Y0094361D01*
X0134361Y0095737D01*
X0132563Y0096481D01*
X0130618Y0096481D01*
X0128820Y0095737D01*
X0127445Y0094361D01*
X0127118Y0093572D01*
X0070770Y0093572D01*
X0030977Y0053779D01*
X0030737Y0054361D01*
X0029361Y0055737D01*
X0027563Y0056481D01*
X0025618Y0056481D01*
X0023820Y0055737D01*
X0022445Y0054361D01*
X0022118Y0053572D01*
X0020253Y0053572D01*
X0018243Y0055581D01*
X0014938Y0055581D01*
X0012600Y0053243D01*
X0012600Y0049938D01*
X0014938Y0047600D01*
X0018243Y0047600D01*
X0019419Y0048775D02*
X0022490Y0048775D01*
X0023669Y0047595D02*
X0008522Y0047595D01*
X0009701Y0048775D02*
X0013763Y0048775D01*
X0012600Y0049955D02*
X0010781Y0049955D01*
X0010781Y0051134D02*
X0012600Y0051134D01*
X0012600Y0052314D02*
X0010781Y0052314D01*
X0010614Y0053494D02*
X0012850Y0053494D01*
X0014030Y0054673D02*
X0009434Y0054673D01*
X0006800Y0054673D02*
X0006381Y0054673D01*
X0006381Y0053494D02*
X0006800Y0053494D01*
X0006800Y0052314D02*
X0006381Y0052314D01*
X0006381Y0051134D02*
X0006800Y0051134D01*
X0006800Y0049955D02*
X0006381Y0049955D01*
X0006381Y0048775D02*
X0006800Y0048775D01*
X0006800Y0047595D02*
X0006381Y0047595D01*
X0006260Y0046416D02*
X0025460Y0046416D01*
X0027721Y0046416D02*
X0033614Y0046416D01*
X0032435Y0045236D02*
X0029861Y0045236D01*
X0030863Y0044057D02*
X0031255Y0044057D01*
X0031591Y0041591D02*
X0061591Y0071591D01*
X0131591Y0071591D01*
X0134565Y0067649D02*
X0138616Y0067649D01*
X0137441Y0068829D02*
X0135740Y0068829D01*
X0136229Y0070008D02*
X0136952Y0070008D01*
X0136700Y0071188D02*
X0136481Y0071188D01*
X0136481Y0072367D02*
X0136700Y0072367D01*
X0137107Y0073547D02*
X0136074Y0073547D01*
X0135371Y0074727D02*
X0137810Y0074727D01*
X0139230Y0075906D02*
X0133951Y0075906D01*
X0129230Y0075906D02*
X0058708Y0075906D01*
X0057528Y0074727D02*
X0127810Y0074727D01*
X0127441Y0068829D02*
X0061630Y0068829D01*
X0060451Y0067649D02*
X0128616Y0067649D01*
X0130618Y0061481D02*
X0128820Y0060737D01*
X0127445Y0059361D01*
X0126700Y0057563D01*
X0126700Y0055618D01*
X0127445Y0053820D01*
X0128820Y0052445D01*
X0130618Y0051700D01*
X0132563Y0051700D01*
X0134361Y0052445D01*
X0135737Y0053820D01*
X0136481Y0055618D01*
X0136481Y0057563D01*
X0135737Y0059361D01*
X0134361Y0060737D01*
X0132563Y0061481D01*
X0130618Y0061481D01*
X0128655Y0060571D02*
X0063373Y0060571D01*
X0062193Y0059392D02*
X0127475Y0059392D01*
X0126969Y0058212D02*
X0061014Y0058212D01*
X0059834Y0057032D02*
X0126700Y0057032D01*
X0126700Y0055853D02*
X0058654Y0055853D01*
X0057475Y0054673D02*
X0127091Y0054673D01*
X0127771Y0053494D02*
X0056295Y0053494D01*
X0055116Y0052314D02*
X0129136Y0052314D01*
X0134046Y0052314D02*
X0139136Y0052314D01*
X0137771Y0053494D02*
X0135410Y0053494D01*
X0136090Y0054673D02*
X0137091Y0054673D01*
X0136700Y0055853D02*
X0136481Y0055853D01*
X0136481Y0057032D02*
X0136700Y0057032D01*
X0136969Y0058212D02*
X0136212Y0058212D01*
X0135706Y0059392D02*
X0137475Y0059392D01*
X0138655Y0060571D02*
X0134526Y0060571D01*
X0138629Y0061751D02*
X0064553Y0061751D01*
X0064091Y0064091D02*
X0139091Y0064091D01*
X0141591Y0061591D01*
X0141591Y0056591D01*
X0145410Y0053494D02*
X0147548Y0053494D01*
X0147708Y0053274D02*
X0148274Y0052708D01*
X0148923Y0052237D01*
X0149636Y0051873D01*
X0150398Y0051625D01*
X0151181Y0051501D01*
X0151181Y0056181D01*
X0146501Y0056181D01*
X0146625Y0055398D01*
X0146873Y0054636D01*
X0147237Y0053923D01*
X0147708Y0053274D01*
X0148816Y0052314D02*
X0144046Y0052314D01*
X0146090Y0054673D02*
X0146861Y0054673D01*
X0146553Y0055853D02*
X0146481Y0055853D01*
X0146501Y0057000D02*
X0151181Y0057000D01*
X0151181Y0056181D01*
X0152000Y0056181D01*
X0152000Y0051501D01*
X0152783Y0051625D01*
X0153545Y0051873D01*
X0154259Y0052237D01*
X0154907Y0052708D01*
X0155473Y0053274D01*
X0155944Y0053923D01*
X0156308Y0054636D01*
X0156556Y0055398D01*
X0156680Y0056181D01*
X0152000Y0056181D01*
X0152000Y0057000D01*
X0151181Y0057000D01*
X0151181Y0061680D01*
X0150398Y0061556D01*
X0149636Y0061308D01*
X0148923Y0060944D01*
X0148274Y0060473D01*
X0147708Y0059907D01*
X0147237Y0059259D01*
X0146873Y0058545D01*
X0146625Y0057783D01*
X0146501Y0057000D01*
X0146507Y0057032D02*
X0146481Y0057032D01*
X0146212Y0058212D02*
X0146765Y0058212D01*
X0147333Y0059392D02*
X0145706Y0059392D01*
X0144526Y0060571D02*
X0148409Y0060571D01*
X0151181Y0060571D02*
X0152000Y0060571D01*
X0152000Y0061680D02*
X0152000Y0057000D01*
X0156680Y0057000D01*
X0156556Y0057783D01*
X0156308Y0058545D01*
X0155944Y0059259D01*
X0155473Y0059907D01*
X0154907Y0060473D01*
X0154259Y0060944D01*
X0153545Y0061308D01*
X0152783Y0061556D01*
X0152000Y0061680D01*
X0152000Y0059392D02*
X0151181Y0059392D01*
X0151181Y0058212D02*
X0152000Y0058212D01*
X0152000Y0057032D02*
X0151181Y0057032D01*
X0151181Y0055853D02*
X0152000Y0055853D01*
X0152000Y0054673D02*
X0151181Y0054673D01*
X0151181Y0053494D02*
X0152000Y0053494D01*
X0152000Y0052314D02*
X0151181Y0052314D01*
X0154365Y0052314D02*
X0167000Y0052314D01*
X0167000Y0053494D02*
X0155633Y0053494D01*
X0156320Y0054673D02*
X0167000Y0054673D01*
X0167000Y0055853D02*
X0156628Y0055853D01*
X0156675Y0057032D02*
X0167000Y0057032D01*
X0167000Y0058212D02*
X0156416Y0058212D01*
X0155848Y0059392D02*
X0167000Y0059392D01*
X0167000Y0060571D02*
X0154772Y0060571D01*
X0148355Y0067649D02*
X0144565Y0067649D01*
X0145740Y0068829D02*
X0147305Y0068829D01*
X0146752Y0070008D02*
X0146229Y0070008D01*
X0141591Y0071591D02*
X0141591Y0091591D01*
X0141591Y0111591D01*
X0137152Y0113654D02*
X0136029Y0113654D01*
X0135737Y0114361D02*
X0134361Y0115737D01*
X0132563Y0116481D01*
X0130618Y0116481D01*
X0128820Y0115737D01*
X0127445Y0114361D01*
X0127118Y0113572D01*
X0080770Y0113572D01*
X0030977Y0063779D01*
X0030737Y0064361D01*
X0029361Y0065737D01*
X0027563Y0066481D01*
X0025618Y0066481D01*
X0023820Y0065737D01*
X0022445Y0064361D01*
X0022118Y0063572D01*
X0020253Y0063572D01*
X0018243Y0065581D01*
X0014938Y0065581D01*
X0012600Y0063243D01*
X0012600Y0059938D01*
X0014938Y0057600D01*
X0018243Y0057600D01*
X0020253Y0059609D01*
X0022118Y0059609D01*
X0022445Y0058820D01*
X0023820Y0057445D01*
X0025618Y0056700D01*
X0027563Y0056700D01*
X0029361Y0057445D01*
X0030737Y0058820D01*
X0031063Y0059609D01*
X0032411Y0059609D01*
X0033572Y0060770D01*
X0082411Y0109609D01*
X0127118Y0109609D01*
X0127445Y0108820D01*
X0128820Y0107445D01*
X0130618Y0106700D01*
X0132563Y0106700D01*
X0134361Y0107445D01*
X0135737Y0108820D01*
X0136481Y0110618D01*
X0136481Y0112563D01*
X0135737Y0114361D01*
X0135264Y0114833D02*
X0137917Y0114833D01*
X0139488Y0116013D02*
X0133693Y0116013D01*
X0136481Y0112474D02*
X0136700Y0112474D01*
X0136700Y0111295D02*
X0136481Y0111295D01*
X0136273Y0110115D02*
X0136908Y0110115D01*
X0137397Y0108935D02*
X0135784Y0108935D01*
X0134672Y0107756D02*
X0138509Y0107756D01*
X0139609Y0106576D02*
X0079378Y0106576D01*
X0078198Y0105397D02*
X0139609Y0105397D01*
X0139609Y0104217D02*
X0077019Y0104217D01*
X0075839Y0103037D02*
X0139609Y0103037D01*
X0139609Y0101858D02*
X0074659Y0101858D01*
X0073480Y0100678D02*
X0139609Y0100678D01*
X0139609Y0099498D02*
X0072300Y0099498D01*
X0071121Y0098319D02*
X0139609Y0098319D01*
X0139609Y0097139D02*
X0069941Y0097139D01*
X0068761Y0095960D02*
X0129359Y0095960D01*
X0127864Y0094780D02*
X0067582Y0094780D01*
X0066402Y0093600D02*
X0127130Y0093600D01*
X0131591Y0091591D02*
X0071591Y0091591D01*
X0031591Y0051591D01*
X0026591Y0051591D01*
X0016591Y0051591D01*
X0019151Y0054673D02*
X0022757Y0054673D01*
X0024101Y0055853D02*
X0006260Y0055853D01*
X0006260Y0057032D02*
X0024815Y0057032D01*
X0023053Y0058212D02*
X0018855Y0058212D01*
X0020035Y0059392D02*
X0022208Y0059392D01*
X0022341Y0064110D02*
X0019714Y0064110D01*
X0018535Y0065290D02*
X0023373Y0065290D01*
X0025589Y0066469D02*
X0006260Y0066469D01*
X0006381Y0065290D02*
X0006800Y0065290D01*
X0006800Y0064110D02*
X0006381Y0064110D01*
X0006381Y0062930D02*
X0006800Y0062930D01*
X0006800Y0061751D02*
X0012600Y0061751D01*
X0012600Y0062930D02*
X0010781Y0062930D01*
X0009997Y0064110D02*
X0013467Y0064110D01*
X0014646Y0065290D02*
X0008818Y0065290D01*
X0008575Y0067649D02*
X0014889Y0067649D01*
X0013709Y0068829D02*
X0009755Y0068829D01*
X0010781Y0070008D02*
X0012600Y0070008D01*
X0012600Y0071188D02*
X0010781Y0071188D01*
X0010781Y0072367D02*
X0012600Y0072367D01*
X0012904Y0073547D02*
X0010560Y0073547D01*
X0009381Y0074727D02*
X0014083Y0074727D01*
X0016591Y0071591D02*
X0026591Y0071591D01*
X0031591Y0071591D01*
X0081591Y0121591D01*
X0119091Y0121591D01*
X0126591Y0129091D01*
X0126591Y0136591D01*
X0126591Y0146591D01*
X0130981Y0146683D02*
X0167000Y0146683D01*
X0167000Y0145503D02*
X0130981Y0145503D01*
X0130533Y0144324D02*
X0167000Y0144324D01*
X0167000Y0143144D02*
X0129353Y0143144D01*
X0128572Y0141965D02*
X0167000Y0141965D01*
X0167000Y0140785D02*
X0129244Y0140785D01*
X0130492Y0139605D02*
X0167000Y0139605D01*
X0167000Y0138426D02*
X0131124Y0138426D01*
X0131481Y0137246D02*
X0167000Y0137246D01*
X0167000Y0136067D02*
X0131481Y0136067D01*
X0131178Y0134887D02*
X0167000Y0134887D01*
X0167000Y0133707D02*
X0130624Y0133707D01*
X0129444Y0132528D02*
X0167000Y0132528D01*
X0167000Y0131348D02*
X0128572Y0131348D01*
X0128572Y0130168D02*
X0167000Y0130168D01*
X0167000Y0128989D02*
X0128572Y0128989D01*
X0128111Y0127809D02*
X0167000Y0127809D01*
X0167000Y0126630D02*
X0126931Y0126630D01*
X0125752Y0125450D02*
X0167000Y0125450D01*
X0167000Y0124270D02*
X0124572Y0124270D01*
X0123392Y0123091D02*
X0167000Y0123091D01*
X0167000Y0121911D02*
X0122213Y0121911D01*
X0121033Y0120732D02*
X0167000Y0120732D01*
X0167000Y0119552D02*
X0082354Y0119552D01*
X0081174Y0118372D02*
X0167000Y0118372D01*
X0167000Y0117193D02*
X0079994Y0117193D01*
X0078815Y0116013D02*
X0129488Y0116013D01*
X0127917Y0114833D02*
X0077635Y0114833D01*
X0076456Y0113654D02*
X0127152Y0113654D01*
X0131591Y0111591D02*
X0081591Y0111591D01*
X0031591Y0061591D01*
X0026591Y0061591D01*
X0016591Y0061591D01*
X0014326Y0058212D02*
X0009138Y0058212D01*
X0010318Y0059392D02*
X0013146Y0059392D01*
X0012600Y0060571D02*
X0010781Y0060571D01*
X0006800Y0060571D02*
X0006381Y0060571D01*
X0006381Y0059392D02*
X0006800Y0059392D01*
X0006800Y0058212D02*
X0006381Y0058212D01*
X0006381Y0067649D02*
X0006800Y0067649D01*
X0006800Y0068829D02*
X0006381Y0068829D01*
X0006381Y0070008D02*
X0006800Y0070008D01*
X0006800Y0071188D02*
X0006381Y0071188D01*
X0006381Y0072367D02*
X0006800Y0072367D01*
X0006800Y0073547D02*
X0006381Y0073547D01*
X0006381Y0074727D02*
X0006800Y0074727D01*
X0006260Y0075906D02*
X0024230Y0075906D01*
X0024686Y0077086D02*
X0006260Y0077086D01*
X0006260Y0078265D02*
X0022999Y0078265D01*
X0022445Y0078820D02*
X0021700Y0080618D01*
X0021700Y0082563D01*
X0022445Y0084361D01*
X0023820Y0085737D01*
X0025618Y0086481D01*
X0027563Y0086481D01*
X0029361Y0085737D01*
X0030737Y0084361D01*
X0031481Y0082563D01*
X0031481Y0080618D01*
X0030737Y0078820D01*
X0029361Y0077445D01*
X0027563Y0076700D01*
X0025618Y0076700D01*
X0023820Y0077445D01*
X0022445Y0078820D01*
X0022186Y0079445D02*
X0006260Y0079445D01*
X0006260Y0080625D02*
X0021700Y0080625D01*
X0021700Y0081804D02*
X0006260Y0081804D01*
X0006260Y0082984D02*
X0021874Y0082984D01*
X0022363Y0084164D02*
X0006260Y0084164D01*
X0006260Y0085343D02*
X0023427Y0085343D01*
X0023820Y0087445D02*
X0025618Y0086700D01*
X0027563Y0086700D01*
X0029361Y0087445D01*
X0030737Y0088820D01*
X0031481Y0090618D01*
X0031481Y0092563D01*
X0030737Y0094361D01*
X0029361Y0095737D01*
X0027563Y0096481D01*
X0025618Y0096481D01*
X0023820Y0095737D01*
X0022445Y0094361D01*
X0021700Y0092563D01*
X0021700Y0090618D01*
X0022445Y0088820D01*
X0023820Y0087445D01*
X0023562Y0087702D02*
X0006260Y0087702D01*
X0006260Y0086523D02*
X0043721Y0086523D01*
X0044901Y0087702D02*
X0029619Y0087702D01*
X0030762Y0088882D02*
X0046080Y0088882D01*
X0047260Y0090062D02*
X0031251Y0090062D01*
X0031481Y0091241D02*
X0048440Y0091241D01*
X0049619Y0092421D02*
X0031481Y0092421D01*
X0031052Y0093600D02*
X0050799Y0093600D01*
X0051978Y0094780D02*
X0030317Y0094780D01*
X0028822Y0095960D02*
X0053158Y0095960D01*
X0054338Y0097139D02*
X0029067Y0097139D01*
X0029259Y0097237D02*
X0029907Y0097708D01*
X0030473Y0098274D01*
X0030944Y0098923D01*
X0031308Y0099636D01*
X0031556Y0100398D01*
X0031680Y0101181D01*
X0027000Y0101181D01*
X0027000Y0096501D01*
X0027783Y0096625D01*
X0028545Y0096873D01*
X0029259Y0097237D01*
X0030506Y0098319D02*
X0055517Y0098319D01*
X0056697Y0099498D02*
X0031238Y0099498D01*
X0031600Y0100678D02*
X0057876Y0100678D01*
X0059056Y0101858D02*
X0027000Y0101858D01*
X0027000Y0102000D02*
X0031680Y0102000D01*
X0031556Y0102783D01*
X0031308Y0103545D01*
X0030944Y0104259D01*
X0030473Y0104907D01*
X0029907Y0105473D01*
X0029259Y0105944D01*
X0028545Y0106308D01*
X0027783Y0106556D01*
X0027563Y0106591D01*
X0027783Y0106625D01*
X0028545Y0106873D01*
X0029259Y0107237D01*
X0029907Y0107708D01*
X0030473Y0108274D01*
X0030944Y0108923D01*
X0031308Y0109636D01*
X0031556Y0110398D01*
X0031680Y0111181D01*
X0027000Y0111181D01*
X0027000Y0102000D01*
X0027000Y0101181D01*
X0026181Y0101181D01*
X0021501Y0101181D01*
X0021625Y0100398D01*
X0021873Y0099636D01*
X0022237Y0098923D01*
X0022708Y0098274D01*
X0023274Y0097708D01*
X0023923Y0097237D01*
X0024636Y0096873D01*
X0025398Y0096625D01*
X0026181Y0096501D01*
X0026181Y0101181D01*
X0026181Y0102000D01*
X0021501Y0102000D01*
X0021625Y0102783D01*
X0021873Y0103545D01*
X0022237Y0104259D01*
X0022708Y0104907D01*
X0023274Y0105473D01*
X0023923Y0105944D01*
X0024636Y0106308D01*
X0025398Y0106556D01*
X0025618Y0106591D01*
X0025398Y0106625D01*
X0024636Y0106873D01*
X0023923Y0107237D01*
X0023274Y0107708D01*
X0022708Y0108274D01*
X0022237Y0108923D01*
X0021873Y0109636D01*
X0021625Y0110398D01*
X0021501Y0111181D01*
X0026181Y0111181D01*
X0026181Y0112000D01*
X0021501Y0112000D01*
X0021625Y0112783D01*
X0021873Y0113545D01*
X0022237Y0114259D01*
X0022708Y0114907D01*
X0023274Y0115473D01*
X0023923Y0115944D01*
X0024636Y0116308D01*
X0025398Y0116556D01*
X0026181Y0116680D01*
X0026181Y0112000D01*
X0027000Y0112000D01*
X0027000Y0116680D01*
X0027783Y0116556D01*
X0028545Y0116308D01*
X0029259Y0115944D01*
X0029907Y0115473D01*
X0030473Y0114907D01*
X0030944Y0114259D01*
X0031308Y0113545D01*
X0031556Y0112783D01*
X0031680Y0112000D01*
X0027000Y0112000D01*
X0027000Y0111181D01*
X0026181Y0111181D01*
X0026181Y0106680D01*
X0026181Y0102000D01*
X0027000Y0102000D01*
X0026591Y0101591D02*
X0026591Y0111591D01*
X0031591Y0111591D01*
X0056591Y0136591D01*
X0116591Y0136591D01*
X0117000Y0137000D02*
X0117000Y0136181D01*
X0117000Y0131501D01*
X0117783Y0131625D01*
X0118545Y0131873D01*
X0119259Y0132237D01*
X0119907Y0132708D01*
X0120473Y0133274D01*
X0120944Y0133923D01*
X0121308Y0134636D01*
X0121556Y0135398D01*
X0121680Y0136181D01*
X0117000Y0136181D01*
X0116181Y0136181D01*
X0111501Y0136181D01*
X0111625Y0135398D01*
X0111873Y0134636D01*
X0112237Y0133923D01*
X0112708Y0133274D01*
X0113274Y0132708D01*
X0113923Y0132237D01*
X0114636Y0131873D01*
X0115398Y0131625D01*
X0116181Y0131501D01*
X0116181Y0136181D01*
X0116181Y0137000D01*
X0111501Y0137000D01*
X0111625Y0137783D01*
X0111873Y0138545D01*
X0112237Y0139259D01*
X0112708Y0139907D01*
X0113274Y0140473D01*
X0113923Y0140944D01*
X0114636Y0141308D01*
X0115398Y0141556D01*
X0116181Y0141680D01*
X0116181Y0137000D01*
X0117000Y0137000D01*
X0117000Y0141680D01*
X0117783Y0141556D01*
X0118545Y0141308D01*
X0119259Y0140944D01*
X0119907Y0140473D01*
X0120473Y0139907D01*
X0120944Y0139259D01*
X0121308Y0138545D01*
X0121556Y0137783D01*
X0121680Y0137000D01*
X0117000Y0137000D01*
X0117000Y0137246D02*
X0116181Y0137246D01*
X0116181Y0136067D02*
X0117000Y0136067D01*
X0117000Y0134887D02*
X0116181Y0134887D01*
X0116181Y0133707D02*
X0117000Y0133707D01*
X0117000Y0132528D02*
X0116181Y0132528D01*
X0113522Y0132528D02*
X0006260Y0132528D01*
X0006260Y0133707D02*
X0112393Y0133707D01*
X0111792Y0134887D02*
X0006260Y0134887D01*
X0006260Y0136067D02*
X0111520Y0136067D01*
X0111540Y0137246D02*
X0006260Y0137246D01*
X0006260Y0138426D02*
X0111834Y0138426D01*
X0112489Y0139605D02*
X0006260Y0139605D01*
X0006260Y0140785D02*
X0113703Y0140785D01*
X0116181Y0140785D02*
X0117000Y0140785D01*
X0117000Y0139605D02*
X0116181Y0139605D01*
X0116181Y0138426D02*
X0117000Y0138426D01*
X0119478Y0140785D02*
X0123937Y0140785D01*
X0124609Y0141965D02*
X0006260Y0141965D01*
X0006260Y0143144D02*
X0098545Y0143144D01*
X0097365Y0144324D02*
X0006260Y0144324D01*
X0006260Y0145503D02*
X0097000Y0145503D01*
X0097000Y0147863D02*
X0006260Y0147863D01*
X0006260Y0149042D02*
X0097550Y0149042D01*
X0101181Y0149042D02*
X0102000Y0149042D01*
X0102000Y0149500D02*
X0102000Y0147000D01*
X0101181Y0147000D01*
X0101181Y0149500D01*
X0102000Y0149500D01*
X0102000Y0147863D02*
X0101181Y0147863D01*
X0101181Y0146683D02*
X0006260Y0146683D01*
X0006260Y0131348D02*
X0124609Y0131348D01*
X0124609Y0130168D02*
X0006260Y0130168D01*
X0006260Y0128989D02*
X0123687Y0128989D01*
X0122508Y0127809D02*
X0006260Y0127809D01*
X0006260Y0126630D02*
X0121328Y0126630D01*
X0120148Y0125450D02*
X0029647Y0125450D01*
X0029361Y0125737D02*
X0030737Y0124361D01*
X0031481Y0122563D01*
X0031481Y0120618D01*
X0030737Y0118820D01*
X0029361Y0117445D01*
X0027563Y0116700D01*
X0025618Y0116700D01*
X0023820Y0117445D01*
X0022445Y0118820D01*
X0021700Y0120618D01*
X0021700Y0122563D01*
X0022445Y0124361D01*
X0023820Y0125737D01*
X0025618Y0126481D01*
X0027563Y0126481D01*
X0029361Y0125737D01*
X0030774Y0124270D02*
X0118969Y0124270D01*
X0119659Y0132528D02*
X0123737Y0132528D01*
X0122558Y0133707D02*
X0120788Y0133707D01*
X0121390Y0134887D02*
X0122003Y0134887D01*
X0121700Y0136067D02*
X0121662Y0136067D01*
X0121641Y0137246D02*
X0121700Y0137246D01*
X0121347Y0138426D02*
X0122057Y0138426D01*
X0122689Y0139605D02*
X0120692Y0139605D01*
X0123828Y0143144D02*
X0104636Y0143144D01*
X0105816Y0144324D02*
X0122648Y0144324D01*
X0122200Y0145503D02*
X0106181Y0145503D01*
X0106181Y0147863D02*
X0122200Y0147863D01*
X0122200Y0146683D02*
X0102000Y0146683D01*
X0102000Y0145503D02*
X0101181Y0145503D01*
X0101181Y0144324D02*
X0102000Y0144324D01*
X0102000Y0143144D02*
X0101181Y0143144D01*
X0105631Y0149042D02*
X0122833Y0149042D01*
X0130348Y0149042D02*
X0167000Y0149042D01*
X0167000Y0147863D02*
X0130981Y0147863D01*
X0143693Y0116013D02*
X0149057Y0116013D01*
X0147654Y0114833D02*
X0145264Y0114833D01*
X0146029Y0113654D02*
X0146929Y0113654D01*
X0146577Y0112474D02*
X0146481Y0112474D01*
X0146481Y0111295D02*
X0151181Y0111295D01*
X0152000Y0111295D02*
X0156619Y0111295D01*
X0156605Y0112474D02*
X0160134Y0112474D01*
X0163047Y0112474D02*
X0167000Y0112474D01*
X0167000Y0111295D02*
X0166562Y0111295D01*
X0167000Y0113654D02*
X0156252Y0113654D01*
X0155527Y0114833D02*
X0167000Y0114833D01*
X0167000Y0116013D02*
X0154124Y0116013D01*
X0152000Y0116013D02*
X0151181Y0116013D01*
X0151181Y0114833D02*
X0152000Y0114833D01*
X0152000Y0113654D02*
X0151181Y0113654D01*
X0151181Y0112474D02*
X0152000Y0112474D01*
X0152000Y0110115D02*
X0151181Y0110115D01*
X0151181Y0108935D02*
X0152000Y0108935D01*
X0152000Y0107756D02*
X0151181Y0107756D01*
X0151181Y0106576D02*
X0151895Y0106576D01*
X0150709Y0106576D02*
X0143572Y0106576D01*
X0143572Y0105397D02*
X0151336Y0105397D01*
X0151020Y0104217D02*
X0143572Y0104217D01*
X0143572Y0103037D02*
X0150704Y0103037D01*
X0150701Y0101858D02*
X0143572Y0101858D01*
X0143572Y0100678D02*
X0150701Y0100678D01*
X0150877Y0099498D02*
X0143572Y0099498D01*
X0143572Y0098319D02*
X0151193Y0098319D01*
X0151586Y0097139D02*
X0143572Y0097139D01*
X0143822Y0095960D02*
X0148953Y0095960D01*
X0147616Y0094780D02*
X0145317Y0094780D01*
X0146052Y0093600D02*
X0146901Y0093600D01*
X0146568Y0092421D02*
X0146481Y0092421D01*
X0146481Y0091241D02*
X0151181Y0091241D01*
X0152000Y0091241D02*
X0158140Y0091241D01*
X0156446Y0090062D02*
X0167000Y0090062D01*
X0167000Y0091241D02*
X0165041Y0091241D01*
X0167000Y0088882D02*
X0155915Y0088882D01*
X0154899Y0087702D02*
X0167000Y0087702D01*
X0167000Y0086523D02*
X0152135Y0086523D01*
X0152000Y0086523D02*
X0151181Y0086523D01*
X0151046Y0086523D02*
X0143572Y0086523D01*
X0143572Y0085343D02*
X0167000Y0085343D01*
X0167000Y0084164D02*
X0143572Y0084164D01*
X0143572Y0082984D02*
X0167000Y0082984D01*
X0167000Y0081804D02*
X0143572Y0081804D01*
X0143572Y0080625D02*
X0167000Y0080625D01*
X0167000Y0079445D02*
X0143572Y0079445D01*
X0143572Y0078265D02*
X0167000Y0078265D01*
X0167000Y0065290D02*
X0140693Y0065290D01*
X0141873Y0064110D02*
X0167000Y0064110D01*
X0167000Y0062930D02*
X0143052Y0062930D01*
X0143572Y0061751D02*
X0167000Y0061751D01*
X0167000Y0051134D02*
X0053936Y0051134D01*
X0052756Y0049955D02*
X0057153Y0049955D01*
X0055973Y0048775D02*
X0051577Y0048775D01*
X0050397Y0047595D02*
X0054794Y0047595D01*
X0053614Y0046416D02*
X0049218Y0046416D01*
X0048038Y0045236D02*
X0052435Y0045236D01*
X0051255Y0044057D02*
X0046858Y0044057D01*
X0045679Y0042877D02*
X0050075Y0042877D01*
X0048896Y0041697D02*
X0044499Y0041697D01*
X0043320Y0040518D02*
X0047716Y0040518D01*
X0046537Y0039338D02*
X0042140Y0039338D01*
X0040960Y0038159D02*
X0045357Y0038159D01*
X0044177Y0036979D02*
X0039781Y0036979D01*
X0038601Y0035799D02*
X0042998Y0035799D01*
X0041818Y0034620D02*
X0037421Y0034620D01*
X0036242Y0033440D02*
X0040638Y0033440D01*
X0039459Y0032261D02*
X0035062Y0032261D01*
X0033883Y0031081D02*
X0038279Y0031081D01*
X0037100Y0029901D02*
X0032703Y0029901D01*
X0031591Y0031591D02*
X0064091Y0064091D01*
X0057206Y0070008D02*
X0052810Y0070008D01*
X0053989Y0071188D02*
X0058386Y0071188D01*
X0059566Y0072367D02*
X0055169Y0072367D01*
X0056349Y0073547D02*
X0060745Y0073547D01*
X0059888Y0077086D02*
X0139609Y0077086D01*
X0139609Y0078265D02*
X0061067Y0078265D01*
X0062247Y0079445D02*
X0139609Y0079445D01*
X0139609Y0080625D02*
X0063426Y0080625D01*
X0064606Y0081804D02*
X0139609Y0081804D01*
X0139609Y0082984D02*
X0065786Y0082984D01*
X0066965Y0084164D02*
X0139609Y0084164D01*
X0139609Y0085343D02*
X0068145Y0085343D01*
X0069324Y0086523D02*
X0139609Y0086523D01*
X0138562Y0087702D02*
X0134619Y0087702D01*
X0135762Y0088882D02*
X0137419Y0088882D01*
X0136930Y0090062D02*
X0136251Y0090062D01*
X0136481Y0091241D02*
X0136700Y0091241D01*
X0136700Y0092421D02*
X0136481Y0092421D01*
X0136052Y0093600D02*
X0137130Y0093600D01*
X0137864Y0094780D02*
X0135317Y0094780D01*
X0133822Y0095960D02*
X0139359Y0095960D01*
X0146251Y0090062D02*
X0146735Y0090062D01*
X0147266Y0088882D02*
X0145762Y0088882D01*
X0144619Y0087702D02*
X0148282Y0087702D01*
X0151181Y0087702D02*
X0152000Y0087702D01*
X0152000Y0088882D02*
X0151181Y0088882D01*
X0151181Y0090062D02*
X0152000Y0090062D01*
X0152000Y0092421D02*
X0151181Y0092421D01*
X0151181Y0093600D02*
X0152000Y0093600D01*
X0152000Y0094780D02*
X0151181Y0094780D01*
X0151181Y0095960D02*
X0152000Y0095960D01*
X0148226Y0107756D02*
X0144672Y0107756D01*
X0145784Y0108935D02*
X0147230Y0108935D01*
X0146717Y0110115D02*
X0146273Y0110115D01*
X0128509Y0107756D02*
X0080557Y0107756D01*
X0081737Y0108935D02*
X0127397Y0108935D01*
X0127419Y0088882D02*
X0071684Y0088882D01*
X0070504Y0087702D02*
X0128562Y0087702D01*
X0141028Y0049955D02*
X0167000Y0049955D01*
X0167000Y0048775D02*
X0142208Y0048775D01*
X0143387Y0047595D02*
X0167000Y0047595D01*
X0167000Y0046416D02*
X0153213Y0046416D01*
X0153545Y0046308D02*
X0152783Y0046556D01*
X0152000Y0046680D01*
X0152000Y0042000D01*
X0156680Y0042000D01*
X0156556Y0042783D01*
X0156308Y0043545D01*
X0155944Y0044259D01*
X0155473Y0044907D01*
X0154907Y0045473D01*
X0154259Y0045944D01*
X0153545Y0046308D01*
X0152000Y0046416D02*
X0151181Y0046416D01*
X0151181Y0045236D02*
X0152000Y0045236D01*
X0152000Y0044057D02*
X0151181Y0044057D01*
X0151181Y0042877D02*
X0152000Y0042877D01*
X0152000Y0041697D02*
X0167000Y0041697D01*
X0167000Y0040518D02*
X0156575Y0040518D01*
X0156156Y0039338D02*
X0167000Y0039338D01*
X0167000Y0038159D02*
X0155358Y0038159D01*
X0153753Y0036979D02*
X0167000Y0036979D01*
X0167000Y0035799D02*
X0148425Y0035799D01*
X0149428Y0036979D02*
X0143237Y0036979D01*
X0139944Y0036979D02*
X0133237Y0036979D01*
X0132563Y0036700D02*
X0134361Y0037445D01*
X0135737Y0038820D01*
X0136481Y0040618D01*
X0136481Y0042563D01*
X0135737Y0044361D01*
X0134361Y0045737D01*
X0132563Y0046481D01*
X0130618Y0046481D01*
X0128820Y0045737D01*
X0127445Y0044361D01*
X0126700Y0042563D01*
X0126700Y0040618D01*
X0127445Y0038820D01*
X0128820Y0037445D01*
X0130618Y0036700D01*
X0132563Y0036700D01*
X0129944Y0036979D02*
X0049781Y0036979D01*
X0050960Y0038159D02*
X0128106Y0038159D01*
X0127230Y0039338D02*
X0052140Y0039338D01*
X0053320Y0040518D02*
X0126741Y0040518D01*
X0126700Y0041697D02*
X0054499Y0041697D01*
X0055679Y0042877D02*
X0126830Y0042877D01*
X0127319Y0044057D02*
X0056858Y0044057D01*
X0058038Y0045236D02*
X0128320Y0045236D01*
X0130460Y0046416D02*
X0059218Y0046416D01*
X0048601Y0035799D02*
X0104756Y0035799D01*
X0103128Y0034620D02*
X0047421Y0034620D01*
X0046242Y0033440D02*
X0102388Y0033440D01*
X0102000Y0032261D02*
X0045062Y0032261D01*
X0043883Y0031081D02*
X0102000Y0031081D01*
X0102000Y0029901D02*
X0042703Y0029901D01*
X0041523Y0028722D02*
X0102000Y0028722D01*
X0102000Y0027542D02*
X0040344Y0027542D01*
X0039164Y0026362D02*
X0102000Y0026362D01*
X0102000Y0025183D02*
X0037985Y0025183D01*
X0036805Y0024003D02*
X0102000Y0024003D01*
X0102000Y0022824D02*
X0035625Y0022824D01*
X0034446Y0021644D02*
X0039724Y0021644D01*
X0037681Y0020464D02*
X0033266Y0020464D01*
X0031591Y0021591D02*
X0026591Y0021591D01*
X0016591Y0021591D01*
X0013253Y0019285D02*
X0010211Y0019285D01*
X0010781Y0020464D02*
X0012600Y0020464D01*
X0014432Y0018105D02*
X0009031Y0018105D01*
X0006800Y0018105D02*
X0006381Y0018105D01*
X0006381Y0019285D02*
X0006800Y0019285D01*
X0006800Y0020464D02*
X0006381Y0020464D01*
X0006260Y0015746D02*
X0033930Y0015746D01*
X0033614Y0014566D02*
X0006260Y0014566D01*
X0006260Y0013387D02*
X0033298Y0013387D01*
X0033201Y0012207D02*
X0006260Y0012207D01*
X0006260Y0011027D02*
X0033201Y0011027D01*
X0033284Y0009848D02*
X0006260Y0009848D01*
X0006260Y0008668D02*
X0033600Y0008668D01*
X0033916Y0007489D02*
X0006260Y0007489D01*
X0006260Y0006309D02*
X0034565Y0006309D01*
X0034596Y0016926D02*
X0028108Y0016926D01*
X0030021Y0018105D02*
X0035277Y0018105D01*
X0036384Y0019285D02*
X0030929Y0019285D01*
X0029458Y0027542D02*
X0034740Y0027542D01*
X0035920Y0028722D02*
X0030638Y0028722D01*
X0031591Y0031591D02*
X0026591Y0031591D01*
X0016591Y0031591D01*
X0019365Y0028722D02*
X0022543Y0028722D01*
X0022703Y0034620D02*
X0019205Y0034620D01*
X0018802Y0038159D02*
X0023106Y0038159D01*
X0022230Y0039338D02*
X0019982Y0039338D01*
X0014593Y0045236D02*
X0008871Y0045236D01*
X0010051Y0044057D02*
X0013413Y0044057D01*
X0012600Y0042877D02*
X0010781Y0042877D01*
X0006800Y0042877D02*
X0006381Y0042877D01*
X0006381Y0044057D02*
X0006800Y0044057D01*
X0006800Y0045236D02*
X0006381Y0045236D01*
X0028237Y0036979D02*
X0034177Y0036979D01*
X0032998Y0035799D02*
X0029209Y0035799D01*
X0030478Y0034620D02*
X0031818Y0034620D01*
X0030075Y0038159D02*
X0035357Y0038159D01*
X0036537Y0039338D02*
X0030951Y0039338D01*
X0029512Y0047595D02*
X0034794Y0047595D01*
X0035973Y0048775D02*
X0030691Y0048775D01*
X0032756Y0049955D02*
X0037153Y0049955D01*
X0038333Y0051134D02*
X0033936Y0051134D01*
X0035116Y0052314D02*
X0039512Y0052314D01*
X0040692Y0053494D02*
X0036295Y0053494D01*
X0037475Y0054673D02*
X0041871Y0054673D01*
X0043051Y0055853D02*
X0038654Y0055853D01*
X0039834Y0057032D02*
X0044231Y0057032D01*
X0045410Y0058212D02*
X0041014Y0058212D01*
X0042193Y0059392D02*
X0046590Y0059392D01*
X0047770Y0060571D02*
X0043373Y0060571D01*
X0044553Y0061751D02*
X0048949Y0061751D01*
X0050129Y0062930D02*
X0045732Y0062930D01*
X0046912Y0064110D02*
X0051308Y0064110D01*
X0052488Y0065290D02*
X0048091Y0065290D01*
X0049271Y0066469D02*
X0053668Y0066469D01*
X0054847Y0067649D02*
X0050451Y0067649D01*
X0051630Y0068829D02*
X0056027Y0068829D01*
X0050745Y0073547D02*
X0046349Y0073547D01*
X0047528Y0074727D02*
X0051925Y0074727D01*
X0053105Y0075906D02*
X0048708Y0075906D01*
X0049888Y0077086D02*
X0054284Y0077086D01*
X0055464Y0078265D02*
X0051067Y0078265D01*
X0052247Y0079445D02*
X0056643Y0079445D01*
X0057823Y0080625D02*
X0053426Y0080625D01*
X0054606Y0081804D02*
X0059003Y0081804D01*
X0060182Y0082984D02*
X0055786Y0082984D01*
X0056965Y0084164D02*
X0061362Y0084164D01*
X0062541Y0085343D02*
X0058145Y0085343D01*
X0059324Y0086523D02*
X0063721Y0086523D01*
X0064901Y0087702D02*
X0060504Y0087702D01*
X0061684Y0088882D02*
X0066080Y0088882D01*
X0067260Y0090062D02*
X0062863Y0090062D01*
X0064043Y0091241D02*
X0068439Y0091241D01*
X0069619Y0092421D02*
X0065223Y0092421D01*
X0061978Y0094780D02*
X0057582Y0094780D01*
X0058761Y0095960D02*
X0063158Y0095960D01*
X0064338Y0097139D02*
X0059941Y0097139D01*
X0061121Y0098319D02*
X0065517Y0098319D01*
X0066697Y0099498D02*
X0062300Y0099498D01*
X0063480Y0100678D02*
X0067876Y0100678D01*
X0069056Y0101858D02*
X0064659Y0101858D01*
X0065839Y0103037D02*
X0070236Y0103037D01*
X0071415Y0104217D02*
X0067019Y0104217D01*
X0068198Y0105397D02*
X0072595Y0105397D01*
X0073774Y0106576D02*
X0069378Y0106576D01*
X0070557Y0107756D02*
X0074954Y0107756D01*
X0076134Y0108935D02*
X0071737Y0108935D01*
X0072917Y0110115D02*
X0077313Y0110115D01*
X0078493Y0111295D02*
X0074096Y0111295D01*
X0075276Y0112474D02*
X0079673Y0112474D01*
X0074391Y0117193D02*
X0028753Y0117193D01*
X0029124Y0116013D02*
X0073211Y0116013D01*
X0072032Y0114833D02*
X0030527Y0114833D01*
X0031252Y0113654D02*
X0070852Y0113654D01*
X0069673Y0112474D02*
X0031605Y0112474D01*
X0031464Y0110115D02*
X0067313Y0110115D01*
X0066134Y0108935D02*
X0030951Y0108935D01*
X0029955Y0107756D02*
X0064954Y0107756D01*
X0063774Y0106576D02*
X0027654Y0106576D01*
X0027000Y0106576D02*
X0026181Y0106576D01*
X0025527Y0106576D02*
X0006260Y0106576D01*
X0006260Y0105397D02*
X0023197Y0105397D01*
X0022216Y0104217D02*
X0006260Y0104217D01*
X0006260Y0103037D02*
X0021708Y0103037D01*
X0021581Y0100678D02*
X0006260Y0100678D01*
X0006260Y0099498D02*
X0021943Y0099498D01*
X0022675Y0098319D02*
X0006260Y0098319D01*
X0006260Y0097139D02*
X0024114Y0097139D01*
X0024359Y0095960D02*
X0006260Y0095960D01*
X0006260Y0094780D02*
X0022864Y0094780D01*
X0022130Y0093600D02*
X0006260Y0093600D01*
X0006260Y0092421D02*
X0021700Y0092421D01*
X0021700Y0091241D02*
X0006260Y0091241D01*
X0006260Y0090062D02*
X0021930Y0090062D01*
X0022419Y0088882D02*
X0006260Y0088882D01*
X0006260Y0101858D02*
X0026181Y0101858D01*
X0026181Y0103037D02*
X0027000Y0103037D01*
X0027000Y0104217D02*
X0026181Y0104217D01*
X0026181Y0105397D02*
X0027000Y0105397D01*
X0027000Y0107756D02*
X0026181Y0107756D01*
X0026181Y0108935D02*
X0027000Y0108935D01*
X0027000Y0110115D02*
X0026181Y0110115D01*
X0026181Y0111295D02*
X0006260Y0111295D01*
X0006260Y0112474D02*
X0021577Y0112474D01*
X0021929Y0113654D02*
X0006260Y0113654D01*
X0006260Y0114833D02*
X0022654Y0114833D01*
X0024057Y0116013D02*
X0006260Y0116013D01*
X0006260Y0117193D02*
X0024428Y0117193D01*
X0022893Y0118372D02*
X0006260Y0118372D01*
X0006260Y0119552D02*
X0022141Y0119552D01*
X0021700Y0120732D02*
X0006260Y0120732D01*
X0006260Y0121911D02*
X0021700Y0121911D01*
X0021918Y0123091D02*
X0006260Y0123091D01*
X0006260Y0124270D02*
X0022407Y0124270D01*
X0023534Y0125450D02*
X0006260Y0125450D01*
X0006260Y0110115D02*
X0021717Y0110115D01*
X0022230Y0108935D02*
X0006260Y0108935D01*
X0006260Y0107756D02*
X0023226Y0107756D01*
X0027000Y0111295D02*
X0068493Y0111295D01*
X0062595Y0105397D02*
X0029984Y0105397D01*
X0030966Y0104217D02*
X0061415Y0104217D01*
X0060236Y0103037D02*
X0031473Y0103037D01*
X0027000Y0100678D02*
X0026181Y0100678D01*
X0026181Y0099498D02*
X0027000Y0099498D01*
X0027000Y0098319D02*
X0026181Y0098319D01*
X0026181Y0097139D02*
X0027000Y0097139D01*
X0029754Y0085343D02*
X0042541Y0085343D01*
X0041362Y0084164D02*
X0030818Y0084164D01*
X0031307Y0082984D02*
X0040182Y0082984D01*
X0039003Y0081804D02*
X0031481Y0081804D01*
X0031481Y0080625D02*
X0037823Y0080625D01*
X0036643Y0079445D02*
X0030995Y0079445D01*
X0030182Y0078265D02*
X0035464Y0078265D01*
X0034284Y0077086D02*
X0028495Y0077086D01*
X0028951Y0075906D02*
X0033105Y0075906D01*
X0031925Y0074727D02*
X0030371Y0074727D01*
X0033989Y0071188D02*
X0038386Y0071188D01*
X0039566Y0072367D02*
X0035169Y0072367D01*
X0036349Y0073547D02*
X0040745Y0073547D01*
X0041925Y0074727D02*
X0037528Y0074727D01*
X0038708Y0075906D02*
X0043105Y0075906D01*
X0044284Y0077086D02*
X0039888Y0077086D01*
X0041067Y0078265D02*
X0045464Y0078265D01*
X0046643Y0079445D02*
X0042247Y0079445D01*
X0043426Y0080625D02*
X0047823Y0080625D01*
X0049003Y0081804D02*
X0044606Y0081804D01*
X0045786Y0082984D02*
X0050182Y0082984D01*
X0051362Y0084164D02*
X0046965Y0084164D01*
X0048145Y0085343D02*
X0052541Y0085343D01*
X0053721Y0086523D02*
X0049324Y0086523D01*
X0050504Y0087702D02*
X0054901Y0087702D01*
X0056080Y0088882D02*
X0051684Y0088882D01*
X0052863Y0090062D02*
X0057260Y0090062D01*
X0058439Y0091241D02*
X0054043Y0091241D01*
X0055222Y0092421D02*
X0059619Y0092421D01*
X0060799Y0093600D02*
X0056402Y0093600D01*
X0049566Y0072367D02*
X0045169Y0072367D01*
X0043989Y0071188D02*
X0048386Y0071188D01*
X0047206Y0070008D02*
X0042810Y0070008D01*
X0041630Y0068829D02*
X0046027Y0068829D01*
X0044847Y0067649D02*
X0040451Y0067649D01*
X0039271Y0066469D02*
X0043668Y0066469D01*
X0042488Y0065290D02*
X0038091Y0065290D01*
X0036912Y0064110D02*
X0041308Y0064110D01*
X0040129Y0062930D02*
X0035732Y0062930D01*
X0034553Y0061751D02*
X0038949Y0061751D01*
X0037770Y0060571D02*
X0033373Y0060571D01*
X0035410Y0058212D02*
X0030128Y0058212D01*
X0030973Y0059392D02*
X0036590Y0059392D01*
X0034231Y0057032D02*
X0028366Y0057032D01*
X0029080Y0055853D02*
X0033051Y0055853D01*
X0031871Y0054673D02*
X0030424Y0054673D01*
X0030840Y0064110D02*
X0031308Y0064110D01*
X0032488Y0065290D02*
X0029808Y0065290D01*
X0029565Y0067649D02*
X0034847Y0067649D01*
X0033668Y0066469D02*
X0027592Y0066469D01*
X0030740Y0068829D02*
X0036027Y0068829D01*
X0037206Y0070008D02*
X0032810Y0070008D01*
X0023616Y0067649D02*
X0018292Y0067649D01*
X0019472Y0068829D02*
X0022441Y0068829D01*
X0022810Y0074727D02*
X0019098Y0074727D01*
X0026181Y0112474D02*
X0027000Y0112474D01*
X0027000Y0113654D02*
X0026181Y0113654D01*
X0026181Y0114833D02*
X0027000Y0114833D01*
X0027000Y0116013D02*
X0026181Y0116013D01*
X0030289Y0118372D02*
X0075571Y0118372D01*
X0076750Y0119552D02*
X0031040Y0119552D01*
X0031481Y0120732D02*
X0077930Y0120732D01*
X0079109Y0121911D02*
X0031481Y0121911D01*
X0031263Y0123091D02*
X0080289Y0123091D01*
X0132721Y0046416D02*
X0138964Y0046416D01*
X0138320Y0045236D02*
X0134861Y0045236D01*
X0135863Y0044057D02*
X0137319Y0044057D01*
X0136830Y0042877D02*
X0136351Y0042877D01*
X0136481Y0041697D02*
X0136700Y0041697D01*
X0136741Y0040518D02*
X0136440Y0040518D01*
X0135951Y0039338D02*
X0137230Y0039338D01*
X0138106Y0038159D02*
X0135075Y0038159D01*
X0143572Y0046416D02*
X0149968Y0046416D01*
X0148037Y0045236D02*
X0144861Y0045236D01*
X0145863Y0044057D02*
X0147134Y0044057D01*
X0146656Y0042877D02*
X0146351Y0042877D01*
X0151181Y0040518D02*
X0152000Y0040518D01*
X0152000Y0039338D02*
X0151181Y0039338D01*
X0151181Y0038159D02*
X0152000Y0038159D01*
X0152000Y0036979D02*
X0151181Y0036979D01*
X0150053Y0034620D02*
X0167000Y0034620D01*
X0167000Y0033440D02*
X0150793Y0033440D01*
X0151181Y0032261D02*
X0167000Y0032261D01*
X0167000Y0031081D02*
X0151181Y0031081D01*
X0151181Y0029901D02*
X0167000Y0029901D01*
X0167000Y0028722D02*
X0151181Y0028722D01*
X0151181Y0027542D02*
X0167000Y0027542D01*
X0167000Y0026362D02*
X0151181Y0026362D01*
X0151181Y0025183D02*
X0167000Y0025183D01*
X0167000Y0024003D02*
X0151181Y0024003D01*
X0151181Y0022824D02*
X0167000Y0022824D01*
X0167000Y0021644D02*
X0160957Y0021644D01*
X0163000Y0020464D02*
X0167000Y0020464D01*
X0167000Y0019285D02*
X0164297Y0019285D01*
X0165404Y0018105D02*
X0167000Y0018105D01*
X0167000Y0016926D02*
X0166085Y0016926D01*
X0166751Y0015746D02*
X0167000Y0015746D01*
X0152224Y0021644D02*
X0151181Y0021644D01*
X0156525Y0042877D02*
X0167000Y0042877D01*
X0167000Y0044057D02*
X0156047Y0044057D01*
X0155144Y0045236D02*
X0167000Y0045236D01*
X0102000Y0021644D02*
X0048457Y0021644D01*
X0050500Y0020464D02*
X0102000Y0020464D01*
X0102000Y0019285D02*
X0051797Y0019285D01*
X0052904Y0018105D02*
X0102000Y0018105D01*
X0102000Y0016926D02*
X0053585Y0016926D01*
X0054251Y0015746D02*
X0102000Y0015746D01*
X0102000Y0014566D02*
X0054567Y0014566D01*
X0054883Y0013387D02*
X0102000Y0013387D01*
X0102000Y0012207D02*
X0054980Y0012207D01*
X0054980Y0011027D02*
X0102000Y0011027D01*
X0102000Y0009848D02*
X0054897Y0009848D01*
X0054581Y0008668D02*
X0102000Y0008668D01*
X0102000Y0007489D02*
X0054265Y0007489D01*
X0053616Y0006309D02*
X0102000Y0006309D01*
M02*
