G75*
%MOIN*%
%OFA0B0*%
%FSLAX25Y25*%
%IPPOS*%
%LPD*%
%AMOC8*
5,1,8,0,0,1.08239X$1,22.5*
%
%ADD10C,0.13398*%
%ADD11C,0.07800*%
%ADD12OC8,0.06000*%
%ADD13OC8,0.06800*%
D10*
X0044091Y0011591D03*
X0156591Y0011591D03*
X0161591Y0101591D03*
D11*
X0151591Y0111591D03*
X0141591Y0111591D03*
X0131591Y0111591D03*
X0131591Y0091591D03*
X0141591Y0091591D03*
X0151591Y0091591D03*
X0151591Y0071591D03*
X0141591Y0071591D03*
X0131591Y0071591D03*
X0131591Y0056591D03*
X0141591Y0056591D03*
X0151591Y0056591D03*
X0151591Y0041591D03*
X0141591Y0041591D03*
X0131591Y0041591D03*
X0026591Y0041591D03*
X0026591Y0031591D03*
X0026591Y0021591D03*
X0026591Y0051591D03*
X0026591Y0061591D03*
X0026591Y0071591D03*
X0026591Y0081591D03*
X0026591Y0091591D03*
X0026591Y0101591D03*
X0026591Y0111591D03*
X0026591Y0121591D03*
X0116591Y0136591D03*
X0126591Y0136591D03*
D12*
X0006591Y0021591D03*
X0016591Y0021591D03*
X0016591Y0031591D03*
X0016591Y0041591D03*
X0006591Y0041591D03*
X0006591Y0031591D03*
X0006591Y0051591D03*
X0006591Y0061591D03*
X0006591Y0071591D03*
X0016591Y0071591D03*
X0016591Y0061591D03*
X0016591Y0051591D03*
D13*
X0101591Y0146591D03*
X0126591Y0146591D03*
M02*
